<svg width="1440" height="264" viewBox="0 0 1440 264" fill="none" xmlns="http://www.w3.org/2000/svg">
<rect width="1440" height="264" fill="#171E2D"/>
<path d="M691.688 110.112C691.688 111.04 691.368 111.813 690.728 112.432C690.099 113.04 689.133 113.344 687.832 113.344H685.688V118H684.232V106.848H687.832C689.091 106.848 690.045 107.152 690.696 107.76C691.357 108.368 691.688 109.152 691.688 110.112ZM687.832 112.144C688.643 112.144 689.24 111.968 689.624 111.616C690.008 111.264 690.2 110.763 690.2 110.112C690.2 108.736 689.411 108.048 687.832 108.048H685.688V112.144H687.832ZM694.954 110.656C695.21 110.155 695.572 109.765 696.042 109.488C696.522 109.211 697.103 109.072 697.786 109.072V110.576H697.402C695.77 110.576 694.954 111.461 694.954 113.232V118H693.498V109.232H694.954V110.656ZM700.218 107.808C699.941 107.808 699.706 107.712 699.514 107.52C699.322 107.328 699.226 107.093 699.226 106.816C699.226 106.539 699.322 106.304 699.514 106.112C699.706 105.92 699.941 105.824 700.218 105.824C700.485 105.824 700.709 105.92 700.89 106.112C701.082 106.304 701.178 106.539 701.178 106.816C701.178 107.093 701.082 107.328 700.89 107.52C700.709 107.712 700.485 107.808 700.218 107.808ZM700.922 109.232V118H699.466V109.232H700.922ZM702.86 113.6C702.86 112.693 703.041 111.904 703.404 111.232C703.767 110.549 704.268 110.021 704.908 109.648C705.559 109.275 706.3 109.088 707.132 109.088C708.209 109.088 709.095 109.349 709.788 109.872C710.492 110.395 710.956 111.12 711.18 112.048H709.612C709.463 111.515 709.169 111.093 708.732 110.784C708.305 110.475 707.772 110.32 707.132 110.32C706.3 110.32 705.628 110.608 705.116 111.184C704.604 111.749 704.348 112.555 704.348 113.6C704.348 114.656 704.604 115.472 705.116 116.048C705.628 116.624 706.3 116.912 707.132 116.912C707.772 116.912 708.305 116.763 708.732 116.464C709.159 116.165 709.452 115.739 709.612 115.184H711.18C710.945 116.08 710.476 116.8 709.772 117.344C709.068 117.877 708.188 118.144 707.132 118.144C706.3 118.144 705.559 117.957 704.908 117.584C704.268 117.211 703.767 116.683 703.404 116C703.041 115.317 702.86 114.517 702.86 113.6ZM713.875 107.808C713.597 107.808 713.363 107.712 713.171 107.52C712.979 107.328 712.883 107.093 712.883 106.816C712.883 106.539 712.979 106.304 713.171 106.112C713.363 105.92 713.597 105.824 713.875 105.824C714.141 105.824 714.365 105.92 714.547 106.112C714.739 106.304 714.835 106.539 714.835 106.816C714.835 107.093 714.739 107.328 714.547 107.52C714.365 107.712 714.141 107.808 713.875 107.808ZM714.579 109.232V118H713.123V109.232H714.579ZM721.332 109.072C722.399 109.072 723.263 109.397 723.924 110.048C724.585 110.688 724.916 111.616 724.916 112.832V118H723.476V113.04C723.476 112.165 723.257 111.499 722.82 111.04C722.383 110.571 721.785 110.336 721.028 110.336C720.26 110.336 719.647 110.576 719.188 111.056C718.74 111.536 718.516 112.235 718.516 113.152V118H717.06V109.232H718.516V110.48C718.804 110.032 719.193 109.685 719.684 109.44C720.185 109.195 720.735 109.072 721.332 109.072ZM730.911 109.088C731.668 109.088 732.329 109.253 732.895 109.584C733.471 109.915 733.897 110.331 734.175 110.832V109.232H735.647V118.192C735.647 118.992 735.476 119.701 735.135 120.32C734.793 120.949 734.303 121.44 733.663 121.792C733.033 122.144 732.297 122.32 731.455 122.32C730.303 122.32 729.343 122.048 728.575 121.504C727.807 120.96 727.353 120.219 727.215 119.28H728.655C728.815 119.813 729.145 120.24 729.647 120.56C730.148 120.891 730.751 121.056 731.455 121.056C732.255 121.056 732.905 120.805 733.407 120.304C733.919 119.803 734.175 119.099 734.175 118.192V116.352C733.887 116.864 733.46 117.291 732.895 117.632C732.329 117.973 731.668 118.144 730.911 118.144C730.132 118.144 729.423 117.952 728.783 117.568C728.153 117.184 727.657 116.645 727.295 115.952C726.932 115.259 726.751 114.469 726.751 113.584C726.751 112.688 726.932 111.904 727.295 111.232C727.657 110.549 728.153 110.021 728.783 109.648C729.423 109.275 730.132 109.088 730.911 109.088ZM734.175 113.6C734.175 112.939 734.041 112.363 733.775 111.872C733.508 111.381 733.145 111.008 732.687 110.752C732.239 110.485 731.743 110.352 731.199 110.352C730.655 110.352 730.159 110.48 729.711 110.736C729.263 110.992 728.905 111.365 728.639 111.856C728.372 112.347 728.239 112.923 728.239 113.584C728.239 114.256 728.372 114.843 728.639 115.344C728.905 115.835 729.263 116.213 729.711 116.48C730.159 116.736 730.655 116.864 731.199 116.864C731.743 116.864 732.239 116.736 732.687 116.48C733.145 116.213 733.508 115.835 733.775 115.344C734.041 114.843 734.175 114.261 734.175 113.6Z" fill="#5E6678"/>
<path d="M590.536 106.848V108.032H585.688V111.792H589.624V112.976H585.688V118H584.232V106.848H590.536ZM600.295 113.28C600.295 113.557 600.279 113.851 600.247 114.16H593.239C593.292 115.024 593.585 115.701 594.119 116.192C594.663 116.672 595.319 116.912 596.087 116.912C596.716 116.912 597.239 116.768 597.655 116.48C598.081 116.181 598.38 115.787 598.551 115.296H600.119C599.884 116.139 599.415 116.827 598.711 117.36C598.007 117.883 597.132 118.144 596.087 118.144C595.255 118.144 594.508 117.957 593.847 117.584C593.196 117.211 592.684 116.683 592.311 116C591.937 115.307 591.751 114.507 591.751 113.6C591.751 112.693 591.932 111.899 592.295 111.216C592.657 110.533 593.164 110.011 593.815 109.648C594.476 109.275 595.233 109.088 596.087 109.088C596.919 109.088 597.655 109.269 598.295 109.632C598.935 109.995 599.425 110.496 599.767 111.136C600.119 111.765 600.295 112.48 600.295 113.28ZM598.791 112.976C598.791 112.421 598.668 111.947 598.423 111.552C598.177 111.147 597.841 110.843 597.415 110.64C596.999 110.427 596.535 110.32 596.023 110.32C595.287 110.32 594.657 110.555 594.135 111.024C593.623 111.493 593.329 112.144 593.255 112.976H598.791ZM601.672 113.584C601.672 112.688 601.854 111.904 602.216 111.232C602.579 110.549 603.075 110.021 603.704 109.648C604.344 109.275 605.054 109.088 605.832 109.088C606.6 109.088 607.267 109.253 607.832 109.584C608.398 109.915 608.819 110.331 609.096 110.832V109.232H610.568V118H609.096V116.368C608.808 116.88 608.376 117.307 607.8 117.648C607.235 117.979 606.574 118.144 605.816 118.144C605.038 118.144 604.334 117.952 603.704 117.568C603.075 117.184 602.579 116.645 602.216 115.952C601.854 115.259 601.672 114.469 601.672 113.584ZM609.096 113.6C609.096 112.939 608.963 112.363 608.696 111.872C608.43 111.381 608.067 111.008 607.608 110.752C607.16 110.485 606.664 110.352 606.12 110.352C605.576 110.352 605.08 110.48 604.632 110.736C604.184 110.992 603.827 111.365 603.56 111.856C603.294 112.347 603.16 112.923 603.16 113.584C603.16 114.256 603.294 114.843 603.56 115.344C603.827 115.835 604.184 116.213 604.632 116.48C605.08 116.736 605.576 116.864 606.12 116.864C606.664 116.864 607.16 116.736 607.608 116.48C608.067 116.213 608.43 115.835 608.696 115.344C608.963 114.843 609.096 114.261 609.096 113.6ZM614.805 110.432V115.6C614.805 116.027 614.896 116.331 615.077 116.512C615.258 116.683 615.573 116.768 616.021 116.768H617.093V118H615.781C614.97 118 614.362 117.813 613.957 117.44C613.552 117.067 613.349 116.453 613.349 115.6V110.432H612.213V109.232H613.349V107.024H614.805V109.232H617.093V110.432H614.805ZM626.633 109.232V118H625.177V116.704C624.9 117.152 624.51 117.504 624.009 117.76C623.518 118.005 622.974 118.128 622.377 118.128C621.694 118.128 621.081 117.989 620.537 117.712C619.993 117.424 619.561 116.997 619.241 116.432C618.932 115.867 618.777 115.179 618.777 114.368V109.232H620.217V114.176C620.217 115.04 620.436 115.707 620.873 116.176C621.31 116.635 621.908 116.864 622.665 116.864C623.444 116.864 624.057 116.624 624.505 116.144C624.953 115.664 625.177 114.965 625.177 114.048V109.232H626.633ZM630.547 110.656C630.803 110.155 631.166 109.765 631.635 109.488C632.115 109.211 632.697 109.072 633.379 109.072V110.576H632.995C631.363 110.576 630.547 111.461 630.547 113.232V118H629.091V109.232H630.547V110.656ZM643.06 113.28C643.06 113.557 643.044 113.851 643.012 114.16H636.004C636.057 115.024 636.351 115.701 636.884 116.192C637.428 116.672 638.084 116.912 638.852 116.912C639.481 116.912 640.004 116.768 640.42 116.48C640.847 116.181 641.145 115.787 641.316 115.296H642.884C642.649 116.139 642.18 116.827 641.476 117.36C640.772 117.883 639.897 118.144 638.852 118.144C638.02 118.144 637.273 117.957 636.612 117.584C635.961 117.211 635.449 116.683 635.076 116C634.703 115.307 634.516 114.507 634.516 113.6C634.516 112.693 634.697 111.899 635.06 111.216C635.423 110.533 635.929 110.011 636.58 109.648C637.241 109.275 637.999 109.088 638.852 109.088C639.684 109.088 640.42 109.269 641.06 109.632C641.7 109.995 642.191 110.496 642.532 111.136C642.884 111.765 643.06 112.48 643.06 113.28ZM641.556 112.976C641.556 112.421 641.433 111.947 641.188 111.552C640.943 111.147 640.607 110.843 640.18 110.64C639.764 110.427 639.3 110.32 638.788 110.32C638.052 110.32 637.423 110.555 636.9 111.024C636.388 111.493 636.095 112.144 636.02 112.976H641.556ZM648.086 118.144C647.414 118.144 646.811 118.032 646.278 117.808C645.745 117.573 645.323 117.253 645.014 116.848C644.705 116.432 644.534 115.957 644.502 115.424H646.006C646.049 115.861 646.251 116.219 646.614 116.496C646.987 116.773 647.473 116.912 648.07 116.912C648.625 116.912 649.062 116.789 649.382 116.544C649.702 116.299 649.862 115.989 649.862 115.616C649.862 115.232 649.691 114.949 649.35 114.768C649.009 114.576 648.481 114.389 647.766 114.208C647.115 114.037 646.582 113.867 646.166 113.696C645.761 113.515 645.409 113.253 645.11 112.912C644.822 112.56 644.678 112.101 644.678 111.536C644.678 111.088 644.811 110.677 645.078 110.304C645.345 109.931 645.723 109.637 646.214 109.424C646.705 109.2 647.265 109.088 647.894 109.088C648.865 109.088 649.649 109.333 650.246 109.824C650.843 110.315 651.163 110.987 651.206 111.84H649.75C649.718 111.381 649.531 111.013 649.19 110.736C648.859 110.459 648.411 110.32 647.846 110.32C647.323 110.32 646.907 110.432 646.598 110.656C646.289 110.88 646.134 111.173 646.134 111.536C646.134 111.824 646.225 112.064 646.406 112.256C646.598 112.437 646.833 112.587 647.11 112.704C647.398 112.811 647.793 112.933 648.294 113.072C648.923 113.243 649.435 113.413 649.83 113.584C650.225 113.744 650.561 113.989 650.838 114.32C651.126 114.651 651.275 115.083 651.286 115.616C651.286 116.096 651.153 116.528 650.886 116.912C650.619 117.296 650.241 117.6 649.75 117.824C649.27 118.037 648.715 118.144 648.086 118.144Z" fill="#5E6678"/>
<path d="M778.096 106.848V108.032H775.056V118H773.6V108.032H770.544V106.848H778.096ZM787.888 113.28C787.888 113.557 787.872 113.851 787.84 114.16H780.832C780.886 115.024 781.179 115.701 781.712 116.192C782.256 116.672 782.912 116.912 783.68 116.912C784.31 116.912 784.832 116.768 785.248 116.48C785.675 116.181 785.974 115.787 786.144 115.296H787.712C787.478 116.139 787.008 116.827 786.304 117.36C785.6 117.883 784.726 118.144 783.68 118.144C782.848 118.144 782.102 117.957 781.44 117.584C780.79 117.211 780.278 116.683 779.904 116C779.531 115.307 779.344 114.507 779.344 113.6C779.344 112.693 779.526 111.899 779.888 111.216C780.251 110.533 780.758 110.011 781.408 109.648C782.07 109.275 782.827 109.088 783.68 109.088C784.512 109.088 785.248 109.269 785.888 109.632C786.528 109.995 787.019 110.496 787.36 111.136C787.712 111.765 787.888 112.48 787.888 113.28ZM786.384 112.976C786.384 112.421 786.262 111.947 786.016 111.552C785.771 111.147 785.435 110.843 785.008 110.64C784.592 110.427 784.128 110.32 783.616 110.32C782.88 110.32 782.251 110.555 781.728 111.024C781.216 111.493 780.923 112.144 780.848 112.976H786.384ZM792.914 118.144C792.242 118.144 791.639 118.032 791.106 117.808C790.573 117.573 790.151 117.253 789.842 116.848C789.533 116.432 789.362 115.957 789.33 115.424H790.834C790.877 115.861 791.079 116.219 791.442 116.496C791.815 116.773 792.301 116.912 792.898 116.912C793.453 116.912 793.89 116.789 794.21 116.544C794.53 116.299 794.69 115.989 794.69 115.616C794.69 115.232 794.519 114.949 794.178 114.768C793.837 114.576 793.309 114.389 792.594 114.208C791.943 114.037 791.41 113.867 790.994 113.696C790.589 113.515 790.237 113.253 789.938 112.912C789.65 112.56 789.506 112.101 789.506 111.536C789.506 111.088 789.639 110.677 789.906 110.304C790.173 109.931 790.551 109.637 791.042 109.424C791.533 109.2 792.093 109.088 792.722 109.088C793.693 109.088 794.477 109.333 795.074 109.824C795.671 110.315 795.991 110.987 796.034 111.84H794.578C794.546 111.381 794.359 111.013 794.018 110.736C793.687 110.459 793.239 110.32 792.674 110.32C792.151 110.32 791.735 110.432 791.426 110.656C791.117 110.88 790.962 111.173 790.962 111.536C790.962 111.824 791.053 112.064 791.234 112.256C791.426 112.437 791.661 112.587 791.938 112.704C792.226 112.811 792.621 112.933 793.122 113.072C793.751 113.243 794.263 113.413 794.658 113.584C795.053 113.744 795.389 113.989 795.666 114.32C795.954 114.651 796.103 115.083 796.114 115.616C796.114 116.096 795.981 116.528 795.714 116.912C795.447 117.296 795.069 117.6 794.578 117.824C794.098 118.037 793.543 118.144 792.914 118.144ZM799.946 110.432V115.6C799.946 116.027 800.036 116.331 800.218 116.512C800.399 116.683 800.714 116.768 801.161 116.768H802.234V118H800.922C800.111 118 799.503 117.813 799.098 117.44C798.692 117.067 798.49 116.453 798.49 115.6V110.432H797.354V109.232H798.49V107.024H799.946V109.232H802.234V110.432H799.946ZM804.75 107.808C804.472 107.808 804.238 107.712 804.046 107.52C803.854 107.328 803.758 107.093 803.758 106.816C803.758 106.539 803.854 106.304 804.046 106.112C804.238 105.92 804.472 105.824 804.75 105.824C805.016 105.824 805.24 105.92 805.422 106.112C805.614 106.304 805.71 106.539 805.71 106.816C805.71 107.093 805.614 107.328 805.422 107.52C805.24 107.712 805.016 107.808 804.75 107.808ZM805.454 109.232V118H803.998V109.232H805.454ZM818.479 109.072C819.162 109.072 819.77 109.216 820.303 109.504C820.836 109.781 821.258 110.203 821.567 110.768C821.876 111.333 822.031 112.021 822.031 112.832V118H820.591V113.04C820.591 112.165 820.372 111.499 819.935 111.04C819.508 110.571 818.927 110.336 818.191 110.336C817.434 110.336 816.831 110.581 816.383 111.072C815.935 111.552 815.711 112.251 815.711 113.168V118H814.271V113.04C814.271 112.165 814.052 111.499 813.615 111.04C813.188 110.571 812.607 110.336 811.871 110.336C811.114 110.336 810.511 110.581 810.063 111.072C809.615 111.552 809.391 112.251 809.391 113.168V118H807.935V109.232H809.391V110.496C809.679 110.037 810.063 109.685 810.543 109.44C811.034 109.195 811.572 109.072 812.159 109.072C812.895 109.072 813.546 109.237 814.111 109.568C814.676 109.899 815.098 110.384 815.375 111.024C815.62 110.405 816.026 109.925 816.591 109.584C817.156 109.243 817.786 109.072 818.479 109.072ZM828.244 118.144C827.422 118.144 826.676 117.957 826.004 117.584C825.342 117.211 824.82 116.683 824.436 116C824.062 115.307 823.876 114.507 823.876 113.6C823.876 112.704 824.068 111.915 824.452 111.232C824.846 110.539 825.38 110.011 826.052 109.648C826.724 109.275 827.476 109.088 828.308 109.088C829.14 109.088 829.892 109.275 830.564 109.648C831.236 110.011 831.764 110.533 832.148 111.216C832.542 111.899 832.74 112.693 832.74 113.6C832.74 114.507 832.537 115.307 832.132 116C831.737 116.683 831.198 117.211 830.516 117.584C829.833 117.957 829.076 118.144 828.244 118.144ZM828.244 116.864C828.766 116.864 829.257 116.741 829.716 116.496C830.174 116.251 830.542 115.883 830.82 115.392C831.108 114.901 831.252 114.304 831.252 113.6C831.252 112.896 831.113 112.299 830.836 111.808C830.558 111.317 830.196 110.955 829.748 110.72C829.3 110.475 828.814 110.352 828.292 110.352C827.758 110.352 827.268 110.475 826.82 110.72C826.382 110.955 826.03 111.317 825.764 111.808C825.497 112.299 825.364 112.896 825.364 113.6C825.364 114.315 825.492 114.917 825.748 115.408C826.014 115.899 826.366 116.267 826.804 116.512C827.241 116.747 827.721 116.864 828.244 116.864ZM838.926 109.072C839.993 109.072 840.857 109.397 841.518 110.048C842.179 110.688 842.51 111.616 842.51 112.832V118H841.07V113.04C841.07 112.165 840.851 111.499 840.414 111.04C839.977 110.571 839.379 110.336 838.622 110.336C837.854 110.336 837.241 110.576 836.782 111.056C836.334 111.536 836.11 112.235 836.11 113.152V118H834.654V109.232H836.11V110.48C836.398 110.032 836.787 109.685 837.278 109.44C837.779 109.195 838.329 109.072 838.926 109.072ZM845.64 107.808C845.363 107.808 845.128 107.712 844.936 107.52C844.744 107.328 844.648 107.093 844.648 106.816C844.648 106.539 844.744 106.304 844.936 106.112C845.128 105.92 845.363 105.824 845.64 105.824C845.907 105.824 846.131 105.92 846.312 106.112C846.504 106.304 846.6 106.539 846.6 106.816C846.6 107.093 846.504 107.328 846.312 107.52C846.131 107.712 845.907 107.808 845.64 107.808ZM846.344 109.232V118H844.888V109.232H846.344ZM848.282 113.584C848.282 112.688 848.463 111.904 848.826 111.232C849.188 110.549 849.684 110.021 850.314 109.648C850.954 109.275 851.663 109.088 852.442 109.088C853.21 109.088 853.876 109.253 854.442 109.584C855.007 109.915 855.428 110.331 855.706 110.832V109.232H857.178V118H855.706V116.368C855.418 116.88 854.986 117.307 854.41 117.648C853.844 117.979 853.183 118.144 852.426 118.144C851.647 118.144 850.943 117.952 850.314 117.568C849.684 117.184 849.188 116.645 848.826 115.952C848.463 115.259 848.282 114.469 848.282 113.584ZM855.706 113.6C855.706 112.939 855.572 112.363 855.306 111.872C855.039 111.381 854.676 111.008 854.218 110.752C853.77 110.485 853.274 110.352 852.73 110.352C852.186 110.352 851.69 110.48 851.242 110.736C850.794 110.992 850.436 111.365 850.17 111.856C849.903 112.347 849.77 112.923 849.77 113.584C849.77 114.256 849.903 114.843 850.17 115.344C850.436 115.835 850.794 116.213 851.242 116.48C851.69 116.736 852.186 116.864 852.73 116.864C853.274 116.864 853.77 116.736 854.218 116.48C854.676 116.213 855.039 115.835 855.306 115.344C855.572 114.843 855.706 114.261 855.706 113.6ZM861.094 106.16V118H859.638V106.16H861.094ZM866.68 118.144C866.008 118.144 865.405 118.032 864.872 117.808C864.338 117.573 863.917 117.253 863.608 116.848C863.298 116.432 863.128 115.957 863.096 115.424H864.6C864.642 115.861 864.845 116.219 865.208 116.496C865.581 116.773 866.066 116.912 866.664 116.912C867.218 116.912 867.656 116.789 867.976 116.544C868.296 116.299 868.456 115.989 868.456 115.616C868.456 115.232 868.285 114.949 867.944 114.768C867.602 114.576 867.074 114.389 866.36 114.208C865.709 114.037 865.176 113.867 864.76 113.696C864.354 113.515 864.002 113.253 863.704 112.912C863.416 112.56 863.272 112.101 863.272 111.536C863.272 111.088 863.405 110.677 863.672 110.304C863.938 109.931 864.317 109.637 864.808 109.424C865.298 109.2 865.858 109.088 866.488 109.088C867.458 109.088 868.242 109.333 868.84 109.824C869.437 110.315 869.757 110.987 869.8 111.84H868.344C868.312 111.381 868.125 111.013 867.784 110.736C867.453 110.459 867.005 110.32 866.44 110.32C865.917 110.32 865.501 110.432 865.192 110.656C864.882 110.88 864.728 111.173 864.728 111.536C864.728 111.824 864.818 112.064 865 112.256C865.192 112.437 865.426 112.587 865.704 112.704C865.992 112.811 866.386 112.933 866.888 113.072C867.517 113.243 868.029 113.413 868.424 113.584C868.818 113.744 869.154 113.989 869.432 114.32C869.72 114.651 869.869 115.083 869.88 115.616C869.88 116.096 869.746 116.528 869.48 116.912C869.213 117.296 868.834 117.6 868.344 117.824C867.864 118.037 867.309 118.144 866.68 118.144Z" fill="#5E6678"/>
<path d="M510.824 115.52H505.96L505.064 118H503.528L507.56 106.912H509.24L513.256 118H511.72L510.824 115.52ZM510.408 114.336L508.392 108.704L506.376 114.336H510.408ZM516.469 110.864C516.768 110.341 517.205 109.915 517.781 109.584C518.357 109.253 519.013 109.088 519.749 109.088C520.539 109.088 521.248 109.275 521.877 109.648C522.507 110.021 523.003 110.549 523.365 111.232C523.728 111.904 523.909 112.688 523.909 113.584C523.909 114.469 523.728 115.259 523.365 115.952C523.003 116.645 522.501 117.184 521.861 117.568C521.232 117.952 520.528 118.144 519.749 118.144C518.992 118.144 518.325 117.979 517.749 117.648C517.184 117.317 516.757 116.896 516.469 116.384V118H515.013V106.16H516.469V110.864ZM522.421 113.584C522.421 112.923 522.288 112.347 522.021 111.856C521.755 111.365 521.392 110.992 520.933 110.736C520.485 110.48 519.989 110.352 519.445 110.352C518.912 110.352 518.416 110.485 517.957 110.752C517.509 111.008 517.147 111.387 516.869 111.888C516.603 112.379 516.469 112.949 516.469 113.6C516.469 114.261 516.603 114.843 516.869 115.344C517.147 115.835 517.509 116.213 517.957 116.48C518.416 116.736 518.912 116.864 519.445 116.864C519.989 116.864 520.485 116.736 520.933 116.48C521.392 116.213 521.755 115.835 522.021 115.344C522.288 114.843 522.421 114.256 522.421 113.584ZM529.65 118.144C528.828 118.144 528.082 117.957 527.41 117.584C526.748 117.211 526.226 116.683 525.842 116C525.468 115.307 525.282 114.507 525.282 113.6C525.282 112.704 525.474 111.915 525.858 111.232C526.252 110.539 526.786 110.011 527.458 109.648C528.13 109.275 528.882 109.088 529.714 109.088C530.546 109.088 531.298 109.275 531.97 109.648C532.642 110.011 533.17 110.533 533.554 111.216C533.948 111.899 534.146 112.693 534.146 113.6C534.146 114.507 533.943 115.307 533.538 116C533.143 116.683 532.604 117.211 531.922 117.584C531.239 117.957 530.482 118.144 529.65 118.144ZM529.65 116.864C530.172 116.864 530.663 116.741 531.122 116.496C531.58 116.251 531.948 115.883 532.226 115.392C532.514 114.901 532.658 114.304 532.658 113.6C532.658 112.896 532.519 112.299 532.242 111.808C531.964 111.317 531.602 110.955 531.154 110.72C530.706 110.475 530.22 110.352 529.698 110.352C529.164 110.352 528.674 110.475 528.226 110.72C527.788 110.955 527.436 111.317 527.17 111.808C526.903 112.299 526.77 112.896 526.77 113.6C526.77 114.315 526.898 114.917 527.154 115.408C527.42 115.899 527.772 116.267 528.21 116.512C528.647 116.747 529.127 116.864 529.65 116.864ZM543.836 109.232V118H542.38V116.704C542.103 117.152 541.713 117.504 541.212 117.76C540.721 118.005 540.177 118.128 539.58 118.128C538.897 118.128 538.284 117.989 537.74 117.712C537.196 117.424 536.764 116.997 536.444 116.432C536.135 115.867 535.98 115.179 535.98 114.368V109.232H537.42V114.176C537.42 115.04 537.639 115.707 538.076 116.176C538.513 116.635 539.111 116.864 539.868 116.864C540.647 116.864 541.26 116.624 541.708 116.144C542.156 115.664 542.38 114.965 542.38 114.048V109.232H543.836ZM548.071 110.432V115.6C548.071 116.027 548.161 116.331 548.343 116.512C548.524 116.683 548.839 116.768 549.286 116.768H550.359V118H549.047C548.236 118 547.628 117.813 547.223 117.44C546.817 117.067 546.615 116.453 546.615 115.6V110.432H545.479V109.232H546.615V107.024H548.071V109.232H550.359V110.432H548.071Z" fill="#5E6678"/>
<path d="M910.824 106.848V118H909.368V112.944H903.688V118H902.232V106.848H903.688V111.744H909.368V106.848H910.824ZM921.31 113.28C921.31 113.557 921.294 113.851 921.262 114.16H914.254C914.307 115.024 914.601 115.701 915.134 116.192C915.678 116.672 916.334 116.912 917.102 116.912C917.731 116.912 918.254 116.768 918.67 116.48C919.097 116.181 919.395 115.787 919.566 115.296H921.134C920.899 116.139 920.43 116.827 919.726 117.36C919.022 117.883 918.147 118.144 917.102 118.144C916.27 118.144 915.523 117.957 914.862 117.584C914.211 117.211 913.699 116.683 913.326 116C912.953 115.307 912.766 114.507 912.766 113.6C912.766 112.693 912.947 111.899 913.31 111.216C913.673 110.533 914.179 110.011 914.83 109.648C915.491 109.275 916.249 109.088 917.102 109.088C917.934 109.088 918.67 109.269 919.31 109.632C919.95 109.995 920.441 110.496 920.782 111.136C921.134 111.765 921.31 112.48 921.31 113.28ZM919.806 112.976C919.806 112.421 919.683 111.947 919.438 111.552C919.193 111.147 918.857 110.843 918.43 110.64C918.014 110.427 917.55 110.32 917.038 110.32C916.302 110.32 915.673 110.555 915.15 111.024C914.638 111.493 914.345 112.144 914.27 112.976H919.806ZM924.688 106.16V118H923.232V106.16H924.688ZM928.626 110.848C928.914 110.347 929.34 109.931 929.906 109.6C930.482 109.259 931.148 109.088 931.906 109.088C932.684 109.088 933.388 109.275 934.017 109.648C934.657 110.021 935.159 110.549 935.522 111.232C935.884 111.904 936.066 112.688 936.066 113.584C936.066 114.469 935.884 115.259 935.522 115.952C935.159 116.645 934.657 117.184 934.017 117.568C933.388 117.952 932.684 118.144 931.906 118.144C931.159 118.144 930.498 117.979 929.922 117.648C929.356 117.307 928.924 116.885 928.626 116.384V122.16H927.17V109.232H928.626V110.848ZM934.578 113.584C934.578 112.923 934.444 112.347 934.178 111.856C933.911 111.365 933.548 110.992 933.09 110.736C932.642 110.48 932.146 110.352 931.602 110.352C931.068 110.352 930.572 110.485 930.114 110.752C929.666 111.008 929.303 111.387 929.026 111.888C928.759 112.379 928.626 112.949 928.626 113.6C928.626 114.261 928.759 114.843 929.026 115.344C929.303 115.835 929.666 116.213 930.114 116.48C930.572 116.736 931.068 116.864 931.602 116.864C932.146 116.864 932.642 116.736 933.09 116.48C933.548 116.213 933.911 115.835 934.178 115.344C934.444 114.843 934.578 114.256 934.578 113.584Z" fill="#5E6678"/>
<path d="M591.464 230.048C590.419 230.048 589.464 229.797 588.6 229.296C587.747 228.795 587.069 228.112 586.568 227.248C586.077 226.384 585.832 225.435 585.832 224.4C585.832 223.365 586.077 222.416 586.568 221.552C587.069 220.688 587.752 220.005 588.616 219.504C589.48 219.003 590.44 218.752 591.496 218.752C592.552 218.752 593.507 218.997 594.36 219.488C595.224 219.979 595.901 220.656 596.392 221.52C596.883 222.373 597.128 223.323 597.128 224.368C597.128 225.413 596.877 226.373 596.376 227.248C595.875 228.112 595.192 228.795 594.328 229.296C593.464 229.797 592.509 230.048 591.464 230.048ZM591.464 229.456C592.403 229.456 593.256 229.232 594.024 228.784C594.792 228.325 595.4 227.712 595.848 226.944C596.296 226.165 596.52 225.307 596.52 224.368C596.52 223.429 596.301 222.581 595.864 221.824C595.427 221.056 594.824 220.453 594.056 220.016C593.299 219.568 592.445 219.344 591.496 219.344C590.547 219.344 589.683 219.568 588.904 220.016C588.136 220.464 587.528 221.077 587.08 221.856C586.643 222.624 586.424 223.472 586.424 224.4C586.424 225.328 586.643 226.181 587.08 226.96C587.528 227.728 588.136 228.336 588.904 228.784C589.672 229.232 590.525 229.456 591.464 229.456ZM591.608 227.728C590.979 227.728 590.408 227.589 589.896 227.312C589.395 227.024 589 226.629 588.712 226.128C588.424 225.616 588.28 225.04 588.28 224.4C588.28 223.76 588.424 223.189 588.712 222.688C589 222.176 589.395 221.781 589.896 221.504C590.408 221.216 590.979 221.072 591.608 221.072C592.152 221.072 592.643 221.184 593.08 221.408C593.528 221.621 593.885 221.92 594.152 222.304L593.464 222.816C593.24 222.507 592.968 222.277 592.648 222.128C592.328 221.979 591.976 221.904 591.592 221.904C590.899 221.904 590.323 222.133 589.864 222.592C589.416 223.051 589.192 223.653 589.192 224.4C589.192 225.147 589.416 225.749 589.864 226.208C590.323 226.667 590.899 226.896 591.592 226.896C591.976 226.896 592.328 226.821 592.648 226.672C592.968 226.523 593.24 226.293 593.464 225.984L594.152 226.48C593.885 226.875 593.528 227.184 593.08 227.408C592.643 227.621 592.152 227.728 591.608 227.728Z" fill="#5E6678"/>
<path d="M616.48 228.976V230H608.624V229.184L613.28 224.624C613.867 224.048 614.261 223.552 614.464 223.136C614.677 222.709 614.784 222.283 614.784 221.856C614.784 221.195 614.555 220.683 614.096 220.32C613.648 219.947 613.003 219.76 612.16 219.76C610.848 219.76 609.829 220.176 609.104 221.008L608.288 220.304C608.725 219.792 609.28 219.397 609.952 219.12C610.635 218.843 611.403 218.704 612.256 218.704C613.397 218.704 614.299 218.976 614.96 219.52C615.632 220.053 615.968 220.789 615.968 221.728C615.968 222.304 615.84 222.859 615.584 223.392C615.328 223.925 614.843 224.539 614.128 225.232L610.32 228.976H616.48ZM622.327 230.096C621.463 230.096 620.69 229.867 620.007 229.408C619.335 228.949 618.807 228.293 618.423 227.44C618.05 226.576 617.863 225.563 617.863 224.4C617.863 223.237 618.05 222.229 618.423 221.376C618.807 220.512 619.335 219.851 620.007 219.392C620.69 218.933 621.463 218.704 622.327 218.704C623.191 218.704 623.959 218.933 624.631 219.392C625.314 219.851 625.847 220.512 626.231 221.376C626.615 222.229 626.807 223.237 626.807 224.4C626.807 225.563 626.615 226.576 626.231 227.44C625.847 228.293 625.314 228.949 624.631 229.408C623.959 229.867 623.191 230.096 622.327 230.096ZM622.327 229.04C622.978 229.04 623.549 228.859 624.039 228.496C624.541 228.133 624.93 227.605 625.207 226.912C625.485 226.219 625.623 225.381 625.623 224.4C625.623 223.419 625.485 222.581 625.207 221.888C624.93 221.195 624.541 220.667 624.039 220.304C623.549 219.941 622.978 219.76 622.327 219.76C621.677 219.76 621.101 219.941 620.599 220.304C620.109 220.667 619.725 221.195 619.447 221.888C619.17 222.581 619.031 223.419 619.031 224.4C619.031 225.381 619.17 226.219 619.447 226.912C619.725 227.605 620.109 228.133 620.599 228.496C621.101 228.859 621.677 229.04 622.327 229.04ZM636.074 228.976V230H628.218V229.184L632.874 224.624C633.46 224.048 633.855 223.552 634.058 223.136C634.271 222.709 634.378 222.283 634.378 221.856C634.378 221.195 634.148 220.683 633.69 220.32C633.242 219.947 632.596 219.76 631.754 219.76C630.442 219.76 629.423 220.176 628.698 221.008L627.882 220.304C628.319 219.792 628.874 219.397 629.546 219.12C630.228 218.843 630.996 218.704 631.85 218.704C632.991 218.704 633.892 218.976 634.554 219.52C635.226 220.053 635.562 220.789 635.562 221.728C635.562 222.304 635.434 222.859 635.178 223.392C634.922 223.925 634.436 224.539 633.722 225.232L629.914 228.976H636.074ZM641.921 230.096C641.057 230.096 640.284 229.867 639.601 229.408C638.929 228.949 638.401 228.293 638.017 227.44C637.644 226.576 637.457 225.563 637.457 224.4C637.457 223.237 637.644 222.229 638.017 221.376C638.401 220.512 638.929 219.851 639.601 219.392C640.284 218.933 641.057 218.704 641.921 218.704C642.785 218.704 643.553 218.933 644.225 219.392C644.908 219.851 645.441 220.512 645.825 221.376C646.209 222.229 646.401 223.237 646.401 224.4C646.401 225.563 646.209 226.576 645.825 227.44C645.441 228.293 644.908 228.949 644.225 229.408C643.553 229.867 642.785 230.096 641.921 230.096ZM641.921 229.04C642.572 229.04 643.142 228.859 643.633 228.496C644.134 228.133 644.524 227.605 644.801 226.912C645.078 226.219 645.217 225.381 645.217 224.4C645.217 223.419 645.078 222.581 644.801 221.888C644.524 221.195 644.134 220.667 643.633 220.304C643.142 219.941 642.572 219.76 641.921 219.76C641.27 219.76 640.694 219.941 640.193 220.304C639.702 220.667 639.318 221.195 639.041 221.888C638.764 222.581 638.625 223.419 638.625 224.4C638.625 225.381 638.764 226.219 639.041 226.912C639.318 227.605 639.702 228.133 640.193 228.496C640.694 228.859 641.27 229.04 641.921 229.04ZM660.254 227.008H654.014L652.67 230H651.438L656.558 218.8H657.726L662.846 230H661.598L660.254 227.008ZM659.822 226.048L657.134 220.032L654.446 226.048H659.822ZM668.747 221.52C669.803 221.52 670.64 221.829 671.259 222.448C671.888 223.056 672.203 223.947 672.203 225.12V230H671.067V225.232C671.067 224.357 670.848 223.691 670.411 223.232C669.974 222.773 669.35 222.544 668.539 222.544C667.632 222.544 666.912 222.816 666.379 223.36C665.856 223.893 665.595 224.635 665.595 225.584V230H664.459V221.584H665.547V223.136C665.856 222.624 666.283 222.229 666.827 221.952C667.382 221.664 668.022 221.52 668.747 221.52ZM678.231 221.52C679.33 221.52 680.172 221.797 680.759 222.352C681.346 222.896 681.639 223.707 681.639 224.784V230H680.551V228.688C680.295 229.125 679.916 229.467 679.415 229.712C678.924 229.957 678.338 230.08 677.655 230.08C676.716 230.08 675.97 229.856 675.415 229.408C674.86 228.96 674.583 228.368 674.583 227.632C674.583 226.917 674.839 226.341 675.351 225.904C675.874 225.467 676.7 225.248 677.831 225.248H680.503V224.736C680.503 224.011 680.3 223.461 679.895 223.088C679.49 222.704 678.898 222.512 678.119 222.512C677.586 222.512 677.074 222.603 676.583 222.784C676.092 222.955 675.671 223.195 675.319 223.504L674.807 222.656C675.234 222.293 675.746 222.016 676.343 221.824C676.94 221.621 677.57 221.52 678.231 221.52ZM677.831 229.184C678.471 229.184 679.02 229.04 679.479 228.752C679.938 228.453 680.279 228.027 680.503 227.472V226.096H677.863C676.423 226.096 675.703 226.597 675.703 227.6C675.703 228.091 675.89 228.48 676.263 228.768C676.636 229.045 677.159 229.184 677.831 229.184ZM684.725 218.128H685.861V230H684.725V218.128ZM696.094 221.584L691.886 231.008C691.544 231.797 691.15 232.357 690.702 232.688C690.254 233.019 689.715 233.184 689.086 233.184C688.68 233.184 688.302 233.12 687.95 232.992C687.598 232.864 687.293 232.672 687.037 232.416L687.566 231.568C687.992 231.995 688.504 232.208 689.102 232.208C689.486 232.208 689.811 232.101 690.078 231.888C690.355 231.675 690.611 231.312 690.846 230.8L691.214 229.984L687.454 221.584H688.638L691.806 228.736L694.974 221.584H696.094ZM699.856 230.08C699.173 230.08 698.517 229.984 697.888 229.792C697.269 229.589 696.784 229.339 696.432 229.04L696.944 228.144C697.296 228.421 697.738 228.651 698.272 228.832C698.805 229.003 699.36 229.088 699.936 229.088C700.704 229.088 701.269 228.971 701.632 228.736C702.005 228.491 702.192 228.149 702.192 227.712C702.192 227.403 702.09 227.163 701.888 226.992C701.685 226.811 701.429 226.677 701.12 226.592C700.81 226.496 700.4 226.405 699.888 226.32C699.205 226.192 698.656 226.064 698.24 225.936C697.824 225.797 697.466 225.568 697.168 225.248C696.88 224.928 696.736 224.485 696.736 223.92C696.736 223.216 697.029 222.64 697.616 222.192C698.202 221.744 699.018 221.52 700.064 221.52C700.608 221.52 701.152 221.595 701.696 221.744C702.24 221.883 702.688 222.069 703.04 222.304L702.544 223.216C701.85 222.736 701.024 222.496 700.064 222.496C699.338 222.496 698.789 222.624 698.416 222.88C698.053 223.136 697.872 223.472 697.872 223.888C697.872 224.208 697.973 224.464 698.176 224.656C698.389 224.848 698.65 224.992 698.96 225.088C699.269 225.173 699.696 225.264 700.24 225.36C700.912 225.488 701.45 225.616 701.856 225.744C702.261 225.872 702.608 226.091 702.896 226.4C703.184 226.709 703.328 227.136 703.328 227.68C703.328 228.416 703.018 229.003 702.4 229.44C701.792 229.867 700.944 230.08 699.856 230.08ZM709.86 229.488C709.646 229.68 709.38 229.829 709.06 229.936C708.75 230.032 708.425 230.08 708.084 230.08C707.294 230.08 706.686 229.867 706.26 229.44C705.833 229.013 705.62 228.411 705.62 227.632V222.544H704.116V221.584H705.62V219.744H706.756V221.584H709.316V222.544H706.756V227.568C706.756 228.069 706.878 228.453 707.124 228.72C707.38 228.976 707.742 229.104 708.212 229.104C708.446 229.104 708.67 229.067 708.884 228.992C709.108 228.917 709.3 228.811 709.46 228.672L709.86 229.488ZM711.928 221.584H713.064V230H711.928V221.584ZM712.504 219.744C712.269 219.744 712.072 219.664 711.912 219.504C711.752 219.344 711.672 219.152 711.672 218.928C711.672 218.715 711.752 218.528 711.912 218.368C712.072 218.208 712.269 218.128 712.504 218.128C712.738 218.128 712.936 218.208 713.096 218.368C713.256 218.517 713.336 218.699 713.336 218.912C713.336 219.147 713.256 219.344 713.096 219.504C712.936 219.664 712.738 219.744 712.504 219.744ZM719.713 230.08C718.881 230.08 718.134 229.899 717.473 229.536C716.822 229.173 716.31 228.667 715.937 228.016C715.563 227.355 715.377 226.613 715.377 225.792C715.377 224.971 715.563 224.235 715.937 223.584C716.31 222.933 716.822 222.427 717.473 222.064C718.134 221.701 718.881 221.52 719.713 221.52C720.438 221.52 721.083 221.664 721.649 221.952C722.225 222.229 722.678 222.64 723.009 223.184L722.161 223.76C721.883 223.344 721.531 223.035 721.105 222.832C720.678 222.619 720.214 222.512 719.713 222.512C719.105 222.512 718.555 222.651 718.065 222.928C717.585 223.195 717.206 223.579 716.929 224.08C716.662 224.581 716.529 225.152 716.529 225.792C716.529 226.443 716.662 227.019 716.929 227.52C717.206 228.011 717.585 228.395 718.065 228.672C718.555 228.939 719.105 229.072 719.713 229.072C720.214 229.072 720.678 228.971 721.105 228.768C721.531 228.565 721.883 228.256 722.161 227.84L723.009 228.416C722.678 228.96 722.225 229.376 721.649 229.664C721.073 229.941 720.427 230.08 719.713 230.08ZM741.3 218.8V230H740.164V221.04L735.764 228.576H735.204L730.804 221.088V230H729.668V218.8H730.644L735.508 227.104L740.324 218.8H741.3ZM747.653 221.52C748.752 221.52 749.594 221.797 750.181 222.352C750.768 222.896 751.061 223.707 751.061 224.784V230H749.973V228.688C749.717 229.125 749.338 229.467 748.837 229.712C748.346 229.957 747.76 230.08 747.077 230.08C746.138 230.08 745.392 229.856 744.837 229.408C744.282 228.96 744.005 228.368 744.005 227.632C744.005 226.917 744.261 226.341 744.773 225.904C745.296 225.467 746.122 225.248 747.253 225.248H749.925V224.736C749.925 224.011 749.722 223.461 749.317 223.088C748.912 222.704 748.32 222.512 747.541 222.512C747.008 222.512 746.496 222.603 746.005 222.784C745.514 222.955 745.093 223.195 744.741 223.504L744.229 222.656C744.656 222.293 745.168 222.016 745.765 221.824C746.362 221.621 746.992 221.52 747.653 221.52ZM747.253 229.184C747.893 229.184 748.442 229.04 748.901 228.752C749.36 228.453 749.701 228.027 749.925 227.472V226.096H747.285C745.845 226.096 745.125 226.597 745.125 227.6C745.125 228.091 745.312 228.48 745.685 228.768C746.058 229.045 746.581 229.184 747.253 229.184ZM759.507 230L756.835 226.48L754.147 230H752.867L756.195 225.68L753.027 221.584H754.307L756.835 224.88L759.363 221.584H760.611L757.443 225.68L760.803 230H759.507ZM766.257 225.168H770.449V226.16H766.257V225.168ZM782.282 230.096C781.172 230.096 780.17 229.851 779.274 229.36C778.388 228.869 777.69 228.192 777.178 227.328C776.676 226.453 776.426 225.477 776.426 224.4C776.426 223.323 776.676 222.352 777.178 221.488C777.69 220.613 778.394 219.931 779.29 219.44C780.186 218.949 781.188 218.704 782.298 218.704C783.13 218.704 783.898 218.843 784.602 219.12C785.306 219.397 785.903 219.803 786.394 220.336L785.642 221.088C784.767 220.203 783.663 219.76 782.33 219.76C781.444 219.76 780.639 219.963 779.914 220.368C779.188 220.773 778.618 221.328 778.202 222.032C777.796 222.736 777.594 223.525 777.594 224.4C777.594 225.275 777.796 226.064 778.202 226.768C778.618 227.472 779.188 228.027 779.914 228.432C780.639 228.837 781.444 229.04 782.33 229.04C783.674 229.04 784.778 228.592 785.642 227.696L786.394 228.448C785.903 228.981 785.3 229.392 784.586 229.68C783.882 229.957 783.114 230.096 782.282 230.096ZM791.743 230.08C790.932 230.08 790.201 229.899 789.551 229.536C788.9 229.163 788.388 228.651 788.015 228C787.641 227.349 787.455 226.613 787.455 225.792C787.455 224.971 787.641 224.235 788.015 223.584C788.388 222.933 788.9 222.427 789.551 222.064C790.201 221.701 790.932 221.52 791.743 221.52C792.553 221.52 793.284 221.701 793.935 222.064C794.585 222.427 795.092 222.933 795.455 223.584C795.828 224.235 796.015 224.971 796.015 225.792C796.015 226.613 795.828 227.349 795.455 228C795.092 228.651 794.585 229.163 793.935 229.536C793.284 229.899 792.553 230.08 791.743 230.08ZM791.743 229.072C792.34 229.072 792.873 228.939 793.343 228.672C793.823 228.395 794.196 228.005 794.463 227.504C794.729 227.003 794.863 226.432 794.863 225.792C794.863 225.152 794.729 224.581 794.463 224.08C794.196 223.579 793.823 223.195 793.343 222.928C792.873 222.651 792.34 222.512 791.743 222.512C791.145 222.512 790.607 222.651 790.127 222.928C789.657 223.195 789.284 223.579 789.007 224.08C788.74 224.581 788.607 225.152 788.607 225.792C788.607 226.432 788.74 227.003 789.007 227.504C789.284 228.005 789.657 228.395 790.127 228.672C790.607 228.939 791.145 229.072 791.743 229.072ZM802.67 221.52C803.459 221.52 804.174 221.701 804.814 222.064C805.454 222.416 805.955 222.917 806.318 223.568C806.681 224.219 806.862 224.96 806.862 225.792C806.862 226.635 806.681 227.381 806.318 228.032C805.955 228.683 805.454 229.189 804.814 229.552C804.185 229.904 803.47 230.08 802.67 230.08C801.987 230.08 801.369 229.941 800.814 229.664C800.27 229.376 799.822 228.96 799.47 228.416V233.104H798.334V221.584H799.422V223.248C799.763 222.693 800.211 222.267 800.766 221.968C801.331 221.669 801.966 221.52 802.67 221.52ZM802.59 229.072C803.177 229.072 803.71 228.939 804.19 228.672C804.67 228.395 805.043 228.005 805.31 227.504C805.587 227.003 805.726 226.432 805.726 225.792C805.726 225.152 805.587 224.587 805.31 224.096C805.043 223.595 804.67 223.205 804.19 222.928C803.71 222.651 803.177 222.512 802.59 222.512C801.993 222.512 801.454 222.651 800.974 222.928C800.505 223.205 800.131 223.595 799.854 224.096C799.587 224.587 799.454 225.152 799.454 225.792C799.454 226.432 799.587 227.003 799.854 227.504C800.131 228.005 800.505 228.395 800.974 228.672C801.454 228.939 801.993 229.072 802.59 229.072ZM816.015 221.584L811.807 231.008C811.466 231.797 811.071 232.357 810.623 232.688C810.175 233.019 809.637 233.184 809.007 233.184C808.602 233.184 808.223 233.12 807.871 232.992C807.519 232.864 807.215 232.672 806.959 232.416L807.487 231.568C807.914 231.995 808.426 232.208 809.023 232.208C809.407 232.208 809.733 232.101 809.999 231.888C810.277 231.675 810.533 231.312 810.767 230.8L811.135 229.984L807.375 221.584H808.559L811.727 228.736L814.895 221.584H816.015ZM818.703 223.232C818.97 222.667 819.365 222.24 819.887 221.952C820.421 221.664 821.077 221.52 821.855 221.52V222.624L821.583 222.608C820.698 222.608 820.005 222.88 819.503 223.424C819.002 223.968 818.751 224.731 818.751 225.712V230H817.615V221.584H818.703V223.232ZM823.912 221.584H825.048V230H823.912V221.584ZM824.488 219.744C824.253 219.744 824.056 219.664 823.896 219.504C823.736 219.344 823.656 219.152 823.656 218.928C823.656 218.715 823.736 218.528 823.896 218.368C824.056 218.208 824.253 218.128 824.488 218.128C824.723 218.128 824.92 218.208 825.08 218.368C825.24 218.517 825.32 218.699 825.32 218.912C825.32 219.147 825.24 219.344 825.08 219.504C824.92 219.664 824.723 219.744 824.488 219.744ZM836.001 221.584V228.976C836.001 230.405 835.649 231.461 834.945 232.144C834.252 232.837 833.201 233.184 831.793 233.184C831.014 233.184 830.273 233.067 829.569 232.832C828.876 232.608 828.31 232.293 827.873 231.888L828.449 231.024C828.854 231.387 829.345 231.669 829.921 231.872C830.508 232.075 831.121 232.176 831.761 232.176C832.828 232.176 833.612 231.925 834.113 231.424C834.614 230.933 834.865 230.165 834.865 229.12V228.048C834.513 228.581 834.049 228.987 833.473 229.264C832.908 229.541 832.278 229.68 831.585 229.68C830.796 229.68 830.076 229.509 829.425 229.168C828.785 228.816 828.278 228.331 827.905 227.712C827.542 227.083 827.361 226.373 827.361 225.584C827.361 224.795 827.542 224.091 827.905 223.472C828.278 222.853 828.785 222.373 829.425 222.032C830.065 221.691 830.785 221.52 831.585 221.52C832.3 221.52 832.945 221.664 833.521 221.952C834.097 222.24 834.561 222.656 834.913 223.2V221.584H836.001ZM831.697 228.672C832.305 228.672 832.854 228.544 833.345 228.288C833.836 228.021 834.214 227.653 834.481 227.184C834.758 226.715 834.897 226.181 834.897 225.584C834.897 224.987 834.758 224.459 834.481 224C834.214 223.531 833.836 223.168 833.345 222.912C832.865 222.645 832.316 222.512 831.697 222.512C831.089 222.512 830.54 222.64 830.049 222.896C829.569 223.152 829.19 223.515 828.913 223.984C828.646 224.453 828.513 224.987 828.513 225.584C828.513 226.181 828.646 226.715 828.913 227.184C829.19 227.653 829.569 228.021 830.049 228.288C830.54 228.544 831.089 228.672 831.697 228.672ZM843.466 221.52C844.522 221.52 845.359 221.829 845.978 222.448C846.607 223.056 846.922 223.947 846.922 225.12V230H845.786V225.232C845.786 224.357 845.567 223.691 845.13 223.232C844.692 222.773 844.068 222.544 843.258 222.544C842.351 222.544 841.631 222.816 841.098 223.36C840.575 223.893 840.314 224.635 840.314 225.584V230H839.178V218.128H840.314V223.056C840.623 222.565 841.05 222.187 841.594 221.92C842.138 221.653 842.762 221.52 843.466 221.52ZM854.438 229.488C854.225 229.68 853.958 229.829 853.638 229.936C853.329 230.032 853.003 230.08 852.662 230.08C851.873 230.08 851.265 229.867 850.838 229.44C850.411 229.013 850.198 228.411 850.198 227.632V222.544H848.694V221.584H850.198V219.744H851.334V221.584H853.894V222.544H851.334V227.568C851.334 228.069 851.457 228.453 851.702 228.72C851.958 228.976 852.321 229.104 852.79 229.104C853.025 229.104 853.249 229.067 853.462 228.992C853.686 228.917 853.878 228.811 854.038 228.672L854.438 229.488Z" fill="#5E6678"/>
<path d="M752.871 169C752.871 170.586 751.586 171.871 750 171.871C748.414 171.871 747.129 170.586 747.129 169C747.129 167.414 748.414 166.129 750 166.129C751.586 166.129 752.871 167.414 752.871 169Z" fill="#5E6678"/>
<path d="M756.715 163.92C756.577 163.546 756.356 163.208 756.07 162.93C755.792 162.644 755.454 162.424 755.08 162.286C754.776 162.168 754.32 162.028 753.481 161.989C752.572 161.948 752.3 161.939 750 161.939C747.7 161.939 747.428 161.948 746.519 161.989C745.68 162.028 745.224 162.168 744.92 162.286C744.546 162.424 744.208 162.644 743.93 162.93C743.644 163.208 743.424 163.546 743.285 163.92C743.167 164.224 743.027 164.68 742.989 165.52C742.948 166.428 742.939 166.7 742.939 169C742.939 171.3 742.948 171.573 742.989 172.481C743.027 173.321 743.167 173.777 743.285 174.08C743.424 174.454 743.644 174.793 743.93 175.071C744.208 175.357 744.546 175.577 744.92 175.715C745.224 175.833 745.68 175.973 746.519 176.012C747.428 176.053 747.7 176.062 750 176.062C752.3 176.062 752.572 176.053 753.48 176.012C754.32 175.973 754.776 175.833 755.08 175.715C755.831 175.425 756.425 174.831 756.715 174.08C756.832 173.777 756.973 173.321 757.011 172.481C757.053 171.573 757.061 171.3 757.061 169C757.061 166.7 757.053 166.428 757.011 165.52C756.973 164.68 756.833 164.224 756.715 163.92ZM750 173.423C747.557 173.423 745.577 171.443 745.577 169C745.577 166.557 747.557 164.577 750 164.577C752.443 164.577 754.423 166.557 754.423 169C754.423 171.443 752.443 173.423 750 173.423ZM754.598 165.436C754.027 165.436 753.564 164.973 753.564 164.402C753.564 163.832 754.027 163.369 754.598 163.369C755.169 163.369 755.631 163.832 755.631 164.402C755.631 164.973 755.169 165.436 754.598 165.436Z" fill="#5E6678"/>
<path d="M750 154C741.717 154 735 160.717 735 169C735 177.283 741.717 184 750 184C758.283 184 765 177.283 765 169C765 160.717 758.283 154 750 154ZM758.561 172.551C758.52 173.468 758.374 174.094 758.161 174.642C757.714 175.799 756.799 176.714 755.642 177.161C755.094 177.374 754.468 177.519 753.551 177.561C752.633 177.603 752.339 177.613 750 177.613C747.661 177.613 747.368 177.603 746.449 177.561C745.532 177.519 744.906 177.374 744.358 177.161C743.783 176.945 743.263 176.606 742.833 176.167C742.394 175.737 742.056 175.217 741.839 174.642C741.626 174.094 741.481 173.468 741.439 172.551C741.397 171.633 741.387 171.339 741.387 169C741.387 166.661 741.397 166.367 741.439 165.449C741.48 164.532 741.626 163.906 741.839 163.358C742.055 162.783 742.394 162.263 742.833 161.833C743.263 161.394 743.783 161.055 744.358 160.839C744.906 160.626 745.532 160.481 746.449 160.439C747.367 160.397 747.661 160.387 750 160.387C752.339 160.387 752.633 160.397 753.551 160.439C754.468 160.481 755.094 160.626 755.642 160.839C756.217 161.055 756.737 161.394 757.168 161.833C757.606 162.263 757.945 162.783 758.161 163.358C758.374 163.906 758.52 164.532 758.562 165.449C758.603 166.367 758.613 166.661 758.613 169C758.613 171.339 758.603 171.633 758.561 172.551Z" fill="#5E6678"/>
<circle cx="690" cy="169" r="15" fill="#5E6678"/>
<g clip-path="url(#clip0)">
<path d="M698 164.039C697.405 164.3 696.771 164.473 696.11 164.557C696.79 164.151 697.309 163.513 697.553 162.744C696.919 163.122 696.219 163.389 695.473 163.538C694.871 162.897 694.013 162.5 693.077 162.5C691.261 162.5 689.799 163.974 689.799 165.781C689.799 166.041 689.821 166.291 689.875 166.529C687.148 166.396 684.735 165.089 683.114 163.098C682.831 163.589 682.665 164.151 682.665 164.756C682.665 165.892 683.25 166.899 684.122 167.482C683.595 167.472 683.078 167.319 682.64 167.078C682.64 167.088 682.64 167.101 682.64 167.114C682.64 168.708 683.777 170.032 685.268 170.337C685.001 170.41 684.71 170.445 684.408 170.445C684.198 170.445 683.986 170.433 683.787 170.389C684.212 171.688 685.418 172.643 686.852 172.674C685.736 173.547 684.319 174.073 682.785 174.073C682.516 174.073 682.258 174.061 682 174.028C683.453 174.965 685.175 175.5 687.032 175.5C693.068 175.5 696.368 170.5 696.368 166.166C696.368 166.021 696.363 165.881 696.356 165.742C697.007 165.28 697.554 164.703 698 164.039Z" fill="#171E2D"/>
</g>
<circle cx="630" cy="169" r="15" fill="#5E6678"/>
<g clip-path="url(#clip1)">
<path d="M632.665 163.657H634.125V161.113C633.873 161.078 633.007 161 631.997 161C629.891 161 628.449 162.325 628.449 164.759V167H626.125V169.844H628.449V177H631.298V169.845H633.528L633.882 167.001H631.297V165.041C631.298 164.219 631.519 163.657 632.665 163.657Z" fill="#171E2D"/>
</g>
<circle cx="810" cy="169" r="15" fill="#5E6678"/>
<g clip-path="url(#clip2)">
<path d="M812.903 176.447C812.916 176.443 812.929 176.437 812.942 176.433C821.085 173.197 818.833 161 810 161C805.567 161 802 164.613 802 169C802 174.551 807.623 178.513 812.903 176.447ZM805.521 174.373C806.089 173.418 807.927 170.725 811.064 169.795C811.72 171.468 812.18 173.419 812.225 175.632C809.848 176.431 807.341 175.893 805.521 174.373ZM813.209 175.215C813.121 173.089 812.687 171.203 812.069 169.57C813.457 169.353 815.063 169.498 816.885 170.228C816.498 172.402 815.108 174.229 813.209 175.215ZM816.99 169.194C814.983 168.44 813.215 168.346 811.684 168.638C811.447 168.105 811.199 167.592 810.935 167.12C813.284 166.182 814.672 165.039 815.293 164.433C816.39 165.703 817.041 167.346 816.99 169.194ZM814.583 163.721C814.018 164.259 812.687 165.346 810.41 166.235C809.294 164.469 808.101 163.224 807.345 162.527C809.763 161.531 812.553 161.956 814.583 163.721ZM806.389 163.015C806.959 163.517 808.212 164.723 809.421 166.587C807.761 167.121 805.679 167.514 803.148 167.569C803.551 165.64 804.753 164.005 806.389 163.015ZM803.021 168.573C805.855 168.527 808.148 168.08 809.961 167.475C810.211 167.914 810.449 168.393 810.678 168.89C807.521 169.895 805.549 172.491 804.793 173.663C803.575 172.303 802.903 170.528 803.021 168.573Z" fill="#171E2D"/>
</g>
<defs>
<clipPath id="clip0">
<rect width="16" height="16" fill="white" transform="translate(682 161)"/>
</clipPath>
<clipPath id="clip1">
<rect width="16" height="16" fill="white" transform="translate(622 161)"/>
</clipPath>
<clipPath id="clip2">
<rect width="16" height="16" fill="white" transform="translate(802 161)"/>
</clipPath>
</defs>
</svg>
