<svg width="323" height="306" viewBox="0 0 323 306" fill="none" xmlns="http://www.w3.org/2000/svg">
<rect width="112.988" height="28.0853" rx="14.0426" transform="matrix(1 1.75193e-07 1.74499e-07 -1 26.5732 127.074)" fill="#E9DDFF"/>
<rect width="164.553" height="28.0853" rx="14.0426" transform="matrix(1 1.75193e-07 1.74499e-07 -1 2.30664 98.9896)" fill="#E9DDFF"/>
<rect width="99.3384" height="28.0853" rx="14.0426" transform="matrix(1 1.75193e-07 1.74499e-07 -1 43.2559 70.9034)" fill="#E9DDFF"/>
<rect width="22.7492" height="22.7718" rx="11.3746" transform="matrix(1 1.75193e-07 1.74499e-07 -1 15.1973 67.8673)" fill="#E9DDFF"/>
<rect width="112.988" height="28.0853" rx="14.0426" transform="matrix(1 1.75193e-07 1.74499e-07 -1 179.998 286.373)" fill="#E9DDFF"/>
<rect width="164.553" height="28.0853" rx="14.0426" transform="matrix(1 1.75193e-07 1.74499e-07 -1 155.732 258.288)" fill="#E9DDFF"/>
<rect width="99.3384" height="28.0853" rx="14.0426" transform="matrix(1 1.75193e-07 1.74499e-07 -1 196.682 230.202)" fill="#E9DDFF"/>
<rect width="22.7493" height="22.7718" rx="11.3746" transform="matrix(1 1.75193e-07 1.74499e-07 -1 168.623 227.166)" fill="#E9DDFF"/>
<rect width="112.988" height="28.0853" rx="14.0426" transform="matrix(1 1.75193e-07 1.74499e-07 -1 77.1748 188.952)" fill="#E9DDFF"/>
<rect width="164.553" height="28.0853" rx="14.0426" transform="matrix(1 1.75193e-07 1.74499e-07 -1 52.9082 160.868)" fill="#E9DDFF"/>
<rect width="99.3384" height="28.0853" rx="14.0426" transform="matrix(1 1.75193e-07 1.74499e-07 -1 93.8574 132.781)" fill="#E9DDFF"/>
<rect width="22.7492" height="22.7718" rx="11.3746" transform="matrix(1 1.75193e-07 1.74499e-07 -1 65.7998 129.745)" fill="#E9DDFF"/>
<path d="M37.1201 108.386C37.1201 101.436 42.7485 95.8019 49.6915 95.8019H270.548C277.491 95.8019 283.119 101.436 283.119 108.386V237.8C283.119 244.75 277.491 250.384 270.548 250.384H49.6915C42.7485 250.384 37.1201 244.75 37.1201 237.8V108.386Z" fill="#F0E7FF"/>
<mask id="mask0" mask-type="alpha" maskUnits="userSpaceOnUse" x="37" y="95" width="247" height="156">
<path d="M37.1201 108.187C37.1201 101.237 42.7485 95.6031 49.6915 95.6031H270.548C277.491 95.6031 283.119 101.237 283.119 108.187V237.801C283.119 244.751 277.491 250.385 270.548 250.385H49.6915C42.7485 250.385 37.1201 244.751 37.1201 237.801V108.187Z" fill="#F0E7FF"/>
</mask>
<g mask="url(#mask0)">
<path d="M54.2236 143.61C54.2236 136.66 59.852 131.026 66.795 131.026H75.7972C82.7402 131.026 88.3686 136.66 88.3686 143.61V250.497C88.3686 257.447 82.7402 263.081 75.7972 263.081H66.795C59.852 263.081 54.2236 257.447 54.2236 250.497V143.61Z" fill="#E3D8F8"/>
<path fill-rule="evenodd" clip-rule="evenodd" d="M75.7715 149.957H66.6966C65.2257 149.957 64.0333 151.151 64.0333 152.623V161.707C64.0333 163.18 65.2257 164.373 66.6966 164.373H75.7715C77.2424 164.373 78.4348 163.18 78.4348 161.707V152.623C78.4348 151.151 77.2424 149.957 75.7715 149.957ZM66.6966 147.292C63.7548 147.292 61.3701 149.679 61.3701 152.623V161.707C61.3701 164.652 63.7548 167.039 66.6966 167.039H75.7715C78.7132 167.039 81.098 164.652 81.098 161.707V152.623C81.098 149.679 78.7132 147.292 75.7715 147.292H66.6966Z" fill="#FE8E5C"/>
<path fill-rule="evenodd" clip-rule="evenodd" d="M75.7715 180.237H66.6966C65.2257 180.237 64.0333 181.43 64.0333 182.903V191.987C64.0333 193.459 65.2257 194.652 66.6966 194.652H75.7715C77.2424 194.652 78.4348 193.459 78.4348 191.987V182.903C78.4348 181.43 77.2424 180.237 75.7715 180.237ZM66.6966 177.571C63.7548 177.571 61.3701 179.958 61.3701 182.903V191.987C61.3701 194.931 63.7548 197.318 66.6966 197.318H75.7715C78.7132 197.318 81.098 194.931 81.098 191.987V182.903C81.098 179.958 78.7132 177.571 75.7715 177.571H66.6966Z" fill="#F0E7FF"/>
<path fill-rule="evenodd" clip-rule="evenodd" d="M75.7715 210.516H66.6966C65.2257 210.516 64.0333 211.71 64.0333 213.182V222.266C64.0333 223.738 65.2257 224.932 66.6966 224.932H75.7715C77.2424 224.932 78.4348 223.738 78.4348 222.266V213.182C78.4348 211.71 77.2424 210.516 75.7715 210.516ZM66.6966 207.85C63.7548 207.85 61.3701 210.237 61.3701 213.182V222.266C61.3701 225.211 63.7548 227.598 66.6966 227.598H75.7715C78.7132 227.598 81.098 225.211 81.098 222.266V213.182C81.098 210.237 78.7132 207.85 75.7715 207.85H66.6966Z" fill="#FE8E5C"/>
<path d="M70.7582 152.706C70.9078 152.245 71.5598 152.245 71.7094 152.706L72.4503 154.989C72.5172 155.195 72.7093 155.335 72.9259 155.335H75.3249C75.8091 155.335 76.0106 155.954 75.619 156.239L73.6773 157.651C73.5022 157.778 73.429 158.004 73.4958 158.21L74.2373 160.494C74.3868 160.955 73.8594 161.338 73.4676 161.053L71.5279 159.642C71.3525 159.515 71.115 159.515 70.9397 159.642L69 161.053C68.6082 161.338 68.0808 160.955 68.2303 160.494L68.9718 158.21C69.0386 158.004 68.9653 157.778 68.7903 157.651L66.8486 156.239C66.457 155.954 66.6585 155.335 67.1427 155.335H69.5416C69.7583 155.335 69.9503 155.195 70.0172 154.989L70.7582 152.706Z" fill="#FE8E5C"/>
<path d="M70.7582 182.986C70.9078 182.525 71.5598 182.525 71.7094 182.986L72.4503 185.268C72.5172 185.474 72.7093 185.614 72.9259 185.614H75.3249C75.8091 185.614 76.0106 186.233 75.619 186.518L73.6773 187.93C73.5022 188.058 73.429 188.283 73.4958 188.489L74.2373 190.773C74.3868 191.234 73.8594 191.617 73.4676 191.332L71.5279 189.921C71.3525 189.794 71.115 189.794 70.9397 189.921L69 191.332C68.6082 191.617 68.0808 191.234 68.2303 190.773L68.9718 188.489C69.0386 188.283 68.9653 188.058 68.7903 187.93L66.8486 186.518C66.457 186.233 66.6585 185.614 67.1427 185.614H69.5416C69.7583 185.614 69.9503 185.474 70.0172 185.268L70.7582 182.986Z" fill="#F0E7FF"/>
<path d="M70.7582 213.265C70.9078 212.804 71.5598 212.804 71.7094 213.265L72.4503 215.548C72.5172 215.754 72.7093 215.893 72.9259 215.893H75.3249C75.8091 215.893 76.0106 216.513 75.619 216.798L73.6773 218.21C73.5022 218.337 73.429 218.563 73.4958 218.769L74.2373 221.053C74.3868 221.513 73.8594 221.896 73.4676 221.611L71.5279 220.201C71.3525 220.073 71.115 220.073 70.9397 220.201L69 221.611C68.6082 221.896 68.0808 221.513 68.2303 221.053L68.9718 218.769C69.0386 218.563 68.9653 218.337 68.7903 218.21L66.8486 216.798C66.457 216.513 66.6585 215.893 67.1427 215.893H69.5416C69.7583 215.893 69.9503 215.754 70.0172 215.548L70.7582 213.265Z" fill="#FE8E5C"/>
<path d="M111.619 143.143C111.619 136.193 117.248 130.559 124.191 130.559H241.836C248.779 130.559 254.407 136.193 254.407 143.143V250.03C254.407 256.98 248.779 262.614 241.836 262.614H124.191C117.248 262.614 111.619 256.98 111.619 250.03V143.143Z" fill="#FF8059"/>
<path d="M111.619 143.143C111.619 136.193 117.248 130.559 124.191 130.559H241.836C248.779 130.559 254.407 136.193 254.407 143.143V250.03C254.407 256.98 248.779 262.614 241.836 262.614H124.191C117.248 262.614 111.619 256.98 111.619 250.03V143.143Z" fill="url(#paint0_linear)"/>
<mask id="mask1" mask-type="alpha" maskUnits="userSpaceOnUse" x="111" y="130" width="144" height="133">
<path d="M111.619 143.143C111.619 136.193 117.248 130.559 124.191 130.559H241.836C248.779 130.559 254.407 136.193 254.407 143.143V250.03C254.407 256.98 248.779 262.614 241.836 262.614H124.191C117.248 262.614 111.619 256.98 111.619 250.03V143.143Z" fill="#FF8059"/>
<path d="M111.619 143.143C111.619 136.193 117.248 130.559 124.191 130.559H241.836C248.779 130.559 254.407 136.193 254.407 143.143V250.03C254.407 256.98 248.779 262.614 241.836 262.614H124.191C117.248 262.614 111.619 256.98 111.619 250.03V143.143Z" fill="url(#paint1_linear)"/>
</mask>
<g mask="url(#mask1)">
<path d="M197.581 159.989C197.581 159.262 198.254 158.673 199.084 158.673H238.164C238.994 158.673 239.667 159.262 239.667 159.989C239.667 160.716 238.994 161.306 238.164 161.306H199.084C198.254 161.306 197.581 160.716 197.581 159.989Z" fill="white"/>
<path d="M197.58 169.205C197.58 168.477 198.078 167.888 198.693 167.888H225.401C226.016 167.888 226.514 168.477 226.514 169.205C226.514 169.932 226.016 170.521 225.401 170.521H198.693C198.078 170.521 197.58 169.932 197.58 169.205Z" fill="white"/>
<path d="M197.58 178.42C197.58 177.693 197.988 177.104 198.491 177.104H220.343C220.846 177.104 221.254 177.693 221.254 178.42C221.254 179.147 220.846 179.737 220.343 179.737H198.491C197.988 179.737 197.58 179.147 197.58 178.42Z" fill="white"/>
<path d="M122.925 157.789C122.979 152.525 127.286 148.301 132.544 148.355L179.283 148.832C184.542 148.886 188.761 153.197 188.708 158.461L188.494 179.413C188.441 184.677 184.134 188.901 178.875 188.848L132.137 188.37C126.878 188.317 122.658 184.006 122.712 178.742L122.925 157.789Z" fill="#5D41F7"/>
<path d="M122.925 157.789C122.979 152.525 127.286 148.301 132.544 148.355L179.283 148.832C184.542 148.886 188.761 153.197 188.708 158.461L188.494 179.413C188.441 184.677 184.134 188.901 178.875 188.848L132.137 188.37C126.878 188.317 122.658 184.006 122.712 178.742L122.925 157.789Z" fill="url(#paint2_linear)"/>
<path d="M126.026 160.318C126.08 155.054 130.386 150.83 135.645 150.884L176.175 151.298C181.433 151.352 185.653 155.662 185.599 160.927L185.436 176.935C185.383 182.199 181.076 186.423 175.817 186.369L135.288 185.956C130.029 185.902 125.809 181.591 125.863 176.327L126.026 160.318Z" fill="#DBBAFF" fill-opacity="0.2"/>
<path d="M137.344 171.667L134.229 168.196C134.099 168.05 133.864 168.076 133.768 168.246L132.409 170.655C132.316 170.82 132.407 171.03 132.592 171.074L137.065 172.136C137.338 172.201 137.531 171.875 137.344 171.667Z" fill="white"/>
<path d="M132.235 179.148L131.045 176.099C130.974 175.917 131.103 175.719 131.298 175.709L136.763 175.447C137.042 175.434 137.172 175.788 136.951 175.959L132.675 179.27C132.525 179.387 132.304 179.326 132.235 179.148Z" fill="white"/>
<path d="M137.905 182.124L140.014 177.204C140.131 176.933 140.532 176.995 140.561 177.289L141.038 182.192C141.054 182.36 140.923 182.505 140.755 182.506L138.17 182.523C137.964 182.524 137.824 182.314 137.905 182.124Z" fill="white"/>
<path d="M137.497 160.682C139.778 159.857 143.546 161.738 145.144 162.781L138.866 166.38L137.754 164.49C136.632 163.729 135.824 161.287 137.497 160.682Z" fill="#FFB46F"/>
<path d="M150.568 180.068C152.127 178.209 151.66 173.606 151.233 171.744L145.699 176.817C145.699 176.817 146.319 177.91 147.041 178.864C147.368 180.18 149.424 181.432 150.568 180.068Z" fill="#FFB46F"/>
<path d="M153.51 160.854C155.074 160.581 156.265 162.23 155.516 163.631L147.17 179.23L137.007 163.738L153.51 160.854Z" fill="#FBFBFB"/>
<path d="M151.267 167.23C151.255 168.685 150.067 169.856 148.614 169.845C147.161 169.834 145.993 168.645 146.004 167.19C146.016 165.735 147.203 164.564 148.657 164.575C150.11 164.586 151.278 165.775 151.267 167.23Z" fill="#FFB46F"/>
<path d="M140.654 173.731L143.434 173.781C143.587 173.783 143.731 173.636 143.76 173.446L144.286 169.988C144.335 169.666 144.044 169.484 143.831 169.704L140.525 173.113C140.312 173.332 140.395 173.726 140.654 173.731Z" fill="#DDDDDD"/>
<path d="M139.73 173.303L140.423 169.574C140.458 169.385 140.627 169.252 140.819 169.263L144.263 169.458C144.606 169.477 144.749 169.906 144.488 170.129L140.351 173.663C140.078 173.896 139.664 173.657 139.73 173.303Z" fill="#FFB46F"/>
<path d="M176.439 173.44C176.416 176.256 174.118 178.522 171.306 178.5C168.494 178.479 166.232 176.179 166.255 173.362C166.278 170.546 168.576 168.28 171.388 168.302C174.2 168.323 176.462 170.624 176.439 173.44Z" fill="#FBFBFB"/>
<path fill-rule="evenodd" clip-rule="evenodd" d="M178.406 174.727C177.844 174.6 177.143 174.484 176.327 174.386L176.553 172.491C177.805 172.641 178.889 172.843 179.679 173.091C180.068 173.213 180.442 173.364 180.738 173.558C180.985 173.721 181.461 174.102 181.456 174.75C181.452 175.272 181.131 175.617 180.911 175.794C180.678 175.981 180.394 176.118 180.121 176.223C179.564 176.438 178.815 176.611 177.959 176.747C176.232 177.022 173.884 177.177 171.317 177.158C168.75 177.138 166.404 176.947 164.682 176.646C163.828 176.497 163.083 176.313 162.529 176.089C162.257 175.98 161.976 175.838 161.746 175.648C161.529 175.468 161.213 175.118 161.218 174.596C161.221 174.21 161.411 173.929 161.561 173.768C161.712 173.606 161.89 173.489 162.042 173.404C162.348 173.233 162.736 173.095 163.137 172.979C163.953 172.744 165.027 172.549 166.14 172.414L166.368 174.308C165.632 174.398 164.94 174.512 164.358 174.639C164.557 174.682 164.775 174.725 165.01 174.766C166.601 175.044 168.837 175.231 171.332 175.25C173.828 175.269 176.066 175.116 177.661 174.863C177.934 174.819 178.182 174.774 178.406 174.727ZM179.729 175.181C179.728 175.181 179.722 175.176 179.712 175.167C179.725 175.176 179.73 175.18 179.729 175.181Z" fill="#FFB46F"/>
<path d="M177.156 161.255C177.581 160.841 178.288 161.214 178.187 161.799C178.141 162.061 178.27 162.322 178.504 162.446C179.029 162.723 178.894 163.51 178.306 163.595C178.043 163.633 177.835 163.836 177.79 164.098C177.689 164.683 176.899 164.797 176.637 164.264C176.519 164.026 176.262 163.89 176 163.928C175.412 164.012 175.06 163.295 175.485 162.881C175.675 162.696 175.725 162.409 175.608 162.171C175.346 161.638 175.918 161.081 176.443 161.358C176.678 161.482 176.966 161.44 177.156 161.255Z" fill="white"/>
<path d="M177.156 161.255C177.581 160.841 178.288 161.214 178.187 161.799C178.141 162.061 178.27 162.322 178.504 162.446C179.029 162.723 178.894 163.51 178.306 163.595C178.043 163.633 177.835 163.836 177.79 164.098C177.689 164.683 176.899 164.797 176.637 164.264C176.519 164.026 176.262 163.89 176 163.928C175.412 164.012 175.06 163.295 175.485 162.881C175.675 162.696 175.725 162.409 175.608 162.171C175.346 161.638 175.918 161.081 176.443 161.358C176.678 161.482 176.966 161.44 177.156 161.255Z" fill="white"/>
<path d="M164.937 164.879C164.79 164.551 165.148 164.227 165.459 164.406C165.598 164.486 165.773 164.467 165.892 164.359C166.157 164.118 166.576 164.359 166.502 164.71C166.469 164.867 166.541 165.028 166.68 165.107C166.991 165.286 166.892 165.759 166.535 165.797C166.376 165.814 166.246 165.932 166.213 166.089C166.139 166.441 165.66 166.492 165.513 166.165C165.447 166.018 165.295 165.931 165.136 165.948C164.779 165.986 164.582 165.546 164.848 165.305C164.967 165.197 165.003 165.025 164.937 164.879Z" fill="white"/>
<path d="M164.937 164.879C164.79 164.551 165.148 164.227 165.459 164.406C165.598 164.486 165.773 164.467 165.892 164.359C166.157 164.118 166.576 164.359 166.502 164.71C166.469 164.867 166.541 165.028 166.68 165.107C166.991 165.286 166.892 165.759 166.535 165.797C166.376 165.814 166.246 165.932 166.213 166.089C166.139 166.441 165.66 166.492 165.513 166.165C165.447 166.018 165.295 165.931 165.136 165.948C164.779 165.986 164.582 165.546 164.848 165.305C164.967 165.197 165.003 165.025 164.937 164.879Z" fill="white"/>
<path d="M154.47 181.955C154.324 181.628 154.681 181.304 154.992 181.482C155.131 181.562 155.306 181.543 155.425 181.436C155.691 181.195 156.109 181.435 156.035 181.786C156.002 181.944 156.074 182.104 156.213 182.184C156.524 182.362 156.425 182.835 156.069 182.873C155.909 182.891 155.779 183.009 155.746 183.166C155.672 183.517 155.193 183.569 155.046 183.241C154.981 183.095 154.828 183.007 154.669 183.024C154.312 183.063 154.115 182.622 154.381 182.381C154.5 182.274 154.536 182.102 154.47 181.955Z" fill="white"/>
<path d="M154.47 181.955C154.324 181.628 154.681 181.304 154.992 181.482C155.131 181.562 155.306 181.543 155.425 181.436C155.691 181.195 156.109 181.435 156.035 181.786C156.002 181.944 156.074 182.104 156.213 182.184C156.524 182.362 156.425 182.835 156.069 182.873C155.909 182.891 155.779 183.009 155.746 183.166C155.672 183.517 155.193 183.569 155.046 183.241C154.981 183.095 154.828 183.007 154.669 183.024C154.312 183.063 154.115 182.622 154.381 182.381C154.5 182.274 154.536 182.102 154.47 181.955Z" fill="white"/>
<path d="M137.324 155.395C136.982 155.5 136.704 155.105 136.92 154.818C137.016 154.69 137.019 154.514 136.927 154.383C136.721 154.089 137.011 153.703 137.35 153.82C137.502 153.872 137.669 153.82 137.766 153.692C137.981 153.405 138.437 153.562 138.432 153.92C138.429 154.081 138.53 154.225 138.682 154.277C139.021 154.393 139.013 154.876 138.67 154.981C138.517 155.029 138.411 155.169 138.409 155.33C138.403 155.688 137.942 155.83 137.736 155.536C137.644 155.405 137.478 155.348 137.324 155.395Z" fill="white"/>
<path d="M137.324 155.395C136.982 155.5 136.704 155.105 136.92 154.818C137.016 154.69 137.019 154.514 136.927 154.383C136.721 154.089 137.011 153.703 137.35 153.82C137.502 153.872 137.669 153.82 137.766 153.692C137.981 153.405 138.437 153.562 138.432 153.92C138.429 154.081 138.53 154.225 138.682 154.277C139.021 154.393 139.013 154.876 138.67 154.981C138.517 155.029 138.411 155.169 138.409 155.33C138.403 155.688 137.942 155.83 137.736 155.536C137.644 155.405 137.478 155.348 137.324 155.395Z" fill="white"/>
<mask id="mask2" mask-type="alpha" maskUnits="userSpaceOnUse" x="122" y="148" width="24" height="15">
<g style="mix-blend-mode:screen">
<path d="M122.724 151.534C122.743 149.683 124.257 148.198 126.106 148.217L142.541 148.385C144.391 148.404 145.874 149.92 145.856 151.771L145.78 159.138C145.762 160.989 144.247 162.475 142.398 162.456L125.963 162.288C124.114 162.269 122.63 160.753 122.649 158.902L122.724 151.534Z" fill="#A95DFD"/>
</g>
</mask>
<g mask="url(#mask2)">
<g style="mix-blend-mode:screen">
<path d="M119.753 163.042L139.896 146.495L142.436 147.868L121.726 165.253L119.753 163.042Z" fill="#E2CBFF" fill-opacity="0.1"/>
<path d="M128.842 163.088C134.174 158.239 144.934 148.433 145.319 148.009L145.754 148.546L129.849 163.37L128.842 163.088Z" fill="#E2CBFF" fill-opacity="0.1"/>
<path d="M120.983 155.331C123.975 152.983 130.07 148.252 130.511 148.109L129.408 146.971L120.156 154.103L120.983 155.331Z" fill="#E2CBFF" fill-opacity="0.1"/>
<path d="M146.439 155.38L135.428 164.927L137.055 165.381L147.442 156.573L146.439 155.38Z" fill="#E2CBFF" fill-opacity="0.1"/>
</g>
</g>
<path d="M170.378 213.743C136.183 196.629 108.778 212.873 104.378 225.456C101.025 234.475 94.9492 253.13 94.9492 254.64C94.9492 256.151 121.349 261.562 134.549 264.078L260.263 258.416L252.72 225.068C239.52 228.424 204.572 230.857 170.378 213.743Z" fill="white"/>
<path d="M170.378 213.743C136.183 196.629 108.778 212.873 104.378 225.456C101.025 234.475 94.9492 253.13 94.9492 254.64C94.9492 256.151 121.349 261.562 134.549 264.078L260.263 258.416L252.72 225.068C239.52 228.424 204.572 230.857 170.378 213.743Z" fill="url(#paint3_linear)"/>
<path d="M171.618 223.059C171.678 217.246 176.433 212.582 182.24 212.641L233.85 213.168C239.657 213.228 244.317 217.988 244.258 223.801L244.022 246.937C243.963 252.75 239.207 257.414 233.4 257.354L181.79 256.827C175.983 256.768 171.323 252.008 171.383 246.195L171.618 223.059Z" fill="#5D41F7"/>
<path d="M171.618 223.059C171.678 217.246 176.433 212.582 182.24 212.641L233.85 213.168C239.657 213.228 244.317 217.988 244.258 223.801L244.022 246.937C243.963 252.75 239.207 257.414 233.4 257.354L181.79 256.827C175.983 256.768 171.323 252.008 171.383 246.195L171.618 223.059Z" fill="url(#paint4_linear)"/>
<path d="M175.043 225.851C175.102 220.038 179.858 215.374 185.665 215.433L230.419 215.89C236.226 215.949 240.885 220.71 240.826 226.522L240.646 244.2C240.587 250.013 235.831 254.677 230.024 254.617L185.27 254.16C179.463 254.101 174.804 249.341 174.863 243.528L175.043 225.851Z" fill="#DBBAFF" fill-opacity="0.2"/>
<path d="M186.935 226.485C186.556 226.601 186.25 226.165 186.488 225.848C186.594 225.706 186.598 225.512 186.496 225.367C186.268 225.043 186.588 224.616 186.963 224.745C187.13 224.802 187.316 224.745 187.422 224.604C187.66 224.287 188.164 224.46 188.157 224.856C188.155 225.033 188.266 225.192 188.433 225.25C188.808 225.378 188.799 225.912 188.421 226.028C188.252 226.08 188.135 226.235 188.132 226.412C188.126 226.808 187.617 226.965 187.389 226.641C187.287 226.496 187.104 226.433 186.935 226.485Z" fill="white"/>
<path d="M186.935 226.485C186.556 226.601 186.25 226.165 186.488 225.848C186.594 225.706 186.598 225.512 186.496 225.367C186.268 225.043 186.588 224.616 186.963 224.745C187.13 224.802 187.316 224.745 187.422 224.604C187.66 224.287 188.164 224.46 188.157 224.856C188.155 225.033 188.266 225.192 188.433 225.25C188.808 225.378 188.799 225.912 188.421 226.028C188.252 226.08 188.135 226.235 188.132 226.412C188.126 226.808 187.617 226.965 187.389 226.641C187.287 226.496 187.104 226.433 186.935 226.485Z" fill="white"/>
<path d="M225.526 248.772C225.067 248.913 224.695 248.383 224.984 247.998C225.113 247.826 225.117 247.59 224.993 247.414C224.717 247.02 225.106 246.502 225.561 246.658C225.764 246.728 225.989 246.659 226.119 246.487C226.408 246.102 227.02 246.312 227.012 246.793C227.009 247.009 227.144 247.202 227.347 247.272C227.802 247.428 227.792 248.075 227.332 248.217C227.126 248.28 226.985 248.469 226.981 248.684C226.974 249.165 226.355 249.355 226.079 248.961C225.955 248.785 225.732 248.709 225.526 248.772Z" fill="white"/>
<path d="M225.526 248.772C225.067 248.913 224.695 248.383 224.984 247.998C225.113 247.826 225.117 247.59 224.993 247.414C224.717 247.02 225.106 246.502 225.561 246.658C225.764 246.728 225.989 246.659 226.119 246.487C226.408 246.102 227.02 246.312 227.012 246.793C227.009 247.009 227.144 247.202 227.347 247.272C227.802 247.428 227.792 248.075 227.332 248.217C227.126 248.28 226.985 248.469 226.981 248.684C226.974 249.165 226.355 249.355 226.079 248.961C225.955 248.785 225.732 248.709 225.526 248.772Z" fill="white"/>
<path d="M182.822 247.363C182.362 247.505 181.991 246.974 182.28 246.59C182.409 246.417 182.413 246.182 182.289 246.005C182.013 245.611 182.402 245.093 182.857 245.25C183.06 245.32 183.285 245.25 183.415 245.078C183.704 244.693 184.316 244.903 184.308 245.385C184.304 245.6 184.44 245.793 184.643 245.863C185.098 246.019 185.088 246.667 184.628 246.808C184.422 246.872 184.281 247.06 184.277 247.275C184.269 247.757 183.651 247.947 183.374 247.553C183.251 247.377 183.028 247.3 182.822 247.363Z" fill="white"/>
<path d="M182.822 247.363C182.362 247.505 181.991 246.974 182.28 246.59C182.409 246.417 182.413 246.182 182.289 246.005C182.013 245.611 182.402 245.093 182.857 245.25C183.06 245.32 183.285 245.25 183.415 245.078C183.704 244.693 184.316 244.903 184.308 245.385C184.304 245.6 184.44 245.793 184.643 245.863C185.098 246.019 185.088 246.667 184.628 246.808C184.422 246.872 184.281 247.06 184.277 247.275C184.269 247.757 183.651 247.947 183.374 247.553C183.251 247.377 183.028 247.3 182.822 247.363Z" fill="white"/>
<path d="M191.295 244.078C191.113 244.134 190.966 243.924 191.081 243.772C191.132 243.704 191.133 243.611 191.084 243.541C190.975 243.385 191.129 243.181 191.309 243.242C191.389 243.27 191.478 243.243 191.529 243.175C191.644 243.023 191.886 243.106 191.882 243.296C191.881 243.381 191.935 243.457 192.015 243.485C192.195 243.547 192.191 243.803 192.009 243.859C191.928 243.883 191.872 243.958 191.87 244.043C191.867 244.233 191.623 244.309 191.513 244.153C191.465 244.083 191.376 244.053 191.295 244.078Z" fill="white"/>
<path d="M191.295 244.078C191.113 244.134 190.966 243.924 191.081 243.772C191.132 243.704 191.133 243.611 191.084 243.541C190.975 243.385 191.129 243.181 191.309 243.242C191.389 243.27 191.478 243.243 191.529 243.175C191.644 243.023 191.886 243.106 191.882 243.296C191.881 243.381 191.935 243.457 192.015 243.485C192.195 243.547 192.191 243.803 192.009 243.859C191.928 243.883 191.872 243.958 191.87 244.043C191.867 244.233 191.623 244.309 191.513 244.153C191.465 244.083 191.376 244.053 191.295 244.078Z" fill="white"/>
<path d="M229.14 242.799C228.912 242.869 228.728 242.606 228.871 242.415C228.935 242.33 228.937 242.213 228.876 242.126C228.739 241.93 228.932 241.673 229.157 241.751C229.258 241.786 229.37 241.751 229.434 241.666C229.578 241.475 229.881 241.579 229.877 241.818C229.876 241.925 229.943 242.02 230.044 242.055C230.269 242.132 230.264 242.454 230.036 242.524C229.934 242.555 229.864 242.649 229.862 242.755C229.858 242.994 229.551 243.089 229.414 242.893C229.353 242.806 229.242 242.768 229.14 242.799Z" fill="white"/>
<path d="M229.14 242.799C228.912 242.869 228.728 242.606 228.871 242.415C228.935 242.33 228.937 242.213 228.876 242.126C228.739 241.93 228.932 241.673 229.157 241.751C229.258 241.786 229.37 241.751 229.434 241.666C229.578 241.475 229.881 241.579 229.877 241.818C229.876 241.925 229.943 242.02 230.044 242.055C230.269 242.132 230.264 242.454 230.036 242.524C229.934 242.555 229.864 242.649 229.862 242.755C229.858 242.994 229.551 243.089 229.414 242.893C229.353 242.806 229.242 242.768 229.14 242.799Z" fill="white"/>
<mask id="mask3" mask-type="alpha" maskUnits="userSpaceOnUse" x="171" y="212" width="74" height="46">
<g style="mix-blend-mode:screen">
<path d="M171.618 223.059C171.678 217.246 176.433 212.582 182.24 212.641L233.85 213.168C239.657 213.227 244.317 217.987 244.258 223.8L244.022 246.936C243.962 252.749 239.207 257.413 233.4 257.354L181.789 256.827C175.982 256.768 171.323 252.008 171.382 246.195L171.618 223.059Z" fill="#A95DFD"/>
</g>
</mask>
<g mask="url(#mask3)">
<g style="mix-blend-mode:screen">
<path d="M162.292 259.195L225.544 207.233L233.521 211.546L168.486 266.139L162.292 259.195Z" fill="#E2CBFF" fill-opacity="0.1"/>
<path d="M190.834 259.341C207.577 244.111 241.365 213.319 242.575 211.988L243.941 213.673L193.997 260.224L190.834 259.341Z" fill="#E2CBFF" fill-opacity="0.1"/>
<path d="M166.154 234.98C175.551 227.608 194.69 212.751 196.073 212.303L192.611 208.729L163.557 231.126L166.154 234.98Z" fill="#E2CBFF" fill-opacity="0.1"/>
<path d="M246.091 235.133L211.514 265.115L216.623 266.541L249.242 238.881L246.091 235.133Z" fill="#E2CBFF" fill-opacity="0.1"/>
</g>
</g>
<path d="M216.471 228.395L216.922 229.556L195.536 236.584L191.671 236.778L206.937 229.943L216.471 228.395Z" fill="white"/>
<path d="M216.986 229.62V230.781L211.962 233.553L191.8 236.842L216.986 229.62Z" fill="#FFBA7C"/>
<path d="M215.956 239.549L218.275 233.423L191.801 236.97V237.421L215.956 239.549Z" fill="#FFBA7C"/>
<path d="M213.122 236.455L192.316 237.228L191.608 236.842L218.92 230.265L223.558 231.748L213.122 236.455Z" fill="white"/>
<path d="M121.299 240.295C121.299 239.568 121.972 238.979 122.802 238.979H161.882C162.712 238.979 163.385 239.568 163.385 240.295C163.385 241.023 162.712 241.612 161.882 241.612H122.802C121.972 241.612 121.299 241.023 121.299 240.295Z" fill="white"/>
<path d="M134.451 231.08C134.451 230.353 134.949 229.764 135.564 229.764H162.272C162.887 229.764 163.385 230.353 163.385 231.08C163.385 231.807 162.887 232.397 162.272 232.397H135.564C134.949 232.397 134.451 231.807 134.451 231.08Z" fill="white"/>
<path d="M139.712 249.511C139.712 248.784 140.12 248.194 140.622 248.194H162.475C162.978 248.194 163.385 248.784 163.385 249.511C163.385 250.238 162.978 250.827 162.475 250.827H140.622C140.12 250.827 139.712 250.238 139.712 249.511Z" fill="white"/>
</g>
</g>
<path fill-rule="evenodd" clip-rule="evenodd" d="M270.548 98.9478H49.6915C44.4843 98.9478 40.263 103.173 40.263 108.386V237.8C40.263 243.012 44.4843 247.238 49.6915 247.238H270.548C275.755 247.238 279.976 243.012 279.976 237.8V108.386C279.976 103.173 275.755 98.9478 270.548 98.9478ZM49.6915 95.8019C42.7485 95.8019 37.1201 101.436 37.1201 108.386V237.8C37.1201 244.75 42.7485 250.384 49.6915 250.384H270.548C277.491 250.384 283.119 244.75 283.119 237.8V108.386C283.119 101.436 277.491 95.8019 270.548 95.8019H49.6915Z" fill="#380271"/>
<path d="M37.1201 108.386C37.1201 101.436 42.7485 95.8019 49.6915 95.8019H270.548C277.491 95.8019 283.119 101.436 283.119 108.386V112.891H37.1201V108.386Z" fill="#380271"/>
<path d="M51.1764 104.262C51.1764 106.056 49.724 107.51 47.9324 107.51C46.1408 107.51 44.6885 106.056 44.6885 104.262C44.6885 102.469 46.1408 101.015 47.9324 101.015C49.724 101.015 51.1764 102.469 51.1764 104.262Z" fill="white"/>
<path d="M61.4488 104.262C61.4488 106.055 59.9965 107.509 58.2049 107.509C56.4133 107.509 54.9609 106.055 54.9609 104.262C54.9609 102.468 56.4133 101.014 58.2049 101.014C59.9965 101.014 61.4488 102.468 61.4488 104.262Z" fill="white"/>
<path d="M71.7213 104.262C71.7213 106.055 70.2689 107.509 68.4773 107.509C66.6858 107.509 65.2334 106.055 65.2334 104.262C65.2334 102.468 66.6858 101.014 68.4773 101.014C70.2689 101.014 71.7213 102.468 71.7213 104.262Z" fill="white"/>
<path d="M196.264 74.7755C196.264 71.7176 198.74 69.2386 201.795 69.2386H298.972C302.027 69.2386 304.503 71.7176 304.503 74.7756V131.718C304.503 134.776 302.027 137.255 298.972 137.255H201.795C198.74 137.255 196.264 134.776 196.264 131.718V74.7755Z" fill="#552AA8"/>
<path fill-rule="evenodd" clip-rule="evenodd" d="M298.587 72.7042H202.18C200.873 72.7042 199.813 73.7648 199.813 75.0731V131.556C199.813 132.864 200.873 133.925 202.18 133.925H298.587C299.894 133.925 300.954 132.864 300.954 131.556V75.0731C300.954 73.7648 299.894 72.7042 298.587 72.7042ZM202.18 69.151C198.912 69.151 196.264 71.8024 196.264 75.0731V131.556C196.264 134.827 198.912 137.478 202.18 137.478H298.587C301.855 137.478 304.503 134.827 304.503 131.556V75.0731C304.503 71.8024 301.855 69.151 298.587 69.151H202.18Z" fill="#380271"/>
<path d="M209.916 74.0315H211.866V136.502H209.916V74.0315Z" fill="#380271"/>
<path d="M206.015 82.3288C206.015 83.1374 205.36 83.7929 204.553 83.7929C203.745 83.7929 203.09 83.1374 203.09 82.3288C203.09 81.5201 203.745 80.8646 204.553 80.8646C205.36 80.8646 206.015 81.5201 206.015 82.3288Z" fill="#380271"/>
<path d="M206.015 82.3288C206.015 83.1374 205.36 83.7929 204.553 83.7929C203.745 83.7929 203.09 83.1374 203.09 82.3288C203.09 81.5201 203.745 80.8646 204.553 80.8646C205.36 80.8646 206.015 81.5201 206.015 82.3288Z" fill="#7E58C9"/>
<path d="M206.015 90.1376C206.015 90.9462 205.36 91.6017 204.553 91.6017C203.745 91.6017 203.09 90.9462 203.09 90.1376C203.09 89.3289 203.745 88.6734 204.553 88.6734C205.36 88.6734 206.015 89.3289 206.015 90.1376Z" fill="#380271"/>
<path d="M206.015 90.1376C206.015 90.9462 205.36 91.6017 204.553 91.6017C203.745 91.6017 203.09 90.9462 203.09 90.1376C203.09 89.3289 203.745 88.6734 204.553 88.6734C205.36 88.6734 206.015 89.3289 206.015 90.1376Z" fill="#7E58C9"/>
<path d="M206.015 97.9464C206.015 98.755 205.36 99.4105 204.553 99.4105C203.745 99.4105 203.09 98.755 203.09 97.9464C203.09 97.1378 203.745 96.4822 204.553 96.4822C205.36 96.4822 206.015 97.1378 206.015 97.9464Z" fill="#380271"/>
<path d="M206.015 97.9464C206.015 98.755 205.36 99.4105 204.553 99.4105C203.745 99.4105 203.09 98.755 203.09 97.9464C203.09 97.1378 203.745 96.4822 204.553 96.4822C205.36 96.4822 206.015 97.1378 206.015 97.9464Z" fill="#7E58C9"/>
<path d="M206.015 105.755C206.015 106.564 205.36 107.219 204.553 107.219C203.745 107.219 203.09 106.564 203.09 105.755C203.09 104.947 203.745 104.291 204.553 104.291C205.36 104.291 206.015 104.947 206.015 105.755Z" fill="#380271"/>
<path d="M206.015 105.755C206.015 106.564 205.36 107.219 204.553 107.219C203.745 107.219 203.09 106.564 203.09 105.755C203.09 104.947 203.745 104.291 204.553 104.291C205.36 104.291 206.015 104.947 206.015 105.755Z" fill="#7E58C9"/>
<path d="M206.015 113.564C206.015 114.373 205.36 115.028 204.553 115.028C203.745 115.028 203.09 114.373 203.09 113.564C203.09 112.755 203.745 112.1 204.553 112.1C205.36 112.1 206.015 112.755 206.015 113.564Z" fill="#380271"/>
<path d="M206.015 113.564C206.015 114.373 205.36 115.028 204.553 115.028C203.745 115.028 203.09 114.373 203.09 113.564C203.09 112.755 203.745 112.1 204.553 112.1C205.36 112.1 206.015 112.755 206.015 113.564Z" fill="#7E58C9"/>
<path d="M206.015 121.373C206.015 122.181 205.36 122.837 204.553 122.837C203.745 122.837 203.09 122.181 203.09 121.373C203.09 120.564 203.745 119.909 204.553 119.909C205.36 119.909 206.015 120.564 206.015 121.373Z" fill="#380271"/>
<path d="M206.015 121.373C206.015 122.181 205.36 122.837 204.553 122.837C203.745 122.837 203.09 122.181 203.09 121.373C203.09 120.564 203.745 119.909 204.553 119.909C205.36 119.909 206.015 120.564 206.015 121.373Z" fill="#7E58C9"/>
<path d="M206.015 129.182C206.015 129.99 205.36 130.646 204.553 130.646C203.745 130.646 203.09 129.99 203.09 129.182C203.09 128.373 203.745 127.717 204.553 127.717C205.36 127.717 206.015 128.373 206.015 129.182Z" fill="#380271"/>
<path d="M206.015 129.182C206.015 129.99 205.36 130.646 204.553 130.646C203.745 130.646 203.09 129.99 203.09 129.182C203.09 128.373 203.745 127.717 204.553 127.717C205.36 127.717 206.015 128.373 206.015 129.182Z" fill="#7E58C9"/>
<path d="M196.264 74.7755C196.264 71.7176 198.74 69.2386 201.795 69.2386H298.972C302.027 69.2386 304.503 71.7176 304.503 74.7755V76.758H196.264V74.7755Z" fill="#380271"/>
<path d="M215.767 90.1382C215.767 89.8687 215.985 89.6501 216.254 89.6501H243.558C243.827 89.6501 244.045 89.8687 244.045 90.1382C244.045 90.4077 243.827 90.6263 243.558 90.6263H216.254C215.985 90.6263 215.767 90.4077 215.767 90.1382Z" fill="white"/>
<path d="M265.497 97.9459C265.497 97.6764 265.715 97.4579 265.985 97.4579H279.636C279.906 97.4579 280.124 97.6764 280.124 97.9459C280.124 98.2155 279.906 98.434 279.636 98.434H265.985C265.715 98.434 265.497 98.2155 265.497 97.9459Z" fill="white"/>
<path d="M215.766 105.756C215.766 105.486 215.984 105.268 216.253 105.268H235.756C236.025 105.268 236.243 105.486 236.243 105.756C236.243 106.025 236.025 106.244 235.756 106.244H216.253C215.984 106.244 215.766 106.025 215.766 105.756Z" fill="white"/>
<path d="M251.846 121.373C251.846 121.103 252.064 120.885 252.333 120.885H256.234C256.503 120.885 256.721 121.103 256.721 121.373C256.721 121.642 256.503 121.861 256.234 121.861H252.333C252.064 121.861 251.846 121.642 251.846 121.373Z" fill="white"/>
<path d="M224.542 129.182C224.542 128.912 224.76 128.694 225.03 128.694H240.632C240.901 128.694 241.119 128.912 241.119 129.182C241.119 129.452 240.901 129.67 240.632 129.67H225.03C224.76 129.67 224.542 129.452 224.542 129.182Z" fill="white"/>
<path d="M247.945 113.564C247.945 113.294 248.164 113.076 248.433 113.076H262.085C262.354 113.076 262.572 113.294 262.572 113.564C262.572 113.834 262.354 114.052 262.085 114.052H248.433C248.164 114.052 247.945 113.834 247.945 113.564Z" fill="white"/>
<path d="M219.41 83.6986C219.496 83.7362 219.563 83.7899 219.611 83.8597C219.659 83.9242 219.683 84.0021 219.683 84.0934C219.683 84.2438 219.635 84.3674 219.539 84.464C219.448 84.5554 219.33 84.601 219.185 84.601C219.111 84.601 219.028 84.5849 218.937 84.5527L216.263 83.5133C216.108 83.4542 215.985 83.3602 215.894 83.2313C215.808 83.1023 215.766 82.9519 215.766 82.78C215.766 82.6189 215.808 82.4739 215.894 82.3449C215.985 82.2107 216.108 82.1113 216.263 82.0468L218.937 81.0074C219.028 80.9752 219.111 80.9591 219.185 80.9591C219.33 80.9591 219.448 81.0074 219.539 81.1041C219.635 81.1954 219.683 81.3163 219.683 81.4667C219.683 81.558 219.659 81.6386 219.611 81.7084C219.563 81.7782 219.496 81.8293 219.41 81.8615L217.026 82.78L219.41 83.6986Z" fill="#7E58C9"/>
<path d="M221.715 85.3584C221.672 85.4873 221.602 85.584 221.506 85.6485C221.415 85.713 221.31 85.7452 221.193 85.7452C221.043 85.7452 220.912 85.6968 220.799 85.6001C220.687 85.5035 220.631 85.3799 220.631 85.2295C220.631 85.165 220.641 85.1033 220.663 85.0442L222.485 79.2992C222.528 79.1703 222.595 79.0736 222.686 79.0092C222.782 78.9447 222.887 78.9125 222.999 78.9125C223.149 78.9125 223.28 78.9608 223.392 79.0575C223.51 79.1542 223.569 79.2804 223.569 79.4362C223.569 79.4684 223.558 79.5275 223.537 79.6135L221.715 85.3584Z" fill="#7E58C9"/>
<path d="M227.945 82.0468C228.1 82.1113 228.22 82.2107 228.306 82.3449C228.397 82.4739 228.442 82.6189 228.442 82.78C228.442 82.9519 228.397 83.1023 228.306 83.2313C228.22 83.3602 228.1 83.4542 227.945 83.5133L225.271 84.5527C225.186 84.5849 225.103 84.601 225.022 84.601C224.878 84.601 224.758 84.5554 224.661 84.464C224.57 84.3674 224.525 84.2438 224.525 84.0934C224.525 84.0021 224.549 83.9242 224.597 83.8597C224.645 83.7899 224.712 83.7362 224.798 83.6986L227.182 82.78L224.798 81.8615C224.712 81.8293 224.645 81.7782 224.597 81.7084C224.549 81.6386 224.525 81.558 224.525 81.4667C224.525 81.3163 224.57 81.1954 224.661 81.1041C224.758 81.0074 224.878 80.9591 225.022 80.9591C225.097 80.9591 225.18 80.9752 225.271 81.0074L227.945 82.0468Z" fill="#7E58C9"/>
<path d="M215.766 97.9459C215.766 97.6764 215.984 97.4579 216.253 97.4579H243.557C243.826 97.4579 244.044 97.6764 244.044 97.9459C244.044 98.2155 243.826 98.434 243.557 98.434H216.253C215.984 98.434 215.766 98.2155 215.766 97.9459Z" fill="#7E58C9"/>
<path d="M251.846 90.1376C251.846 89.868 252.064 89.6495 252.333 89.6495H279.637C279.906 89.6495 280.125 89.868 280.125 90.1376C280.125 90.4071 279.906 90.6256 279.637 90.6256H252.333C252.064 90.6256 251.846 90.4071 251.846 90.1376Z" fill="#7E58C9"/>
<path d="M251.846 105.756C251.846 105.486 252.064 105.267 252.333 105.267H279.637C279.906 105.267 280.125 105.486 280.125 105.756C280.125 106.025 279.906 106.244 279.637 106.244H252.333C252.064 106.244 251.846 106.025 251.846 105.756Z" fill="#7E58C9"/>
<path d="M281.1 105.756C281.1 105.486 281.318 105.267 281.587 105.267H293.289C293.558 105.267 293.776 105.486 293.776 105.756C293.776 106.025 293.558 106.244 293.289 106.244H281.587C281.318 106.244 281.1 106.025 281.1 105.756Z" fill="#7E58C9"/>
<path d="M232.343 121.373C232.343 121.103 232.561 120.885 232.83 120.885H249.408C249.677 120.885 249.895 121.103 249.895 121.373C249.895 121.642 249.677 121.861 249.408 121.861H232.83C232.561 121.861 232.343 121.642 232.343 121.373Z" fill="#7E58C9"/>
<path d="M259.646 121.373C259.646 121.103 259.865 120.885 260.134 120.885H293.289C293.558 120.885 293.776 121.103 293.776 121.373C293.776 121.642 293.558 121.861 293.289 121.861H260.134C259.865 121.861 259.646 121.642 259.646 121.373Z" fill="#7E58C9"/>
<path d="M215.766 129.182C215.766 128.912 215.984 128.694 216.253 128.694H222.104C222.373 128.694 222.592 128.912 222.592 129.182C222.592 129.451 222.373 129.67 222.104 129.67H216.253C215.984 129.67 215.766 129.451 215.766 129.182Z" fill="#7E58C9"/>
<path d="M259.646 129.182C259.646 128.912 259.865 128.694 260.134 128.694H272.811C273.08 128.694 273.298 128.912 273.298 129.182C273.298 129.451 273.08 129.67 272.811 129.67H260.134C259.865 129.67 259.646 129.451 259.646 129.182Z" fill="#7E58C9"/>
<path d="M282.075 97.9459C282.075 97.6764 282.293 97.4579 282.563 97.4579H285.488C285.757 97.4579 285.976 97.6764 285.976 97.9459C285.976 98.2155 285.757 98.434 285.488 98.434H282.563C282.293 98.434 282.075 98.2155 282.075 97.9459Z" fill="#7E58C9"/>
<path d="M215.766 113.564C215.766 113.294 215.984 113.076 216.253 113.076H243.557C243.826 113.076 244.044 113.294 244.044 113.564C244.044 113.834 243.826 114.052 243.557 114.052H216.253C215.984 114.052 215.766 113.834 215.766 113.564Z" fill="#7E58C9"/>
<path d="M265.497 113.564C265.497 113.294 265.715 113.076 265.985 113.076H271.835C272.105 113.076 272.323 113.294 272.323 113.564C272.323 113.834 272.105 114.052 271.835 114.052H265.985C265.715 114.052 265.497 113.834 265.497 113.564Z" fill="#7E58C9"/>
<path d="M247.945 97.9459C247.945 97.6764 248.164 97.4579 248.433 97.4579H262.085C262.354 97.4579 262.572 97.6764 262.572 97.9459C262.572 98.2155 262.354 98.434 262.085 98.434H248.433C248.164 98.434 247.945 98.2155 247.945 97.9459Z" fill="#CFA2FF"/>
<path d="M246.97 90.1375C246.97 89.8679 247.188 89.6494 247.457 89.6494H249.408C249.677 89.6494 249.895 89.8679 249.895 90.1375C249.895 90.407 249.677 90.6255 249.408 90.6255H247.457C247.188 90.6255 246.97 90.407 246.97 90.1375Z" fill="#CFA2FF"/>
<path d="M281.1 90.1375C281.1 89.8679 281.318 89.6494 281.587 89.6494H287.438C287.707 89.6494 287.926 89.8679 287.926 90.1375C287.926 90.407 287.707 90.6255 287.438 90.6255H281.587C281.318 90.6255 281.1 90.407 281.1 90.1375Z" fill="#CFA2FF"/>
<path d="M239.169 105.755C239.169 105.486 239.387 105.267 239.657 105.267H249.408C249.677 105.267 249.895 105.486 249.895 105.755C249.895 106.025 249.677 106.243 249.408 106.243H239.657C239.387 106.243 239.169 106.025 239.169 105.755Z" fill="#CFA2FF"/>
<path d="M215.766 121.373C215.766 121.103 215.984 120.885 216.253 120.885H228.93C229.199 120.885 229.417 121.103 229.417 121.373C229.417 121.642 229.199 121.861 228.93 121.861H216.253C215.984 121.861 215.766 121.642 215.766 121.373Z" fill="#CFA2FF"/>
<path d="M245.02 129.182C245.02 128.912 245.238 128.694 245.507 128.694H256.234C256.503 128.694 256.721 128.912 256.721 129.182C256.721 129.451 256.503 129.67 256.234 129.67H245.507C245.238 129.67 245.02 129.451 245.02 129.182Z" fill="#CFA2FF"/>
<path d="M275.248 113.564C275.248 113.294 275.466 113.076 275.736 113.076H288.412C288.682 113.076 288.9 113.294 288.9 113.564C288.9 113.833 288.682 114.052 288.412 114.052H275.736C275.466 114.052 275.248 113.833 275.248 113.564Z" fill="#CFA2FF"/>
<path d="M202.407 73.202C202.407 73.822 201.905 74.3246 201.286 74.3246C200.666 74.3246 200.164 73.822 200.164 73.202C200.164 72.582 200.666 72.0793 201.286 72.0793C201.905 72.0793 202.407 72.582 202.407 73.202Z" fill="white"/>
<path d="M206.308 73.2015C206.308 73.8215 205.806 74.3242 205.187 74.3242C204.568 74.3242 204.065 73.8215 204.065 73.2015C204.065 72.5815 204.568 72.0789 205.187 72.0789C205.806 72.0789 206.308 72.5815 206.308 73.2015Z" fill="white"/>
<path d="M210.209 73.2015C210.209 73.8215 209.707 74.3242 209.087 74.3242C208.468 74.3242 207.966 73.8215 207.966 73.2015C207.966 72.5815 208.468 72.0789 209.087 72.0789C209.707 72.0789 210.209 72.5815 210.209 73.2015Z" fill="white"/>
<defs>
<linearGradient id="paint0_linear" x1="98.0387" y1="120.849" x2="206.029" y2="245.807" gradientUnits="userSpaceOnUse">
<stop stop-color="#FF8159"/>
<stop offset="1" stop-color="#FCC267"/>
</linearGradient>
<linearGradient id="paint1_linear" x1="98.0387" y1="120.849" x2="206.029" y2="245.807" gradientUnits="userSpaceOnUse">
<stop stop-color="#FF8159"/>
<stop offset="1" stop-color="#FCC267"/>
</linearGradient>
<linearGradient id="paint2_linear" x1="143.413" y1="158.875" x2="159.744" y2="184.841" gradientUnits="userSpaceOnUse">
<stop offset="0.0885417" stop-color="#876BF9"/>
<stop offset="0.859375" stop-color="#3D23F5"/>
</linearGradient>
<linearGradient id="paint3_linear" x1="151.52" y1="206.341" x2="237.031" y2="242.145" gradientUnits="userSpaceOnUse">
<stop stop-color="#FDBB66"/>
<stop offset="1" stop-color="#FDBF67"/>
</linearGradient>
<linearGradient id="paint4_linear" x1="194.241" y1="224.258" x2="212.275" y2="252.93" gradientUnits="userSpaceOnUse">
<stop offset="0.0885417" stop-color="#876BF9"/>
<stop offset="0.859375" stop-color="#3D23F5"/>
</linearGradient>
</defs>
</svg>
