<svg id="emctffaj5mhk1" xmlns="http://www.w3.org/2000/svg" xmlns:xlink="http://www.w3.org/1999/xlink" viewBox="0 0 804 800" shape-rendering="geometricPrecision" text-rendering="geometricPrecision"><defs><linearGradient id="emctffaj5mhk4-fill" x1="168.517000" y1="229.500000" x2="309.043000" y2="308.543000" spreadMethod="pad" gradientUnits="userSpaceOnUse"><stop id="emctffaj5mhk4-fill-0" offset="0%" stop-color="rgb(193,97,226)"/><stop id="emctffaj5mhk4-fill-1" offset="100%" stop-color="rgb(165,57,238)"/></linearGradient><linearGradient id="emctffaj5mhk22-fill" x1="462.123000" y1="258" x2="526.261000" y2="210.469000" spreadMethod="pad" gradientUnits="userSpaceOnUse"><stop id="emctffaj5mhk22-fill-0" offset="0%" stop-color="rgb(152,37,244)"/><stop id="emctffaj5mhk22-fill-1" offset="100%" stop-color="rgb(179,77,232)"/></linearGradient><linearGradient id="emctffaj5mhk23-fill" x1="508.659000" y1="309.779000" x2="548.338000" y2="286.386000" spreadMethod="pad" gradientUnits="userSpaceOnUse"><stop id="emctffaj5mhk23-fill-0" offset="0%" stop-color="rgb(151,36,245)"/><stop id="emctffaj5mhk23-fill-1" offset="100%" stop-color="rgb(177,74,233)"/></linearGradient><linearGradient id="emctffaj5mhk24-fill" x1="364.588000" y1="343.500000" x2="577.270000" y2="151.834000" spreadMethod="pad" gradientUnits="userSpaceOnUse"><stop id="emctffaj5mhk24-fill-0" offset="0%" stop-color="rgb(127,7,226)"/><stop id="emctffaj5mhk24-fill-1" offset="100%" stop-color="rgb(184,84,231)"/></linearGradient><linearGradient id="emctffaj5mhk28-fill" x1="356.741000" y1="576.708000" x2="600.666000" y2="625.034000" spreadMethod="pad" gradientUnits="userSpaceOnUse"><stop id="emctffaj5mhk28-fill-0" offset="0%" stop-color="rgb(130,26,220)"/><stop id="emctffaj5mhk28-fill-1" offset="100%" stop-color="rgb(147,39,242)"/></linearGradient><linearGradient id="emctffaj5mhk33-fill" x1="274.490000" y1="299.424000" x2="443.118000" y2="490.353000" spreadMethod="pad" gradientUnits="userSpaceOnUse"><stop id="emctffaj5mhk33-fill-0" offset="0%" stop-color="rgb(251,204,104)"/><stop id="emctffaj5mhk33-fill-1" offset="100%" stop-color="rgb(255,125,88)"/></linearGradient><linearGradient id="emctffaj5mhk35-fill" x1="274.490000" y1="299.424000" x2="443.118000" y2="490.353000" spreadMethod="pad" gradientUnits="userSpaceOnUse"><stop id="emctffaj5mhk35-fill-0" offset="0%" stop-color="rgb(251,204,104)"/><stop id="emctffaj5mhk35-fill-1" offset="100%" stop-color="rgb(255,125,88)"/></linearGradient><linearGradient id="emctffaj5mhk37-fill" x1="332.820000" y1="324.174000" x2="370.561000" y2="494.913000" spreadMethod="pad" gradientUnits="userSpaceOnUse"><stop id="emctffaj5mhk37-fill-0" offset="0%" stop-color="rgb(252,192,102)"/><stop id="emctffaj5mhk37-fill-1" offset="100%" stop-color="rgba(245,128,87,0)"/></linearGradient><linearGradient id="emctffaj5mhk54-fill" x1="361.374000" y1="421.077000" x2="353.905000" y2="342.790000" spreadMethod="pad" gradientUnits="userSpaceOnUse"><stop id="emctffaj5mhk54-fill-0" offset="0%" stop-color="rgb(29,101,210)"/><stop id="emctffaj5mhk54-fill-1" offset="100%" stop-color="rgb(13,195,242)"/></linearGradient><linearGradient id="emctffaj5mhk60-fill" x1="361.374000" y1="421.077000" x2="353.905000" y2="342.790000" spreadMethod="pad" gradientUnits="userSpaceOnUse"><stop id="emctffaj5mhk60-fill-0" offset="0%" stop-color="rgb(29,101,210)"/><stop id="emctffaj5mhk60-fill-1" offset="100%" stop-color="rgb(13,195,242)"/></linearGradient><linearGradient id="emctffaj5mhk158-fill" x1="190.352000" y1="567.898000" x2="222.855000" y2="638.382000" spreadMethod="pad" gradientUnits="userSpaceOnUse"><stop id="emctffaj5mhk158-fill-0" offset="0%" stop-color="rgb(252,200,104)"/><stop id="emctffaj5mhk158-fill-1" offset="100%" stop-color="rgb(255,133,90)"/></linearGradient></defs><path id="emctffaj5mhk2" d="M419.058000,163.316000C479.936000,167.926000,538.127000,178.855000,592.313000,206.974000C655.046000,239.528000,723.003000,272.961000,753.333000,336.783000C785.408000,404.277000,782.828000,484.972000,757.904000,555.419000C733.365000,624.776000,685.372000,689.440000,618.049000,719.153000C555.690000,746.676000,486.870000,698.024000,419.058000,704.971000C338.076000,713.267000,263.613000,793.478000,188.049000,763.206000C112.480000,732.931000,65.899100,642.848000,61.182400,561.600000C56.742700,485.124000,134.539000,433.152000,164.803000,362.774000C190.907000,302.070000,173.621000,219.997000,225.620000,179.205000C277.793000,138.276000,352.928000,158.308000,419.058000,163.316000Z" clip-rule="evenodd" fill="rgb(248,239,255)" fill-rule="evenodd" stroke="none" stroke-width="1"/><path id="emctffaj5mhk3" d="M146.915000,236.339000C146.915000,230.817000,151.392000,226.340000,156.915000,226.340000L294.330000,226.340000C299.853000,226.340000,304.330000,230.817000,304.330000,236.339000L304.330000,311.966000C304.330000,317.488000,299.853000,321.965000,294.330000,321.965000L156.915000,321.965000C151.392000,321.965000,146.915000,317.488000,146.915000,311.966000L146.915000,236.339000Z" fill="rgb(186,87,229)" stroke="none" stroke-width="1"/><path id="emctffaj5mhk4" d="M146.915000,236.339000C146.915000,230.817000,151.392000,226.340000,156.915000,226.340000L294.330000,226.340000C299.853000,226.340000,304.330000,230.817000,304.330000,236.339000L304.330000,311.966000C304.330000,317.488000,299.853000,321.965000,294.330000,321.965000L156.915000,321.965000C151.392000,321.965000,146.915000,317.488000,146.915000,311.966000L146.915000,236.339000Z" fill="url(#emctffaj5mhk4-fill)" stroke="none" stroke-width="1"/><path id="emctffaj5mhk5" d="M157.411000,244.822000C157.411000,239.299000,161.888000,234.822000,167.412000,234.822000L282.536000,234.822000C288.059000,234.822000,292.536000,239.299000,292.536000,244.822000L292.536000,303.687000C292.536000,309.209000,288.059000,313.686000,282.536000,313.686000L167.412000,313.686000C161.888000,313.686000,157.411000,309.209000,157.411000,303.687000L157.411000,244.822000Z" fill="rgb(240,231,255)" fill-opacity="0.2" stroke="none" stroke-width="1"/><path id="emctffaj5mhk6" d="M182.582000,282.838000L173.850000,273.322000C173.711000,273.171000,173.465000,273.200000,173.366000,273.380000L169.670000,280.080000C169.573000,280.254000,169.671000,280.473000,169.866000,280.517000L182.294000,283.334000C182.581000,283.399000,182.780000,283.055000,182.582000,282.838000Z" fill="rgb(206,130,254)" stroke="none" stroke-width="1"/><path id="emctffaj5mhk7" d="M169.901000,300.404000L166.587000,292.178000C166.511000,291.988000,166.643000,291.779000,166.848000,291.767000L181.672000,290.908000C181.965000,290.891000,182.105000,291.261000,181.875000,291.443000L170.366000,300.527000C170.208000,300.651000,169.976000,300.590000,169.901000,300.404000Z" fill="rgb(206,130,254)" stroke="none" stroke-width="1"/><path id="emctffaj5mhk8" d="M183.131000,307.444000L188.856000,293.721000C188.975000,293.435000,189.398000,293.496000,189.431000,293.805000L190.900000,307.409000C190.919000,307.584000,190.784000,307.738000,190.607000,307.741000L183.413000,307.860000C183.197000,307.863000,183.048000,307.644000,183.131000,307.444000Z" fill="rgb(206,130,254)" stroke="none" stroke-width="1"/><path id="emctffaj5mhk9" d="M181.852000,255.682000C187.290000,253.657000,196.352000,258.060000,200.204000,260.514000L185.270000,269.263000L182.561000,264.773000C179.858000,262.981000,177.863000,257.167000,181.852000,255.682000Z" fill="rgb(167,89,217)" stroke="none" stroke-width="1"/><path id="emctffaj5mhk10" d="M213.602000,301.687000C217.287000,297.207000,216.054000,286.222000,214.987000,281.782000L201.869000,294.034000C201.869000,294.034000,203.379000,296.633000,205.132000,298.893000C205.947000,302.031000,210.899000,304.973000,213.602000,301.687000Z" fill="rgb(167,89,217)" stroke="none" stroke-width="1"/><path id="emctffaj5mhk11" d="M225.330000,254.750000C226.970000,254.447000,228.239000,256.165000,227.467000,257.643000L205.460000,299.767000L180.757000,262.990000L225.330000,254.750000Z" fill="rgb(206,130,254)" stroke="none" stroke-width="1"/><path id="emctffaj5mhk12" d="M214.962000,270.991000C214.971000,274.468000,212.158000,277.293000,208.680000,277.301000C205.202000,277.310000,202.376000,274.498000,202.368000,271.021000C202.359000,267.545000,205.172000,264.719000,208.650000,264.711000C212.128000,264.703000,214.954000,267.515000,214.962000,270.991000Z" fill="rgb(167,89,217)" stroke="none" stroke-width="1"/><g id="emctffaj5mhk13" transform="matrix(1.15000000000000 0 0 1.15000000000000 -29.03688125610356 -42.30826950073248)"><path id="emctffaj5mhk14" d="M187.751000,287.387000L198.297000,288.025000C198.510000,288.038000,198.695000,287.881000,198.719000,287.669000L199.869000,277.114000C199.908000,276.755000,199.489000,276.532000,199.213000,276.766000L187.517000,286.683000C187.242000,286.916000,187.392000,287.366000,187.751000,287.387000Z" fill="rgb(142,65,191)" stroke="none" stroke-width="1"/><path id="emctffaj5mhk15" d="M187.254000,287.206000L189.147000,276.415000C189.182000,276.217000,189.358000,276.075000,189.559000,276.085000L199.529000,276.548000C199.889000,276.565000,200.045000,277.013000,199.773000,277.250000L187.911000,287.576000C187.626000,287.824000,187.189000,287.577000,187.254000,287.206000Z" fill="rgb(167,88,217)" stroke="none" stroke-width="1"/></g><path id="emctffaj5mhk16" d="M275.343000,285.218000C275.359000,291.946000,269.916000,297.414000,263.185000,297.430000C256.454000,297.446000,250.984000,292.004000,250.968000,285.276000C250.952000,278.547000,256.396000,273.080000,263.127000,273.064000C269.858000,273.048000,275.327000,278.489000,275.343000,285.218000Z" transform="matrix(1 0 0 1.08000000000000 0 -22.81975952148440)" fill="rgb(206,130,254)" stroke="none" stroke-width="1"/><path id="emctffaj5mhk17" d="M282.137000,287.448000C280.518000,286.959000,278.149000,286.530000,275.235000,286.212000L275.452000,284.224000C278.419000,284.547000,280.927000,284.993000,282.716000,285.534000C283.603000,285.803000,284.373000,286.112000,284.942000,286.477000C285.458000,286.808000,286.099000,287.374000,286.101000,288.232000C286.103000,288.921000,285.684000,289.424000,285.290000,289.746000C284.885000,290.078000,284.347000,290.353000,283.749000,290.590000C282.544000,291.068000,280.859000,291.480000,278.849000,291.820000C274.811000,292.502000,269.270000,292.927000,263.175000,292.941000C257.079000,292.956000,251.537000,292.558000,247.496000,291.894000C245.484000,291.564000,243.797000,291.160000,242.589000,290.688000C241.991000,290.454000,241.452000,290.181000,241.044000,289.851000C240.649000,289.531000,240.228000,289.030000,240.226000,288.341000C240.225000,287.854000,240.462000,287.475000,240.694000,287.222000C240.926000,286.968000,241.222000,286.761000,241.523000,286.590000C242.128000,286.245000,242.944000,285.938000,243.865000,285.663000C245.723000,285.108000,248.216000,284.629000,250.839000,284.284000L251.099000,286.267000C248.534000,286.604000,246.155000,287.067000,244.437000,287.579000C243.571000,287.838000,242.923000,288.094000,242.513000,288.328000C242.479000,288.347000,242.448000,288.365000,242.420000,288.383000C242.611000,288.511000,242.902000,288.663000,243.318000,288.826000C244.333000,289.223000,245.861000,289.599000,247.820000,289.921000C251.722000,290.561000,257.150000,290.956000,263.170000,290.941000C269.190000,290.927000,274.616000,290.507000,278.515000,289.848000C280.473000,289.517000,281.998000,289.133000,283.012000,288.731000C283.479000,288.546000,283.789000,288.375000,283.974000,288.237000C283.943000,288.214000,283.906000,288.188000,283.862000,288.160000C283.520000,287.941000,282.953000,287.695000,282.137000,287.448000ZM284.131000,288.380000C284.131000,288.380000,284.130000,288.379000,284.129000,288.375000C284.131000,288.378000,284.132000,288.380000,284.131000,288.380000ZM284.130000,288.095000C284.132000,288.091000,284.134000,288.089000,284.134000,288.089000C284.134000,288.089000,284.133000,288.091000,284.130000,288.095000ZM242.193000,288.189000C242.193000,288.189000,242.194000,288.191000,242.197000,288.195000C242.194000,288.191000,242.193000,288.189000,242.193000,288.189000ZM242.162000,288.580000C242.161000,288.581000,242.161000,288.582000,242.161000,288.582000Z" clip-rule="evenodd" fill="rgb(142,65,191)" fill-rule="evenodd" stroke="none" stroke-width="1"/><path id="emctffaj5mhk18" d="M278.213000,254.632000C278.764000,254.086000,279.691000,254.563000,279.567000,255.328000L279.161000,257.827000C279.106000,258.169000,279.277000,258.508000,279.585000,258.666000L281.837000,259.824000C282.526000,260.178000,282.359000,261.207000,281.593000,261.326000L279.091000,261.712000C278.748000,261.765000,278.479000,262.033000,278.423000,262.375000L278.018000,264.873000C277.893000,265.638000,276.863000,265.798000,276.514000,265.106000L275.372000,262.846000C275.216000,262.537000,274.878000,262.363000,274.536000,262.416000L272.033000,262.803000C271.267000,262.921000,270.797000,261.990000,271.347000,261.445000L273.144000,259.661000C273.391000,259.417000,273.451000,259.042000,273.295000,258.733000L272.154000,256.474000C271.805000,255.782000,272.545000,255.047000,273.234000,255.402000L275.486000,256.559000C275.795000,256.718000,276.170000,256.660000,276.416000,256.416000L278.213000,254.632000Z" fill="rgb(206,130,254)" stroke="none" stroke-width="1"/><path id="emctffaj5mhk19" d="M247.243000,264.234000C247,263.706000,247.575000,263.176000,248.082000,263.460000L249.029000,263.990000C249.256000,264.117000,249.539000,264.084000,249.730000,263.908000L250.527000,263.171000C250.954000,262.777000,251.637000,263.159000,251.523000,263.729000L251.311000,264.794000C251.260000,265.049000,251.379000,265.307000,251.606000,265.434000L252.553000,265.965000C253.060000,266.249000,252.907000,267.016000,252.330000,267.084000L251.252000,267.211000C250.994000,267.242000,250.784000,267.435000,250.733000,267.690000L250.521000,268.754000C250.408000,269.324000,249.631000,269.416000,249.388000,268.888000L248.933000,267.902000C248.825000,267.666000,248.576000,267.527000,248.318000,267.557000L247.239000,267.685000C246.662000,267.753000,246.335000,267.043000,246.762000,266.648000L247.560000,265.912000C247.751000,265.735000,247.806000,265.456000,247.697000,265.220000L247.243000,264.234000Z" fill="rgb(206,130,254)" stroke="none" stroke-width="1"/><path id="emctffaj5mhk20" d="M222.616000,305.295000C222.373000,304.767000,222.948000,304.237000,223.455000,304.521000L224.402000,305.051000C224.629000,305.178000,224.912000,305.145000,225.103000,304.969000L225.900000,304.232000C226.327000,303.838000,227.010000,304.220000,226.896000,304.790000L226.684000,305.855000C226.633000,306.110000,226.752000,306.368000,226.979000,306.495000L227.926000,307.026000C228.433000,307.310000,228.281000,308.077000,227.703000,308.145000L226.625000,308.272000C226.367000,308.303000,226.157000,308.496000,226.107000,308.751000L225.894000,309.815000C225.781000,310.385000,225.004000,310.477000,224.761000,309.949000L224.306000,308.963000C224.198000,308.727000,223.949000,308.588000,223.691000,308.618000L222.612000,308.746000C222.035000,308.814000,221.708000,308.104000,222.135000,307.709000L222.933000,306.973000C223.124000,306.796000,223.179000,306.517000,223.071000,306.281000L222.616000,305.295000Z" fill="rgb(206,130,254)" stroke="none" stroke-width="1"/><path id="emctffaj5mhk21" d="M180.473000,243.313000C179.919000,243.489000,179.463000,242.854000,179.807000,242.386000L180.451000,241.512000C180.605000,241.302000,180.607000,241.018000,180.455000,240.806000L179.822000,239.924000C179.483000,239.452000,179.947000,238.822000,180.499000,239.005000L181.530000,239.347000C181.776000,239.429000,182.048000,239.342000,182.202000,239.133000L182.845000,238.259000C183.190000,237.791000,183.932000,238.037000,183.929000,238.618000L183.922000,239.703000C183.921000,239.963000,184.087000,240.195000,184.334000,240.276000L185.364000,240.618000C185.916000,240.801000,185.911000,241.583000,185.357000,241.759000L184.323000,242.088000C184.075000,242.167000,183.906000,242.397000,183.905000,242.656000L183.898000,243.742000C183.894000,244.323000,183.149000,244.560000,182.810000,244.088000L182.177000,243.206000C182.026000,242.995000,181.755000,242.905000,181.508000,242.984000L180.473000,243.313000Z" fill="rgb(206,130,254)" stroke="none" stroke-width="1"/><path id="emctffaj5mhk22" d="M462.072000,212.102000C462.072000,206.579000,466.549000,202.102000,472.072000,202.102000L508.304000,202.102000C513.827000,202.102000,518.304000,206.579000,518.304000,212.102000L518.304000,248.314000C518.304000,253.836000,513.827000,258.314000,508.304000,258.314000L472.072000,258.314000C466.549000,258.314000,462.072000,253.836000,462.072000,248.314000L462.072000,212.102000Z" fill="url(#emctffaj5mhk22-fill)" stroke="none" stroke-width="1"/><path id="emctffaj5mhk23" d="M499.840000,278.381000C499.840000,272.858000,504.317000,268.381000,509.840000,268.381000L526.768000,268.381000C532.291000,268.381000,536.768000,272.858000,536.768000,278.381000L536.768000,307.042000C536.768000,312.565000,532.291000,317.042000,526.768000,317.042000L509.840000,317.042000C504.317000,317.042000,499.840000,312.565000,499.840000,307.042000L499.840000,278.381000Z" fill="url(#emctffaj5mhk23-fill)" stroke="none" stroke-width="1"/><path id="emctffaj5mhk24" d="M592.234000,207.102000L555.162000,207.102000C552.401000,207.102000,550.162000,209.340000,550.162000,212.102000L550.162000,279.356000C550.162000,282.117000,552.401000,284.356000,555.162000,284.356000L592.234000,284.356000C594.995000,284.356000,597.234000,282.117000,597.234000,279.356000L597.234000,212.102000C597.234000,209.340000,594.995000,207.102000,592.234000,207.102000ZM555.162000,202.102000C549.639000,202.102000,545.162000,206.579000,545.162000,212.102000L545.162000,279.356000C545.162000,284.879000,549.639000,289.356000,555.162000,289.356000L592.234000,289.356000C597.756000,289.356000,602.234000,284.879000,602.234000,279.356000L602.234000,212.102000C602.234000,206.579000,597.756000,202.102000,592.234000,202.102000L555.162000,202.102000Z" clip-rule="evenodd" fill="url(#emctffaj5mhk24-fill)" fill-rule="evenodd" stroke="none" stroke-width="1"/><g id="emctffaj5mhk25"><path id="emctffaj5mhk26" d="M687,627.886000C687,657.772000,575.211000,682,437.313000,682C299.414000,682,187.625000,657.772000,187.625000,627.886000C187.625000,597.999000,299.414000,573.771000,437.313000,573.771000C575.211000,573.771000,687,597.999000,687,627.886000Z" fill="rgb(130,26,220)" stroke="none" stroke-width="1"/><path id="emctffaj5mhk27" d="M639.161000,624.949000C639.161000,648.581000,548.039000,667.737000,435.634000,667.737000C323.229000,667.737000,232.107000,648.581000,232.107000,624.949000C232.107000,601.318000,323.229000,582.161000,435.634000,582.161000C548.039000,582.161000,639.161000,601.318000,639.161000,624.949000Z" fill="rgb(252,189,102)" stroke="none" stroke-width="1"/><path id="emctffaj5mhk28" d="M639.161000,624.949000C639.161000,648.581000,548.039000,667.737000,435.634000,667.737000C323.229000,667.737000,232.107000,648.581000,232.107000,624.949000C232.107000,601.318000,323.229000,582.161000,435.634000,582.161000C548.039000,582.161000,639.161000,601.318000,639.161000,624.949000Z" fill="url(#emctffaj5mhk28-fill)" stroke="none" stroke-width="1"/></g><g id="emctffaj5mhk29"><path id="emctffaj5mhk30" d="M359.275000,586.984000L359.275000,525.110000L365.320000,525.110000C365.608000,543.157000,366.184000,581.312000,366.184000,589.562000C366.184000,599.875000,392.086000,602.453000,407.627000,601.593000C420.060000,600.906000,426.622000,614.484000,428.349000,621.359000C430.939000,622.218000,436.119000,625.655000,436.119000,632.530000C436.119000,641.124000,421.441000,646.280000,417.124000,636.827000C413.671000,629.265000,419.139000,623.937000,422.305000,622.218000C419.542000,605.718000,398.129000,605.604000,387.769000,607.609000C390.532000,607.609000,391.798000,619.640000,392.086000,625.655000C406.677000,640.051000,384.856000,644.246000,381.079000,637.954000C378.160000,633.091000,380.659000,626.627000,386.534000,625.655000C387.973000,619.926000,386.733000,607.609000,379.135000,607.609000C371.537000,607.609000,365.608000,603.598000,363.593000,601.593000C359.276000,605.031000,350.642000,607.609000,344.598000,607.609000C339.763000,607.609000,339.130000,619.067000,339.418000,624.796000C340.857000,624.796000,347.575000,625.655000,347.575000,634.598000C347.575000,642.439000,340.857000,643.129000,336.828000,642.843000C323.655000,638.793000,328.691000,627.886000,334.238000,624.796000C333.547000,615.171000,335.677000,609.328000,336.828000,607.609000C311.271000,602.796000,304.306000,617.062000,304.018000,624.796000C320.423000,635.968000,299.543000,646.989000,294.280000,637.534000C289.620000,629.162000,295.384000,625.942000,298.837000,624.796000C299.701000,615.343000,302.291000,611.046000,310.925000,604.171000C319.559000,597.297000,338.554000,602.453000,348.915000,599.875000C357.203000,597.812000,359.275000,590.422000,359.275000,586.984000Z" fill="rgb(193,178,222)" stroke="none" stroke-width="1"/><path id="emctffaj5mhk31" d="M398.284000,515.462000C398.284000,524.961000,382.502000,532.661000,363.034000,532.661000C343.566000,532.661000,327.784000,524.961000,327.784000,515.462000C327.784000,505.963000,343.566000,498.263000,363.034000,498.263000C382.502000,498.263000,398.284000,505.963000,398.284000,515.462000Z" fill="rgb(212,196,244)" stroke="none" stroke-width="1"/><path id="emctffaj5mhk32" d="M352.570000,291.881000C387.820000,290.622000,411.739000,441.220000,412.579000,444.995000C459.579000,451.707000,468.392000,471.004000,457.900000,498.271000C447.409000,525.538000,347.954000,522.182000,313.543000,519.246000C279.133000,516.309000,274.936000,444.995000,261.507000,366.970000C248.079000,288.945000,317.320000,293.139000,352.570000,291.881000Z" fill="rgb(251,203,104)" stroke="none" stroke-width="1"/><path id="emctffaj5mhk33" d="M352.570000,291.881000C387.820000,290.622000,411.739000,441.220000,412.579000,444.995000C459.579000,451.707000,468.392000,471.004000,457.900000,498.271000C447.409000,525.538000,347.954000,522.182000,313.543000,519.246000C279.133000,516.309000,274.936000,444.995000,261.507000,366.970000C248.079000,288.945000,317.320000,293.139000,352.570000,291.881000Z" fill="url(#emctffaj5mhk33-fill)" stroke="none" stroke-width="1"/><path id="emctffaj5mhk34" d="M352.570000,291.881000C387.820000,290.622000,411.739000,441.220000,412.579000,444.995000C459.579000,451.707000,468.392000,471.004000,457.900000,498.271000C447.409000,525.538000,347.954000,522.182000,313.543000,519.246000C279.133000,516.309000,274.936000,444.995000,261.507000,366.970000C248.079000,288.945000,317.320000,293.139000,352.570000,291.881000Z" fill="rgb(251,203,104)" stroke="none" stroke-width="1"/><path id="emctffaj5mhk35" d="M352.570000,291.881000C387.820000,290.622000,411.739000,441.220000,412.579000,444.995000C459.579000,451.707000,468.392000,471.004000,457.900000,498.271000C447.409000,525.538000,347.954000,522.182000,313.543000,519.246000C279.133000,516.309000,274.936000,444.995000,261.507000,366.970000C248.079000,288.945000,317.320000,293.139000,352.570000,291.881000Z" fill="url(#emctffaj5mhk35-fill)" stroke="none" stroke-width="1"/><path id="emctffaj5mhk36" d="M297.570000,335.501000C302.941000,316.036000,332.260000,314.806000,346.248000,316.623000C382.758000,311.837000,395.346000,411.009000,395.766000,413.526000C396.102000,415.539000,404.858000,468.339000,409.195000,494.487000C388.213000,494.627000,342.136000,493.648000,325.686000,488.615000C305.123000,482.322000,290.856000,359.831000,297.570000,335.501000Z" fill="rgb(245,128,87)" stroke="none" stroke-width="1"/><path id="emctffaj5mhk37" d="M297.570000,335.501000C302.941000,316.036000,332.260000,314.806000,346.248000,316.623000C382.758000,311.837000,395.346000,411.009000,395.766000,413.526000C396.102000,415.539000,404.858000,468.339000,409.195000,494.487000C388.213000,494.627000,342.136000,493.648000,325.686000,488.615000C305.123000,482.322000,290.856000,359.831000,297.570000,335.501000Z" fill="url(#emctffaj5mhk37-fill)" stroke="none" stroke-width="1"/></g><path id="emctffaj5mhk38" d="M362.544000,333.356000C358.180000,325.973000,360.725000,317.415000,362.544000,314.059000C355.130000,311.682000,341.058000,308.354000,344.080000,314.059000C347.856000,321.191000,340.303000,329.161000,344.080000,333.356000C347.856000,337.551000,367.999000,342.585000,362.544000,333.356000Z" fill="rgb(251,189,170)" stroke="none" stroke-width="1"/><g id="emctffaj5mhk39" mask="url(#emctffaj5mhk42)"><g id="emctffaj5mhk40"><path id="emctffaj5mhk41" d="M362.293000,327.269000C359.272000,329.283000,347.606000,322.515000,342.150000,318.879000L358.936000,315.943000C361.314000,318.879000,365.315000,325.256000,362.293000,327.269000Z" fill="rgb(234,128,128)" stroke="none" stroke-width="1"/></g><mask id="emctffaj5mhk42" mask-type="alpha"><path id="emctffaj5mhk43" d="M362.544000,333.356000C358.180000,325.973000,360.725000,317.415000,362.544000,314.059000C355.130000,311.682000,341.058000,308.354000,344.080000,314.059000C347.856000,321.191000,340.303000,329.161000,344.080000,333.356000C347.856000,337.551000,367.999000,342.585000,362.544000,333.356000Z" fill="rgb(251,189,170)" stroke="none" stroke-width="1"/></mask></g><path id="emctffaj5mhk44" d="M445.830000,416.652000C441.471000,413.627000,433.650000,413.228000,430.094000,413.655000C425,416.816000,416.054000,422.914000,421.022000,422.019000C427.232000,420.900000,423.316000,423.721000,432.842000,427.837000C442.368000,431.953000,450.281000,428.541000,448.830000,425.470000C447.669000,423.012000,445.573000,421.869000,444.671000,421.604000C447.792000,421.490000,453.386000,427.982000,455.121000,426.579000C456.856000,425.177000,451.327000,420.469000,445.830000,416.652000Z" fill="rgb(251,189,170)" stroke="none" stroke-width="1"/><g id="emctffaj5mhk45" mask="url(#emctffaj5mhk50)"><g id="emctffaj5mhk46"><path id="emctffaj5mhk47" d="M441.539000,422.305000C445.904000,422.977000,447.274000,426.081000,447.414000,427.759000C447.694000,429.437000,448.002000,432.289000,446.995000,428.598000C445.987000,424.906000,442.938000,422.865000,441.539000,422.305000Z" fill="rgb(234,128,128)" stroke="none" stroke-width="1"/><path id="emctffaj5mhk48" d="M444.896000,427.759000C444.225000,425.410000,440.280000,424.123000,438.602000,423.564000C443.973000,426.249000,444.197000,428.877000,443.637000,429.856000L444.477000,430.276000C444.756000,430.555000,445.568000,430.108000,444.896000,427.759000Z" fill="rgb(234,128,128)" stroke="none" stroke-width="1"/><path id="emctffaj5mhk49" d="M439.021000,430.276000C439.021000,430.276000,440.700000,430.276000,441.120000,429.017000C441.570000,427.666000,437.902000,426.221000,436.503000,425.661000C437.381000,426.169000,439.952000,427.802000,439.861000,428.598000C439.747000,429.593000,437.004000,428.782000,436.084000,428.598000C429.789000,427.339000,433.566000,428.738000,433.986000,429.437000C433.846000,429.157000,439.021000,430.276000,439.021000,430.276000Z" fill="rgb(234,128,128)" stroke="none" stroke-width="1"/></g><mask id="emctffaj5mhk50" mask-type="alpha"><path id="emctffaj5mhk51" d="M445.830000,416.652000C441.471000,413.627000,433.650000,413.228000,430.094000,413.655000C425,416.816000,416.054000,422.914000,421.022000,422.019000C427.232000,420.900000,423.316000,423.721000,432.842000,427.837000C442.368000,431.953000,450.281000,428.541000,448.830000,425.470000C447.669000,423.012000,445.573000,421.869000,444.671000,421.604000C447.792000,421.490000,453.386000,427.982000,455.121000,426.579000C456.856000,425.177000,451.327000,420.469000,445.830000,416.652000Z" fill="rgb(251,189,170)" stroke="none" stroke-width="1"/></mask></g><path id="emctffaj5mhk52" d="M378.681000,347.251000C376.084000,340.469000,367.029000,329.302000,359.631000,340.984000C354.795000,348.620000,360.780000,376.998000,367.139000,402.020000C375.687000,420.712000,418.436000,430.532000,432.333000,434.138000C431.679000,426.717000,436.480000,420.684000,439.003000,419.061000L391.588000,394.649000L378.681000,347.251000Z" fill="rgb(13,199,247)" stroke="none" stroke-width="1"/><path id="emctffaj5mhk53" d="M362.210000,332.789000C356.482000,338.162000,347.188000,333.306000,343.257000,330.206000C339.045000,331.584000,320.418000,337.818000,319.070000,341.952000C317.722000,346.085000,326.673000,406.848000,329.481000,434.920000C345.654000,441.533000,381.625000,434.364000,390.329000,429.886000C385.696000,409.219000,372.861000,346.475000,370.587000,338.108000C369.576000,334.388000,363.754000,333.478000,362.210000,332.789000Z" fill="rgb(13,199,247)" stroke="none" stroke-width="1"/><path id="emctffaj5mhk54" d="M362.210000,332.789000C356.482000,338.162000,347.188000,333.306000,343.257000,330.206000C339.045000,331.584000,320.418000,337.818000,319.070000,341.952000C317.722000,346.085000,326.673000,406.848000,329.481000,434.920000C345.654000,441.533000,381.625000,434.364000,390.329000,429.886000C385.696000,409.219000,372.861000,346.475000,370.587000,338.108000C369.576000,334.388000,363.754000,333.478000,362.210000,332.789000Z" fill="url(#emctffaj5mhk54-fill)" stroke="none" stroke-width="1"/><g id="emctffaj5mhk55" mask="url(#emctffaj5mhk58)"><g id="emctffaj5mhk56"><path id="emctffaj5mhk57" d="M303.461000,371.162000C303.461000,371.162000,303.462000,371.162000,303.463000,371.162000L303.463000,366.162000C303.796000,366.162000,304.690000,366.223000,305.916000,366.306000C306.259000,366.329000,306.629000,366.354000,307.019000,366.380000C308.898000,366.505000,311.472000,366.668000,314.570000,366.822000C320.770000,367.130000,329.066000,367.399000,338.095000,367.248000C356.311000,366.944000,376.962000,364.928000,389.609000,358.445000L391.890000,362.895000C378.098000,369.964000,356.366000,371.944000,338.178000,372.247000C329.005000,372.401000,320.594000,372.127000,314.322000,371.816000C311.185000,371.660000,308.582000,371.495000,306.687000,371.369000C306.231000,371.339000,305.821000,371.311000,305.455000,371.286000C305.054000,371.259000,304.705000,371.235000,304.405000,371.216000C304.121000,371.197000,303.895000,371.183000,303.724000,371.174000C303.639000,371.169000,303.573000,371.166000,303.523000,371.164000C303.479000,371.162000,303.461000,371.162000,303.461000,371.162000ZM354.568000,388.040000C338.629000,389.400000,322.110000,389.347000,311.744000,388.880000L311.969000,383.885000C322.166000,384.345000,338.463000,384.396000,354.143000,383.058000C361.983000,382.389000,369.621000,381.376000,376.241000,379.909000C382.910000,378.431000,388.336000,376.537000,391.902000,374.212000L394.632000,378.401000C390.309000,381.219000,384.184000,383.270000,377.323000,384.791000C370.412000,386.322000,362.538000,387.360000,354.568000,388.040000Z" clip-rule="evenodd" fill="rgb(255,255,255)" fill-rule="evenodd" stroke="none" stroke-width="1"/></g><mask id="emctffaj5mhk58" mask-type="alpha"><path id="emctffaj5mhk59" d="M362.210000,332.789000C356.482000,338.162000,347.188000,333.306000,343.257000,330.206000C339.045000,331.584000,320.418000,337.818000,319.070000,341.952000C317.722000,346.085000,326.673000,406.848000,329.481000,434.920000C345.654000,441.533000,381.625000,434.364000,390.329000,429.886000C385.696000,409.219000,372.861000,346.475000,370.587000,338.108000C369.576000,334.388000,363.754000,333.478000,362.210000,332.789000Z" fill="rgb(13,199,247)" stroke="none" stroke-width="1"/><path id="emctffaj5mhk60" d="M362.210000,332.789000C356.482000,338.162000,347.188000,333.306000,343.257000,330.206000C339.045000,331.584000,320.418000,337.818000,319.070000,341.952000C317.722000,346.085000,326.673000,406.848000,329.481000,434.920000C345.654000,441.533000,381.625000,434.364000,390.329000,429.886000C385.696000,409.219000,372.861000,346.475000,370.587000,338.108000C369.576000,334.388000,363.754000,333.478000,362.210000,332.789000Z" fill="url(#emctffaj5mhk60-fill)" stroke="none" stroke-width="1"/></mask></g><g id="emctffaj5mhk61"><g id="emctffaj5mhk62"><path id="emctffaj5mhk63" d="M475.833000,612.409000C471.537000,612.662000,465.686000,591.772000,464.686000,589.005000C458.090000,590.773000,434.800000,580.849000,448.827000,611.848000C449.824000,614.051000,452.978000,622.268000,453.749000,627.395000C454.521000,632.523000,458.896000,635.011000,462.887000,637.721000C466.879000,640.431000,506.141000,617.193000,508.059000,616.085000C509.976000,614.978000,511.277000,610.882000,501.607000,606.994000C491.937000,603.106000,481.203000,612.093000,475.833000,612.409000Z" fill="rgb(251,189,170)" stroke="none" stroke-width="1"/><path id="emctffaj5mhk64" d="M473.492000,608.033000C475.516000,607.310000,476.792000,610.399000,477.177000,612.035000C487.758000,603.693000,495.737000,603.542000,501.337000,603.651000C506.434000,603.749000,508.937000,609.292000,509.861000,613.774000C510.785000,618.255000,465.842000,637.530000,464.692000,638.195000C463.542000,638.859000,462.697000,638.232000,458.014000,634.250000C454.268000,631.064000,453.073000,626.702000,452.944000,624.919000L465.905000,619.104000C465.393000,618.470000,464.384000,616.861000,464.444000,615.489000C464.520000,613.774000,470.960000,608.938000,473.492000,608.033000Z" fill="rgb(251,96,94)" stroke="none" stroke-width="1"/><g id="emctffaj5mhk65" mask="url(#emctffaj5mhk68)"><g id="emctffaj5mhk66"><path id="emctffaj5mhk67" d="M481.950000,608.738000C481.950000,608.738000,481.947000,608.741000,481.940000,608.745000L481.463000,607.866000C481.247000,607.991000,481.108000,608.188000,481.015000,608.381000C480.921000,608.576000,480.856000,608.804000,480.807000,609.048000C480.709000,609.534000,480.658000,610.172000,480.625000,610.925000C480.596000,611.581000,480.580000,612.348000,480.562000,613.209000C480.559000,613.343000,480.556000,613.478000,480.553000,613.616000C480.531000,614.647000,480.504000,615.808000,480.447000,617.088000L481.435000,617.120000C481.492000,615.827000,481.520000,614.657000,481.542000,613.625000C481.545000,613.486000,481.548000,613.350000,481.551000,613.216000C481.569000,612.353000,481.584000,611.600000,481.613000,610.957000C481.646000,610.209000,481.694000,609.640000,481.775000,609.239000C481.816000,609.039000,481.860000,608.904000,481.901000,608.818000C481.931000,608.756000,481.950000,608.738000,481.950000,608.738000ZM477.748000,611.965000C478.030000,611.329000,478.309000,610.902000,478.563000,610.686000L477.938000,609.911000C477.502000,610.281000,477.146000,610.885000,476.848000,611.559000C476.544000,612.246000,476.275000,613.068000,476.040000,613.930000C475.569000,615.656000,475.222000,617.595000,475.007000,619.067000L475.985000,619.203000C476.197000,617.753000,476.537000,615.859000,476.992000,614.189000C477.220000,613.354000,477.473000,612.587000,477.748000,611.965000ZM486.633000,616.563000C485.890000,615.144000,484.982000,613.168000,484.417000,611.362000C484.104000,610.362000,483.885000,609.378000,483.873000,608.555000C483.863000,607.758000,484.050000,606.929000,484.761000,606.518000L485.238000,607.397000C485.029000,607.518000,484.853000,607.827000,484.862000,608.528000C484.871000,609.203000,485.056000,610.075000,485.359000,611.042000C485.961000,612.966000,486.982000,615.122000,487.742000,616.519000L487.989000,616.973000L474.415000,624.227000L464.821000,618.921000L465.301000,618.030000L474.435000,623.082000L486.633000,616.563000ZM496.347000,605.397000C497.447000,603.826000,499.307000,603.073000,500.707000,602.878000L500.587000,601.876000C499.020000,602.094000,496.861000,602.938000,495.545000,604.815000C494.203000,606.732000,493.832000,609.586000,495.601000,613.603000L495.609000,613.622000L497.666000,617.407000L459.347000,635.691000L459.755000,636.606000L499.048000,617.857000L496.495000,613.159000C494.831000,609.367000,495.275000,606.927000,496.347000,605.397000Z" clip-rule="evenodd" fill="rgb(255,255,255)" fill-rule="evenodd" stroke="none" stroke-width="1"/></g><mask id="emctffaj5mhk68" mask-type="alpha"><path id="emctffaj5mhk69" d="M473.492000,608.033000C475.516000,607.310000,476.792000,610.399000,477.177000,612.035000C487.758000,603.693000,495.737000,603.542000,501.337000,603.651000C506.434000,603.749000,508.937000,609.292000,509.861000,613.774000C510.785000,618.255000,465.842000,637.530000,464.692000,638.195000C463.542000,638.859000,462.697000,638.232000,458.014000,634.250000C454.268000,631.064000,453.073000,626.702000,452.944000,624.919000L465.905000,619.104000C465.393000,618.470000,464.384000,616.861000,464.444000,615.489000C464.520000,613.774000,470.960000,608.938000,473.492000,608.033000Z" fill="rgb(253,91,91)" stroke="none" stroke-width="1"/></mask></g></g><g id="emctffaj5mhk70"><path id="emctffaj5mhk71" d="M532.649000,581.981000C521.821000,583.114000,513.496000,569.852000,511.273000,568.161000C506.284000,573.368000,495.291000,579.135000,496.769000,580.228000C508.636000,589.005000,517.169000,603.078000,520.331000,606.830000C523.493000,610.582000,528.572000,610.121000,533.418000,610.059000C538.264000,609.998000,561.810000,568.604000,562.973000,566.605000C564.136000,564.606000,563.309000,560.516000,552.863000,562.853000C542.417000,565.190000,538.270000,581.393000,532.649000,581.981000Z" fill="rgb(251,189,170)" stroke="none" stroke-width="1"/><path id="emctffaj5mhk72" d="M528.459000,579.740000C529.903000,577.993000,532.527000,579.791000,533.659000,580.908000C538.999000,568.054000,545.994000,563.379000,551.008000,560.273000C555.570000,557.447000,560.467000,560.550000,563.453000,563.687000C566.438000,566.824000,535.944000,608.218000,535.246000,609.417000C534.548000,610.617000,533.497000,610.586000,527.423000,610.001000C522.564000,609.534000,519.397000,606.649000,518.420000,605.265000L527.090000,593.117000C526.331000,592.892000,524.659000,592.152000,524.049000,590.995000C523.287000,589.550000,526.655000,581.923000,528.459000,579.740000Z" fill="rgb(255,120,93)" stroke="none" stroke-width="1"/><g id="emctffaj5mhk73" mask="url(#emctffaj5mhk76)"><g id="emctffaj5mhk74"><path id="emctffaj5mhk75" d="M536.307000,575.511000C536.307000,575.511000,536.307000,575.511000,536.306000,575.513000L535.421000,575.047000C535.299000,575.257000,535.271000,575.485000,535.282000,575.695000C535.293000,575.905000,535.345000,576.128000,535.419000,576.356000C535.568000,576.811000,535.831000,577.362000,536.167000,577.998000C536.458000,578.551000,536.815000,579.187000,537.215000,579.901000C537.278000,580.012000,537.341000,580.125000,537.405000,580.239000C537.883000,581.094000,538.420000,582.059000,538.989000,583.137000L539.898000,582.676000C539.324000,581.587000,538.782000,580.614000,538.303000,579.757000C538.238000,579.642000,538.175000,579.529000,538.113000,579.418000C537.712000,578.703000,537.362000,578.078000,537.076000,577.537000C536.744000,576.907000,536.512000,576.415000,536.391000,576.042000C536.330000,575.856000,536.303000,575.720000,536.298000,575.623000C536.294000,575.540000,536.307000,575.511000,536.307000,575.511000ZM534.141000,580.566000C534.082000,579.886000,534.122000,579.370000,534.248000,579.037000L533.292000,578.719000C533.089000,579.258000,533.064000,579.947000,533.126000,580.669000C533.189000,581.403000,533.348000,582.228000,533.557000,583.067000C533.974000,584.746000,534.604000,586.530000,535.125000,587.857000L536.078000,587.491000C535.565000,586.185000,534.951000,584.442000,534.547000,582.817000C534.345000,582.005000,534.198000,581.233000,534.141000,580.566000ZM544.218000,579.189000C542.873000,578.451000,541.119000,577.356000,539.747000,576.204000C538.984000,575.563000,538.310000,574.880000,537.900000,574.209000C537.495000,573.548000,537.277000,572.775000,537.691000,572.064000L538.576000,572.530000C538.431000,572.778000,538.441000,573.144000,538.779000,573.696000C539.111000,574.237000,539.692000,574.841000,540.425000,575.457000C541.885000,576.683000,543.828000,577.861000,545.174000,578.569000L545.630000,578.809000L537.138000,592.441000L526.082000,593.574000L525.997000,592.598000L536.538000,591.517000L544.218000,579.189000ZM547.441000,564.582000C547.659000,562.650000,548.955000,560.958000,550.108000,559.994000L549.452000,559.259000C548.176000,560.325000,546.685000,562.231000,546.429000,564.497000C546.168000,566.816000,547.214000,569.372000,550.744000,571.661000L550.763000,571.673000L554.400000,573.586000L529.279000,610.414000L530.125000,610.940000L555.854000,573.222000L551.306000,570.830000C548.022000,568.694000,547.230000,566.457000,547.441000,564.582000Z" clip-rule="evenodd" fill="rgb(255,255,255)" fill-rule="evenodd" stroke="none" stroke-width="1"/></g><mask id="emctffaj5mhk76" mask-type="alpha"><path id="emctffaj5mhk77" d="M528.459000,579.740000C529.903000,577.993000,532.527000,579.791000,533.659000,580.908000C538.999000,568.054000,545.994000,563.379000,551.008000,560.273000C555.570000,557.447000,560.467000,560.550000,563.453000,563.687000C566.438000,566.824000,535.944000,608.218000,535.246000,609.417000C534.548000,610.617000,533.497000,610.586000,527.423000,610.001000C522.564000,609.534000,519.397000,606.649000,518.420000,605.265000L527.090000,593.117000C526.331000,592.892000,524.659000,592.152000,524.049000,590.995000C523.287000,589.550000,526.655000,581.923000,528.459000,579.740000Z" fill="rgb(253,91,91)" stroke="none" stroke-width="1"/></mask></g><path id="emctffaj5mhk78" d="M424.002000,443.433000C414.863000,435.821000,399.983000,444.188000,393.685000,449.323000L384.019000,453.853000L407.305000,486.929000L496.499000,588.873000C500.014000,580.536000,516.417000,573.921000,524.179000,571.656000C494.595000,532.086000,433.141000,451.044000,424.002000,443.433000Z" fill="rgb(41,0,85)" stroke="none" stroke-width="1"/></g><path id="emctffaj5mhk79" d="M347.965000,489.457000C334.012000,487.128000,332.125000,460.110000,333.005000,446.246000L382.727000,446.246000C387.861000,448.947000,415.059000,448.554000,424.915000,459.357000C434.772000,470.160000,460.915000,558.727000,473.822000,599.058000C459.721000,599.058000,446.935000,609.840000,442.094000,614.882000L399.965000,487.356000C393.218000,487.896000,368.070000,492.813000,347.965000,489.457000Z" fill="rgb(37,23,130)" stroke="none" stroke-width="1"/></g><g id="emctffaj5mhk80"><path id="emctffaj5mhk81" d="M542.750000,447.726000C542.048000,445.055000,539.313000,443.459000,536.643000,444.160000L534.889000,444.621000C532.218000,445.323000,530.622000,448.057000,531.324000,450.727000L580.298000,637.026000C581,639.696000,583.735000,641.293000,586.406000,640.591000L588.160000,640.130000C590.830000,639.429000,592.426000,636.695000,591.724000,634.024000L542.750000,447.726000Z" fill="rgb(56,2,113)" stroke="none" stroke-width="1"/><path id="emctffaj5mhk82" d="M339.147000,445.354000C339.388000,442.603000,341.813000,440.568000,344.564000,440.809000L346.371000,440.967000C349.122000,441.208000,351.157000,443.633000,350.916000,446.384000L334.114000,638.273000C333.873000,641.024000,331.448000,643.059000,328.697000,642.819000L326.890000,642.661000C324.139000,642.420000,322.104000,639.995000,322.345000,637.244000L339.147000,445.354000Z" fill="rgb(56,2,113)" stroke="none" stroke-width="1"/><path id="emctffaj5mhk83" d="M287.189000,450.324000C287.690000,447.608000,290.298000,445.813000,293.014000,446.314000L294.797000,446.643000C297.513000,447.143000,299.308000,449.751000,298.807000,452.466000L265.612000,632.360000C265.111000,635.075000,262.504000,636.871000,259.788000,636.370000L258.004000,636.041000C255.289000,635.540000,253.494000,632.933000,253.995000,630.218000L287.189000,450.324000Z" fill="rgb(56,2,113)" stroke="none" stroke-width="1"/><path id="emctffaj5mhk84" d="M589.759000,449.397000C589.044000,446.730000,586.302000,445.147000,583.634000,445.862000L581.882000,446.331000C579.215000,447.046000,577.632000,449.787000,578.347000,452.454000L625.715000,629.148000C626.430000,631.816000,629.172000,633.399000,631.839000,632.684000L633.591000,632.215000C636.258000,631.500000,637.841000,628.759000,637.126000,626.091000L589.759000,449.397000Z" fill="rgb(56,2,113)" stroke="none" stroke-width="1"/><path id="emctffaj5mhk85" d="M263.939000,448.662000C259.505000,442.866000,263.638000,434.500000,270.936000,434.500000L588.025000,434.500000C595.428000,434.500000,599.530000,443.077000,594.883000,448.839000L594.883000,448.839000C593.211000,450.913000,590.690000,452.119000,588.025000,452.119000L270.936000,452.119000C268.193000,452.119000,265.606000,450.841000,263.939000,448.662000L263.939000,448.662000Z" fill="rgb(41,0,85)" stroke="none" stroke-width="1"/><path id="emctffaj5mhk86" d="M309.178000,448.179000C305.294000,442.323000,309.493000,434.500000,316.519000,434.500000L589.539000,434.500000C596.663000,434.500000,600.841000,442.518000,596.759000,448.357000L596.759000,448.357000C595.111000,450.714000,592.415000,452.119000,589.539000,452.119000L316.519000,452.119000C313.567000,452.119000,310.810000,450.639000,309.178000,448.179000L309.178000,448.179000Z" fill="rgb(85,12,161)" stroke="none" stroke-width="1"/></g><g id="emctffaj5mhk87" transform="matrix(1 0 0 1 0.00200439453124 -118.46997069999981)" opacity="0"><path id="emctffaj5mhk88" d="M516.625000,416.009000C516.625000,413.248000,518.864000,411.009000,521.625000,411.009000L593.875000,411.009000C596.636000,411.009000,598.875000,413.248000,598.875000,416.009000L598.875000,429.501000C598.875000,432.262000,596.636000,434.501000,593.875000,434.501000L521.625000,434.501000C518.864000,434.501000,516.625000,432.262000,516.625000,429.501000L516.625000,416.009000Z" fill="rgb(211,54,54)" stroke="none" stroke-width="1"/><path id="emctffaj5mhk89" d="M516.625000,416.009000C516.625000,413.248000,518.864000,411.009000,521.625000,411.009000L593.875000,411.009000C596.636000,411.009000,598.875000,413.248000,598.875000,416.009000L598.875000,429.501000C598.875000,432.262000,596.636000,434.501000,593.875000,434.501000L521.625000,434.501000C518.864000,434.501000,516.625000,432.262000,516.625000,429.501000L516.625000,416.009000Z" fill="rgb(211,54,54)" stroke="none" stroke-width="1"/><path id="emctffaj5mhk90" d="M525.857000,420.204000C525.857000,417.442000,528.096000,415.204000,530.857000,415.204000L598.875000,415.204000L598.875000,430.305000L530.857000,430.305000C528.096000,430.305000,525.857000,428.067000,525.857000,425.305000L525.857000,420.204000Z" fill="rgb(255,255,255)" stroke="none" stroke-width="1"/><path id="emctffaj5mhk91" d="M525.857000,420.204000C525.857000,417.442000,528.096000,415.204000,530.857000,415.204000L598.875000,415.204000L598.875000,430.305000L530.857000,430.305000C528.096000,430.305000,525.857000,428.067000,525.857000,425.305000L525.857000,420.204000Z" fill="rgb(255,255,255)" stroke="none" stroke-width="1"/><path id="emctffaj5mhk92" d="M531.312000,416.721000L598.875000,416.721000L598.875000,418.721000L531.312000,418.721000L531.312000,416.721000ZM598.875000,422.915000L534.670000,422.915000L534.670000,420.915000L598.875000,420.915000L598.875000,422.915000ZM598.875000,426.271000L556.911000,426.271000L556.911000,424.271000L598.875000,424.271000L598.875000,426.271000ZM598.859000,429.627000L547.243000,428.788000L547.275000,426.789000L598.891000,427.627000L598.859000,429.627000Z" clip-rule="evenodd" fill="rgb(226,226,226)" fill-rule="evenodd" stroke="none" stroke-width="1"/></g><g id="emctffaj5mhk93" transform="matrix(1 0 0 1 0.00999999999999 -118.55472448500018)" opacity="0"><path id="emctffaj5mhk94" d="M516.625000,400.068000C516.625000,397.307000,518.864000,395.068000,521.625000,395.068000L593.875000,395.068000C596.636000,395.068000,598.875000,397.307000,598.875000,400.068000L598.875000,406.009000C598.875000,408.770000,596.636000,411.009000,593.875000,411.009000L521.625000,411.009000C518.864000,411.009000,516.625000,408.770000,516.625000,406.009000L516.625000,400.068000Z" fill="rgb(211,54,54)" stroke="none" stroke-width="1"/><path id="emctffaj5mhk95" d="M516.625000,400.068000C516.625000,397.307000,518.864000,395.068000,521.625000,395.068000L593.875000,395.068000C596.636000,395.068000,598.875000,397.307000,598.875000,400.068000L598.875000,406.009000C598.875000,408.770000,596.636000,411.009000,593.875000,411.009000L521.625000,411.009000C518.864000,411.009000,516.625000,408.770000,516.625000,406.009000L516.625000,400.068000Z" fill="rgb(41,164,83)" stroke="none" stroke-width="1"/><path id="emctffaj5mhk96" d="M525.857000,402.619000C525.857000,400.302000,527.736000,398.424000,530.052000,398.424000L598.875000,398.424000L598.875000,406.814000L530.052000,406.814000C527.736000,406.814000,525.857000,404.936000,525.857000,402.619000L525.857000,402.619000Z" fill="rgb(255,255,255)" stroke="none" stroke-width="1"/><path id="emctffaj5mhk97" d="M550.616000,399.522000L598.875000,399.522000L598.875000,401.522000L550.616000,401.522000L550.616000,399.522000ZM564.464000,402.458000L598.875000,402.458000L598.875000,404.458000L564.464000,404.458000L564.464000,402.458000ZM550.616000,404.975000L598.875000,404.975000L598.875000,406.975000L550.616000,406.975000L550.616000,404.975000Z" clip-rule="evenodd" fill="rgb(226,226,226)" fill-rule="evenodd" stroke="none" stroke-width="1"/></g><g id="emctffaj5mhk98"><path id="emctffaj5mhk99" d="M358.017000,432.403000C358.017000,429.854000,360.083000,427.788000,362.631000,427.788000L482.652000,427.788000C485.201000,427.788000,487.267000,429.854000,487.267000,432.403000L487.267000,432.403000C487.267000,434.951000,485.201000,437.017000,482.652000,437.017000L362.631000,437.017000C360.083000,437.017000,358.017000,434.951000,358.017000,432.403000L358.017000,432.403000Z" fill="rgb(85,12,161)" stroke="none" stroke-width="1"/><path id="emctffaj5mhk100" d="M362.213000,433.242000C362.213000,431.157000,363.903000,429.466000,365.988000,429.466000L483.491000,429.466000C485.576000,429.466000,487.266000,431.157000,487.266000,433.242000L487.266000,433.242000C487.266000,435.327000,485.576000,437.017000,483.491000,437.017000L365.988000,437.017000C363.903000,437.017000,362.213000,435.327000,362.213000,433.242000L362.213000,433.242000Z" fill="rgb(56,2,113)" stroke="none" stroke-width="1"/></g><path id="emctffaj5mhk101" d="M342.990000,318.460000C330.513000,314.151000,323.266000,301.820000,321.588000,294.549000L335.436000,282.384000C343.409000,295.108000,366.070000,326.430000,342.990000,318.460000Z" fill="rgb(41,0,85)" stroke="none" stroke-width="1"/><path id="emctffaj5mhk102" d="M378.722000,297.120000C374.945000,326.485000,349.188000,325.840000,340.115000,315.997000C337.323000,312.969000,335.254000,309.542000,333.727000,305.943000C333.381000,305.835000,332.856000,305.677000,332.080000,305.456000C329.140000,304.617000,319.908000,301.680000,322.426000,293.290000C323.851000,288.544000,328.895000,288.676000,330.030000,290.773000C329.493000,285.710000,329.520000,280.912000,329.624000,276.985000C371.588000,216.578000,382.499000,267.756000,378.722000,297.120000Z" fill="rgb(251,189,170)" stroke="none" stroke-width="1"/><path id="emctffaj5mhk103" d="M384.114000,271.477000C376.643000,275.014000,347.804000,272.660000,338.676000,270.624000C337.943000,270.461000,337.233000,271.075000,337.337000,271.819000L337.738000,274.708000C338.631000,281.136000,335.574000,287.471000,329.987000,290.772000C328.724000,289.097000,324.108000,287.838000,322.010000,295.389000C320.655000,293.489000,318.969000,280.332000,320.748000,271.059000C328.253000,231.953000,377.253000,239.331000,384.114000,242.793000C392.429000,246.988000,387.357000,257.114000,383.339000,258.282000C384.894000,258.412000,390.038000,268.672000,384.114000,271.477000Z" fill="rgb(41,0,85)" stroke="none" stroke-width="1"/><path id="emctffaj5mhk104" d="M348.864000,289.935000C348.864000,292.715000,350.555000,294.968000,352.641000,294.968000C354.727000,294.968000,356.418000,292.715000,356.418000,289.935000C356.418000,287.154000,354.727000,284.901000,352.641000,284.901000C350.555000,284.901000,348.864000,287.154000,348.864000,289.935000Z" fill="rgb(255,255,255)" stroke="none" stroke-width="1"/><g id="emctffaj5mhk105" mask="url(#emctffaj5mhk108)"><g id="emctffaj5mhk106"><path id="emctffaj5mhk107" d="M350.413000,291.774000C350.413000,293.859000,351.822000,295.549000,353.561000,295.549000C355.299000,295.549000,356.708000,293.859000,356.708000,291.774000C356.708000,289.689000,355.299000,287.999000,353.561000,287.999000C351.822000,287.999000,350.413000,289.689000,350.413000,291.774000Z" fill="rgb(41,0,85)" stroke="none" stroke-width="1"/></g><mask id="emctffaj5mhk108" mask-type="alpha"><path id="emctffaj5mhk109" d="M348.864000,289.935000C348.864000,292.715000,350.555000,294.968000,352.641000,294.968000C354.727000,294.968000,356.418000,292.715000,356.418000,289.935000C356.418000,287.154000,354.727000,284.901000,352.641000,284.901000C350.555000,284.901000,348.864000,287.154000,348.864000,289.935000Z" fill="rgb(255,255,255)" stroke="none" stroke-width="1"/></mask></g><path id="emctffaj5mhk110" d="M364.811000,289.795000C364.811000,292.498000,366.455000,294.689000,368.482000,294.689000C370.510000,294.689000,372.154000,292.498000,372.154000,289.795000C372.154000,287.092000,370.510000,284.901000,368.482000,284.901000C366.455000,284.901000,364.811000,287.092000,364.811000,289.795000Z" fill="rgb(255,255,255)" stroke="none" stroke-width="1"/><g id="emctffaj5mhk111" mask="url(#emctffaj5mhk114)"><g id="emctffaj5mhk112"><path id="emctffaj5mhk113" d="M366.317000,291.583000C366.317000,293.610000,367.687000,295.254000,369.377000,295.254000C371.067000,295.254000,372.437000,293.610000,372.437000,291.583000C372.437000,289.556000,371.067000,287.912000,369.377000,287.912000C367.687000,287.912000,366.317000,289.556000,366.317000,291.583000Z" fill="rgb(41,0,85)" stroke="none" stroke-width="1"/></g><mask id="emctffaj5mhk114" mask-type="alpha"><path id="emctffaj5mhk115" d="M364.811000,289.795000C364.811000,292.498000,366.455000,294.689000,368.482000,294.689000C370.510000,294.689000,372.154000,292.498000,372.154000,289.795000C372.154000,287.092000,370.510000,284.901000,368.482000,284.901000C366.455000,284.901000,364.811000,287.092000,364.811000,289.795000Z" fill="rgb(255,255,255)" stroke="none" stroke-width="1"/></mask></g><path id="emctffaj5mhk116" d="M354.640000,306.630000C355.050000,306.575000,355.428000,306.863000,355.483000,307.274000C355.524000,307.588000,355.827000,308.073000,356.533000,308.554000C357.210000,309.016000,358.148000,309.393000,359.201000,309.541000C361.285000,309.833000,363.752000,309.227000,365.521000,306.693000C365.759000,306.354000,366.226000,306.270000,366.566000,306.508000C366.905000,306.745000,366.989000,307.212000,366.751000,307.552000C364.611000,310.618000,361.547000,311.385000,358.992000,311.026000C357.726000,310.848000,356.568000,310.394000,355.688000,309.794000C354.837000,309.213000,354.120000,308.406000,353.996000,307.472000C353.941000,307.062000,354.229000,306.684000,354.640000,306.630000Z" clip-rule="evenodd" fill="rgb(41,0,85)" fill-rule="evenodd" stroke="none" stroke-width="1"/><path id="emctffaj5mhk117" d="M355.171000,277.649000C350.129000,276.228000,345.508000,280.214000,343.828000,282.384000C350.886000,280.490000,350.429000,281.200000,355.801000,281.200000C357.581000,280.874000,360.212000,279.069000,355.171000,277.649000Z" fill="rgb(41,0,85)" stroke="none" stroke-width="1"/><path id="emctffaj5mhk118" d="M368.025000,278.959000C372.335000,278.712000,375.321000,282.784000,376.276000,284.852000C370.950000,282.041000,371.187000,282.700000,366.871000,281.733000C365.500000,281.147000,363.715000,279.206000,368.025000,278.959000Z" fill="rgb(41,0,85)" stroke="none" stroke-width="1"/><path id="emctffaj5mhk119" d="M348.864000,297.905000C348.864000,299.063000,347.173000,300.002000,345.087000,300.002000C343.001000,300.002000,341.311000,299.063000,341.311000,297.905000C341.311000,296.746000,343.001000,295.807000,345.087000,295.807000C347.173000,295.807000,348.864000,296.746000,348.864000,297.905000Z" fill="rgb(234,128,128)" stroke="none" stroke-width="1"/><g id="emctffaj5mhk120" mask="url(#emctffaj5mhk125)"><g id="emctffaj5mhk121"><path id="emctffaj5mhk122" d="M379.078000,297.905000C379.078000,299.063000,377.387000,300.002000,375.301000,300.002000C373.215000,300.002000,371.524000,299.063000,371.524000,297.905000C371.524000,296.746000,373.215000,295.807000,375.301000,295.807000C377.387000,295.807000,379.078000,296.746000,379.078000,297.905000Z" fill="rgb(234,128,128)" stroke="none" stroke-width="1"/><path id="emctffaj5mhk123" d="M363.083000,296.471000C363.180000,296.212000,363.468000,296.081000,363.727000,296.178000C364.849000,296.599000,366.196000,297.222000,366.993000,298.144000C367.403000,298.619000,367.686000,299.195000,367.694000,299.873000C367.702000,300.547000,367.437000,301.250000,366.889000,301.980000C366.217000,302.876000,365.265000,303.517000,364.398000,303.899000C363.963000,304.091000,363.535000,304.224000,363.156000,304.289000C362.799000,304.350000,362.413000,304.364000,362.106000,304.242000C361.850000,304.139000,361.725000,303.848000,361.828000,303.592000C361.930000,303.336000,362.221000,303.211000,362.478000,303.313000C362.521000,303.331000,362.682000,303.356000,362.987000,303.303000C363.271000,303.254000,363.621000,303.149000,363.995000,302.984000C364.747000,302.653000,365.544000,302.106000,366.089000,301.380000C366.548000,300.768000,366.699000,300.276000,366.694000,299.885000C366.690000,299.498000,366.532000,299.141000,366.236000,298.798000C365.620000,298.084000,364.491000,297.533000,363.376000,297.115000C363.117000,297.018000,362.986000,296.729000,363.083000,296.471000Z" clip-rule="evenodd" fill="rgb(217,130,104)" fill-rule="evenodd" stroke="none" stroke-width="1"/><path id="emctffaj5mhk124" d="M326.566000,294.275000C327.303000,294.094000,328.304000,294.316000,328.947000,294.636000C329.195000,294.759000,329.495000,294.659000,329.618000,294.411000C329.741000,294.164000,329.640000,293.864000,329.393000,293.741000C328.621000,293.357000,327.370000,293.048000,326.327000,293.304000C325.787000,293.437000,325.273000,293.731000,324.942000,294.270000C324.615000,294.803000,324.511000,295.505000,324.638000,296.371000C324.811000,297.550000,325.120000,298.415000,325.602000,299.149000C326.079000,299.876000,326.704000,300.442000,327.445000,301.044000C328.658000,302.028000,330.157000,302.470000,331.647000,301.794000C332.438000,301.435000,332.968000,300.984000,333.232000,300.458000C333.505000,299.914000,333.456000,299.359000,333.227000,298.899000C333.003000,298.452000,332.614000,298.095000,332.183000,297.871000C331.752000,297.647000,331.234000,297.531000,330.734000,297.631000C330.090000,297.761000,329.380000,298.211000,328.790000,298.712000C328.363000,299.073000,327.960000,299.495000,327.649000,299.912000C327.139000,299.472000,326.746000,299.069000,326.438000,298.601000C326.055000,298.017000,325.785000,297.299000,325.628000,296.226000C325.522000,295.506000,325.630000,295.063000,325.795000,294.793000C325.956000,294.529000,326.215000,294.361000,326.566000,294.275000ZM328.434000,300.533000C328.688000,300.186000,329.042000,299.809000,329.437000,299.474000C329.985000,299.009000,330.537000,298.691000,330.931000,298.612000C331.158000,298.566000,331.444000,298.613000,331.721000,298.758000C331.998000,298.901000,332.218000,299.118000,332.332000,299.345000C332.438000,299.559000,332.453000,299.780000,332.338000,300.010000C332.214000,300.257000,331.906000,300.578000,331.233000,300.884000C330.313000,301.301000,329.348000,301.145000,328.434000,300.533000Z" clip-rule="evenodd" fill="rgb(234,129,129)" fill-rule="evenodd" stroke="none" stroke-width="1"/></g><mask id="emctffaj5mhk125" mask-type="alpha"><path id="emctffaj5mhk126" d="M378.733000,297.120000C374.956000,326.485000,349.199000,325.840000,340.126000,315.997000C337.334000,312.969000,335.265000,309.542000,333.737000,305.943000C333.392000,305.835000,332.866000,305.677000,332.090000,305.456000C329.151000,304.617000,319.919000,301.680000,322.437000,293.290000C323.862000,288.544000,328.906000,288.676000,330.041000,290.773000C329.504000,285.710000,329.531000,280.912000,329.634000,276.985000C371.599000,216.578000,382.509000,267.756000,378.733000,297.120000Z" fill="rgb(251,189,170)" stroke="none" stroke-width="1"/></mask></g><path id="emctffaj5mhk127" d="M352.545000,297.923000C355.744000,297.923000,358.598000,294.991000,358.598000,291.034000C358.598000,287.076000,355.744000,284.144000,352.545000,284.144000C349.346000,284.144000,346.491000,287.076000,346.491000,291.034000C346.491000,294.991000,349.346000,297.923000,352.545000,297.923000ZM352.545000,299.423000C356.717000,299.423000,360.098000,295.667000,360.098000,291.034000C360.098000,286.400000,356.717000,282.644000,352.545000,282.644000C348.373000,282.644000,344.991000,286.400000,344.991000,291.034000C344.991000,295.667000,348.373000,299.423000,352.545000,299.423000Z" clip-rule="evenodd" fill="rgb(255,255,255)" fill-rule="evenodd" stroke="none" stroke-width="1"/><path id="emctffaj5mhk128" d="M352.545000,297.923000C355.744000,297.923000,358.598000,294.991000,358.598000,291.034000C358.598000,287.076000,355.744000,284.144000,352.545000,284.144000C349.346000,284.144000,346.491000,287.076000,346.491000,291.034000C346.491000,294.991000,349.346000,297.923000,352.545000,297.923000ZM352.545000,299.423000C356.717000,299.423000,360.098000,295.667000,360.098000,291.034000C360.098000,286.400000,356.717000,282.644000,352.545000,282.644000C348.373000,282.644000,344.991000,286.400000,344.991000,291.034000C344.991000,295.667000,348.373000,299.423000,352.545000,299.423000Z" clip-rule="evenodd" fill="rgb(255,255,255)" fill-rule="evenodd" stroke="none" stroke-width="1"/><path id="emctffaj5mhk129" d="M371.009000,297.923000C374.208000,297.923000,377.062000,294.991000,377.062000,291.034000C377.062000,287.076000,374.208000,284.144000,371.009000,284.144000C367.810000,284.144000,364.955000,287.076000,364.955000,291.034000C364.955000,294.991000,367.810000,297.923000,371.009000,297.923000ZM371.009000,299.423000C375.180000,299.423000,378.562000,295.667000,378.562000,291.034000C378.562000,286.400000,375.180000,282.644000,371.009000,282.644000C366.837000,282.644000,363.455000,286.400000,363.455000,291.034000C363.455000,295.667000,366.837000,299.423000,371.009000,299.423000Z" clip-rule="evenodd" fill="rgb(255,255,255)" fill-rule="evenodd" stroke="none" stroke-width="1"/><path id="emctffaj5mhk130" d="M371.009000,297.923000C374.208000,297.923000,377.062000,294.991000,377.062000,291.034000C377.062000,287.076000,374.208000,284.144000,371.009000,284.144000C367.810000,284.144000,364.955000,287.076000,364.955000,291.034000C364.955000,294.991000,367.810000,297.923000,371.009000,297.923000ZM371.009000,299.423000C375.180000,299.423000,378.562000,295.667000,378.562000,291.034000C378.562000,286.400000,375.180000,282.644000,371.009000,282.644000C366.837000,282.644000,363.455000,286.400000,363.455000,291.034000C363.455000,295.667000,366.837000,299.423000,371.009000,299.423000Z" clip-rule="evenodd" fill="rgb(255,255,255)" fill-rule="evenodd" stroke="none" stroke-width="1"/><path id="emctffaj5mhk131" d="M377.393000,290.614000C377.393000,290.200000,377.729000,289.864000,378.143000,289.864000L379.822000,289.864000C380.236000,289.864000,380.572000,290.200000,380.572000,290.614000C380.572000,291.028000,380.236000,291.364000,379.822000,291.364000L378.143000,291.364000C377.729000,291.364000,377.393000,291.028000,377.393000,290.614000ZM363.407000,292.039000C362.121000,291.010000,360.712000,291.587000,360.147000,292.039000C359.824000,292.297000,359.352000,292.245000,359.093000,291.921000C358.834000,291.598000,358.887000,291.126000,359.210000,290.867000C360.044000,290.200000,362.273000,289.211000,364.344000,290.867000C364.667000,291.126000,364.720000,291.598000,364.461000,291.921000C364.202000,292.245000,363.730000,292.297000,363.407000,292.039000ZM329.555000,290.992000C329.578000,290.578000,329.932000,290.262000,330.345000,290.285000L345.452000,291.124000C345.866000,291.147000,346.183000,291.501000,346.160000,291.914000C346.137000,292.328000,345.783000,292.644000,345.369000,292.621000L330.262000,291.782000C329.849000,291.760000,329.532000,291.406000,329.555000,290.992000Z" clip-rule="evenodd" fill="rgb(255,255,255)" fill-rule="evenodd" stroke="none" stroke-width="1"/><path id="emctffaj5mhk132" d="M393.782000,416.682000C389.423000,413.656000,381.602000,413.258000,378.046000,413.685000C372.952000,416.846000,364.006000,422.944000,368.974000,422.049000C375.184000,420.930000,371.269000,423.750000,380.795000,427.867000C390.321000,431.983000,398.233000,428.571000,396.782000,425.499000C395.621000,423.042000,393.525000,421.899000,392.623000,421.634000C395.744000,421.520000,401.338000,428.011000,403.073000,426.609000C404.808000,425.207000,399.279000,420.499000,393.782000,416.682000Z" fill="rgb(251,189,170)" stroke="none" stroke-width="1"/><g id="emctffaj5mhk133" mask="url(#emctffaj5mhk138)"><g id="emctffaj5mhk134"><path id="emctffaj5mhk135" d="M389.491000,422.335000C393.856000,423.006000,395.226000,426.111000,395.366000,427.789000C395.646000,429.467000,395.954000,432.319000,394.947000,428.628000C393.940000,424.936000,390.890000,422.895000,389.491000,422.335000Z" fill="rgb(234,128,128)" stroke="none" stroke-width="1"/><path id="emctffaj5mhk136" d="M392.848000,427.789000C392.177000,425.439000,388.232000,424.153000,386.554000,423.594000C391.925000,426.278000,392.149000,428.907000,391.590000,429.886000L392.429000,430.306000C392.709000,430.585000,393.520000,430.138000,392.848000,427.789000Z" fill="rgb(234,128,128)" stroke="none" stroke-width="1"/><path id="emctffaj5mhk137" d="M386.974000,430.306000C386.974000,430.306000,388.652000,430.306000,389.072000,429.047000C389.522000,427.696000,385.854000,426.250000,384.456000,425.691000C385.333000,426.199000,387.904000,427.832000,387.813000,428.628000C387.699000,429.622000,384.956000,428.812000,384.036000,428.628000C377.742000,427.369000,381.518000,428.767000,381.938000,429.467000C381.798000,429.187000,386.974000,430.306000,386.974000,430.306000Z" fill="rgb(234,128,128)" stroke="none" stroke-width="1"/></g><mask id="emctffaj5mhk138" mask-type="alpha"><path id="emctffaj5mhk139" d="M393.782000,416.682000C389.423000,413.656000,381.602000,413.258000,378.046000,413.685000C372.952000,416.846000,364.006000,422.944000,368.974000,422.049000C375.184000,420.930000,371.269000,423.750000,380.795000,427.867000C390.321000,431.983000,398.233000,428.571000,396.782000,425.499000C395.621000,423.042000,393.525000,421.899000,392.623000,421.634000C395.744000,421.520000,401.338000,428.011000,403.073000,426.609000C404.808000,425.207000,399.279000,420.499000,393.782000,416.682000Z" fill="rgb(251,189,170)" stroke="none" stroke-width="1"/></mask></g><path id="emctffaj5mhk140" d="M334.916000,350.159000C332.845000,343.199000,324.671000,331.372000,316.401000,342.454000C310.995000,349.698000,314.791000,378.450000,319.216000,403.885000C326.309000,423.176000,361.625000,423.130000,375.206000,427.788000C375.122000,420.339000,386.536000,413.945000,386.536000,413.945000L341.422000,400.021000L334.916000,350.159000Z" fill="rgb(13,199,247)" stroke="none" stroke-width="1"/><g id="emctffaj5mhk141"><path id="emctffaj5mhk142" d="M398.286000,312.780000C398.286000,307.257000,402.763000,302.780000,408.286000,302.780000L547.750000,302.780000C553.273000,302.780000,557.750000,307.257000,557.750000,312.780000L557.750000,409.398000C557.750000,414.921000,553.273000,419.398000,547.750000,419.398000L408.286000,419.398000C402.763000,419.398000,398.286000,414.921000,398.286000,409.398000L398.286000,312.780000Z" fill="rgb(85,12,161)" stroke="none" stroke-width="1"/><path id="emctffaj5mhk143" d="M407.519000,312.780000C407.519000,307.257000,411.996000,302.780000,417.519000,302.780000L547.751000,302.780000C553.274000,302.780000,557.751000,307.257000,557.751000,312.780000L557.751000,409.398000C557.751000,414.921000,553.274000,419.398000,547.751000,419.398000L417.519000,419.398000C411.996000,419.398000,407.519000,414.921000,407.519000,409.398000L407.519000,312.780000Z" fill="rgb(56,2,113)" stroke="none" stroke-width="1"/><path id="emctffaj5mhk144" d="M448.644000,360.602000C448.644000,355.079000,453.121000,350.602000,458.644000,350.602000L512.501000,350.602000C518.024000,350.602000,522.501000,355.079000,522.501000,360.602000L522.501000,394.297000C522.501000,399.820000,518.024000,404.297000,512.501000,404.297000L458.644000,404.297000C453.121000,404.297000,448.644000,399.820000,448.644000,394.297000L448.644000,360.602000Z" fill="rgb(41,0,85)" stroke="none" stroke-width="1"/><path id="emctffaj5mhk145" d="M485.571000,390.846000L502.075000,390.846000L532.571000,434.499000L514.991000,434.499000L485.571000,390.846000Z" fill="rgb(41,0,85)" stroke="none" stroke-width="1"/><g id="emctffaj5mhk146" mask="url(#emctffaj5mhk149)"><g id="emctffaj5mhk147"><path id="emctffaj5mhk148" d="M472.569000,390.720000L489.149000,390.720000L519.785000,434.499000L502.124000,434.499000L472.569000,390.720000Z" fill="rgb(85,12,162)" stroke="none" stroke-width="1"/></g><mask id="emctffaj5mhk149" mask-type="alpha"><path id="emctffaj5mhk150" d="M485.644000,390.720000L502.223000,390.720000L532.860000,434.499000L515.199000,434.499000L485.644000,390.720000Z" fill="rgb(41,0,85)" stroke="none" stroke-width="1"/></mask></g></g><g id="emctffaj5mhk151"><path id="emctffaj5mhk152" d="M199.260000,513.953000C184.808000,523.209000,190.717000,561.044000,195.479000,578.805000L218.164000,577.587000C217.884000,565.408000,217.492000,538.859000,218.164000,530.090000C219.005000,519.129000,263.116000,513.953000,248.412000,495.380000C236.649000,480.522000,236.509000,469.297000,237.909000,465.542000C219.005000,481.070000,232.868000,477.112000,237.909000,493.858000C242.951000,510.604000,217.324000,502.383000,199.260000,513.953000Z" fill="rgb(78,18,140)" stroke="none" stroke-width="1"/><path id="emctffaj5mhk153" d="M224.133000,538.534000C209.362000,542.225000,204.830000,561.047000,204.410000,569.996000L222.035000,573.352000C219.238000,569.017000,216.664000,558.921000,228.749000,553.216000C240.835000,547.511000,242.738000,530.983000,242.178000,523.432000C242.318000,526.928000,238.905000,534.842000,224.133000,538.534000Z" fill="rgb(56,2,113)" stroke="none" stroke-width="1"/><path id="emctffaj5mhk154" d="M182.911000,506.311000C156.585000,540.954000,176.533000,584.177000,189.798000,601.458000L207.910000,583.770000C201.873000,571.064000,192.298000,541.198000,202.298000,523.389000C214.798000,501.127000,227.043000,481.610000,207.910000,469.106000C192.605000,459.104000,197.792000,431.800000,202.298000,419.398000C199.577000,419.602000,191.890000,426.412000,182.911000,452.029000C171.687000,484.049000,215.818000,463.007000,182.911000,506.311000Z" fill="rgb(56,2,113)" stroke="none" stroke-width="1"/><path id="emctffaj5mhk155" d="M153.839000,524.902000C141.003000,541.956000,152.432000,567.943000,159.751000,578.805000L188.464000,576.369000C186.071000,563.477000,181.877000,532.333000,184.241000,510.894000C187.197000,484.095000,159.751000,491.404000,150.040000,488.967000C140.328000,486.531000,167.774000,474.350000,153.839000,470.391000C142.692000,467.224000,144.691000,456.890000,147.084000,452.119000C140.328000,456.788000,129.603000,467.772000,140.750000,474.350000C154.684000,482.572000,113.727000,499.322000,133.572000,497.494000C153.417000,495.667000,169.885000,503.585000,153.839000,524.902000Z" fill="rgb(78,18,140)" stroke="none" stroke-width="1"/><path id="emctffaj5mhk156" d="M191.325000,444.321000C191.693000,444.510000,191.838000,444.963000,191.648000,445.331000C189.910000,448.704000,189.214000,451.654000,189.214000,454.288000C189.214000,456.922000,189.910000,459.284000,191.021000,461.481000C192.137000,463.685000,193.667000,465.718000,195.331000,467.687000C196.128000,468.629000,196.949000,469.550000,197.768000,470.468000L197.875000,470.589000C198.727000,471.544000,199.574000,472.497000,200.370000,473.452000C203.675000,477.416000,204.869000,482.261000,203.837000,487.962000C202.811000,493.628000,199.590000,500.133000,194.101000,507.519000C192.016000,510.326000,190.622000,514.263000,189.768000,518.863000C188.916000,523.453000,188.613000,528.645000,188.668000,533.912000C188.780000,544.445000,190.325000,555.198000,191.716000,561.872000C191.800000,562.278000,191.540000,562.675000,191.135000,562.760000C190.729000,562.844000,190.332000,562.584000,190.247000,562.178000C188.841000,555.429000,187.281000,544.578000,187.168000,533.927000C187.112000,528.602000,187.417000,523.306000,188.293000,518.589000C189.167000,513.882000,190.619000,509.691000,192.898000,506.625000C198.320000,499.328000,201.393000,493.040000,202.361000,487.694000C203.322000,482.383000,202.208000,478,199.218000,474.412000C198.440000,473.480000,197.609000,472.545000,196.756000,471.587000L196.644000,471.462000C195.829000,470.548000,194.996000,469.613000,194.186000,468.655000C192.493000,466.652000,190.876000,464.516000,189.683000,462.158000C188.487000,459.793000,187.714000,457.200000,187.714000,454.288000C187.714000,451.377000,188.486000,448.193000,190.315000,444.644000C190.505000,444.276000,190.957000,444.131000,191.325000,444.321000ZM143.274000,490.884000C143.411000,490.493000,143.838000,490.287000,144.229000,490.423000C147.016000,491.399000,154.010000,493.682000,159.680000,495.016000C163.455000,495.904000,167.140000,498.467000,168.866000,503.087000C170.585000,507.688000,170.311000,514.194000,166.490000,522.895000C163.569000,529.544000,164.150000,538.606000,166.156000,547.354000C168.155000,556.070000,171.531000,564.318000,174.025000,569.237000C174.213000,569.606000,174.065000,570.058000,173.696000,570.245000C173.326000,570.433000,172.875000,570.285000,172.688000,569.916000C170.147000,564.906000,166.724000,556.543000,164.694000,547.689000C162.671000,538.867000,161.994000,529.402000,165.116000,522.292000C168.849000,513.793000,168.994000,507.714000,167.461000,503.612000C165.935000,499.527000,162.695000,497.266000,159.337000,496.476000C153.592000,495.125000,146.542000,492.822000,143.734000,491.839000C143.343000,491.703000,143.137000,491.275000,143.274000,490.884000ZM241.169000,506.365000C241.559000,506.503000,241.764000,506.931000,241.626000,507.322000C240.905000,509.365000,239.187000,510.820000,237.005000,511.935000C234.819000,513.051000,232.061000,513.880000,229.087000,514.617000C227.402000,515.034000,225.647000,515.423000,223.872000,515.816000C219.306000,516.828000,214.599000,517.871000,210.568000,519.512000C208.066000,520.532000,206.241000,523.383000,204.962000,527.483000C203.697000,531.542000,203.033000,536.611000,202.693000,541.730000C202.354000,546.840000,202.341000,551.957000,202.360000,556.097000C202.363000,556.649000,202.366000,557.185000,202.369000,557.701000C202.378000,559.115000,202.385000,560.382000,202.378000,561.448000C202.367000,562.879000,202.329000,564.024000,202.211000,564.677000C202.137000,565.084000,201.746000,565.354000,201.339000,565.280000C200.931000,565.206000,200.661000,564.816000,200.735000,564.408000C200.826000,563.908000,200.867000,562.902000,200.878000,561.437000C200.885000,560.382000,200.878000,559.130000,200.869000,557.720000C200.866000,557.202000,200.863000,556.662000,200.860000,556.104000C200.841000,551.959000,200.854000,546.798000,201.196000,541.630000C201.539000,536.471000,202.212000,531.263000,203.530000,527.037000C204.835000,522.852000,206.839000,519.411000,210.002000,518.123000C214.160000,516.430000,219.066000,515.343000,223.675000,514.322000C225.421000,513.935000,227.123000,513.558000,228.727000,513.161000C231.680000,512.429000,234.298000,511.633000,236.323000,510.599000C238.350000,509.564000,239.674000,508.345000,240.212000,506.822000C240.350000,506.432000,240.778000,506.227000,241.169000,506.365000ZM235.742000,537.838000C236.127000,537.992000,236.314000,538.428000,236.160000,538.813000C235.821000,539.660000,234.891000,540.988000,233.236000,542.470000C231.566000,543.965000,229.122000,545.649000,225.700000,547.188000C222.504000,548.626000,219.377000,551.627000,216.743000,554.874000C214.120000,558.106000,212.049000,561.502000,210.952000,563.628000C210.762000,563.996000,210.309000,564.140000,209.941000,563.950000C209.573000,563.760000,209.429000,563.308000,209.619000,562.940000C210.759000,560.731000,212.885000,557.248000,215.578000,553.929000C218.259000,550.624000,221.566000,547.403000,225.085000,545.820000C228.377000,544.339000,230.689000,542.737000,232.236000,541.352000C233.798000,539.953000,234.547000,538.807000,234.767000,538.255000C234.921000,537.871000,235.358000,537.684000,235.742000,537.838000Z" clip-rule="evenodd" fill="rgb(255,255,255)" fill-rule="evenodd" stroke="none" stroke-width="1"/><path id="emctffaj5mhk157" d="M161.187000,630.403000L150.276000,567.898000L230.428000,567.898000L219.098000,630.403000C197.276000,645.504000,171.398000,636.695000,161.187000,630.403000Z" fill="rgb(196,196,196)" stroke="none" stroke-width="1"/><path id="emctffaj5mhk158" d="M161.187000,630.403000L150.276000,567.898000L230.428000,567.898000L219.098000,630.403000C197.276000,645.504000,171.398000,636.695000,161.187000,630.403000Z" fill="url(#emctffaj5mhk158-fill)" stroke="none" stroke-width="1"/><path id="emctffaj5mhk159" d="M147.758000,573.352000L143.981000,560.347000L238.401000,560.347000L234.624000,573.352000L147.758000,573.352000Z" fill="rgb(255,134,90)" stroke="none" stroke-width="1"/></g><script><![CDATA[!function(t,n){"object"==typeof exports&&"undefined"!=typeof module?module.exports=n():"function"==typeof define&&define.amd?define(n):(t="undefined"!=typeof globalThis?globalThis:t||self).__SVGATOR_PLAYER__=n()}(this,(function(){"use strict";function t(n){return(t="function"==typeof Symbol&&"symbol"==typeof Symbol.iterator?function(t){return typeof t}:function(t){return t&&"function"==typeof Symbol&&t.constructor===Symbol&&t!==Symbol.prototype?"symbol":typeof t})(n)}function n(t,n){if(!(t instanceof n))throw new TypeError("Cannot call a class as a function")}function r(t,n){for(var r=0;r<n.length;r++){var e=n[r];e.enumerable=e.enumerable||!1,e.configurable=!0,"value"in e&&(e.writable=!0),Object.defineProperty(t,e.key,e)}}function e(t,n,e){return n&&r(t.prototype,n),e&&r(t,e),t}function i(t){return(i=Object.setPrototypeOf?Object.getPrototypeOf:function(t){return t.__proto__||Object.getPrototypeOf(t)})(t)}function o(t,n){return(o=Object.setPrototypeOf||function(t,n){return t.__proto__=n,t})(t,n)}function u(t,n){return!n||"object"!=typeof n&&"function"!=typeof n?function(t){if(void 0===t)throw new ReferenceError("this hasn't been initialised - super() hasn't been called");return t}(t):n}function a(t){var n=function(){if("undefined"==typeof Reflect||!Reflect.construct)return!1;if(Reflect.construct.sham)return!1;if("function"==typeof Proxy)return!0;try{return Boolean.prototype.valueOf.call(Reflect.construct(Boolean,[],(function(){}))),!0}catch(t){return!1}}();return function(){var r,e=i(t);if(n){var o=i(this).constructor;r=Reflect.construct(e,arguments,o)}else r=e.apply(this,arguments);return u(this,r)}}function l(t,n,r){return(l="undefined"!=typeof Reflect&&Reflect.get?Reflect.get:function(t,n,r){var e=function(t,n){for(;!Object.prototype.hasOwnProperty.call(t,n)&&null!==(t=i(t)););return t}(t,n);if(e){var o=Object.getOwnPropertyDescriptor(e,n);return o.get?o.get.call(r):o.value}})(t,n,r||t)}var f=Math.abs;function s(t){return t}function c(t,n,r){var e=1-r;return 3*r*e*(t*e+n*r)+r*r*r}function h(){var t=arguments.length>0&&void 0!==arguments[0]?arguments[0]:0,n=arguments.length>1&&void 0!==arguments[1]?arguments[1]:0,r=arguments.length>2&&void 0!==arguments[2]?arguments[2]:1,e=arguments.length>3&&void 0!==arguments[3]?arguments[3]:1;return t<0||t>1||r<0||r>1?null:f(t-n)<=1e-5&&f(r-e)<=1e-5?s:function(i){if(i<=0)return t>0?i*n/t:0===n&&r>0?i*e/r:0;if(i>=1)return r<1?1+(i-1)*(e-1)/(r-1):1===r&&t<1?1+(i-1)*(n-1)/(t-1):1;for(var o,u=0,a=1;u<a;){var l=c(t,r,o=(u+a)/2);if(f(i-l)<1e-5)break;l<i?u=o:a=o}return c(n,e,o)}}function v(){return 1}function y(t){return 1===t?1:0}function d(){var t=arguments.length>0&&void 0!==arguments[0]?arguments[0]:1,n=arguments.length>1&&void 0!==arguments[1]?arguments[1]:0;if(1===t){if(0===n)return y;if(1===n)return v}var r=1/t;return function(t){return t>=1?1:(t+=n*r)-t%r}}function g(t){var n=arguments.length>1&&void 0!==arguments[1]?arguments[1]:2;if(Number.isInteger(t))return t;var r=Math.pow(10,n);return Math.round(t*r)/r}var p=Math.PI/180;function m(t,n,r){return t>=.5?r:n}function b(t,n,r){return 0===t||n===r?n:t*(r-n)+n}function w(t,n,r){var e=b(t,n,r);return e<=0?0:e}function x(t,n,r){return 0===t?n:1===t?r:{x:b(t,n.x,r.x),y:b(t,n.y,r.y)}}function k(t,n,r){var e=function(t,n,r){return Math.round(b(t,n,r))}(t,n,r);return e<=0?0:e>=255?255:e}function A(t,n,r){return 0===t?n:1===t?r:{r:k(t,n.r,r.r),g:k(t,n.g,r.g),b:k(t,n.b,r.b),a:b(t,null==n.a?1:n.a,null==r.a?1:r.a)}}function _(t,n,r){if(0===t)return n;if(1===t)return r;var e=n.length;if(e!==r.length)return m(t,n,r);for(var i=[],o=0;o<e;o++)i.push(A(t,n[o],r[o]));return i}function S(t,n){for(var r=[],e=0;e<t;e++)r.push(n);return r}function O(t,n){if(--n<=0)return t;var r=(t=Object.assign([],t)).length;do{for(var e=0;e<r;e++)t.push(t[e])}while(--n>0);return t}var M,j=function(){function t(r){n(this,t),this.list=r,this.length=r.length}return e(t,[{key:"setAttribute",value:function(t,n){for(var r=this.list,e=0;e<this.length;e++)r[e].setAttribute(t,n)}},{key:"removeAttribute",value:function(t){for(var n=this.list,r=0;r<this.length;r++)n[r].removeAttribute(t)}},{key:"style",value:function(t,n){for(var r=this.list,e=0;e<this.length;e++)r[e].style[t]=n}}]),t}(),F=/-./g,P=function(t,n){return n.toUpperCase()};function B(t){return"function"==typeof t?t:m}function I(t){return t?"function"==typeof t?t:Array.isArray(t)?function(t){var n=arguments.length>1&&void 0!==arguments[1]?arguments[1]:s;if(!Array.isArray(t))return n;switch(t.length){case 1:return d(t[0])||n;case 2:return d(t[0],t[1])||n;case 4:return h(t[0],t[1],t[2],t[3])||n}return n}(t,null):function(t,n){var r=arguments.length>2&&void 0!==arguments[2]?arguments[2]:s;switch(t){case"linear":return s;case"steps":return d(n.steps||1,n.jump||0)||r;case"bezier":case"cubic-bezier":return h(n.x1||0,n.y1||0,n.x2||0,n.y2||0)||r}return r}(t.type,t.value,null):null}function R(t,n,r){var e=arguments.length>3&&void 0!==arguments[3]&&arguments[3],i=n.length-1;if(t<=n[0].t)return e?[0,0,n[0].v]:n[0].v;if(t>=n[i].t)return e?[i,1,n[i].v]:n[i].v;var o,u=n[0],a=null;for(o=1;o<=i;o++){if(!(t>n[o].t)){a=n[o];break}u=n[o]}return null==a?e?[i,1,n[i].v]:n[i].v:u.t===a.t?e?[o,1,a.v]:a.v:(t=(t-u.t)/(a.t-u.t),u.e&&(t=u.e(t)),e?[o,t,r(t,u.v,a.v)]:r(t,u.v,a.v))}function q(t,n){var r=arguments.length>2&&void 0!==arguments[2]?arguments[2]:null;return t&&t.length?"function"!=typeof n?null:("function"!=typeof r&&(r=null),function(e){var i=R(e,t,n);return null!=i&&r&&(i=r(i)),i}):null}function E(t,n){return t.t-n.t}function T(n,r,e,i,o){var u,a="@"===e[0],l="#"===e[0],f=M[e],s=m;switch(a?(u=e.substr(1),e=u.replace(F,P)):l&&(e=e.substr(1)),t(f)){case"function":if(s=f(i,o,R,I,e,a,r,n),l)return s;break;case"string":s=q(i,B(f));break;case"object":if((s=q(i,B(f.i),f.f))&&"function"==typeof f.u)return f.u(r,s,e,a,n)}return s?function(t,n,r){var e=arguments.length>3&&void 0!==arguments[3]&&arguments[3];if(e)return t instanceof j?function(e){return t.style(n,r(e))}:function(e){return t.style[n]=r(e)};if(Array.isArray(n)){var i=n.length;return function(e){var o=r(e);if(null==o)for(var u=0;u<i;u++)t[u].removeAttribute(n);else for(var a=0;a<i;a++)t[a].setAttribute(n,o)}}return function(e){var i=r(e);null==i?t.removeAttribute(n):t.setAttribute(n,i)}}(r,e,s,a):null}function N(n,r,e,i){if(!i||"object"!==t(i))return null;var o=null,u=null;return Array.isArray(i)?u=function(t){if(!t||!t.length)return null;for(var n=0;n<t.length;n++)t[n].e&&(t[n].e=I(t[n].e));return t.sort(E)}(i):(u=i.keys,o=i.data||null),u?T(n,r,e,u,o):null}function C(t,n,r){if(!r)return null;var e=[];for(var i in r)if(r.hasOwnProperty(i)){var o=N(t,n,i,r[i]);o&&e.push(o)}return e.length?e:null}function z(t,n){if(!n.duration||n.duration<0)return null;var r=function(t,n){if(!n)return null;var r=[];if(Array.isArray(n))for(var e=n.length,i=0;i<e;i++){var o=n[i];if(2===o.length){var u=null;if("string"==typeof o[0])u=t.getElementById(o[0]);else if(Array.isArray(o[0])){u=[];for(var a=0;a<o[0].length;a++)if("string"==typeof o[0][a]){var l=t.getElementById(o[0][a]);l&&u.push(l)}u=u.length?1===u.length?u[0]:new j(u):null}if(u){var f=C(t,u,o[1]);f&&(r=r.concat(f))}}}else for(var s in n)if(n.hasOwnProperty(s)){var c=t.getElementById(s);if(c){var h=C(t,c,n[s]);h&&(r=r.concat(h))}}return r.length?r:null}(t,n.elements);return r?function(t,n){var r=arguments.length>2&&void 0!==arguments[2]?arguments[2]:1/0,e=arguments.length>3&&void 0!==arguments[3]?arguments[3]:1,i=arguments.length>4&&void 0!==arguments[4]&&arguments[4],o=arguments.length>5&&void 0!==arguments[5]?arguments[5]:1,u=t.length,a=e>0?n:0;i&&r%2==0&&(a=n-a);var l=null;return function(f,s){var c=f%n,h=1+(f-c)/n;s*=e,i&&h%2==0&&(s=-s);var v=!1;if(h>r)c=a,v=!0,-1===o&&(c=e>0?0:n);else if(s<0&&(c=n-c),c===l)return!1;l=c;for(var y=0;y<u;y++)t[y](c);return v}}(r,n.duration,n.iterations||1/0,n.direction||1,!!n.alternate,n.fill||1):null}var L=function(){function t(r,e){var i=arguments.length>2&&void 0!==arguments[2]?arguments[2]:{};n(this,t),this._id=0,this._running=!1,this._rollingBack=!1,this._animations=r,this.duration=e.duration,this.alternate=e.alternate,this.fill=e.fill,this.iterations=e.iterations,this.direction=i.direction||1,this.speed=i.speed||1,this.fps=i.fps||100,this.offset=i.offset||0,this.rollbackStartOffset=0}return e(t,[{key:"_rollback",value:function(){var t=this,n=1/0,r=null;this.rollbackStartOffset=this.offset,this._rollingBack||(this._rollingBack=!0,this._running=!0);this._id=window.requestAnimationFrame((function e(i){if(t._rollingBack){null==r&&(r=i);var o=i-r,u=t.rollbackStartOffset-o,a=Math.round(u*t.speed);if(a>t.duration&&n!=1/0){var l=!!t.alternate&&a/t.duration%2>1,f=a%t.duration;a=(f+=l?t.duration:0)||t.duration}var s=t.fps?1e3/t.fps:0,c=Math.max(0,a);if(c<n-s){t.offset=c,n=c;for(var h=t._animations,v=h.length,y=0;y<v;y++)h[y](c,t.direction)}var d=!1;if(t.iterations>0&&-1===t.fill){var g=t.iterations*t.duration,p=g==a;a=p?0:a,t.offset=p?0:t.offset,d=a>g}a>0&&t.offset>=a&&!d?t._id=window.requestAnimationFrame(e):t.stop()}}))}},{key:"_start",value:function(){var t=this,n=arguments.length>0&&void 0!==arguments[0]?arguments[0]:0,r=-1/0,e=null,i={},o=function o(u){t._running=!0,null==e&&(e=u);var a=Math.round((u-e+n)*t.speed),l=t.fps?1e3/t.fps:0;if(a>r+l&&!t._rollingBack){t.offset=a,r=a;for(var f=t._animations,s=f.length,c=0,h=0;h<s;h++)i[h]?c++:(i[h]=f[h](a,t.direction),i[h]&&c++);if(c===s)return void t._stop()}t._id=window.requestAnimationFrame(o)};this._id=window.requestAnimationFrame(o)}},{key:"_stop",value:function(){this._id&&window.cancelAnimationFrame(this._id),this._running=!1,this._rollingBack=!1}},{key:"play",value:function(){!this._rollingBack&&this._running||(this._rollingBack=!1,this.rollbackStartOffset>this.duration&&(this.offset=this.rollbackStartOffset-(this.rollbackStartOffset-this.offset)%this.duration,this.rollbackStartOffset=0),this._start(this.offset))}},{key:"stop",value:function(){this._stop(),this.offset=0,this.rollbackStartOffset=0;var t=this.direction,n=this._animations;window.requestAnimationFrame((function(){for(var r=0;r<n.length;r++)n[r](0,t)}))}},{key:"reachedToEnd",value:function(){return this.iterations>0&&this.offset>=this.iterations*this.duration}},{key:"restart",value:function(){this._stop(),this.offset=0,this._start()}},{key:"pause",value:function(){this._stop()}},{key:"reverse",value:function(){this.direction=-this.direction}}],[{key:"build",value:function(n,r){return(n=function(t,n){if(M=n,!t||!t.root||!Array.isArray(t.animations))return null;for(var r=document.getElementsByTagName("svg"),e=!1,i=0;i<r.length;i++)if(r[i].id===t.root&&!r[i].svgatorAnimation){(e=r[i]).svgatorAnimation=!0;break}if(!e)return null;var o=t.animations.map((function(t){return z(e,t)})).filter((function(t){return!!t}));return o.length?{element:e,animations:o,animationSettings:t.animationSettings,options:t.options||void 0}:null}(n,r))?{el:n.element,options:n.options||{},player:new t(n.animations,n.animationSettings,n.options)}:null}}]),t}();!function(){for(var t=0,n=["ms","moz","webkit","o"],r=0;r<n.length&&!window.requestAnimationFrame;++r)window.requestAnimationFrame=window[n[r]+"RequestAnimationFrame"],window.cancelAnimationFrame=window[n[r]+"CancelAnimationFrame"]||window[n[r]+"CancelRequestAnimationFrame"];window.requestAnimationFrame||(window.requestAnimationFrame=function(n){var r=Date.now(),e=Math.max(0,16-(r-t)),i=window.setTimeout((function(){n(r+e)}),e);return t=r+e,i},window.cancelAnimationFrame=window.clearTimeout)}();var D=/\.0+$/g;function Q(t){return Number.isInteger(t)?t+"":t.toFixed(6).replace(D,"")}function U(t){var n=arguments.length>1&&void 0!==arguments[1]?arguments[1]:" ";return t&&t.length?t.map(Q).join(n):""}function V(t){return t?null==t.a||t.a>=1?"rgb("+t.r+","+t.g+","+t.b+")":"rgba("+t.r+","+t.g+","+t.b+","+t.a+")":"transparent"}var $={f:null,i:function(t,n,r){return 0===t?n:1===t?r:{x:w(t,n.x,r.x),y:w(t,n.y,r.y)}},u:function(t,n){return function(r){var e=n(r);t.setAttribute("rx",Q(e.x)),t.setAttribute("ry",Q(e.y))}}},G={f:null,i:function(t,n,r){return 0===t?n:1===t?r:{width:w(t,n.width,r.width),height:w(t,n.height,r.height)}},u:function(t,n){return function(r){var e=n(r);t.setAttribute("width",Q(e.width)),t.setAttribute("height",Q(e.height))}}},H=Math.sin,Y=Math.cos,Z=Math.acos,J=Math.asin,K=Math.tan,W=Math.atan2,X=Math.PI/180,tt=180/Math.PI,nt=Math.sqrt,rt=function(){function t(){var r=arguments.length>0&&void 0!==arguments[0]?arguments[0]:1,e=arguments.length>1&&void 0!==arguments[1]?arguments[1]:0,i=arguments.length>2&&void 0!==arguments[2]?arguments[2]:0,o=arguments.length>3&&void 0!==arguments[3]?arguments[3]:1,u=arguments.length>4&&void 0!==arguments[4]?arguments[4]:0,a=arguments.length>5&&void 0!==arguments[5]?arguments[5]:0;n(this,t),this.m=[r,e,i,o,u,a],this.i=null,this.w=null,this.s=null}return e(t,[{key:"determinant",get:function(){var t=this.m;return t[0]*t[3]-t[1]*t[2]}},{key:"isIdentity",get:function(){if(null===this.i){var t=this.m;this.i=1===t[0]&&0===t[1]&&0===t[2]&&1===t[3]&&0===t[4]&&0===t[5]}return this.i}},{key:"point",value:function(t,n){var r=this.m;return{x:r[0]*t+r[2]*n+r[4],y:r[1]*t+r[3]*n+r[5]}}},{key:"translateSelf",value:function(){var t=arguments.length>0&&void 0!==arguments[0]?arguments[0]:0,n=arguments.length>1&&void 0!==arguments[1]?arguments[1]:0;if(!t&&!n)return this;var r=this.m;return r[4]+=r[0]*t+r[2]*n,r[5]+=r[1]*t+r[3]*n,this.w=this.s=this.i=null,this}},{key:"rotateSelf",value:function(){var t=arguments.length>0&&void 0!==arguments[0]?arguments[0]:0;if(t%=360){var n=H(t*=X),r=Y(t),e=this.m,i=e[0],o=e[1];e[0]=i*r+e[2]*n,e[1]=o*r+e[3]*n,e[2]=e[2]*r-i*n,e[3]=e[3]*r-o*n,this.w=this.s=this.i=null}return this}},{key:"scaleSelf",value:function(){var t=arguments.length>0&&void 0!==arguments[0]?arguments[0]:1,n=arguments.length>1&&void 0!==arguments[1]?arguments[1]:1;if(1!==t||1!==n){var r=this.m;r[0]*=t,r[1]*=t,r[2]*=n,r[3]*=n,this.w=this.s=this.i=null}return this}},{key:"skewSelf",value:function(t,n){if(n%=360,(t%=360)||n){var r=this.m,e=r[0],i=r[1],o=r[2],u=r[3];t&&(t=K(t*X),r[2]+=e*t,r[3]+=i*t),n&&(n=K(n*X),r[0]+=o*n,r[1]+=u*n),this.w=this.s=this.i=null}return this}},{key:"resetSelf",value:function(){var t=arguments.length>0&&void 0!==arguments[0]?arguments[0]:1,n=arguments.length>1&&void 0!==arguments[1]?arguments[1]:0,r=arguments.length>2&&void 0!==arguments[2]?arguments[2]:0,e=arguments.length>3&&void 0!==arguments[3]?arguments[3]:1,i=arguments.length>4&&void 0!==arguments[4]?arguments[4]:0,o=arguments.length>5&&void 0!==arguments[5]?arguments[5]:0,u=this.m;return u[0]=t,u[1]=n,u[2]=r,u[3]=e,u[4]=i,u[5]=o,this.w=this.s=this.i=null,this}},{key:"recomposeSelf",value:function(){var t=arguments.length>0&&void 0!==arguments[0]?arguments[0]:null,n=arguments.length>1&&void 0!==arguments[1]?arguments[1]:null,r=arguments.length>2&&void 0!==arguments[2]?arguments[2]:null,e=arguments.length>3&&void 0!==arguments[3]?arguments[3]:null,i=arguments.length>4&&void 0!==arguments[4]?arguments[4]:null;return this.isIdentity||this.resetSelf(),t&&(t.x||t.y)&&this.translateSelf(t.x,t.y),n&&this.rotateSelf(n),r&&(r.x&&this.skewSelf(r.x,0),r.y&&this.skewSelf(0,r.y)),!e||1===e.x&&1===e.y||this.scaleSelf(e.x,e.y),i&&(i.x||i.y)&&this.translateSelf(i.x,i.y),this}},{key:"decompose",value:function(){var t=arguments.length>0&&void 0!==arguments[0]?arguments[0]:0,n=arguments.length>1&&void 0!==arguments[1]?arguments[1]:0,r=this.m,e=r[0]*r[0]+r[1]*r[1],i=[[r[0],r[1]],[r[2],r[3]]],o=nt(e);if(0===o)return{origin:{x:r[4],y:r[5]},translate:{x:t,y:n},scale:{x:0,y:0},skew:{x:0,y:0},rotate:0};i[0][0]/=o,i[0][1]/=o;var u=r[0]*r[3]-r[1]*r[2]<0;u&&(o=-o);var a=i[0][0]*i[1][0]+i[0][1]*i[1][1];i[1][0]-=i[0][0]*a,i[1][1]-=i[0][1]*a;var l=nt(i[1][0]*i[1][0]+i[1][1]*i[1][1]);if(0===l)return{origin:{x:r[4],y:r[5]},translate:{x:t,y:n},scale:{x:o,y:0},skew:{x:0,y:0},rotate:0};i[1][0]/=l,i[1][1]/=l,a/=l;var f=0;return i[1][1]<0?(f=Z(i[1][1])*tt,i[0][1]<0&&(f=360-f)):f=J(i[0][1])*tt,u&&(f=-f),a=W(a,nt(i[0][0]*i[0][0]+i[0][1]*i[0][1]))*tt,u&&(a=-a),{origin:{x:r[4],y:r[5]},translate:{x:t,y:n},scale:{x:o,y:l},skew:{x:a,y:0},rotate:f}}},{key:"toString",value:function(){return null===this.s&&(this.s="matrix("+this.m.map(it).join(" ")+")"),this.s}}]),t}(),et=/\.0+$/;function it(t){return Number.isInteger(t)?t:t.toFixed(14).replace(et,"")}function ot(t,n,r){return t+(n-t)*r}function ut(t,n,r){var e=arguments.length>3&&void 0!==arguments[3]&&arguments[3],i={x:ot(t.x,n.x,r),y:ot(t.y,n.y,r)};return e&&(i.a=at(t,n)),i}function at(t,n){return Math.atan2(n.y-t.y,n.x-t.x)}Object.freeze({M:2,L:2,Z:0,H:1,V:1,C:6,Q:4,T:2,S:4,A:7});var lt={},ft=null;function st(n){var r=function(){if(ft)return ft;if("object"!==("undefined"==typeof document?"undefined":t(document)))return{};var n=document.createElementNS("http://www.w3.org/2000/svg","svg");return n.style.position="absolute",n.style.opacity="0.01",n.style.zIndex="-9999",n.style.left="-9999px",n.style.width="1px",n.style.height="1px",ft={svg:n}}().svg;if(!r)return function(t){return null};var e=document.createElementNS(r.namespaceURI,"path");e.setAttributeNS(null,"d",n),e.setAttributeNS(null,"fill","none"),e.setAttributeNS(null,"stroke","none"),r.appendChild(e);var i=e.getTotalLength();return function(t){var n=e.getPointAtLength(i*t);return{x:n.x,y:n.y}}}function ct(t){return lt[t]?lt[t]:lt[t]=st(t)}function ht(t,n,r,e){if(!t||!e)return!1;var i=["M",t.x,t.y];if(n&&r&&(i.push("C"),i.push(n.x),i.push(n.y),i.push(r.x),i.push(r.y)),n?!r:r){var o=n||r;i.push("Q"),i.push(o.x),i.push(o.y)}return n||r||i.push("L"),i.push(e.x),i.push(e.y),i.join(" ")}function vt(t,n,r,e){var i=arguments.length>4&&void 0!==arguments[4]?arguments[4]:1,o=ht(t,n,r,e),u=ct(o);try{return u(i)}catch(t){return null}}function yt(t,n,r,e){var i=1-e;return i*i*t+2*i*e*n+e*e*r}function dt(t,n,r,e){return 2*(1-e)*(n-t)+2*e*(r-n)}function gt(t,n,r,e){var i=arguments.length>4&&void 0!==arguments[4]&&arguments[4],o=vt(t,n,null,r,e);return o||(o={x:yt(t.x,n.x,r.x,e),y:yt(t.y,n.y,r.y,e)}),i&&(o.a=pt(t,n,r,e)),o}function pt(t,n,r,e){return Math.atan2(dt(t.y,n.y,r.y,e),dt(t.x,n.x,r.x,e))}function mt(t,n,r,e,i){var o=i*i;return i*o*(e-t+3*(n-r))+3*o*(t+r-2*n)+3*i*(n-t)+t}function bt(t,n,r,e,i){var o=1-i;return 3*(o*o*(n-t)+2*o*i*(r-n)+i*i*(e-r))}function wt(t,n,r,e,i){var o=arguments.length>5&&void 0!==arguments[5]&&arguments[5],u=vt(t,n,r,e,i);return u||(u={x:mt(t.x,n.x,r.x,e.x,i),y:mt(t.y,n.y,r.y,e.y,i)}),o&&(u.a=xt(t,n,r,e,i)),u}function xt(t,n,r,e,i){return Math.atan2(bt(t.y,n.y,r.y,e.y,i),bt(t.x,n.x,r.x,e.x,i))}function kt(t,n,r){var e=arguments.length>3&&void 0!==arguments[3]&&arguments[3];if(_t(n)){if(St(r))return gt(n,r.start,r,t,e)}else if(_t(r)){if(n.end)return gt(n,n.end,r,t,e)}else{if(n.end)return r.start?wt(n,n.end,r.start,r,t,e):gt(n,n.end,r,t,e);if(r.start)return gt(n,r.start,r,t,e)}return ut(n,r,t,e)}function At(t,n,r){var e=kt(t,n,r,!0);return e.a=function(t){var n=arguments.length>1&&void 0!==arguments[1]&&arguments[1];return n?t+Math.PI:t}(e.a)/p,e}function _t(t){return!t.type||"corner"===t.type}function St(t){return null!=t.start&&!_t(t)}var Ot=new rt;var Mt={f:Q,i:b},jt={f:Q,i:function(t,n,r){var e=b(t,n,r);return e<=0?0:e>=1?1:e}};function Ft(t,n,r,e,i,o,u,a){return n=function(t,n,r){for(var e,i,o,u=t.length-1,a={},l=0;l<=u;l++)(e=t[l]).e&&(e.e=n(e.e)),e.v&&"g"===(i=e.v).t&&i.r&&(o=r.getElementById(i.r))&&(a[i.r]=o.querySelectorAll("stop"));return a}(t,e,a),function(e){var i,o=r(e,t,Pt);return o?"c"===o.t?V(o.v):"g"===o.t?(n[o.r]&&function(t,n){for(var r=0,e=t.length;r<e;r++)t[r].setAttribute("stop-color",V(n[r]))}(n[o.r],o.v),(i=o.r)?"url(#"+i+")":"none"):"none":"none"}}function Pt(t,n,r){if(0===t)return n;if(1===t)return r;if(n&&r){var e=n.t;if(e===r.t)switch(n.t){case"c":return{t:e,v:A(t,n.v,r.v)};case"g":if(n.r===r.r)return{t:e,v:_(t,n.v,r.v),r:n.r}}}return m(t,n,r)}var Bt={fill:Ft,"fill-opacity":jt,stroke:Ft,"stroke-opacity":jt,"stroke-width":Mt,"stroke-dashoffset":{f:Q,i:b},"stroke-dasharray":{f:function(t){var n=arguments.length>1&&void 0!==arguments[1]?arguments[1]:" ";return t&&t.length>0&&(t=t.map((function(t){return Math.floor(1e4*t)/1e4}))),U(t,n)},i:function(t,n,r){var e,i,o,u=n.length,a=r.length;if(u!==a)if(0===u)n=S(u=a,0);else if(0===a)a=u,r=S(u,0);else{var l=(o=(e=u)*(i=a)/function(t,n){for(var r;n;)r=n,n=t%n,t=r;return t||1}(e,i))<0?-o:o;n=O(n,Math.floor(l/u)),r=O(r,Math.floor(l/a)),u=a=l}for(var f=[],s=0;s<u;s++)f.push(g(w(t,n[s],r[s]),6));return f}},opacity:jt,transform:function(n,r,e,i){if(!(n=function(n,r){if(!n||"object"!==t(n))return null;var e=!1;for(var i in n)n.hasOwnProperty(i)&&(n[i]&&n[i].length?(n[i].forEach((function(t){t.e&&(t.e=r(t.e))})),e=!0):delete n[i]);return e?n:null}(n,i)))return null;var o=function(t,i,o){var u=arguments.length>3&&void 0!==arguments[3]?arguments[3]:null;return n[t]?e(i,n[t],o):r&&r[t]?r[t]:u};return r&&r.a&&n.o?function(t){var r=e(t,n.o,At);return Ot.recomposeSelf(r,o("r",t,b,0)+r.a,o("k",t,x),o("s",t,x),o("t",t,x)).toString()}:function(t){return Ot.recomposeSelf(o("o",t,kt,null),o("r",t,b,0),o("k",t,x),o("s",t,x),o("t",t,x)).toString()}},r:Mt,"#size":G,"#radius":$,_:function(t,n){if(Array.isArray(t))for(var r=0;r<t.length;r++)this[t[r]]=n;else this[t]=n}};return function(t){!function(t,n){if("function"!=typeof n&&null!==n)throw new TypeError("Super expression must either be null or a function");t.prototype=Object.create(n&&n.prototype,{constructor:{value:t,writable:!0,configurable:!0}}),n&&o(t,n)}(u,t);var r=a(u);function u(){return n(this,u),r.apply(this,arguments)}return e(u,null,[{key:"build",value:function(t){var n=l(i(u),"build",this).call(this,t,Bt);n.el,n.options;var r=n.player;return function(t){t.play()}(r),r}}]),u}(L)}));
__SVGATOR_PLAYER__.build({"root":"emctffaj5mhk1","animations":[{"duration":3000,"direction":1,"iterations":1,"fill":1,"alternate":false,"elements":{"emctffaj5mhk87":{"transform":{"data":{"t":{"x":-557.7579956054688,"y":-422.7550048828125}},"keys":{"o":[{"t":0,"v":{"x":557.76,"y":304.2850341828127,"type":"corner"}},{"t":500,"v":{"x":557.76,"y":423.3919978028125,"type":"corner"}}]}},"opacity":[{"t":0,"v":0},{"t":200,"v":0.48},{"t":500,"v":1}]},"emctffaj5mhk93":{"transform":{"data":{"t":{"x":-557.75,"y":-403.0384979248047}},"keys":{"o":[{"t":500,"v":{"x":557.76,"y":284.4837734398045,"type":"corner"}},{"t":1000,"v":{"x":557.76,"y":403.6754881500004,"type":"corner"}}]}},"opacity":[{"t":500,"v":0},{"t":700,"v":0.64},{"t":1000,"v":1}]}}}],"options":{"start":"load","hover":"freeze","click":"freeze","scroll":25,"font":"embed","exportedIds":"unique","title":"Illustration Login"},"animationSettings":{"duration":3000,"direction":1,"iterations":1,"fill":1,"alternate":false}})]]></script></svg>