<svg fill="none" height="38" viewBox="0 0 210 38" width="210" xmlns="http://www.w3.org/2000/svg" xmlns:xlink="http://www.w3.org/1999/xlink"><radialGradient id="a" cx="0" cy="0" gradientTransform="matrix(-23.99995502 11.00019998 -10.85799337 -23.68969228 16.5 15.5)" gradientUnits="userSpaceOnUse" r="1"><stop offset=".435224" stop-color="#fff"/><stop offset=".437034" stop-color="#d2deff"/></radialGradient><linearGradient id="b" gradientUnits="userSpaceOnUse" x1="26.5" x2="12.5" y1="5" y2="31"><stop offset="0" stop-color="#00f5bd"/><stop offset=".264284" stop-color="#00d1fe"/><stop offset=".600811" stop-color="#f5087f"/><stop offset=".927083" stop-color="#fe9401"/></linearGradient><path d="m17.7254 29c-1.8956 0-3.5865-.4015-5.0727-1.2044-1.4648-.803-2.6064-1.9868-3.42491-3.5515-.81853-1.5647-1.22779-3.4691-1.22779-5.7132 0-2.1824.4308-4.0559 1.29241-5.6206.86159-1.5853 2.08939-2.8 3.68339-3.64412 1.6155-.84412 3.511-1.26618 5.6866-1.26618 2.434 0 4.3834.42206 5.8481 1.26618 1.4863.82352 2.6387 2.14122 3.4572 3.95292l-5.1373 1.9456c-.28-1.05-.7755-1.8118-1.4863-2.2853s-1.594-.7103-2.6494-.7103c-1.594 0-2.8326.5456-3.7157 1.6368-.8616 1.0706-1.2924 2.6353-1.2924 4.6941 0 2.1824.4416 3.8088 1.3247 4.8794.8832 1.05 2.2079 1.575 3.9742 1.575 1.2277 0 2.2509-.2779 3.0694-.8338.8186-.5559 1.2278-1.4103 1.2278-2.5632v-.3089h-4.8788v-3.5514h9.5961v10.9941h-3.7803l-.2262-2.5015c-.6031.9059-1.4324 1.6059-2.4878 2.1-1.034.4735-2.2941.7103-3.7803.7103z" fill="url(#a)"/><path clip-rule="evenodd" d="m12.1774 28.6754-.0054-.0029c-1.6478-.9033-2.92586-2.2359-3.8303-3.9649-.91089-1.7412-1.3417-3.8138-1.3417-6.1767 0-2.3129.45686-4.3592 1.4151-6.1005.95545-1.7569 2.3256-3.11217 4.0927-4.04795l.0049-.00259c1.7836-.93197 3.8439-1.37986 6.1497-1.37986 2.5331 0 4.6722.43664 6.3401 1.39555 1.7017.94512 2.9862 2.44125 3.8765 4.41185l.4382.9699-7.1678 2.7146-.2853-1.0695c-.2348-.8808-.6167-1.4058-1.0744-1.7107-.5116-.3409-1.1901-.5426-2.095-.5426-1.3378 0-2.2716.4426-2.9376 1.2649-.6621.8235-1.0705 2.1272-1.0705 4.066 0 2.0724.4233 3.4249 1.093 4.2393.6415.7604 1.646 1.2151 3.2059 1.2151 1.076 0 1.8909-.2422 2.5076-.6611.3497-.2374.5988-.5631.7153-1.0448h-4.8045v-5.5514h11.5961v12.9941h-5.694l-.1122-1.2414c-.3872.2841-.8092.5326-1.2642.7456l-.0075.0035c-1.1982.5488-2.609.8011-4.1967.8011-2.0409 0-3.8987-.4335-5.548-1.3246zm10.9078-1.4269c.345-.3145.6478-.6674.9083-1.0588l.2262 2.5015h3.7803v-10.9941h-9.5961v3.5514h4.8788v.3089c0 .2437-.0183.4741-.0549.6911-.1364.8097-.5274 1.4337-1.1729 1.8721-.8185.5559-1.8417.8338-3.0694.8338-1.7663 0-3.091-.525-3.9742-1.575-.8831-1.0706-1.3247-2.697-1.3247-4.8794 0-2.0588.4308-3.6235 1.2924-4.6941.8831-1.0912 2.1217-1.6368 3.7157-1.6368 1.0554 0 1.9386.2368 2.6494.7103.478.3185.8586.7673 1.1418 1.3464.138.2821.2528.595.3445.9389l5.1373-1.9456c-.1418-.3138-.2935-.6127-.4553-.8969-.7724-1.3564-1.773-2.37512-3.0019-3.05602-1.4647-.84412-3.4141-1.26618-5.8481-1.26618-2.1756 0-4.0711.42206-5.6866 1.26618-1.594.84412-2.8218 2.05882-3.68339 3.64412-.86161 1.5647-1.29241 3.4382-1.29241 5.6206 0 2.2441.40926 4.1485 1.22779 5.7132.81851 1.5647 1.96011 2.7485 3.42491 3.5515 1.4862.8029 3.1771 1.2044 5.0727 1.2044 1.4862 0 2.7463-.2368 3.7803-.7103.5994-.2806 1.1259-.6277 1.5795-1.0412z" fill="url(#b)" fill-rule="evenodd"/><path d="m51.424 30.32c-1.9413 0-3.648-.4267-5.12-1.28-1.4507-.8533-2.5813-2.0907-3.392-3.712s-1.216-3.5733-1.216-5.856c0-2.2613.4267-4.2027 1.28-5.824.8533-1.6427 2.0587-2.9013 3.616-3.776 1.5573-.87467 3.3813-1.312 5.472-1.312 2.304 0 4.1493.42667 5.536 1.28 1.408.832 2.528 2.1333 3.36 3.904l-4.096 1.76c-.3413-1.1307-.928-1.9627-1.76-2.496-.8107-.5547-1.8133-.832-3.008-.832-1.792 0-3.2107.6293-4.256 1.888s-1.568 3.0507-1.568 5.376c0 2.4107.5013 4.2347 1.504 5.472s2.4853 1.856 4.448 1.856c1.4293 0 2.6133-.3413 3.552-1.024.96-.704 1.44-1.76 1.44-3.168v-.48h-5.536v-3.232h9.344v11.136h-3.104l-.192-2.688c-.5973.96-1.4293 1.7067-2.496 2.24-1.0667.512-2.336.768-3.808.768zm21.589 0c-2.5173 0-4.5333-.7253-6.048-2.176-1.5147-1.472-2.272-3.52-2.272-6.144 0-1.7493.3413-3.2427 1.024-4.48s1.632-2.1867 2.848-2.848c1.2373-.6613 2.6453-.992 4.224-.992 1.6213 0 2.9973.3307 4.128.992 1.1307.64 1.9947 1.5253 2.592 2.656.5973 1.1093.896 2.3787.896 3.808 0 .4267-.0107.832-.032 1.216s-.0533.7253-.096 1.024h-11.296c.1707 1.2373.5973 2.1653 1.28 2.784.704.5973 1.6107.896 2.72.896.9387 0 1.696-.1813 2.272-.544s1.024-.864 1.344-1.504l3.488 1.344c-.512 1.2587-1.408 2.24-2.688 2.944-1.28.6827-2.7413 1.024-4.384 1.024zm-.256-13.408c-2.0693 0-3.3173 1.1413-3.744 3.424h7.2c-.128-1.1093-.4907-1.952-1.088-2.528-.576-.5973-1.3653-.896-2.368-.896zm22.026-2.912v3.264h-5.12v7.52c0 .768.192 1.3333.576 1.696.4053.3413.9493.512 1.632.512.5547 0 1.024-.0747 1.408-.224.4053-.1707.768-.3947 1.088-.672l.704 2.912c-.5333.4053-1.184.7253-1.952.96-.7467.2347-1.5467.352-2.4.352-1.6 0-2.912-.3627-3.936-1.088-1.0027-.7467-1.504-1.9947-1.504-3.744v-8.224h-2.944v-3.264h2.944v-3.68l4.384-1.216v4.896zm11.286-5.44c1.92 0 3.605.33067 5.056.992 1.451.6613 2.688 1.6427 3.712 2.944l-2.464 2.848c-.875-1.1093-1.835-1.92-2.88-2.432-1.024-.5333-2.219-.8-3.584-.8s-2.357.256-2.976.768c-.619.4907-.928 1.088-.928 1.792 0 .576.213 1.0667.64 1.472.448.384 1.227.704 2.336.96l3.936.896c2.069.4693 3.563 1.1733 4.48 2.112.917.9173 1.376 2.112 1.376 3.584 0 1.3867-.363 2.5813-1.088 3.584-.725.9813-1.739 1.7387-3.04 2.272-1.301.512-2.795.768-4.48.768-2.197 0-4.128-.384-5.792-1.152s-2.976-1.76-3.936-2.976l2.496-2.976c.7253 1.024 1.717 1.8773 2.976 2.56 1.28.6613 2.699.992 4.256.992 1.301 0 2.304-.2133 3.008-.64.704-.448 1.056-1.0773 1.056-1.888 0-.5333-.192-1.0027-.576-1.408-.363-.4053-1.045-.7147-2.048-.928l-4.288-.96c-1.877-.4053-3.328-1.0667-4.352-1.984s-1.536-2.1653-1.536-3.744c0-1.2587.3413-2.3893 1.024-3.392s1.664-1.792 2.944-2.368c1.301-.59733 2.859-.896 4.672-.896zm12.594 21.44v-23.008h4.384v9.728c.512-1.024 1.216-1.7813 2.112-2.272.896-.512 1.909-.768 3.04-.768 1.664 0 3.04.4907 4.128 1.472 1.088.96 1.632 2.4107 1.632 4.352v10.496h-4.384v-9.216c0-1.3867-.267-2.336-.8-2.848-.534-.5333-1.216-.8-2.048-.8-.619 0-1.206.1493-1.76.448-.555.2773-1.014.7467-1.376 1.408-.363.64-.544 1.4933-.544 2.56v8.448zm29.092-10.208c0-.9173-.266-1.632-.8-2.144-.512-.512-1.194-.768-2.048-.768-.789 0-1.482.2027-2.08.608-.597.4053-1.034 1.0773-1.312 2.016l-3.744-1.152c.363-1.408 1.152-2.5387 2.368-3.392 1.238-.8533 2.891-1.28 4.96-1.28 2.091 0 3.776.5013 5.056 1.504 1.302.9813 1.952 2.4533 1.952 4.416v6.496c0 .8107.384 1.216 1.152 1.216.363 0 .704-.0533 1.024-.16l-.256 2.72c-.554.2773-1.248.416-2.08.416-.917 0-1.717-.192-2.4-.576-.661-.384-1.109-.96-1.344-1.728-.512.768-1.248 1.3547-2.208 1.76-.938.384-1.909.576-2.912.576-1.621 0-2.912-.3627-3.872-1.088-.938-.7467-1.408-1.824-1.408-3.232 0-1.1947.384-2.1653 1.152-2.912.768-.768 1.867-1.2907 3.296-1.568l5.504-1.12zm-5.568 5.792c0 .5333.192.9387.576 1.216.406.2773.886.416 1.44.416.619 0 1.195-.096 1.728-.288.534-.192.971-.512 1.312-.96.342-.4693.512-1.088.512-1.856v-.992l-3.36.672c-.725.1493-1.28.352-1.664.608-.362.2347-.544.6293-.544 1.184zm29.023-11.584-6.464 16.992c-.512 1.4507-1.088 2.6027-1.728 3.456-.618.8747-1.344 1.4933-2.176 1.856-.81.384-1.781.576-2.912.576-.832 0-1.6-.096-2.304-.288-.682-.192-1.28-.4587-1.792-.8l.928-3.168c.747.5973 1.686.896 2.816.896.619 0 1.142-.128 1.568-.384.427-.256.79-.768 1.088-1.536l.544-1.376-1.76-4.16-4.896-12.064h4.864l3.04 9.6.832 3.2.992-3.392 2.912-9.408zm2.589 16v-16h3.936l.16 3.008c.491-1.1093 1.205-1.9413 2.144-2.496.96-.5547 2.059-.832 3.296-.832 1.664 0 3.04.4907 4.128 1.472 1.088.96 1.632 2.4107 1.632 4.352v10.496h-4.384v-9.248c0-1.3653-.277-2.304-.832-2.816-.533-.5333-1.216-.8-2.048-.8-.597 0-1.184.1493-1.76.448-.555.2773-1.013.736-1.376 1.376-.341.64-.512 1.4933-.512 2.56v8.48zm29.092-10.208c0-.9173-.266-1.632-.8-2.144-.512-.512-1.194-.768-2.048-.768-.789 0-1.482.2027-2.08.608-.597.4053-1.034 1.0773-1.312 2.016l-3.744-1.152c.363-1.408 1.152-2.5387 2.368-3.392 1.238-.8533 2.891-1.28 4.96-1.28 2.091 0 3.776.5013 5.056 1.504 1.302.9813 1.952 2.4533 1.952 4.416v6.496c0 .8107.384 1.216 1.153 1.216.362 0 .703-.0533 1.024-.16l-.257 2.72c-.554.2773-1.248.416-2.08.416-.917 0-1.717-.192-2.4-.576-.661-.384-1.109-.96-1.344-1.728-.512.768-1.248 1.3547-2.208 1.76-.938.384-1.909.576-2.912.576-1.621 0-2.912-.3627-3.872-1.088-.938-.7467-1.408-1.824-1.408-3.232 0-1.1947.384-2.1653 1.152-2.912.768-.768 1.867-1.2907 3.296-1.568l5.504-1.12zm-5.568 5.792c0 .5333.192.9387.576 1.216.406.2773.886.416 1.44.416.619 0 1.195-.096 1.728-.288.534-.192.971-.512 1.312-.96.342-.4693.512-1.088.512-1.856v-.992l-3.36.672c-.725.1493-1.28.352-1.664.608-.362.2347-.544.6293-.544 1.184z" fill="#141f46"/></svg>