<svg width="300" height="300" viewBox="0 0 300 300" fill="none" xmlns="http://www.w3.org/2000/svg">
<path d="M163.753 78.3C163.528 78.862 163.285 79.406 163.06 79.968C162.835 80.475 162.685 81.375 162.103 81.487C161.072 81.693 160.229 79.125 160.022 78.337C159.797 77.456 158.429 77.869 158.654 78.75C159.029 80.137 159.891 82.406 161.447 82.931L161.166 86.249C161.091 87.168 162.516 87.112 162.591 86.212C162.685 85.087 162.778 83.981 162.872 82.856C164.091 82.218 164.541 80.1 165.009 78.975C165.347 78.134 164.11 77.44 163.753 78.3Z" fill="#1D1B33"/>
<path d="M169.172 80.309C168.159 80.365 167.372 81.527 166.884 82.296C166.199 83.3565 165.752 84.5525 165.572 85.802C165.441 86.702 166.828 87.058 166.959 86.14C167.004 85.824 167.067 85.5109 167.147 85.202C167.747 85.277 168.328 85.427 168.928 85.54C168.89 85.783 168.834 86.027 168.778 86.271C168.74 86.4527 168.774 86.6421 168.873 86.7992C168.972 86.9563 169.128 87.0686 169.308 87.1125C169.489 87.1563 169.679 87.1281 169.839 87.034C169.999 86.9398 170.116 86.787 170.165 86.608C170.515 85.1866 170.641 83.7194 170.54 82.259C170.465 81.434 170.334 80.234 169.172 80.309ZM167.634 83.871C167.889 83.1968 168.3 82.5928 168.834 82.109C169.153 81.921 169.059 81.696 169.097 82.334C169.115 82.709 169.134 83.084 169.134 83.477C169.134 83.721 169.115 83.946 169.097 84.19C168.609 84.077 168.122 83.965 167.634 83.871Z" fill="#1D1B33"/>
<path d="M176.9 78.6781C176.619 79.3711 176.45 80.6461 175.813 81.0961C174.631 81.9021 173.919 79.3151 173.6 78.5651C173.225 77.7401 171.857 78.134 172.232 78.978C172.757 80.159 173.338 82.1841 174.706 82.6341C174.706 83.8912 174.555 85.1438 174.256 86.365C174.212 86.5491 174.242 86.7434 174.341 86.9051C174.439 87.0669 174.598 87.1829 174.782 87.2276C174.966 87.2722 175.16 87.242 175.322 87.1434C175.484 87.0449 175.6 86.8861 175.644 86.7021C175.984 85.3538 176.148 83.9673 176.131 82.5771C177.387 82.0711 177.669 80.5531 178.137 79.3711C178.508 78.5281 177.252 77.8341 176.9 78.6781Z" fill="#1D1B33"/>
<path d="M117.5 86.327C119.435 88.1882 120.945 90.4458 121.925 92.945C122.618 94.633 125.355 93.808 124.662 92.12C123.515 89.1592 121.744 86.4801 119.468 84.265C119.192 84.0186 118.831 83.8892 118.462 83.904C118.092 83.9188 117.743 84.0767 117.487 84.3443C117.232 84.6119 117.09 84.9684 117.093 85.3383C117.095 85.7083 117.241 86.0628 117.5 86.327Z" fill="#2C2B47"/>
<path d="M174.215 136.048C173.049 133.805 172.288 131.374 171.965 128.867C171.759 127.049 168.909 127.124 169.115 128.942C169.475 131.95 170.384 134.867 171.796 137.548C172.621 139.179 175.04 137.679 174.215 136.048Z" fill="#2C2B47"/>
<path d="M143.917 59.9671C142.394 56.0237 139.952 52.5012 136.793 49.6931C135.762 48.7741 134.281 50.3301 135.331 51.2491C138.226 53.7942 140.469 56.9954 141.874 60.5851C142.361 61.8601 144.405 61.2421 143.917 59.9671Z" fill="#DB199B"/>
<path d="M200.444 106.313C199.293 109.928 197.302 113.218 194.632 115.913C193.338 117.226 195.419 119.194 196.713 117.882C199.719 114.829 201.95 111.1 203.219 107.008C203.781 105.245 201.006 104.57 200.444 106.314V106.313Z" fill="#2C2B47"/>
<path d="M171.253 55.636C170.201 58.0655 169.832 60.736 170.184 63.36C170.353 64.71 172.509 64.673 172.321 63.304C171.986 61.0593 172.265 58.7659 173.128 56.667C173.652 55.411 171.778 54.38 171.253 55.636Z" fill="#DB199B"/>
<path d="M100.177 76.184C98.1435 75.181 96.4201 73.6456 95.1899 71.741C94.4589 70.578 92.5469 71.535 93.2779 72.697C94.6725 74.944 96.6499 76.7711 98.9999 77.984C100.219 78.603 101.4 76.822 100.181 76.184H100.177Z" fill="#DB199B"/>
<path d="M177.383 106.632C176.331 109.062 175.961 111.732 176.315 114.356C176.483 115.706 178.64 115.668 178.452 114.3C178.116 112.056 178.395 109.762 179.258 107.663C179.783 106.407 177.908 105.376 177.383 106.632Z" fill="#FFC200"/>
<path d="M193.957 54.605C191.479 55.5279 189.292 57.0939 187.62 59.142C186.758 60.211 188.276 61.729 189.139 60.66C190.538 58.8746 192.389 57.496 194.501 56.667C195.776 56.2 195.232 54.117 193.957 54.605Z" fill="#FFC200"/>
<path d="M158.6 99.62C157.527 102.103 157.145 104.83 157.494 107.513C157.738 109.313 160.588 109.256 160.344 107.438C160.014 105.258 160.28 103.029 161.113 100.988C161.8 99.3 159.31 97.932 158.6 99.62Z" fill="#5A80F9"/>
<path d="M169.809 21.8321C170.338 19.6236 171.459 17.6014 173.053 15.9831C174.027 15.0081 172.471 13.5271 171.496 14.5211C169.643 16.4035 168.34 18.7566 167.728 21.3261C167.675 21.5966 167.729 21.877 167.878 22.109C168.027 22.3409 168.259 22.5067 168.527 22.5718C168.795 22.6369 169.077 22.5964 169.316 22.4586C169.555 22.3209 169.731 22.0965 169.809 21.8321Z" fill="#DB199B"/>
<path d="M193.432 95.9261C192.24 95.6347 191.134 95.0629 190.207 94.2581C189.846 93.8434 189.65 93.3102 189.657 92.7603C189.664 92.2104 189.874 91.6824 190.245 91.2771C190.844 90.9481 191.512 90.768 192.195 90.7521C193.62 90.5271 195.157 90.4521 196.151 89.2521C196.52 88.824 196.742 88.2895 196.786 87.7264C196.829 87.1632 196.692 86.6008 196.394 86.1211C195.513 84.7151 192.532 84.4331 192.494 82.5211C192.456 81.1531 193.975 80.6461 195.025 80.6091C195.568 80.5901 196.112 80.703 196.656 80.684C197.327 80.6793 197.991 80.5388 198.606 80.2711C199.22 79.9918 199.769 79.5876 200.218 79.0841C200.666 78.5806 201.005 77.9889 201.212 77.3471C202.074 74.3841 197.518 72.303 195.231 72.003C193.881 71.835 193.356 73.9161 194.725 74.0841C196.825 74.3471 201.418 76.9721 197.331 78.3591C195.343 79.0341 193.469 77.9651 191.706 79.5401C189.288 81.6961 190.506 84.8831 192.962 86.2711C193.187 86.4021 193.862 86.5901 194.012 86.8151C193.956 87.3211 193.9 87.846 193.862 88.352C193.506 88.427 193.169 88.5021 192.812 88.5771C191.954 88.6721 191.102 88.8224 190.263 89.0271C189.635 89.1857 189.055 89.4959 188.575 89.9305C188.094 90.3651 187.728 90.9109 187.507 91.52C186.4 95.12 190.207 97.107 192.944 98.045C194.219 98.4571 194.725 96.3761 193.431 95.9261H193.432Z" fill="#DB199B"/>
<path d="M134.618 114.768C135.7 114.199 136.902 113.897 138.124 113.887C139.624 113.981 140.187 114.937 139.774 116.737C139.41 117.303 138.989 117.83 138.518 118.312C138.05 118.75 137.675 119.278 137.414 119.864C137.153 120.45 137.013 121.083 137 121.724C137.033 122.329 137.275 122.903 137.686 123.348C138.097 123.793 138.65 124.08 139.25 124.161C140.769 124.405 145.681 122.305 144.593 126.036C144.125 127.63 141.837 128.342 141.125 129.936C140.843 130.554 140.696 131.225 140.696 131.905C140.696 132.584 140.843 133.255 141.125 133.873C142.494 136.648 147.199 135.186 149.149 133.873C150.274 133.104 149.281 131.211 148.137 131.98C147.097 132.744 145.847 133.169 144.556 133.198C142.269 133.198 142.662 131.042 143.937 129.748C145.043 128.624 146.337 127.986 146.712 126.336C146.851 125.7 146.832 125.04 146.657 124.413C146.482 123.786 146.158 123.212 145.711 122.739C145.264 122.266 144.708 121.909 144.092 121.7C143.476 121.49 142.818 121.434 142.175 121.536C141.819 121.573 141.2 121.873 140.881 121.817C140.188 121.686 139.944 120.242 140.244 119.586C140.562 118.855 141.387 118.273 141.762 117.542C142.108 116.948 142.286 116.271 142.276 115.584C142.266 114.897 142.069 114.226 141.706 113.642C139.813 110.792 136.175 111.823 133.606 112.892C132.331 113.398 133.362 115.292 134.618 114.766V114.768Z" fill="#DB199B"/>
<path d="M109.908 52.655C107.977 52.036 106.214 52.8611 104.321 53.0111C103.271 53.2921 102.652 52.861 102.446 51.68C102.836 51.353 103.243 51.0463 103.665 50.7611C104.226 50.334 104.741 49.8504 105.202 49.318C107.077 47.087 108.089 43.506 105.689 41.256C103.008 38.744 99.2961 39.906 96.6151 41.706C95.0971 42.718 96.5961 45.156 98.1151 44.124C99.4271 43.243 101.134 42.212 102.765 42.774C105.108 43.581 104.077 46.299 102.896 47.63C101.64 49.018 99.6341 49.674 99.3711 51.755C99.319 52.5494 99.5218 53.3397 99.9501 54.0108C100.378 54.6819 101.01 55.1988 101.752 55.486C102.705 55.8618 103.742 55.9721 104.752 55.805C105.258 55.748 105.746 55.636 106.252 55.542C106.496 55.486 106.739 55.43 106.983 55.392C107.223 55.2863 107.482 55.2322 107.744 55.2334C108.006 55.2346 108.265 55.291 108.504 55.3989C108.743 55.5068 108.956 55.6639 109.13 55.8598C109.304 56.0558 109.435 56.2862 109.514 56.536C108.202 57.829 110.283 59.779 111.595 58.504C113.582 56.573 112.4 53.442 109.908 52.655Z" fill="#5A80F9"/>
<path d="M239.872 69.566C241.184 68.685 242.89 67.654 244.522 68.216C246.865 69.022 245.834 71.741 244.653 73.072C243.397 74.459 241.391 75.116 241.128 77.197C241.076 77.9914 241.278 78.7817 241.707 79.4528C242.135 80.1239 242.766 80.6407 243.509 80.928C244.461 81.304 245.498 81.4139 246.509 81.246C247.015 81.19 247.503 81.078 248.009 80.984C248.252 80.928 248.496 80.871 248.74 80.834C248.979 80.728 249.239 80.6738 249.501 80.6748C249.763 80.6759 250.022 80.7322 250.261 80.84C250.5 80.9479 250.713 81.1049 250.887 81.3008C251.061 81.4967 251.192 81.7271 251.271 81.977C249.959 83.271 252.04 85.221 253.352 83.946C255.321 82.015 254.139 78.884 251.646 78.097C249.715 77.478 247.953 78.303 246.059 78.453C245.009 78.734 244.39 78.303 244.184 77.122C244.573 76.7937 244.979 76.4859 245.4 76.2C245.96 75.7728 246.476 75.2889 246.937 74.756C248.812 72.525 249.824 68.944 247.425 66.694C244.743 64.182 241.031 65.345 238.35 67.144C236.832 68.157 238.332 70.594 239.869 69.563L239.872 69.566Z" fill="#DB199B"/>
<path d="M210.681 26.2571C212.105 26.3321 214.018 26.5761 214.918 27.8691C216.155 29.6321 214.712 31.0751 213.043 31.6941C210.906 32.4631 208 31.2821 206.518 33.5311C206.133 34.2018 205.951 34.97 205.995 35.7423C206.038 36.5145 206.305 37.2576 206.762 37.8811C207.337 38.6475 208.081 39.2702 208.937 39.7001C209.237 39.8681 214.337 42.6811 212.274 43.0181C210.474 43.3181 210.624 46.1681 212.443 45.8681C215.536 45.3621 216.38 41.9501 214.355 39.7001C213.043 38.2191 210.999 38.0121 209.574 36.7371C207.812 35.1631 209.987 34.9561 211.112 34.9001C212.08 34.8704 213.039 34.7065 213.962 34.4131C216.793 33.4191 219.117 30.8691 218.049 27.7381C216.943 24.5141 213.587 23.5951 210.531 23.4451C208.693 23.3141 208.862 26.1631 210.681 26.2571Z" fill="#5A80F9"/>
<path d="M229.242 117.693C230.166 117.575 231.08 117.394 231.979 117.15C234.622 116.175 237.116 113.681 236.272 110.644C235.279 107.1 231.548 106.163 228.304 106.275C227.933 106.295 227.584 106.458 227.332 106.731C227.08 107.004 226.944 107.365 226.954 107.736C226.964 108.108 227.118 108.461 227.384 108.72C227.65 108.98 228.007 109.125 228.379 109.125C229.935 109.069 231.773 109.106 232.898 110.381C234.398 112.087 232.823 113.737 231.135 114.431C229.279 115.181 226.879 114.487 225.435 116.156C224.885 116.876 224.611 117.769 224.662 118.674C224.714 119.578 225.088 120.434 225.716 121.087C226.394 121.813 227.227 122.377 228.153 122.737C228.809 123.018 229.503 123.205 230.159 123.505C230.347 123.599 230.534 123.693 230.74 123.786C231.64 124.105 231.847 124.743 231.378 125.736C229.578 126.13 230.422 128.867 232.203 128.474C235.015 127.855 235.409 124.368 233.628 122.455C232.447 121.199 230.853 120.88 229.353 120.168C228.453 119.718 227.591 119.512 228.003 118.462C228.417 117.449 228.454 117.862 229.242 117.693Z" fill="#FFC200"/>
<path d="M44.7378 25.451C46.2758 25.132 48.0748 24.851 49.4068 25.901C51.1688 27.326 49.9128 29.219 48.3748 30.194C46.6878 31.263 44.1948 30.982 43.0748 32.875C42.6578 33.6806 42.5419 34.6086 42.7482 35.492C42.9544 36.3755 43.4692 37.1563 44.1998 37.694C44.9935 38.2878 45.9093 38.6977 46.8808 38.894C47.5738 39.062 48.3048 39.119 48.9808 39.306L49.5998 39.475C50.5365 39.625 50.8552 40.225 50.5558 41.275C48.8498 41.968 50.1628 44.518 51.8498 43.824C54.5118 42.718 54.3058 39.231 52.2248 37.656C50.8558 36.606 49.2248 36.587 47.6308 36.138C46.6748 35.856 45.7748 35.8 45.9998 34.694C46.2068 33.681 46.3188 34.094 47.0878 33.775C47.9737 33.5012 48.8383 33.1629 49.6748 32.763C52.1118 31.338 54.1368 28.469 52.7868 25.62C51.2118 22.301 47.3498 22.02 44.2008 22.676C43.8379 22.7531 43.5199 22.9698 43.3153 23.2794C43.1107 23.5889 43.036 23.9665 43.1072 24.3306C43.1785 24.6947 43.39 25.0163 43.6961 25.2258C44.0023 25.4354 44.3786 25.5163 44.7438 25.451H44.7378Z" fill="#FFC200"/>
<path d="M138.93 85.84C139.854 85.7214 140.769 85.5396 141.668 85.296C144.311 84.321 146.805 81.827 145.961 78.79C144.967 75.247 141.236 74.309 137.993 74.422C137.622 74.4416 137.274 74.6054 137.021 74.8784C136.769 75.1514 136.634 75.512 136.643 75.8835C136.653 76.255 136.808 76.608 137.074 76.8673C137.34 77.1267 137.697 77.2718 138.068 77.272C139.624 77.215 141.461 77.253 142.586 78.528C144.086 80.234 142.511 81.884 140.824 82.577C138.968 83.327 136.568 82.634 135.124 84.302C134.575 85.0221 134.301 85.9152 134.353 86.8197C134.405 87.7241 134.778 88.5802 135.406 89.233C136.084 89.9591 136.917 90.5231 137.843 90.883C138.499 91.164 139.193 91.352 139.849 91.652C140.037 91.745 140.224 91.839 140.43 91.933C141.33 92.252 141.536 92.889 141.068 93.883C139.268 94.276 140.112 97.014 141.893 96.62C144.705 96.001 145.099 92.514 143.317 90.602C142.136 89.346 140.543 89.027 139.043 88.314C138.143 87.864 137.28 87.658 137.693 86.608C138.1 85.6 138.143 86.008 138.93 85.84Z" fill="#FFC200"/>
<path d="M161.485 44.2001C160.641 41.9881 158.654 42.7751 156.891 42.8501C154.717 42.9441 157.21 41.4071 157.81 40.5071C158.272 39.8757 158.468 39.0875 158.354 38.3131C158.266 37.9505 158.09 37.6152 157.842 37.3372C157.593 37.0592 157.279 36.8472 156.929 36.7201C156.16 36.4201 154.079 37.1321 153.029 37.2261C153.948 35.3701 156.573 33.8141 154.979 31.4511C153.723 29.6141 151.379 30.3451 149.823 31.2451C148.717 31.8831 149.767 33.5891 150.873 32.9511C151.848 32.0331 152.617 32.3144 153.179 33.7951C152.826 34.3255 152.424 34.8214 151.979 35.2761C151.583 35.716 151.249 36.2079 150.986 36.7381C150.792 37.0988 150.728 37.5146 150.803 37.9169C150.878 38.3192 151.088 38.684 151.398 38.9511C152.373 39.7381 153.385 39.1761 154.417 39.0071C155.15 38.4257 155.656 38.6507 155.935 39.6821C155.698 39.9279 155.448 40.1596 155.185 40.3761C154.666 40.7756 154.217 41.2569 153.854 41.8011C152.767 43.7501 154.004 45.3631 156.123 45.0821C156.775 44.8557 157.447 44.6861 158.129 44.5751C161.053 45.1381 157.735 47.4631 157.398 47.8561C156.989 48.2646 156.677 48.7598 156.485 49.305C156.294 49.8503 156.227 50.4316 156.291 51.0061C156.441 52.2811 158.447 52.2251 158.297 50.9501C157.979 48.1741 162.7 47.4051 161.485 44.2001Z" fill="#FFC200"/>
<path d="M127.663 6.99989C128.994 6.92489 129.406 7.63789 128.881 9.13789C128.268 9.31269 127.64 9.43184 127.006 9.49389C126.416 9.56992 125.841 9.73408 125.3 9.98089C124.92 10.1306 124.604 10.4058 124.402 10.7606C124.201 11.1154 124.127 11.5284 124.194 11.9309C124.438 13.1499 125.563 13.3749 126.481 13.9189C127.4 13.9369 127.644 14.4439 127.213 15.4189C126.87 15.4565 126.525 15.4752 126.181 15.4749C125.528 15.4529 124.876 15.5349 124.25 15.7179C122.169 16.5059 122.094 18.5489 123.894 19.6929C124.269 19.9369 125.506 20.2739 125.769 20.5929C127.644 22.8989 123.632 22.5619 123.107 22.6369C122.531 22.6889 121.975 22.8691 121.479 23.1643C120.982 23.4595 120.558 23.8623 120.238 24.3429C119.544 25.4109 121.101 26.6679 121.813 25.5799C123.332 23.2549 127.456 25.6929 128.562 22.4489C129.331 20.1989 127.306 19.5239 125.919 18.4739C124.175 17.1619 127.1 17.5739 128.131 17.2559C128.887 17.0667 129.54 16.589 129.95 15.9249C130.109 15.5884 130.185 15.2187 130.172 14.8468C130.159 14.4748 130.057 14.1114 129.875 13.7869C129.369 12.8499 126.181 11.8559 126.181 11.2379C126.05 11.5379 125.919 11.8559 125.788 12.1559C127.494 10.5999 131.431 11.7439 131.75 8.48189C131.975 6.26889 129.687 5.33189 127.925 5.01289C126.669 4.80689 126.388 6.77489 127.663 6.99989Z" fill="#FFC200"/>
<path d="M277.406 128.492C277.128 128.241 276.795 128.058 276.434 127.957C276.073 127.856 275.693 127.84 275.325 127.911L273.582 128.249L273.488 128.155V128.267C262.014 130.461 250.427 132.842 239.197 135.148C231.116 136.798 222.736 138.523 214.505 140.154C196.451 143.735 177.252 147.335 155.841 151.178L154.998 151.328C144.03 153.297 132.706 155.321 121.682 158.077L111.726 139.46C111.488 138.977 111.093 138.59 110.606 138.362C110.118 138.133 109.568 138.078 109.045 138.204C95.7899 139.441 94.7969 139.085 81.9159 142.46C81.4904 142.561 81.1008 142.777 80.79 143.085C80.4792 143.392 80.2591 143.78 80.1539 144.204C80.0334 144.641 80.0271 145.101 80.1354 145.541C80.2438 145.981 80.4633 146.385 80.7729 146.716C81.0568 146.994 81.409 147.192 81.794 147.291C82.179 147.39 82.5832 147.385 82.9659 147.278C95.2089 144.054 95.5459 144.485 108.145 143.229L118.345 162.329C118.345 162.331 118.345 162.334 118.346 162.336C118.347 162.339 118.348 162.341 118.35 162.342C118.351 162.344 118.354 162.346 118.356 162.347C118.358 162.348 118.36 162.348 118.363 162.348L154.848 230.648C154.81 230.666 154.773 230.666 154.735 230.685L156.76 234.154L151.267 241.54C150.123 242.984 148.998 244.428 147.855 245.853C141.536 253.821 135.012 262.07 129.387 270.788C126.942 271.037 124.62 271.98 122.694 273.506C120.77 275.081 119.391 277.222 118.751 279.624C118.112 282.027 118.245 284.57 119.132 286.893C120.024 289.208 121.576 291.21 123.596 292.65C125.616 294.09 128.015 294.905 130.494 294.993C131.349 295.012 132.204 294.936 133.043 294.768C135.128 294.355 137.085 293.45 138.751 292.13C140.418 290.809 141.745 289.111 142.624 287.175C143.807 284.61 143.994 281.696 143.149 279.001C142.251 276.706 140.724 274.711 138.743 273.245C137.543 272.21 136.156 271.414 134.656 270.901L150.142 250.147C150.592 249.566 151.061 248.985 151.511 248.422C154.623 244.504 157.811 240.454 160.904 236.367C160.971 236.383 161.041 236.389 161.11 236.386C184.92 238.092 208.918 240.417 232.448 243.286C232.972 243.342 233.516 243.399 234.097 243.455C236.385 243.661 238.991 243.886 240.659 245.33C241.869 246.49 242.816 247.896 243.434 249.454C242.476 249.853 241.543 250.31 240.641 250.823C240.569 250.863 240.5 250.906 240.434 250.954C240.369 250.993 240.306 251.037 240.247 251.085C238.276 252.648 236.841 254.786 236.139 257.201C235.437 259.616 235.503 262.19 236.328 264.566C237.22 266.881 238.772 268.883 240.792 270.323C242.812 271.763 245.211 272.578 247.69 272.666C248.546 272.684 249.401 272.609 250.24 272.441C252.325 272.028 254.282 271.123 255.948 269.803C257.614 268.482 258.941 266.784 259.82 264.848C261.004 262.283 261.191 259.369 260.345 256.673C259.441 254.382 257.915 252.389 255.939 250.918C253.95 249.063 251.308 248.072 248.59 248.162C248.309 248.18 248.046 248.218 247.765 248.237C246.059 244.412 243.622 240.662 238.71 239.631C236.497 239.162 234.21 238.919 231.979 238.675C231.154 238.581 230.348 238.506 229.542 238.412C226.486 238.038 223.355 237.681 220.224 237.325C207.85 235.919 195.288 234.663 182.877 233.594C178.452 233.219 173.934 232.844 169.377 232.488C172.452 231.85 175.545 231.251 178.564 230.651L179.445 230.482C182.519 229.882 185.632 229.207 188.65 228.57C188.856 228.591 189.064 228.585 189.269 228.551C189.518 228.5 189.758 228.412 189.981 228.288C193.544 227.52 197.199 226.751 200.799 226.076C208.88 224.557 217.167 223.282 225.172 222.045C231.547 221.07 238.146 220.058 244.633 218.914C246.545 218.577 248.401 218.239 250.183 217.902C257.344 216.533 263.606 215.127 269.568 213.515C270.071 213.398 270.525 213.128 270.868 212.741C271.21 212.355 271.425 211.871 271.481 211.358C272.156 205.903 272.549 200.316 272.943 194.935C273.112 192.666 273.281 190.341 273.468 188.035C273.693 185.354 273.993 182.617 274.274 179.974C274.518 177.78 274.762 175.53 274.968 173.299C275.755 164.544 276.393 155.619 277.03 146.999L277.349 142.687C277.462 141.131 277.574 139.556 277.687 138C277.818 136.125 277.949 134.269 278.099 132.394L278.174 132.375L278.099 132.319C278.136 131.719 278.193 131.119 278.23 130.519C278.258 130.14 278.198 129.761 278.055 129.409C277.912 129.057 277.69 128.744 277.406 128.492ZM137.543 282.661C137.541 283.968 137.152 285.245 136.424 286.331C135.696 287.417 134.663 288.263 133.455 288.761C132.246 289.26 130.917 289.389 129.636 289.132C128.354 288.875 127.177 288.244 126.254 287.319C125.331 286.393 124.703 285.215 124.45 283.933C124.197 282.65 124.33 281.322 124.831 280.115C125.333 278.908 126.182 277.877 127.27 277.152C128.357 276.427 129.636 276.041 130.943 276.043C132.695 276.048 134.374 276.747 135.611 277.987C136.848 279.228 137.543 280.909 137.543 282.661ZM248.4 253.788C249.709 253.788 250.989 254.176 252.078 254.903C253.166 255.63 254.015 256.664 254.516 257.874C255.017 259.083 255.148 260.414 254.893 261.698C254.637 262.982 254.007 264.162 253.081 265.087C252.155 266.013 250.976 266.644 249.692 266.899C248.408 267.154 247.077 267.023 245.867 266.522C244.658 266.021 243.624 265.172 242.897 264.084C242.17 262.995 241.782 261.715 241.782 260.406C241.782 258.651 242.479 256.967 243.72 255.726C244.961 254.485 246.645 253.788 248.4 253.788ZM240.751 139.835C241.426 146.772 241.926 153.74 242.251 160.74C231.152 163.196 220.022 165.477 208.86 167.583L205.167 146.903C217.393 144.56 229.167 142.216 240.753 139.835H240.751ZM208.26 192.143C198.998 193.906 189.798 195.731 180.66 197.618L173.33 178.588C183.885 176.995 194.403 175.233 204.883 173.301L208.26 192.143ZM172.769 153.015C175.882 152.434 179.013 151.853 182.125 151.272C188.33 150.128 194.404 148.984 200.348 147.841L204.023 168.483C193.186 170.47 182.349 172.276 171.513 173.901L164.089 154.628C167.034 154.084 169.922 153.54 172.771 153.015H172.769ZM124.042 162.539C133.454 160.252 142.959 158.471 152.69 156.727L159.214 155.546L166.564 174.651C165.439 174.82 164.314 174.988 163.189 175.138C153.233 176.563 143.034 177.857 132.854 179.001L124.042 162.539ZM135.329 183.65C146.353 182.394 157.371 180.957 168.382 179.338L175.807 198.63C174.963 198.799 174.119 198.968 173.275 199.155C164.595 200.974 155.652 202.924 146.69 204.948L135.329 183.65ZM181.15 225.14L176.875 225.984C171.307 227.09 165.57 228.215 159.945 229.565C159.908 229.565 159.87 229.546 159.833 229.546L149.09 209.429C158.577 207.311 168.077 205.261 177.59 203.28L185.651 224.222C184.152 224.541 182.652 224.841 181.152 225.14H181.15ZM202.486 220.772C201.829 220.885 201.154 221.016 200.498 221.147C197.142 221.785 193.786 222.497 190.505 223.191L182.443 202.267C191.349 200.43 200.236 198.686 209.123 196.98L213.041 218.972C209.518 219.553 205.994 220.135 202.488 220.772H202.486ZM241.501 214.472C235.764 215.447 230.065 216.328 224.44 217.209L224.327 217.228C222.209 217.546 220.072 217.884 217.916 218.221L213.962 196.1C223.562 194.3 233.124 192.581 242.647 190.944C242.478 198.781 242.096 206.624 241.5 214.473L241.501 214.472ZM242.72 185.918C232.802 187.624 222.921 189.393 213.078 191.224L209.724 172.4L212.462 171.894C222.511 169.982 232.511 167.926 242.462 165.726C242.704 172.457 242.791 179.188 242.722 185.919L242.72 185.918ZM268.086 194.336C267.73 199.21 267.374 204.236 266.811 209.185C260.062 210.947 253.275 212.353 246.488 213.59C247.051 205.772 247.407 197.935 247.557 190.08C254.457 188.918 261.524 187.755 268.668 186.63C268.463 189.219 268.276 191.806 268.088 194.337L268.086 194.336ZM269.792 174.669C269.567 176.937 269.342 179.262 269.136 181.587C261.974 182.712 254.794 183.874 247.651 185.093C247.707 178.287 247.594 171.463 247.332 164.657C255.244 162.876 263.249 160.964 271.217 158.957C270.788 164.227 270.282 169.514 269.794 174.67L269.792 174.669ZM272.511 141.446C272.211 145.552 271.911 149.677 271.611 153.783C263.474 155.827 255.308 157.783 247.111 159.651C246.773 152.696 246.267 145.759 245.592 138.84C254.479 137.022 263.816 135.128 273.115 133.347C272.907 136.048 272.7 138.748 272.513 141.447L272.511 141.446Z" fill="#08C48E"/>
<path d="M122.263 243.908C122.244 243.908 122.244 243.926 122.226 243.926V243.908C122.264 243.892 122.298 243.868 122.327 243.838C122.355 243.808 122.377 243.773 122.391 243.734C122.405 243.695 122.41 243.654 122.408 243.613C122.405 243.572 122.394 243.532 122.375 243.495C120.06 239.239 117.982 234.857 116.151 230.371C116.139 230.328 116.116 230.289 116.086 230.256C116.056 230.223 116.018 230.198 115.977 230.182C115.935 230.165 115.891 230.159 115.846 230.163C115.802 230.166 115.759 230.18 115.72 230.203C114.014 231.084 111.82 231.328 110.32 232.565C110.285 232.602 110.26 232.647 110.246 232.696C110.233 232.745 110.233 232.797 110.245 232.846C111.476 236.68 113.064 240.39 114.989 243.926C115.382 244.695 115.964 246.664 116.751 247.114C117.006 247.223 117.287 247.249 117.557 247.189C118.082 247.095 118.832 246.308 119.319 246.026C120.312 245.439 121.346 244.926 122.413 244.489C122.769 244.32 122.619 243.758 122.263 243.908Z" fill="#FEDFFD"/>
<path d="M162.5 242.408C162.516 242.393 162.529 242.375 162.537 242.355C162.545 242.334 162.548 242.313 162.546 242.291C162.544 242.269 162.537 242.248 162.526 242.229C162.515 242.211 162.499 242.195 162.481 242.183C156.753 238.302 150.199 235.811 143.339 234.908C140.266 234.54 137.164 234.471 134.078 234.702C131.678 234.871 128.528 234.871 126.541 236.465C125.666 237.314 124.937 238.302 124.385 239.389C122.903 241.733 121.179 242.802 118.385 242.052C117.016 241.677 114.692 240.889 113.96 242.783C113.548 243.851 114.335 245.145 114.71 246.101C115.292 247.564 115.91 249.007 116.51 250.451C117.991 253.957 119.51 257.444 120.954 260.969C120.958 260.989 120.967 261.007 120.979 261.023C120.991 261.039 121.007 261.052 121.025 261.061C121.043 261.07 121.063 261.075 121.083 261.075C121.103 261.075 121.123 261.071 121.141 261.062C135.315 255.813 148.626 248.632 162.481 242.652C162.515 242.621 162.536 242.579 162.539 242.534C162.543 242.488 162.529 242.443 162.5 242.408ZM132.184 234.983C132.728 234.927 133.272 234.89 133.815 234.871C133.288 234.89 132.744 234.928 132.181 234.983H132.184ZM114.41 242.277C114.264 242.421 114.149 242.593 114.073 242.783C113.985 243.023 113.953 243.279 113.979 243.533C113.884 243.308 113.876 243.055 113.955 242.824C114.033 242.592 114.194 242.398 114.407 242.277H114.41Z" fill="#2C2B47"/>
<path d="M119.788 253.732L119.769 253.713C119.805 253.695 119.837 253.67 119.864 253.64C119.89 253.609 119.91 253.574 119.923 253.535C119.935 253.497 119.939 253.456 119.936 253.416C119.932 253.376 119.92 253.337 119.901 253.301C117.506 249.086 115.346 244.742 113.432 240.289C113.419 240.246 113.397 240.207 113.367 240.174C113.337 240.141 113.299 240.115 113.258 240.099C113.216 240.083 113.171 240.076 113.127 240.08C113.082 240.084 113.039 240.098 113.001 240.121C111.314 241.021 109.12 241.321 107.658 242.577C107.619 242.611 107.59 242.656 107.577 242.706C107.564 242.756 107.566 242.809 107.583 242.858C108.943 246.804 110.669 250.614 112.739 254.238C113.17 255.025 113.657 256.675 114.501 257.032C115.195 257.332 115.626 256.713 116.17 256.338C117.392 255.525 118.685 254.822 120.032 254.238C120.388 254.107 120.107 253.638 119.788 253.732Z" fill="#FEDFFD"/>
<path d="M158.054 252.7C158.07 252.685 158.082 252.667 158.09 252.647C158.098 252.626 158.102 252.605 158.1 252.583C158.098 252.561 158.091 252.54 158.08 252.521C158.069 252.503 158.053 252.487 158.035 252.475C152.307 248.594 145.752 246.103 138.893 245.2C135.819 244.832 132.717 244.763 129.631 244.994C127.231 245.163 124.082 245.163 122.094 246.756C121.219 247.606 120.49 248.594 119.938 249.681C118.457 252.025 116.732 253.093 113.938 252.343C112.569 251.969 110.244 251.181 109.513 253.075C109.101 254.143 109.888 255.437 110.263 256.393C110.844 257.856 111.463 259.299 112.063 260.743C113.544 264.249 115.063 267.736 116.506 271.261C116.51 271.281 116.519 271.299 116.531 271.315C116.543 271.331 116.559 271.344 116.577 271.353C116.595 271.362 116.615 271.366 116.635 271.367C116.656 271.367 116.675 271.363 116.694 271.354C130.868 266.105 144.179 258.924 158.034 252.943C158.053 252.929 158.068 252.912 158.08 252.892C158.091 252.872 158.098 252.849 158.1 252.826C158.102 252.803 158.099 252.78 158.091 252.758C158.083 252.736 158.07 252.716 158.054 252.7Z" fill="#2C2B47"/>
<path d="M133.775 232.94C133.102 233.597 132.599 234.408 132.308 235.303C132.017 236.198 131.948 237.15 132.106 238.077C132.218 238.808 133.343 238.508 133.231 237.758C133.125 237.029 133.193 236.285 133.431 235.587C133.669 234.889 134.069 234.258 134.599 233.746C135.143 233.24 134.318 232.415 133.775 232.94Z" fill="#FEDFFD"/>
<path d="M138.293 233.577C137.434 234.07 136.735 234.802 136.283 235.684C135.83 236.566 135.643 237.56 135.743 238.546C135.818 239.277 136.999 239.296 136.906 238.546C136.811 237.764 136.946 236.97 137.296 236.264C137.645 235.558 138.194 234.969 138.874 234.571C139.53 234.215 138.949 233.202 138.293 233.577Z" fill="#FEDFFD"/>
<path d="M141.836 234.4C140.624 235.563 139.883 237.131 139.755 238.806C139.699 239.556 140.861 239.556 140.918 238.806C141.031 237.44 141.645 236.165 142.643 235.225C143.205 234.7 142.38 233.875 141.836 234.4Z" fill="#FEDFFD"/>
<path d="M145.755 234.515C144.369 235.862 143.522 237.669 143.374 239.596C143.317 240.345 144.48 240.345 144.536 239.596C144.665 237.977 145.386 236.462 146.561 235.34C147.123 234.815 146.298 233.99 145.755 234.515Z" fill="#FEDFFD"/>
<path d="M150.029 247.826C144.248 244.8 137.825 243.205 131.3 243.176C128.75 243.176 126.406 243.195 124.232 244.62C122.047 246.097 120.221 248.045 118.888 250.32C118.495 250.957 119.507 251.557 119.901 250.901C121.206 248.646 123.04 246.741 125.244 245.351C126.72 244.576 128.379 244.213 130.044 244.301C129.382 245.302 129.084 246.5 129.2 247.695C129.275 248.426 130.437 248.445 130.362 247.695C130.285 247.093 130.343 246.481 130.532 245.904C130.72 245.327 131.033 244.799 131.45 244.358C131.468 244.339 131.468 244.32 131.487 244.32C131.881 244.339 132.275 244.358 132.668 244.358L133.756 244.414C133.301 245.005 132.991 245.695 132.851 246.427C132.711 247.16 132.745 247.915 132.95 248.632C132.997 248.776 133.097 248.896 133.231 248.967C133.364 249.038 133.52 249.055 133.665 249.014C133.811 248.973 133.935 248.877 134.011 248.746C134.087 248.616 134.11 248.461 134.075 248.314C133.894 247.697 133.882 247.042 134.04 246.419C134.199 245.796 134.521 245.226 134.975 244.77C135.038 244.698 135.089 244.615 135.125 244.526C135.858 244.601 136.59 244.695 137.319 244.808C136.34 245.968 135.797 247.433 135.782 248.951C135.782 249.105 135.843 249.253 135.952 249.362C136.061 249.471 136.209 249.532 136.363 249.532C136.517 249.532 136.665 249.471 136.774 249.362C136.883 249.253 136.944 249.105 136.944 248.951C136.966 247.638 137.466 246.379 138.35 245.408C138.447 245.307 138.501 245.173 138.5 245.033C139.269 245.183 140.019 245.351 140.769 245.539C140.299 246.154 139.961 246.859 139.774 247.611C139.586 248.362 139.555 249.143 139.681 249.907C139.794 250.638 140.919 250.338 140.806 249.588C140.721 248.994 140.757 248.389 140.911 247.809C141.066 247.229 141.336 246.687 141.706 246.214C141.791 246.1 141.837 245.962 141.837 245.82C144.468 246.573 147.017 247.584 149.449 248.839C150.1 249.176 150.7 248.164 150.029 247.826Z" fill="#FEDFFD"/>
<path d="M74.0052 76.409C74.2129 76.2184 74.3619 75.9726 74.4348 75.7004C74.5078 75.4282 74.5017 75.1408 74.4172 74.872C74.3814 74.7498 74.3077 74.6422 74.2066 74.5647C74.1056 74.4872 73.9825 74.4439 73.8553 74.441C73.6522 74.4598 73.4514 74.4973 73.2552 74.553C73.484 74.1346 73.6722 73.6952 73.8172 73.241C73.843 73.1424 73.8426 73.0389 73.816 72.9405C73.7893 72.8422 73.7375 72.7526 73.6655 72.6805C73.5935 72.6084 73.504 72.5564 73.4057 72.5297C73.3074 72.5029 73.2038 72.5023 73.1053 72.528C72.521 72.7047 71.9505 72.924 71.3982 73.184C71.5335 72.7961 71.6464 72.4008 71.7362 72C71.8112 71.625 71.4732 71.1 71.0242 71.288C68.9993 72.0999 67.2013 73.3904 65.7842 75.0491C64.3671 76.7077 63.3731 78.6851 62.8872 80.812C62.8608 80.9407 62.8774 81.0745 62.9344 81.1929C62.9914 81.3112 63.0857 81.4076 63.2027 81.4672C63.3198 81.5269 63.4532 81.5464 63.5825 81.5229C63.7117 81.4993 63.8297 81.434 63.9182 81.337C65.911 81.3406 67.9021 81.2217 69.8802 80.981C71.2672 80.718 72.5232 79.331 73.5172 78.394C73.9862 77.944 74.6612 77.269 74.1552 76.575C74.0802 76.5 74.0422 76.447 74.0052 76.409Z" fill="#5A80F9"/>
<path d="M119.657 236.821C119.638 236.596 119.601 236.371 119.582 236.146C119.585 236.089 119.578 236.032 119.563 235.977C115.698 223.219 110.846 210.782 105.052 198.777C98.8538 185.434 91.8281 172.491 84.0157 160.024C82.1977 157.118 80.3037 154.268 78.3537 151.437C77.4917 150.181 76.5917 148.925 75.6917 147.688C74.9227 146.619 74.0607 144.875 73.0107 144.088C72.0167 143.338 69.9167 143.394 68.7167 143.188C60.712 141.782 52.7067 140.382 44.7007 138.988C38.4007 137.882 32.1207 136.776 25.8207 135.688C25.5397 135.631 25.1457 135.763 25.1087 136.1C23.5969 146.38 24.6332 156.874 28.1267 166.66C31.4955 175.741 35.7469 184.469 40.8197 192.72C50.2947 208.713 61.9281 223.325 75.3917 236.142C82.9888 243.358 91.131 249.978 99.7457 255.942C99.8341 255.993 99.9342 256.02 100.036 256.02C100.138 256.02 100.238 255.993 100.327 255.942C106.046 252.792 111.07 248.405 116.301 244.524C116.411 244.459 116.496 244.359 116.543 244.241C116.591 244.122 116.598 243.991 116.563 243.868C116.151 242.518 115.739 241.168 115.307 239.837C116.578 238.904 117.919 238.07 119.319 237.344C119.417 237.296 119.501 237.221 119.56 237.129C119.62 237.037 119.653 236.931 119.657 236.821Z" fill="#5A80F9"/>
<path d="M99.1457 135.935C98.9587 134.904 98.1897 134.661 97.2897 134.661C98.2457 134.211 98.9957 133.611 98.6957 132.711C98.3767 131.811 97.4587 131.567 96.4087 131.642C96.608 131.496 96.7481 131.283 96.8032 131.042C96.8583 130.801 96.8247 130.548 96.7087 130.33C96.3147 129.58 95.4337 129.655 94.7217 129.748C92.6812 130.057 90.6685 130.527 88.7027 131.155C86.0597 131.923 82.9097 132.786 81.0907 135.017C80.2061 136.182 79.6669 137.572 79.5347 139.029C79.4597 139.554 79.5917 140.791 79.1787 141.11C78.6727 141.504 76.5727 140.885 75.9537 140.791H75.8607C75.7994 140.789 75.7394 140.809 75.6915 140.847C75.6437 140.886 75.6111 140.94 75.5997 141C74.8307 143.493 74.8497 146.118 74.3807 148.668C74.3694 148.712 74.3681 148.757 74.3768 148.801C74.3856 148.846 74.4042 148.887 74.4313 148.923C74.4584 148.959 74.4933 148.989 74.5333 149.01C74.5734 149.03 74.6176 149.042 74.6627 149.043C76.7247 149.211 78.7687 149.305 80.8307 149.286C82.0677 149.286 83.5867 149.38 84.6737 148.668C85.4546 148.076 85.9997 147.225 86.2117 146.268C86.3138 145.586 86.4767 144.915 86.6987 144.262C87.3177 143.099 88.4797 142.968 89.6427 142.799C91.425 142.552 93.1776 142.125 94.8737 141.524C95.8107 141.187 97.1977 140.812 97.6857 139.837C98.2857 138.562 97.3297 138.075 96.2797 137.981C96.8066 137.765 97.3447 137.578 97.8917 137.419C98.2077 137.376 98.5129 137.274 98.7917 137.119C98.9489 136.97 99.0643 136.782 99.1264 136.574C99.1885 136.366 99.1951 136.146 99.1457 135.935Z" fill="#FEDFFD"/>
<path d="M96.7463 129.3C96.5593 128.268 95.7903 128.025 94.8903 128.025C95.8463 127.575 96.5963 126.975 96.2963 126.075C95.9783 125.175 95.0593 124.931 94.0093 125.006C94.2088 124.86 94.349 124.647 94.4041 124.406C94.4592 124.165 94.4256 123.912 94.3093 123.694C93.9153 122.944 93.0343 123.019 92.3223 123.113C90.282 123.421 88.2697 123.891 86.3043 124.519C83.6603 125.287 80.5103 126.15 78.6923 128.381C77.8068 129.546 77.2675 130.936 77.1363 132.393C77.0613 132.918 77.1923 134.155 76.7793 134.474C76.2733 134.868 74.1733 134.249 73.5553 134.155H73.4613C73.3999 134.152 73.3397 134.172 73.2914 134.21C73.2432 134.248 73.2102 134.302 73.1983 134.362C72.4303 136.855 72.4483 139.48 71.9803 142.03C71.969 142.074 71.9677 142.119 71.9764 142.163C71.9851 142.207 72.0036 142.249 72.0306 142.285C72.0576 142.321 72.0924 142.351 72.1323 142.371C72.1722 142.392 72.2163 142.404 72.2613 142.405C74.3233 142.573 76.3673 142.667 78.4293 142.648C79.6673 142.648 81.1853 142.742 82.2733 142.03C83.0536 141.437 83.5983 140.587 83.8103 139.63C83.9124 138.948 84.0754 138.277 84.2973 137.624C84.9163 136.461 86.0793 136.33 87.2413 136.161C89.0235 135.914 90.7761 135.487 92.4723 134.887C93.4093 134.549 94.7973 134.174 95.2843 133.199C95.8843 131.924 94.9283 131.437 93.8783 131.343C94.4052 131.127 94.9433 130.94 95.4903 130.781C95.8063 130.738 96.1115 130.636 96.3903 130.481C96.5476 130.332 96.6632 130.145 96.7257 129.938C96.7881 129.731 96.7952 129.511 96.7463 129.3Z" fill="#FEDFFD"/>
<path d="M79.2347 141.035C78.9917 140.379 78.3167 140.079 77.6787 139.741C77.9598 137.633 78.1287 135.512 78.1847 133.386C78.1906 133.3 78.1748 133.213 78.1388 133.135C78.1028 133.056 78.0478 132.988 77.9787 132.936C77.9597 132.917 77.9417 132.898 77.9227 132.898C77.8718 132.862 77.8144 132.837 77.7537 132.823C76.2167 132.373 74.6787 131.886 73.1607 131.417C73.9667 123.561 74.6227 115.462 73.9297 107.588C73.5917 104.285 72.9704 101.017 72.0727 97.82C71.1917 94.539 70.1047 91.202 67.3857 88.971C64.3857 86.496 60.8987 86.327 57.2247 87.021C53.4431 87.7089 49.7966 89 46.4247 90.845C38.9057 95.008 30.8247 100.707 27.0007 108.638C24.844 112.933 24.3453 117.872 25.5997 122.512C25.8997 123.599 26.7057 124.799 26.8557 125.905C27.0057 127.03 25.6187 128.68 25.1127 129.711C23.8257 132.327 22.7168 135.027 21.7937 137.792C21.7543 137.941 21.7757 138.1 21.8531 138.233C21.9305 138.367 22.0577 138.464 22.2067 138.504C26.8977 140.103 31.6733 141.443 36.5117 142.516C38.8737 143.022 41.2547 143.472 43.6357 143.866C46.1107 144.26 48.5107 144.41 50.8167 145.422C59.3915 149.176 68.5376 151.458 77.8707 152.172C77.9989 152.172 78.1236 152.13 78.2252 152.052C78.3269 151.973 78.3998 151.864 78.4327 151.74C78.846 149.445 79.0532 147.117 79.0517 144.785C79.1227 143.754 79.5727 141.991 79.2347 141.035Z" fill="#FFC200"/>
<path d="M69.6174 78.865C69.5098 78.473 69.3071 78.1137 69.0273 77.8188C68.7475 77.524 68.3992 77.3028 68.0134 77.1749C67.6275 77.047 67.2161 77.0163 66.8156 77.0856C66.415 77.1548 66.0378 77.3219 65.7174 77.572C65.6879 77.5934 65.664 77.6216 65.6476 77.6541C65.6313 77.6866 65.623 77.7226 65.6234 77.759C65.5993 77.7424 65.5719 77.7311 65.5432 77.7259C65.5144 77.7207 65.4848 77.7217 65.4564 77.7287C65.428 77.7358 65.4015 77.7489 65.3785 77.7671C65.3556 77.7852 65.3368 77.808 65.3234 77.834C63.9174 79.634 62.2864 82.465 63.4114 84.79C63.5989 85.1817 63.8753 85.5242 64.2185 85.7901C64.5618 86.0561 64.9624 86.2382 65.3885 86.3219C65.8146 86.4056 66.2544 86.3887 66.6728 86.2724C67.0912 86.1561 67.4766 85.9437 67.7984 85.652C68.6923 84.7946 69.3344 83.7088 69.655 82.5124C69.9757 81.316 69.9626 80.0546 69.6174 78.865Z" fill="#FEDFFD"/>
<path d="M26.6832 126.467C31.9712 134.886 39.7702 140.641 48.6002 144.916C49.2752 145.235 49.8572 144.241 49.1822 143.904C40.5202 139.704 32.8522 134.117 27.6772 125.868C27.5945 125.743 27.4666 125.654 27.3203 125.621C27.174 125.588 27.0205 125.613 26.8921 125.691C26.7636 125.768 26.6702 125.892 26.6312 126.037C26.5923 126.182 26.6109 126.336 26.6832 126.468V126.467Z" fill="#FEDFFD"/>
<path d="M78.5996 139.16C76.7897 138.377 75.0247 137.495 73.3126 136.517C73.3741 136.436 73.4071 136.337 73.4066 136.235C73.5376 134.773 73.6686 133.329 73.8186 131.867C73.8936 131.117 72.7126 131.117 72.6566 131.867C72.5246 133.217 72.4126 134.567 72.2816 135.917C68.6839 133.769 65.2945 131.289 62.1576 128.511C59.7946 126.43 57.5446 124.218 55.3886 121.911C52.4266 118.742 50.1206 115.499 52.2956 111.111C52.6326 110.436 51.6206 109.854 51.2826 110.529C50.502 111.897 50.1328 113.462 50.2194 115.035C50.306 116.608 50.8446 118.122 51.7706 119.397C53.9944 122.409 56.5543 125.158 59.4006 127.59C64.8428 132.811 71.1401 137.06 78.0186 140.152C78.6916 140.454 79.2916 139.441 78.5996 139.16Z" fill="#FEDFFD"/>
<path d="M115.5 238.939C113.737 234.515 112.219 230.034 110.288 225.684C107.775 220.003 105.187 214.341 102.526 208.698C97.3141 197.618 91.8961 186.669 86.3261 175.757C82.9701 169.157 79.5581 162.596 76.1461 156.034C75.7901 155.359 74.7961 155.959 75.1331 156.615C86.4761 178.363 97.5941 200.243 107.643 222.615C110.099 228.089 112.143 233.657 114.355 239.226C114.655 239.957 115.78 239.657 115.499 238.944L115.5 238.939Z" fill="#FEDFFD"/>
<path d="M80.0227 140.81C79.5727 135.673 83.9967 132.879 88.3467 131.492C89.6082 131.099 90.8918 130.779 92.1907 130.536C93.4425 130.134 94.7583 129.968 96.0707 130.048C96.6147 130.161 96.8587 129.317 96.2957 129.205C94.9051 129.102 93.5074 129.255 92.1717 129.655C90.2512 129.993 88.3676 130.514 86.5467 131.211C82.3657 132.917 78.7097 135.879 79.1597 140.811C79.1977 141.374 80.0787 141.374 80.0227 140.811V140.81Z" fill="#2C2B47"/>
<path d="M96.0154 131.286C94.3363 131.395 92.6785 131.722 91.0844 132.261C89.6594 132.711 88.1784 132.823 86.9604 133.742C86.5104 134.079 86.9414 134.829 87.4104 134.492C88.5724 133.611 89.9784 133.536 91.3284 133.104C92.8513 132.594 94.4325 132.28 96.0344 132.167C96.5784 132.111 96.5784 131.248 96.0154 131.286Z" fill="#2C2B47"/>
<path d="M97.1206 134.286C93.9937 134.591 90.9118 135.251 87.9346 136.254C87.4096 136.442 87.6346 137.304 88.1596 137.098C91.0572 136.112 94.0574 135.458 97.1026 135.148C97.6836 135.092 97.6836 134.211 97.1206 134.286Z" fill="#2C2B47"/>
<path d="M96.1651 137.7C93.5646 137.74 90.9877 138.202 88.5351 139.068C88.0101 139.275 88.2351 140.118 88.7601 139.912C91.1408 139.07 93.6406 138.615 96.1651 138.562C96.7281 138.543 96.7281 137.662 96.1651 137.7Z" fill="#2C2B47"/>
<path d="M93.6 124.555C90.506 125.024 86.756 125.605 84.113 127.367C83.644 127.686 84.075 128.436 84.563 128.117C87.113 126.43 90.863 125.849 93.843 125.399C94.387 125.324 94.162 124.48 93.6 124.555Z" fill="#2C2B47"/>
<path d="M94.5147 127.649C91.4445 127.773 88.4163 128.406 85.5537 129.523C85.0287 129.73 85.2537 130.573 85.7787 130.367C88.5605 129.265 91.5074 128.638 94.4967 128.511C95.0777 128.492 95.0777 127.611 94.5147 127.649Z" fill="#2C2B47"/>
<path d="M63.937 80.965C65.268 79.053 66.8609 76.915 69.4489 76.99C69.603 76.99 69.7508 76.9288 69.8598 76.8199C69.9687 76.7109 70.0299 76.5631 70.0299 76.409C70.0299 76.2549 69.9687 76.1072 69.8598 75.9982C69.7508 75.8892 69.603 75.828 69.4489 75.828C66.4299 75.753 64.518 78.115 62.943 80.384C62.493 81.003 63.505 81.584 63.937 80.965Z" fill="#5A80F9"/>
<path d="M129.612 270.455L156.76 234.159L160.922 236.352L134.674 270.887L129.612 270.455Z" fill="#08C48E"/>
</svg>
