<svg width="18" height="18" viewBox="0 0 18 18" fill="none" xmlns="http://www.w3.org/2000/svg">
<path fill-rule="evenodd" clip-rule="evenodd" d="M0.5 4C0.5 2.067 2.067 0.5 4 0.5H14C15.933 0.5 17.5 2.067 17.5 4V5.5V6.5V14C17.5 15.933 15.933 17.5 14 17.5H11.5H4C2.067 17.5 0.5 15.933 0.5 14V6.5V4ZM12.5 16.5H14C15.3807 16.5 16.5 15.3807 16.5 14V6.5H12.5V16.5ZM11.5 6.5V16.5H4C2.61929 16.5 1.5 15.3807 1.5 14V6.5H11.5ZM11.5 5.5L16.5 5.5V4C16.5 2.61929 15.3807 1.5 14 1.5H4C2.61929 1.5 1.5 2.61929 1.5 4V5.5L11.5 5.5Z" fill="black"/>
</svg>
