<svg width="200" height="200" viewBox="0 0 200 200" fill="none" xmlns="http://www.w3.org/2000/svg">
<path d="M145.956 47.6627L122.4 47.7767C121.587 47.7806 120.805 47.4624 120.226 46.8916C119.646 46.3208 119.316 45.5439 119.308 44.7307L118.898 6.37932C118.888 5.56673 118.557 4.79092 117.978 4.22055C117.399 3.65017 116.619 3.33133 115.806 3.33332L94.6116 3.43599L73.4162 3.53866C72.6049 3.54528 71.8288 3.8705 71.2551 4.44418C70.6814 5.01786 70.3562 5.79404 70.3496 6.60532L70.2929 44.9573C70.292 45.7704 69.9686 46.5499 69.3937 47.1248C68.8188 47.6997 68.0393 48.0231 67.2262 48.024L43.6669 48.142C43.0773 48.1443 42.5008 48.316 42.006 48.6367C41.5113 48.9574 41.1192 49.4136 40.8764 49.9509C40.6336 50.4882 40.5503 51.084 40.6366 51.6672C40.7229 52.2505 40.975 52.7966 41.3629 53.2407L92.7862 112.067C93.0765 112.399 93.4351 112.666 93.8376 112.848C94.24 113.029 94.677 113.122 95.1186 113.12C95.5602 113.118 95.9961 113.021 96.3967 112.835C96.7974 112.649 97.1533 112.379 97.4402 112.043L148.318 52.7367C148.698 52.2874 148.941 51.7386 149.02 51.1552C149.098 50.5719 149.008 49.9783 148.759 49.4447C148.511 48.911 148.115 48.4596 147.618 48.1439C147.122 47.8281 146.545 47.6611 145.956 47.6627Z" fill="#80BEFF"/>
<path d="M72.2703 186.059L71.5317 191.186L73.8465 191.519L74.5851 186.393L72.2703 186.059Z" fill="#FEDFFD" stroke="#FEDFFD" stroke-width="0.086" stroke-miterlimit="10"/>
<path d="M109.791 185.696L109.053 190.822L111.367 191.155L112.106 186.029L109.791 185.696Z" fill="#FEDFFD" stroke="#FEDFFD" stroke-width="0.086" stroke-miterlimit="10"/>
<path d="M91.7225 185.693L89.4077 186.027L90.1463 191.153L92.461 190.82L91.7225 185.693Z" fill="#FEDFFD" stroke="#FEDFFD" stroke-width="0.086" stroke-miterlimit="10"/>
<path d="M133.315 185.693L131 186.027L131.739 191.153L134.053 190.82L133.315 185.693Z" fill="#FEDFFD" stroke="#FEDFFD" stroke-width="0.086" stroke-miterlimit="10"/>
<path d="M165.667 122.633H160.2C159.879 122.633 159.572 122.76 159.345 122.987C159.118 123.213 158.991 123.521 158.991 123.841V135.867C158.99 136.187 158.863 136.495 158.636 136.721C158.409 136.948 158.102 137.075 157.781 137.075H31.8472C31.5267 137.075 31.2193 136.948 30.9925 136.721C30.7658 136.495 30.6383 136.187 30.6379 135.867V123.841C30.6377 123.521 30.5103 123.213 30.2837 122.987C30.0571 122.76 29.7497 122.633 29.4292 122.633H23.9626C23.6421 122.633 23.3347 122.76 23.1081 122.987C22.8815 123.213 22.7541 123.521 22.7539 123.841V142.867C22.7541 143.187 22.8815 143.495 23.1081 143.721C23.3347 143.948 23.642 144.076 23.9626 144.076H165.667C165.987 144.076 166.295 143.948 166.522 143.722C166.748 143.495 166.876 143.187 166.876 142.867V123.841C166.877 123.682 166.847 123.524 166.786 123.377C166.726 123.23 166.637 123.096 166.524 122.984C166.412 122.871 166.278 122.782 166.131 122.722C165.983 122.662 165.826 122.631 165.667 122.633Z" fill="#80BEFF"/>
<path d="M89.9115 150.569C89.8994 150.532 89.8768 150.499 89.8463 150.475C89.8159 150.451 89.779 150.436 89.7401 150.432C87.4135 150.728 85.0826 150.93 82.7475 151.037C81.6521 151.083 80.5688 151.103 79.4735 151.117C79.2028 151.074 78.9264 151.085 78.6601 151.15C78.3938 151.214 78.143 151.331 77.9221 151.493C77.3677 152.121 76.9102 152.829 76.5648 153.592C75.9985 154.574 75.4882 155.587 75.0361 156.627C74.2939 158.329 73.6652 160.078 73.1541 161.863C71.9883 165.934 71.1716 170.098 70.7128 174.308C70.4612 176.464 70.3057 178.628 70.2461 180.799C70.2124 181.883 70.201 182.966 70.2121 184.05C70.2235 185.043 70.5455 186.445 70.2788 187.404C70.2713 187.431 70.2701 187.458 70.2751 187.485C70.2801 187.513 70.2913 187.538 70.3078 187.56C70.3243 187.582 70.3457 187.6 70.3703 187.613C70.3948 187.625 70.4219 187.632 70.4495 187.632L74.6935 187.699C74.7086 187.726 74.7305 187.748 74.7569 187.764C74.7833 187.78 74.8134 187.79 74.8443 187.791C74.8752 187.792 74.9059 187.785 74.9334 187.771C74.9609 187.757 74.9844 187.736 75.0015 187.71C75.0242 187.682 75.0433 187.651 75.0581 187.619C75.0761 187.592 75.0841 187.559 75.0808 187.527C78.3961 180.59 81.2902 173.459 83.7475 166.173C83.9188 169.469 84.9475 172.8 85.7548 175.949C86.7361 179.771 87.8579 183.551 89.1201 187.288C89.1279 187.314 89.1415 187.338 89.1599 187.358C89.1783 187.378 89.201 187.394 89.2264 187.404C89.2517 187.413 89.279 187.417 89.3061 187.415C89.3332 187.413 89.3594 187.405 89.3828 187.391C89.9362 187.294 90.4994 187.267 91.0595 187.311C91.5728 187.265 92.0748 187.197 92.5768 187.139C93.1756 187.127 93.7686 187.019 94.3335 186.82C94.3616 186.804 94.3849 186.781 94.401 186.752C94.417 186.724 94.4253 186.692 94.4248 186.66C94.8055 174.491 94.7255 161.954 89.9115 150.569Z" fill="#FB0E39"/>
<path d="M135.21 186.685C135.187 185.784 135.131 184.885 135.028 183.993C134.526 180.49 133.818 177.02 132.906 173.601C131.275 166.667 129.427 159.946 126.255 153.524C126.235 153.49 126.204 153.463 126.167 153.448C126.129 153.434 126.088 153.432 126.05 153.444C123.894 154.025 121.51 153.17 119.297 153.17C117.346 153.17 115.578 153.703 113.673 153.911C113.593 153.923 113.513 153.957 113.502 154.049C112.224 159.843 110.947 165.642 109.669 171.445C108.469 176.886 107.239 182.316 107.307 187.917C107.309 187.957 107.323 187.995 107.348 188.026C107.372 188.056 107.406 188.078 107.445 188.088C108.893 188.282 110.342 188.465 111.802 188.555H111.848C111.867 188.575 111.89 188.59 111.915 188.6C111.941 188.61 111.968 188.614 111.996 188.612C112.023 188.61 112.05 188.601 112.073 188.588C112.097 188.574 112.117 188.555 112.133 188.532C116.263 182.219 119.514 175.372 121.795 168.181C122.091 168.934 122.229 169.881 122.457 170.611C122.765 171.544 123.084 172.481 123.426 173.405C124.019 175.005 124.67 176.588 125.389 178.139C126.981 181.613 128.853 184.951 130.989 188.121C131.01 188.154 131.041 188.18 131.078 188.194C131.115 188.209 131.156 188.211 131.194 188.2C132.041 188.039 132.899 187.94 133.761 187.904C134.183 187.858 134.673 187.949 134.993 187.619C135.301 187.313 135.221 187.164 135.21 186.685Z" fill="black"/>
<path d="M88.8158 119.917C88.7793 119.898 88.7373 119.89 88.6962 119.896C88.6551 119.902 88.617 119.922 88.5878 119.951C88.3938 119.381 88.1085 118.811 87.6865 118.879C87.6006 118.895 87.522 118.938 87.4621 119.002C87.4022 119.065 87.364 119.146 87.3532 119.233C87.1893 118.874 86.9017 118.587 86.5432 118.423C86.5133 118.413 86.4811 118.412 86.4506 118.42C86.4201 118.428 86.3926 118.445 86.3718 118.469C86.2854 118.596 86.2265 118.74 86.1991 118.891C86.1716 119.042 86.1762 119.198 86.2125 119.347L86.0072 119.142C85.9737 119.109 85.9286 119.09 85.8815 119.09C85.8344 119.09 85.7893 119.109 85.7558 119.142C85.2892 119.746 85.5965 120.809 86.0185 121.731C85.9448 121.68 85.8546 121.659 85.7659 121.671C85.6771 121.684 85.5962 121.729 85.5392 121.798C84.9578 122.437 86.5205 124.57 86.8058 125.027C86.8147 125.046 86.8275 125.062 86.8432 125.076C86.8589 125.09 86.8773 125.1 86.8972 125.107C87.0377 125.414 87.2055 125.708 87.3985 125.985C87.4196 126.018 87.4509 126.044 87.4879 126.059C87.5249 126.073 87.5656 126.075 87.6038 126.065C88.1427 125.839 88.7116 125.693 89.2925 125.631C89.3396 125.627 89.3838 125.607 89.4173 125.573C89.4507 125.54 89.4712 125.496 89.4752 125.449C89.5572 124.081 90.1505 120.921 88.8158 119.917Z" fill="#FEDFFD"/>
<path d="M83.3861 121.275C83.3292 121.206 83.2484 121.16 83.1597 121.148C83.0711 121.136 82.9811 121.157 82.9074 121.208C83.3181 120.284 83.6374 119.223 83.1694 118.618C83.1359 118.585 83.0909 118.567 83.0441 118.567C82.9973 118.567 82.9523 118.585 82.9188 118.618L82.7134 118.823C82.7496 118.674 82.754 118.519 82.7265 118.367C82.6989 118.216 82.64 118.072 82.5534 117.945C82.5328 117.922 82.5055 117.904 82.4751 117.896C82.4447 117.888 82.4126 117.889 82.3828 117.899C82.0246 118.06 81.7393 118.349 81.5828 118.709C81.568 118.624 81.5285 118.545 81.4693 118.482C81.41 118.42 81.3335 118.376 81.2494 118.356C80.8494 118.265 80.5534 118.858 80.3481 119.428C80.3205 119.396 80.2823 119.375 80.2404 119.368C80.1986 119.362 80.1558 119.371 80.1201 119.394C78.7868 120.398 79.3668 123.569 79.4581 124.927C79.462 124.974 79.4825 125.019 79.516 125.052C79.5494 125.086 79.5936 125.106 79.6408 125.11C80.2231 125.162 80.7932 125.309 81.3288 125.543C81.367 125.554 81.4077 125.552 81.4447 125.537C81.4817 125.523 81.5131 125.497 81.5341 125.463C81.7317 125.189 81.9 124.895 82.0361 124.585C82.056 124.579 82.0744 124.569 82.0901 124.555C82.1058 124.541 82.1185 124.524 82.1274 124.505C82.4281 124.013 83.9681 121.937 83.3861 121.275Z" fill="#FEDFFD"/>
<path d="M91.44 139C91.3147 134.311 91.4967 129.441 89.968 124.933C89.9536 124.889 89.9235 124.852 89.8836 124.829C89.8436 124.806 89.7966 124.799 89.7513 124.808C88.7737 124.968 87.8062 125.185 86.854 125.458C86.8168 125.47 86.7838 125.492 86.7595 125.523C86.7351 125.553 86.7205 125.59 86.7174 125.629C86.6374 127.648 87.014 129.747 87.0933 131.778C87.2036 134.063 87.1771 136.352 87.014 138.634C86.9223 140.813 86.5346 142.97 85.8614 145.045C85.2914 146.573 83.7513 148.445 82.1314 146.756C81.3482 145.799 80.8961 144.615 80.8427 143.379C80.7356 141.193 80.8233 139.002 81.1047 136.831C81.2762 134.664 81.5045 132.5 81.7894 130.341C81.96 129.029 82.1087 127.683 82.3594 126.382C82.426 126.005 82.6674 125.515 82.542 125.139C82.4394 124.797 82.28 124.773 81.972 124.694C81.0181 124.531 80.0529 124.443 79.0854 124.431C79.0454 124.43 79.0063 124.444 78.9751 124.469C78.9439 124.494 78.9225 124.529 78.9147 124.568C77.0667 134.401 76.04 144.337 75.1147 154.285C75.1034 154.467 75.32 154.501 75.4227 154.399C75.4266 154.441 75.4465 154.479 75.4783 154.507C75.51 154.535 75.5513 154.549 75.5934 154.547C78.5711 154.615 81.5489 154.634 84.5267 154.604C85.93 154.581 87.3447 154.559 88.748 154.513C89.5347 154.49 90.322 154.467 91.1093 154.433C91.3265 154.456 91.5459 154.424 91.748 154.342C91.776 154.326 91.7992 154.302 91.8152 154.274C91.8313 154.246 91.8396 154.214 91.8393 154.182C91.702 149.12 91.5689 144.059 91.44 139Z" fill="#FF4900"/>
<path d="M33.4215 196.017C32.5753 195.037 31.5185 194.26 30.3302 193.746C29.5888 193.346 28.7788 193.013 28.0635 192.571C26.7862 191.795 27.6415 190.587 28.0982 189.571C28.1128 189.543 28.1202 189.512 28.1194 189.48C28.1187 189.448 28.1099 189.417 28.0939 189.39C28.0779 189.363 28.0552 189.34 28.028 189.324C28.0008 189.307 27.9699 189.298 27.9382 189.297C26.9009 189.239 25.861 189.243 24.8242 189.309C24.7917 189.313 24.7607 189.325 24.7339 189.344C24.7072 189.363 24.6856 189.388 24.6709 189.417C24.6562 189.447 24.6489 189.479 24.6497 189.512C24.6505 189.545 24.6594 189.577 24.6755 189.605L24.3675 189.845C24.3526 189.819 24.3311 189.799 24.3053 189.785C24.2796 189.771 24.2505 189.764 24.2212 189.765C24.192 189.766 24.1636 189.776 24.1391 189.792C24.1146 189.808 24.0949 189.83 24.0822 189.857L22.2688 193.79C21.9608 194.463 21.1508 195.523 21.1962 196.265C21.2001 196.312 21.2206 196.357 21.254 196.39C21.2875 196.424 21.3317 196.444 21.3788 196.448C22.0192 196.516 22.6628 196.55 23.3068 196.551C23.3464 196.549 23.3845 196.535 23.4154 196.511C23.4463 196.486 23.4684 196.452 23.4782 196.413C23.7534 195.665 24.105 194.946 24.5275 194.269C24.4815 194.52 24.4135 194.783 24.3902 194.931C24.3235 195.41 24.2648 195.889 24.1968 196.368C24.1964 196.392 24.2008 196.416 24.2098 196.438C24.2187 196.461 24.2321 196.481 24.2491 196.498C24.2661 196.515 24.2863 196.528 24.3086 196.537C24.3309 196.547 24.3548 196.551 24.3788 196.551C27.3335 196.607 30.2995 196.413 33.2542 196.345C33.2861 196.344 33.3172 196.335 33.3449 196.319C33.3727 196.303 33.3962 196.281 33.4135 196.254C33.4225 196.233 33.4341 196.214 33.4482 196.197C33.4448 196.142 33.4562 196.062 33.4215 196.017Z" fill="black"/>
<path d="M62.2365 196.028C61.3585 194.841 60.0238 194.214 58.7458 193.541C58.0271 193.165 56.9325 192.868 56.3958 192.252C55.8825 191.67 56.0538 190.165 56.2931 189.491C56.3391 189.377 56.2265 189.275 56.1225 189.263C55.289 189.229 54.4542 189.251 53.6238 189.33C53.5913 189.334 53.5604 189.346 53.5338 189.365C53.5071 189.384 53.4856 189.41 53.471 189.439C53.4563 189.468 53.4491 189.501 53.45 189.533C53.4508 189.566 53.4597 189.598 53.4758 189.627L53.1678 189.867C53.1531 189.841 53.1317 189.82 53.1059 189.806C53.0802 189.792 53.0511 189.785 53.0217 189.786C52.9923 189.787 52.9638 189.797 52.9393 189.813C52.9148 189.829 52.8951 189.851 52.8825 189.878L51.0685 193.811C50.7605 194.485 49.9511 195.545 49.9965 196.287C50.0004 196.334 50.0209 196.378 50.0543 196.411C50.0878 196.445 50.132 196.465 50.1791 196.469C50.8195 196.538 51.4631 196.572 52.1071 196.572C52.1461 196.571 52.1837 196.557 52.2144 196.533C52.2452 196.509 52.2674 196.476 52.2778 196.439C52.5533 195.69 52.9049 194.971 53.3271 194.294C53.2818 194.545 53.2131 194.807 53.1938 194.955C53.1271 195.435 53.0685 195.914 52.9998 196.393C52.9995 196.417 53.0041 196.441 53.0131 196.463C53.0222 196.485 53.0357 196.505 53.0527 196.522C53.0697 196.539 53.09 196.553 53.1122 196.562C53.1345 196.571 53.1584 196.576 53.1825 196.575C56.1371 196.633 59.1031 196.442 62.0571 196.37C62.0892 196.369 62.1206 196.36 62.1485 196.344C62.1764 196.328 62.2 196.306 62.2171 196.279C62.2259 196.258 62.2373 196.239 62.2511 196.222C62.266 196.191 62.2725 196.157 62.27 196.123C62.2674 196.089 62.2558 196.056 62.2365 196.028Z" fill="black"/>
<path d="M47.6128 150.969C47.6157 150.941 47.612 150.913 47.602 150.887C47.5921 150.862 47.5761 150.838 47.5555 150.82C47.5102 150.706 47.4755 150.592 47.4302 150.478C47.3502 150.261 46.9968 150.353 47.0882 150.569C47.1108 150.636 47.1448 150.717 47.1675 150.786C46.0382 150.843 44.9208 150.911 43.7915 150.969C42.9468 151.014 41.6468 150.831 40.8482 151.139C40.2305 151.5 39.6913 151.981 39.2622 152.554C38.7046 153.154 38.1829 153.787 37.6995 154.448C35.0995 157.995 33.1142 162.115 31.2775 166.095C29.4595 170.047 27.8897 174.108 26.5775 178.255C25.9042 180.389 25.2995 182.544 24.7635 184.722C24.4895 185.839 24.2302 186.969 23.9882 188.098C23.8855 188.6 23.5088 189.467 23.6682 189.969C23.6809 190.006 23.7038 190.038 23.7342 190.061C23.7646 190.085 23.8011 190.099 23.8395 190.103C25.2395 190.148 26.6575 190.194 28.0602 190.228C28.0922 190.227 28.1235 190.218 28.1513 190.202C28.1792 190.186 28.2028 190.164 28.2202 190.137C30.0682 186.646 32.1535 183.258 34.2202 179.893C36.9582 175.433 39.7642 170.995 42.8202 166.751C42.8803 167.121 42.9643 167.487 43.0715 167.847C43.3562 168.965 43.6528 170.071 43.9835 171.18C44.6684 173.461 45.4479 175.706 46.3222 177.913C48.011 182.146 50.0527 186.229 52.4255 190.119C52.4465 190.153 52.4779 190.179 52.5149 190.193C52.5519 190.208 52.5926 190.21 52.6308 190.199C53.8711 189.999 55.1302 189.942 56.3835 190.028C56.4315 190.027 56.4772 190.007 56.5112 189.973C56.5452 189.939 56.5648 189.893 56.5662 189.845C55.8488 176.498 52.3922 163.459 47.6128 150.969Z" fill="#FF4900"/>
<path d="M45.434 163.391C44.5315 164.349 43.6856 165.358 42.9006 166.414C42.6953 166.688 43.1626 166.962 43.3673 166.688C44.1246 165.669 44.9397 164.693 45.8086 163.767C45.8508 163.716 45.8724 163.651 45.8693 163.585C45.8662 163.519 45.8386 163.456 45.7918 163.409C45.7451 163.363 45.6825 163.335 45.6164 163.331C45.5502 163.328 45.4852 163.349 45.434 163.391Z" fill="black"/>
<path d="M64.9747 132C65.3167 131.475 65.6133 130.848 65.2253 130.608C65.1608 130.568 65.0873 130.545 65.0116 130.541C64.9358 130.537 64.8603 130.552 64.792 130.585C64.967 130.248 65.0157 129.86 64.9293 129.49C64.9194 129.452 64.8973 129.418 64.8664 129.393C64.8356 129.368 64.7975 129.354 64.758 129.353C64.6087 129.364 64.4634 129.406 64.3316 129.477C64.1998 129.547 64.0845 129.645 63.9933 129.764C64.0053 129.661 64.0167 129.57 64.028 129.467C64.0277 129.44 64.0211 129.413 64.0086 129.388C63.9962 129.364 63.9782 129.342 63.9561 129.326C63.9341 129.309 63.9085 129.298 63.8815 129.293C63.8544 129.288 63.8265 129.289 63.8 129.297C63.0667 129.411 62.4767 130.243 62.02 131.087C62.0138 130.993 61.9712 130.904 61.9011 130.84C61.8309 130.777 61.7388 130.743 61.644 130.745C60.788 130.699 60.138 133.141 59.9213 133.734C59.91 133.771 59.91 133.811 59.9213 133.848C59.7693 134.146 59.647 134.459 59.556 134.781C59.5454 134.82 59.5474 134.86 59.5619 134.897C59.5763 134.934 59.6023 134.966 59.636 134.987C60.1382 135.267 60.5957 135.621 60.9933 136.036C61.0213 136.064 61.0581 136.082 61.0976 136.086C61.1371 136.09 61.1768 136.08 61.21 136.059C62.328 135.283 65.1687 133.8 65.1227 132.169C65.146 132.078 65.0667 132.009 64.9747 132Z" fill="#FEDFFD"/>
<path d="M53.4075 121.765C53.3507 121.696 53.2699 121.651 53.1812 121.638C53.0925 121.626 53.0023 121.648 52.9288 121.699C53.3508 120.798 53.6928 119.748 53.2708 119.178C53.2562 119.155 53.2366 119.135 53.2133 119.12C53.19 119.105 53.1637 119.096 53.1363 119.092C53.1089 119.089 53.0811 119.092 53.055 119.101C53.0289 119.11 53.0051 119.125 52.9855 119.144C52.9188 119.201 52.8521 119.269 52.7915 119.326C52.8311 119.188 52.8404 119.043 52.8189 118.901C52.7974 118.759 52.7455 118.623 52.6668 118.503C52.6458 118.469 52.6144 118.443 52.5774 118.429C52.5403 118.414 52.4997 118.413 52.4615 118.423C52.1087 118.584 51.8225 118.862 51.6515 119.21C51.6403 119.13 51.6063 119.056 51.5536 118.995C51.501 118.935 51.432 118.89 51.3548 118.868C50.9441 118.743 50.6361 119.335 50.4308 119.906C50.4018 119.876 50.3638 119.857 50.3226 119.85C50.2814 119.844 50.2393 119.852 50.2028 119.872C48.8568 120.83 49.3815 123.99 49.4388 125.339C49.44 125.387 49.4595 125.432 49.4934 125.466C49.5272 125.5 49.5729 125.52 49.6208 125.521C50.177 125.578 50.7202 125.724 51.2295 125.955C51.2719 125.978 51.3215 125.984 51.3681 125.971C51.4147 125.959 51.4548 125.929 51.4801 125.888C51.6771 125.619 51.849 125.333 51.9935 125.033C52.0354 125.018 52.0715 124.99 52.0961 124.953C52.4155 124.457 53.9781 122.427 53.4075 121.765Z" fill="#FEDFFD"/>
<path d="M61.8608 135.431C61.1535 134.998 60.5275 134.473 59.8188 134.051C59.7914 134.034 59.7598 134.025 59.7275 134.025C59.6952 134.025 59.6636 134.034 59.6362 134.051C57.4362 135.511 55.6321 137.371 53.5695 138.991C52.6341 139.778 51.647 140.502 50.6148 141.158C49.8735 141.591 49.1321 142.025 48.4248 142.527C49.0635 139.481 49.7059 136.436 50.3521 133.389C50.6855 131.838 51.0028 130.287 51.3335 128.735C51.5501 127.709 52.2122 126.18 51.9608 125.153C51.9529 125.123 51.9372 125.096 51.9152 125.074C51.8931 125.052 51.8656 125.036 51.8355 125.028C51.4498 124.923 51.057 124.847 50.6601 124.8C50.3641 124.765 49.7481 124.867 49.5082 124.72C49.466 124.696 49.4161 124.69 49.3692 124.702C49.3223 124.715 49.2822 124.745 49.2575 124.787C47.9242 126.543 47.2381 128.688 46.4281 130.72C45.4701 133.116 44.5002 135.5 43.5535 137.895C41.6208 142.671 39.9641 147.554 38.5915 152.52C38.5841 152.547 38.583 152.574 38.5881 152.602C38.5932 152.629 38.6045 152.654 38.6211 152.676C38.6376 152.698 38.659 152.716 38.6836 152.729C38.7082 152.741 38.7353 152.748 38.7628 152.748C42.2961 153.067 45.9495 152.782 49.5082 152.737C49.5503 152.739 49.5916 152.724 49.6235 152.697C49.6554 152.669 49.6754 152.63 49.6795 152.588C49.6851 152.576 49.6881 152.562 49.6881 152.548C49.6881 152.535 49.6851 152.521 49.6795 152.509C49.4968 151.425 49.2128 150.375 48.9948 149.291C49.0748 149.257 49.1548 149.189 49.2915 149.109C50.076 148.64 50.8303 148.121 51.5501 147.557C52.9212 146.521 54.2173 145.389 55.4288 144.169C57.9174 141.612 60.0959 138.77 61.9195 135.703C61.9467 135.659 61.9558 135.606 61.9449 135.555C61.934 135.505 61.9038 135.46 61.8608 135.431Z" fill="#DB199B"/>
<path d="M48.7648 149.133C46.9395 149.658 42.0688 149.92 41.9315 147.08C42.1715 145.734 43.7115 144.833 44.8648 144.297C46.0175 143.82 47.1973 143.413 48.3981 143.076C48.7315 142.962 48.5808 142.449 48.2501 142.551C46.7328 143.053 45.1128 143.429 43.7555 144.285C42.7401 144.923 41.6888 145.607 41.4288 146.828C41.4015 146.873 41.3857 146.924 41.3828 146.977C41.4288 150.353 46.7101 150.273 48.9001 149.643C48.959 149.618 49.0067 149.573 49.0347 149.515C49.0627 149.457 49.0691 149.392 49.0527 149.33C49.0363 149.268 48.9982 149.214 48.9453 149.178C48.8925 149.142 48.8284 149.126 48.7648 149.133Z" fill="#FEDFFD"/>
<path d="M43.6998 141.591C43.3345 140.439 42.2851 140.063 41.1445 140.2C40.4712 140.303 39.8265 140.544 39.2505 140.907C38.631 141.32 37.9164 141.567 37.1745 141.626C36.5585 141.637 35.9538 141.512 35.3378 141.546C34.6637 141.573 34.0111 141.79 33.4558 142.173C33.0338 142.47 32.7258 142.881 32.2918 143.177C31.6649 143.574 30.9347 143.776 30.1931 143.759C29.3871 143.73 28.5804 143.788 27.7865 143.93C27.0996 144.187 26.4712 144.578 25.9385 145.082C24.7291 145.949 21.9571 145.379 22.0718 147.649C22.0699 147.913 22.1336 148.173 22.257 148.406C22.3804 148.64 22.5598 148.839 22.7791 148.986C22.9983 149.133 23.2506 149.223 23.5133 149.248C23.7761 149.274 24.041 149.234 24.2845 149.132C24.8404 148.816 25.4298 148.564 26.0418 148.379C26.7338 148.284 27.4383 148.359 28.0951 148.596C28.7753 148.825 29.517 148.789 30.1711 148.493C31.0038 148.117 31.5171 147.329 32.3045 146.907C33.3538 146.349 34.5045 146.907 35.6465 146.645C36.4886 146.434 37.2452 145.968 37.8138 145.312C38.4071 144.639 38.5325 144.068 39.6051 143.965C40.0113 143.996 40.4188 144.004 40.8258 143.989C41.0524 143.932 41.2655 143.831 41.4531 143.692C41.5098 143.646 41.8291 143.292 41.7151 143.359C41.8857 143.244 42.0639 143.141 42.2485 143.051C42.3154 143.183 42.418 143.293 42.5445 143.37C43.1038 143.703 43.5145 143.107 43.6171 142.617C43.6393 142.5 43.6544 142.382 43.6625 142.263C43.7246 142.163 43.7606 142.05 43.7671 141.932C43.7736 141.815 43.7505 141.697 43.6998 141.591Z" fill="#FEDFFD"/>
<path d="M75.1841 190.153C75.1853 190.122 75.1779 190.091 75.1627 190.064C75.1476 190.037 75.1252 190.014 75.0982 189.999C75.0711 189.984 75.0404 189.976 75.0093 189.977C74.9783 189.978 74.9481 189.988 74.9221 190.005C74.902 189.991 74.8794 189.982 74.8557 189.978C74.832 189.974 74.8077 189.974 74.7842 189.979C74.7607 189.985 74.7385 189.995 74.719 190.009C74.6995 190.023 74.6831 190.041 74.6708 190.062C74.4807 190.43 74.1875 190.736 73.8268 190.94C73.8155 190.94 73.8041 190.951 73.7815 190.951C73.5997 190.982 73.4138 190.978 73.2335 190.94C72.7435 190.701 72.3781 189.959 72.0701 189.651C71.9459 189.5 71.7952 189.372 71.6255 189.275C71.193 189.066 70.7037 189.005 70.2335 189.103C68.6306 189.425 67.0974 190.027 65.7048 190.883C63.5261 192.047 60.6381 193.427 60.3208 196.199C60.3088 196.301 60.4114 196.37 60.5028 196.381C65.3281 196.553 70.1421 196.803 74.9695 196.575C75.0175 196.574 75.0632 196.554 75.0971 196.52C75.1311 196.486 75.1508 196.441 75.1521 196.393C75.0701 194.294 75.0815 192.229 75.1841 190.153Z" fill="#80BEFF"/>
<path d="M112.281 190.187C112.282 190.156 112.275 190.125 112.26 190.098C112.245 190.071 112.222 190.048 112.195 190.033C112.168 190.018 112.137 190.01 112.106 190.011C112.075 190.012 112.045 190.022 112.019 190.039C111.999 190.025 111.976 190.016 111.952 190.012C111.929 190.008 111.904 190.008 111.881 190.014C111.858 190.019 111.835 190.029 111.816 190.043C111.797 190.057 111.78 190.075 111.768 190.096C111.582 190.442 111.316 190.739 110.992 190.963C110.963 190.976 110.932 190.984 110.901 190.986C110.691 191.02 110.477 191.008 110.273 190.951C109.911 190.624 109.597 190.248 109.34 189.833C109.19 189.622 108.996 189.447 108.77 189.32C108.342 189.123 107.865 189.06 107.401 189.138C105.868 189.43 104.4 189.994 103.067 190.805C100.855 191.968 97.8427 193.371 97.5233 196.189C97.512 196.291 97.6147 196.36 97.706 196.371C102.497 196.543 107.277 196.793 112.068 196.565C112.116 196.564 112.162 196.544 112.196 196.51C112.23 196.476 112.249 196.431 112.251 196.383C112.167 194.317 112.19 192.252 112.281 190.187Z" fill="#FF4900"/>
<path d="M85.3025 142.128C85.131 142.151 84.9625 142.193 84.8005 142.253C84.9605 142.048 85.1338 141.853 85.2912 141.649C85.3045 141.634 85.3128 141.616 85.3147 141.596C85.3166 141.576 85.312 141.557 85.3017 141.54C85.2914 141.523 85.2758 141.51 85.2574 141.503C85.2391 141.496 85.2188 141.495 85.1998 141.5C84.975 141.544 84.7538 141.605 84.5385 141.683C84.714 141.491 84.8777 141.289 85.0285 141.078C85.0361 141.062 85.0392 141.045 85.0375 141.027C85.0357 141.01 85.0291 140.993 85.0184 140.98C85.0078 140.966 84.9934 140.955 84.9771 140.949C84.9607 140.943 84.943 140.941 84.9258 140.945C83.9925 141.241 82.9298 141.629 82.5418 142.633C82.2565 143.375 82.4278 144.583 83.3745 144.675C83.3858 144.675 83.3971 144.686 83.4205 144.675C83.4431 144.675 83.4545 144.675 83.4658 144.663C83.6456 144.626 83.8136 144.545 83.9548 144.428C84.0961 144.311 84.2063 144.161 84.2758 143.991C84.3664 143.774 84.4352 143.548 84.4812 143.317C84.6412 142.804 85.0518 142.633 85.3712 142.268C85.4505 142.207 85.3938 142.116 85.3025 142.128Z" fill="black"/>
<path d="M147.108 185.2C147.085 185.097 146.937 185.133 146.937 185.223H145.317C145.317 185.132 145.169 185.097 145.146 185.2C144.804 186.318 144.735 187.505 144.496 188.645C144.369 189.309 144.146 189.95 143.834 190.55C143.35 191.323 142.606 191.898 141.735 192.17C140.321 192.797 138.929 193.482 137.549 194.189C137.207 194.36 135.165 194.999 135.349 195.589C135.554 196.217 136.957 195.923 137.415 195.932C139.082 195.966 140.735 195.977 142.4 195.966C142.822 195.966 143.701 196.137 144.077 195.886C144.374 195.693 144.511 195.008 144.611 194.734C144.77 194.312 144.964 193.901 145.101 193.479C145.181 193.229 145.204 192.806 145.193 193.308C145.181 194.301 145.078 195.316 145.055 196.308C145.057 196.332 145.067 196.354 145.084 196.37C145.101 196.387 145.123 196.397 145.147 196.399C146.093 196.376 147.041 196.353 147.999 196.342C148.022 196.34 148.045 196.33 148.061 196.313C148.078 196.297 148.088 196.274 148.09 196.251C147.759 192.583 147.873 188.818 147.108 185.2Z" fill="#80BEFF"/>
<path d="M176.756 194.545C175.319 193.811 173.881 193.096 172.399 192.446C171.524 192.182 170.777 191.605 170.299 190.826C169.988 190.226 169.765 189.585 169.638 188.921C169.398 187.78 169.319 186.594 168.987 185.476C168.953 185.373 168.805 185.409 168.817 185.499H167.2C167.2 185.407 167.052 185.373 167.029 185.476C166.265 189.092 166.367 192.857 166.048 196.519C166.049 196.542 166.06 196.565 166.076 196.581C166.093 196.598 166.116 196.608 166.139 196.609C167.086 196.633 168.033 196.655 168.991 196.667C169.014 196.665 169.037 196.655 169.053 196.638C169.07 196.621 169.08 196.599 169.082 196.575C169.059 195.651 169.048 194.716 168.957 193.803C168.911 193.301 168.82 193.073 169.037 193.747C169.17 194.169 169.37 194.591 169.527 195.001C169.63 195.263 169.778 195.971 170.061 196.153C170.449 196.404 171.35 196.22 171.737 196.233C173.337 196.245 174.92 196.233 176.517 196.211C176.973 196.199 178.593 196.507 178.799 195.868C178.969 195.287 177.075 194.705 176.756 194.545Z" fill="#80BEFF"/>
<path d="M114.004 119.712C113.964 119.689 113.917 119.682 113.872 119.692C113.827 119.703 113.789 119.731 113.764 119.769C113.467 119.21 113.08 118.64 112.68 118.868C112.612 118.905 112.556 118.959 112.515 119.025C112.475 119.092 112.454 119.167 112.452 119.245C112.247 118.923 111.93 118.687 111.562 118.583C111.524 118.574 111.484 118.578 111.448 118.592C111.411 118.606 111.38 118.631 111.357 118.663C111.291 118.797 111.255 118.944 111.251 119.094C111.247 119.243 111.275 119.392 111.334 119.529C111.254 119.473 111.174 119.404 111.094 119.347C111.071 119.335 111.045 119.327 111.018 119.325C110.991 119.324 110.965 119.328 110.94 119.338C110.915 119.348 110.892 119.363 110.874 119.382C110.855 119.401 110.841 119.425 110.832 119.45C110.57 120.145 111.003 121.093 111.528 121.902C111.447 121.859 111.353 121.848 111.264 121.872C111.176 121.895 111.099 121.951 111.049 122.028C110.57 122.758 112.382 124.549 112.794 125.028C112.82 125.059 112.857 125.08 112.897 125.085C113.083 125.368 113.297 125.631 113.536 125.872C113.564 125.9 113.601 125.918 113.64 125.922C113.68 125.926 113.719 125.916 113.752 125.895C114.244 125.592 114.779 125.365 115.338 125.222C115.375 125.209 115.407 125.186 115.43 125.156C115.454 125.126 115.468 125.089 115.472 125.051C115.35 123.693 115.452 120.477 114.004 119.712Z" fill="#FEDFFD"/>
<path d="M137.024 122.644C137.024 122.177 137.172 119.461 136.363 119.256C136.276 119.229 136.183 119.235 136.101 119.273C136.019 119.311 135.953 119.378 135.918 119.461C135.77 118.469 135.473 117.419 134.754 117.157C134.732 117.15 134.708 117.148 134.685 117.151C134.662 117.154 134.639 117.161 134.619 117.173C134.599 117.185 134.581 117.201 134.567 117.219C134.553 117.238 134.543 117.259 134.538 117.282C134.513 117.376 134.494 117.471 134.48 117.567C134.434 117.424 134.357 117.293 134.254 117.182C134.152 117.072 134.026 116.986 133.887 116.929C133.857 116.918 133.825 116.917 133.795 116.925C133.764 116.933 133.737 116.95 133.716 116.974C133.509 117.303 133.42 117.694 133.465 118.081C133.415 118.023 133.351 117.98 133.278 117.958C133.205 117.936 133.127 117.935 133.054 117.955C132.61 118.081 132.678 118.755 132.826 119.359C132.781 119.349 132.734 119.357 132.694 119.38C132.654 119.403 132.624 119.44 132.61 119.484C132.039 121.001 134.252 123.374 135.016 124.423C135.043 124.463 135.083 124.492 135.129 124.505C135.176 124.517 135.225 124.512 135.268 124.49C135.785 124.228 136.339 124.043 136.91 123.942C136.99 123.931 137.036 123.839 137.044 123.771C137.057 123.436 137.042 123.1 136.998 122.767C137.014 122.728 137.023 122.686 137.024 122.644Z" fill="#FEDFFD"/>
<path d="M159.622 135.557C159.593 135.526 159.554 135.507 159.512 135.503C159.47 135.499 159.428 135.51 159.394 135.534C159.28 134.953 159.075 134.334 158.653 134.439C158.584 134.456 158.521 134.488 158.467 134.533C158.414 134.579 158.372 134.636 158.345 134.701C158.244 134.366 158.03 134.076 157.74 133.88C157.706 133.861 157.667 133.853 157.628 133.857C157.589 133.861 157.553 133.877 157.523 133.903C157.433 134.005 157.365 134.125 157.322 134.254C157.279 134.383 157.262 134.52 157.272 134.656C157.227 134.589 157.169 134.519 157.113 134.439C157.079 134.406 157.034 134.388 156.987 134.388C156.94 134.388 156.895 134.406 156.861 134.439C156.383 134.906 156.528 135.933 156.782 136.823C156.719 136.767 156.636 136.736 156.551 136.738C156.467 136.741 156.386 136.775 156.325 136.835C155.698 137.368 156.85 139.47 157.09 140.006C157.097 140.024 157.107 140.041 157.121 140.055C157.135 140.068 157.151 140.079 157.169 140.086C157.261 140.385 157.379 140.675 157.523 140.953C157.544 140.987 157.575 141.014 157.612 141.028C157.649 141.043 157.69 141.044 157.729 141.033C158.252 140.902 158.79 140.844 159.329 140.861C159.368 140.86 159.406 140.846 159.437 140.822C159.468 140.797 159.49 140.763 159.5 140.725C159.759 139.515 160.717 136.641 159.622 135.557Z" fill="#FEDFFD"/>
<path d="M105.037 120.899C104.954 120.86 104.859 120.855 104.772 120.885C104.685 120.915 104.613 120.977 104.571 121.058C104.479 120.054 104.237 118.991 103.589 118.708C103.566 118.695 103.54 118.688 103.513 118.686C103.486 118.685 103.46 118.689 103.435 118.699C103.41 118.709 103.387 118.724 103.369 118.743C103.35 118.762 103.336 118.785 103.327 118.811C103.304 118.902 103.27 118.993 103.247 119.073C103.204 118.928 103.131 118.792 103.033 118.677C102.935 118.561 102.813 118.466 102.677 118.4C102.647 118.39 102.615 118.389 102.584 118.397C102.554 118.405 102.527 118.422 102.506 118.446C102.28 118.764 102.175 119.152 102.209 119.541C102.159 119.483 102.095 119.438 102.024 119.411C101.952 119.383 101.875 119.373 101.799 119.381C101.365 119.448 101.399 120.145 101.502 120.761C101.462 120.747 101.419 120.747 101.379 120.762C101.34 120.776 101.306 120.805 101.285 120.841C100.612 122.359 102.665 124.823 103.395 125.952C103.422 125.992 103.462 126.021 103.508 126.033C103.555 126.046 103.604 126.04 103.647 126.019C104.162 125.791 104.708 125.641 105.267 125.573C105.315 125.572 105.361 125.552 105.394 125.518C105.428 125.484 105.448 125.439 105.449 125.391C105.481 125.058 105.485 124.724 105.46 124.391C105.489 124.36 105.505 124.319 105.506 124.277C105.517 123.773 105.836 121.172 105.037 120.899Z" fill="#FEDFFD"/>
<path d="M123.529 136.915C121.761 132.078 119.787 127.549 115.738 124.207C115.71 124.178 115.673 124.161 115.633 124.157C115.594 124.152 115.554 124.162 115.521 124.184C114.644 124.539 113.81 124.99 113.034 125.53C113.006 125.558 112.988 125.595 112.984 125.634C112.98 125.674 112.99 125.713 113.011 125.747C114.711 129.488 116.232 133.306 117.574 137.2C118.339 139.121 118.827 141.141 119.023 143.2C119.09 144.546 118.841 146.211 117.129 146.28C115.989 146.325 115.007 145.539 114.266 144.751C111.722 142.059 110.753 137.919 109.498 134.519C108.791 132.614 108.083 130.719 107.376 128.815C107.023 127.869 106.669 126.91 106.315 125.963C106.201 125.655 106.099 124.903 105.813 124.663C105.79 124.642 105.763 124.627 105.733 124.619C105.703 124.611 105.672 124.611 105.642 124.617C104.764 124.982 103.714 125.062 102.79 125.347C102.746 125.362 102.709 125.392 102.686 125.432C102.663 125.472 102.655 125.519 102.665 125.564C103.315 127.754 103.714 130.036 104.265 132.249C104.903 134.85 105.557 137.44 106.227 140.017C107.573 145.162 109.01 150.284 110.505 155.383C110.507 155.403 110.515 155.421 110.526 155.437C110.538 155.453 110.553 155.466 110.571 155.475C110.585 155.487 110.602 155.496 110.619 155.502C110.637 155.508 110.655 155.51 110.674 155.509C116.316 155.65 121.96 155.356 127.557 154.63C127.605 154.629 127.651 154.609 127.685 154.575C127.718 154.542 127.738 154.496 127.739 154.448C127.739 148.47 125.548 142.47 123.529 136.915Z" fill="#FB0E39"/>
<path d="M117.712 142.539C117.638 142.299 117.478 142.096 117.263 141.967C117.048 141.838 116.793 141.794 116.548 141.843C116.266 141.942 115.967 141.98 115.67 141.957C115.554 141.925 115.435 141.909 115.316 141.911C115.183 141.92 115.06 141.982 114.974 142.082C114.666 142.415 114.917 142.801 115.19 143.052C115.476 143.325 115.724 143.405 115.875 143.816C115.932 143.987 115.966 144.169 116.023 144.341C116.089 144.584 116.219 144.804 116.4 144.979C116.548 145.092 116.73 145.152 116.917 145.148C117.103 145.144 117.283 145.076 117.426 144.957C117.586 144.828 117.708 144.658 117.779 144.465C117.849 144.272 117.866 144.063 117.826 143.861C117.854 143.417 117.815 142.971 117.712 142.539Z" fill="black"/>
<path d="M69.1956 191.168C69.0476 190.199 68.6822 189.058 67.5756 188.875C67.2336 188.818 67.0856 189.342 67.4276 189.4C68.3516 189.549 68.5569 190.529 68.6709 191.317C68.7282 191.647 69.2529 191.499 69.1956 191.168Z" fill="black"/>
<path d="M66.2522 189.822C65.9442 189.674 65.6709 190.141 65.9789 190.289C66.3347 190.454 66.6296 190.726 66.822 191.068C67.0143 191.41 67.0944 191.804 67.0509 192.193C67.0169 192.536 67.5529 192.536 67.5842 192.193C67.6293 191.71 67.526 191.224 67.288 190.8C67.0501 190.376 66.6888 190.035 66.2522 189.822Z" fill="black"/>
<path d="M64.7469 190.461C64.4389 190.301 64.1649 190.769 64.4729 190.927C64.8151 191.102 65.0959 191.376 65.2774 191.715C65.4589 192.053 65.5324 192.439 65.4882 192.821C65.4542 193.163 65.9902 193.163 66.0215 192.821C66.0637 192.346 65.9653 191.869 65.7387 191.449C65.5121 191.03 65.1672 190.686 64.7469 190.461Z" fill="black"/>
<path d="M98.6605 190.871C97.2691 190.013 95.7354 189.41 94.1318 189.092C93.6651 189.005 93.1831 189.065 92.7518 189.263C92.6304 189.332 92.5157 189.412 92.4091 189.503C92.3084 189.605 92.2169 189.717 92.1358 189.836C91.6905 190.829 90.8805 190.897 89.7058 190.065C89.6937 190.044 89.6774 190.026 89.6579 190.011C89.6384 189.997 89.6162 189.987 89.5926 189.981C89.569 189.976 89.5446 189.975 89.5208 189.98C89.4971 189.984 89.4745 189.994 89.4545 190.007C89.3405 189.95 89.1811 189.996 89.1925 190.155C89.2951 192.232 89.3065 194.308 89.2378 196.384C89.2391 196.432 89.2588 196.478 89.2928 196.512C89.3268 196.546 89.3724 196.565 89.4205 196.567C94.2458 196.795 99.0598 196.544 103.887 196.373C103.911 196.373 103.935 196.368 103.957 196.359C103.98 196.35 104 196.337 104.017 196.32C104.034 196.303 104.047 196.282 104.056 196.26C104.066 196.238 104.07 196.214 104.07 196.19C103.726 193.415 100.828 192.035 98.6605 190.871Z" fill="#80BEFF"/>
<path d="M96.3791 188.989C95.893 189.133 95.4647 189.427 95.1553 189.828C94.8459 190.23 94.6713 190.719 94.6564 191.225C94.6451 191.567 95.1811 191.567 95.1898 191.225C95.2016 190.836 95.3358 190.46 95.5733 190.15C95.8108 189.841 96.1396 189.615 96.5131 189.503C96.55 189.497 96.5853 189.484 96.6167 189.463C96.6481 189.443 96.6749 189.417 96.6954 189.386C96.7159 189.354 96.7296 189.319 96.7356 189.282C96.7417 189.246 96.7399 189.208 96.7305 189.172C96.7211 189.136 96.7042 189.102 96.6809 189.073C96.6576 189.044 96.6285 189.02 96.5954 189.002C96.5622 188.985 96.5259 188.975 96.4886 188.973C96.4514 188.971 96.4141 188.976 96.3791 188.989Z" fill="black"/>
<path d="M97.8166 189.867C97.3412 189.972 96.9142 190.232 96.6025 190.606C96.2908 190.98 96.1119 191.447 96.0939 191.933C96.0826 192.275 96.6186 192.275 96.6273 191.933C96.6454 191.565 96.7866 191.213 97.0283 190.933C97.27 190.654 97.5982 190.464 97.9606 190.393C98.2959 190.324 98.1586 189.8 97.8166 189.867Z" fill="black"/>
<path d="M99.2994 190.655C98.798 190.814 98.3514 191.111 98.0107 191.512C97.6699 191.912 97.4486 192.401 97.3721 192.921C97.3261 193.264 97.8387 193.412 97.8967 193.07C97.9528 192.641 98.1279 192.236 98.402 191.902C98.6762 191.567 99.0385 191.316 99.4481 191.176C99.7674 191.067 99.6307 190.552 99.2994 190.655Z" fill="black"/>
<path d="M101.376 191.2C101.033 191.211 101.033 191.747 101.376 191.733C101.763 191.718 102.145 191.818 102.475 192.021C102.804 192.224 103.065 192.521 103.224 192.874C103.372 193.193 103.84 192.919 103.691 192.6C103.485 192.165 103.155 191.801 102.744 191.552C102.332 191.303 101.857 191.181 101.376 191.2Z" fill="black"/>
<path d="M102.528 190.484C102.457 190.484 102.389 190.512 102.339 190.562C102.289 190.612 102.261 190.68 102.261 190.751C102.261 190.821 102.289 190.889 102.339 190.939C102.389 190.989 102.457 191.017 102.528 191.017C102.906 191.017 103.272 191.15 103.56 191.395C103.848 191.639 104.04 191.978 104.102 192.351C104.159 192.693 104.684 192.545 104.627 192.202C104.526 191.719 104.262 191.285 103.88 190.973C103.499 190.66 103.021 190.488 102.528 190.484Z" fill="black"/>
<path d="M106.327 191.867C106.197 191.295 105.902 190.773 105.478 190.368C105.054 189.962 104.52 189.69 103.943 189.585C103.6 189.528 103.464 190.041 103.794 190.11C104.28 190.193 104.73 190.418 105.088 190.758C105.445 191.097 105.694 191.535 105.802 192.015C105.882 192.343 106.407 192.195 106.327 191.867Z" fill="black"/>
<path d="M171.075 187.894C167.841 175.708 163.173 163.948 157.169 152.862C157.155 152.838 157.135 152.819 157.112 152.804C157.089 152.789 157.063 152.779 157.035 152.776C157.008 152.773 156.98 152.776 156.954 152.785C156.928 152.794 156.904 152.809 156.885 152.828C156.736 152.953 155.755 152.703 155.538 152.679C155.013 152.613 154.489 152.554 153.964 152.485C152.903 152.36 151.842 152.223 150.781 152.109C149.702 151.988 148.616 151.934 147.53 151.949C147.222 151.961 146.597 151.847 146.321 152.121C145.933 152.521 145.762 153.729 145.614 154.243C145.329 155.201 145.066 156.17 144.827 157.14C144.336 159.171 143.96 161.224 143.675 163.289C142.545 171.456 142.785 179.727 143.141 187.94C143.141 187.964 143.146 187.988 143.155 188.01C143.164 188.032 143.177 188.053 143.194 188.07C143.211 188.087 143.231 188.1 143.253 188.109C143.276 188.118 143.299 188.123 143.323 188.123H147.898C147.938 188.121 147.976 188.107 148.007 188.083C148.038 188.058 148.06 188.024 148.069 187.985C150.158 181.232 152.059 174.422 153.773 167.555C157.228 174.817 161.507 181.657 166.526 187.94C166.544 187.964 166.569 187.983 166.597 187.993C166.626 188.003 166.657 188.004 166.686 187.997C168.086 188.043 169.481 188.077 170.886 188.123C170.915 188.125 170.944 188.12 170.971 188.109C170.998 188.098 171.022 188.08 171.04 188.058C171.059 188.035 171.072 188.009 171.078 187.98C171.084 187.952 171.083 187.922 171.075 187.894Z" fill="#DB199B"/>
<path d="M140.4 190.803C139.072 189.998 137.612 189.434 136.088 189.137C135.626 189.051 135.149 189.107 134.719 189.296C134.542 189.393 134.384 189.52 134.253 189.673C133.945 189.981 133.579 190.722 133.089 190.961C132.913 191 132.731 191.004 132.553 190.973C132.541 190.973 132.53 190.961 132.519 190.961C132.16 190.754 131.868 190.449 131.675 190.083C131.662 190.062 131.646 190.044 131.627 190.03C131.607 190.015 131.585 190.005 131.561 190C131.538 189.995 131.513 189.994 131.49 189.999C131.466 190.003 131.443 190.012 131.423 190.026C131.397 190.009 131.367 190 131.336 189.999C131.305 189.999 131.274 190.006 131.248 190.022C131.221 190.037 131.198 190.059 131.183 190.086C131.168 190.113 131.16 190.144 131.161 190.175C131.264 192.241 131.275 194.293 131.207 196.357C131.208 196.405 131.228 196.451 131.262 196.485C131.295 196.519 131.341 196.539 131.389 196.54C136.181 196.768 140.96 196.517 145.751 196.346C145.775 196.346 145.799 196.342 145.821 196.333C145.844 196.324 145.864 196.31 145.881 196.293C145.898 196.276 145.911 196.256 145.921 196.234C145.93 196.211 145.934 196.187 145.934 196.163C145.625 193.381 142.613 191.967 140.4 190.803Z" fill="#FF4900"/>
<path d="M137.537 188.967C137.113 189.09 136.735 189.337 136.453 189.676C136.17 190.016 135.996 190.432 135.952 190.871C135.917 191.214 136.453 191.214 136.485 190.871C136.526 190.551 136.661 190.249 136.871 190.004C137.082 189.758 137.36 189.58 137.671 189.491C137.737 189.47 137.792 189.424 137.825 189.364C137.858 189.304 137.867 189.233 137.85 189.166C137.833 189.099 137.791 189.042 137.733 189.005C137.675 188.968 137.605 188.954 137.537 188.967Z" fill="black"/>
<path d="M139.044 189.594C138.535 189.74 138.088 190.047 137.77 190.469C137.451 190.89 137.277 191.404 137.275 191.933C137.275 192.004 137.303 192.072 137.353 192.122C137.404 192.173 137.472 192.201 137.543 192.201C137.614 192.201 137.683 192.173 137.733 192.122C137.783 192.072 137.812 192.004 137.812 191.933C137.812 191.521 137.946 191.122 138.193 190.793C138.439 190.464 138.786 190.223 139.18 190.107C139.243 190.085 139.295 190.039 139.325 189.98C139.356 189.921 139.364 189.853 139.347 189.788C139.33 189.724 139.289 189.668 139.233 189.632C139.177 189.596 139.109 189.583 139.044 189.594Z" fill="black"/>
<path d="M140.467 190.507C139.956 190.623 139.498 190.904 139.162 191.305C138.826 191.707 138.631 192.208 138.607 192.731C138.584 193.073 139.132 193.073 139.143 192.731C139.167 192.325 139.324 191.939 139.59 191.631C139.856 191.324 140.216 191.113 140.615 191.031C140.948 190.951 140.8 190.427 140.467 190.507Z" fill="black"/>
<path d="M173.026 129.579C172.734 129.495 172.426 129.475 172.125 129.52C171.824 129.565 171.536 129.675 171.281 129.842C170.863 130.11 170.378 130.257 169.881 130.264C169.463 130.221 169.05 130.137 168.649 130.013C168.235 129.907 167.803 129.891 167.382 129.967C166.196 130.218 165.42 131.234 164.291 131.587C163.036 131.987 161.804 131.121 160.526 131.405C159.408 131.655 158.61 132.605 157.538 132.933C156.408 133.275 155.233 132.591 154.138 133.15C153.72 133.402 153.33 133.696 152.974 134.029C152.164 134.667 151.422 134.599 150.464 134.667C150.022 134.686 149.594 134.83 149.23 135.082C148.867 135.335 148.583 135.685 148.411 136.093C148.396 136.12 148.388 136.15 148.39 136.18C148.392 136.211 148.403 136.24 148.422 136.264C148.103 137.165 148.262 138.363 149.483 137.816C149.816 137.667 150.088 137.303 150.487 137.245C150.848 137.257 151.207 137.303 151.56 137.382C151.942 137.418 152.327 137.391 152.7 137.303C153.167 137.188 153.613 136.949 154.08 136.846C155.039 136.629 155.632 137.246 156.488 137.371C157.171 137.397 157.848 137.227 158.438 136.88C159.14 136.513 159.951 136.416 160.72 136.607C161.272 136.815 161.84 136.979 162.419 137.097C163.177 137.118 163.924 136.912 164.564 136.504C165.269 136.1 166.056 135.859 166.867 135.8C167.37 135.799 167.873 135.768 168.372 135.709C169.106 135.559 169.755 135.135 170.186 134.522C170.608 133.941 171.143 133.452 171.76 133.085C172.338 132.892 172.897 132.644 173.427 132.343C173.649 132.168 173.821 131.937 173.925 131.674C174.03 131.412 174.063 131.126 174.023 130.846C173.982 130.566 173.869 130.302 173.694 130.079C173.519 129.857 173.289 129.685 173.026 129.579Z" fill="#FB0E39"/>
<path d="M153.907 167.053C153.373 166.201 152.958 165.28 152.675 164.315C152.654 164.247 152.607 164.191 152.544 164.157C152.482 164.123 152.409 164.115 152.34 164.134C152.272 164.153 152.214 164.198 152.178 164.26C152.143 164.321 152.133 164.394 152.15 164.463C152.445 165.474 152.879 166.439 153.439 167.33C153.622 167.623 154.089 167.349 153.907 167.053Z" fill="black"/>
<path d="M161.562 144.831C161.092 142.893 160.474 140.994 159.714 139.151L159.508 139.162C158.596 139.321 157.683 139.47 156.77 139.629C156.6 140.646 156.531 141.678 156.565 142.709L156.508 142.606C155.333 140.918 154.842 139.903 153.428 139.492C152.267 139.271 151.085 139.172 149.903 139.195C149.915 138.99 149.915 138.785 149.926 138.602C149.938 138.499 149.835 138.431 149.744 138.419C149.447 138.408 149.162 138.385 148.865 138.353C148.602 138.275 148.329 138.236 148.055 138.239C147.85 138.295 147.793 138.547 147.782 138.786C146.96 138.504 146.206 138.053 145.568 137.463C144.706 136.741 143.943 135.909 143.298 134.987C141.861 132.911 138.298 124.587 137.196 122.439L134.047 123.591C135.758 131.702 142.306 143.451 144.28 154.768C144.314 154.985 153.953 155.065 158.185 154.962C157.911 153.969 157.82 152.874 157.604 151.95L157.786 152.144C158.402 152.726 159.119 153.344 159.908 153.217C160.841 153.057 161.414 151.916 161.664 150.843C162.075 148.856 162.04 146.803 161.562 144.831Z" fill="#FEDFFD"/>
<path d="M136.761 122.427C136.002 122.752 135.216 123.011 134.412 123.203C134.37 123.217 134.334 123.247 134.313 123.287C134.292 123.326 134.286 123.373 134.298 123.416C134.309 123.459 134.337 123.497 134.375 123.521C134.413 123.545 134.459 123.553 134.503 123.545C135.339 123.349 136.156 123.078 136.944 122.735C137.149 122.644 136.967 122.333 136.761 122.427Z" fill="black"/>
<path d="M159.644 139.413C158.773 139.489 157.894 139.451 157.032 139.299C156.804 139.253 156.713 139.595 156.941 139.641C157.837 139.802 158.75 139.845 159.656 139.767C159.873 139.755 159.873 139.39 159.644 139.413Z" fill="black"/>
</svg>
