<svg width="80" height="80" viewBox="0 0 80 80" fill="none" xmlns="http://www.w3.org/2000/svg">
<path d="M78.2188 33.2188L68.8594 30.9219C68.3438 29.2812 67.6875 27.6875 66.8906 26.1406L71.6719 18.1719C72.2344 17.2344 72.0938 16.0625 71.3438 15.3125L64.6875 8.65625C63.9375 7.90625 62.7656 7.76562 61.8281 8.32812L53.8594 13.1094C52.3125 12.3125 50.7188 11.6562 49.0781 11.1406L46.8281 1.78125C46.5469 0.75 45.6094 0 44.5312 0H35.1562C34.0781 0 33.1406 0.75 32.8594 1.78125L30.6094 11.1406C28.9688 11.6562 27.375 12.3125 25.8281 13.1094L17.8594 8.32812C16.9219 7.76562 15.75 7.90625 15 8.65625L8.34375 15.3125C7.59375 16.0625 7.45312 17.2344 8.01562 18.1719L12.7969 26.1406C12 27.6875 11.3438 29.2812 10.8281 30.9219L1.78125 33.2188C0.75 33.4531 0 34.3906 0 35.4688V44.8438C0 45.9219 0.75 46.8594 1.78125 47.0938L10.8281 49.3906C11.3438 51.0312 12 52.625 12.7969 54.1719L8.01562 62.1406C7.45312 63.0781 7.59375 64.25 8.34375 65L15 71.6562C15.75 72.4062 16.9219 72.5469 17.8594 71.9844L25.8281 67.2031C27.375 68 28.9688 68.6562 30.6094 69.1719L32.8594 78.2188C33.1406 79.25 34.0781 80 35.1562 80H44.5312C45.6094 80 46.5469 79.25 46.8281 78.2188L49.0781 69.1719C50.7188 68.6562 52.3125 68 53.8594 67.2031L61.8281 71.9844C62.7656 72.5469 63.9375 72.4062 64.6875 71.6562L71.3438 65C72.0938 64.25 72.2344 63.0781 71.6719 62.1406L66.8906 54.1719C67.6875 52.625 68.3438 51.0312 68.8594 49.3906L78.2188 47.0938C79.25 46.8594 80 45.9219 80 44.8438V35.4688C80 34.3906 79.25 33.4531 78.2188 33.2188ZM39.8438 51.875C33.375 51.875 28.125 46.625 28.125 40.1562C28.125 33.6875 33.375 28.4375 39.8438 28.4375C46.3125 28.4375 51.5625 33.6875 51.5625 40.1562C51.5625 46.625 46.3125 51.875 39.8438 51.875Z" fill="#FFC66C"/>
<path d="M78.2188 33.2188L68.8594 30.9219C68.3438 29.2812 67.6875 27.6875 66.8906 26.1406L71.6719 18.1719C72.2344 17.2344 72.0938 16.0625 71.3438 15.3125L64.6875 8.65625C63.9375 7.90625 62.7656 7.76562 61.8281 8.32812L53.8594 13.1094C52.3125 12.3125 50.7188 11.6562 49.0781 11.1406L46.8281 1.78125C46.5469 0.75 45.6094 0 44.5312 0H35.1562C34.0781 0 33.1406 0.75 32.8594 1.78125L30.6094 11.1406C28.9688 11.6562 27.375 12.3125 25.8281 13.1094L17.8594 8.32812C16.9219 7.76562 15.75 7.90625 15 8.65625L8.34375 15.3125C7.59375 16.0625 7.45312 17.2344 8.01562 18.1719L12.7969 26.1406C12 27.6875 11.3438 29.2812 10.8281 30.9219L1.78125 33.2188C0.75 33.4531 0 34.3906 0 35.4688V44.8438C0 45.9219 0.75 46.8594 1.78125 47.0938L10.8281 49.3906C11.3438 51.0312 12 52.625 12.7969 54.1719L8.01562 62.1406C7.45312 63.0781 7.59375 64.25 8.34375 65L15 71.6562C15.75 72.4062 16.9219 72.5469 17.8594 71.9844L25.8281 67.2031C27.375 68 28.9688 68.6562 30.6094 69.1719L32.8594 78.2188C33.1406 79.25 34.0781 80 35.1562 80H44.5312C45.6094 80 46.5469 79.25 46.8281 78.2188L49.0781 69.1719C50.7188 68.6562 52.3125 68 53.8594 67.2031L61.8281 71.9844C62.7656 72.5469 63.9375 72.4062 64.6875 71.6562L71.3438 65C72.0938 64.25 72.2344 63.0781 71.6719 62.1406L66.8906 54.1719C67.6875 52.625 68.3438 51.0312 68.8594 49.3906L78.2188 47.0938C79.25 46.8594 80 45.9219 80 44.8438V35.4688C80 34.3906 79.25 33.4531 78.2188 33.2188ZM39.8438 51.875C33.375 51.875 28.125 46.625 28.125 40.1562C28.125 33.6875 33.375 28.4375 39.8438 28.4375C46.3125 28.4375 51.5625 33.6875 51.5625 40.1562C51.5625 46.625 46.3125 51.875 39.8438 51.875Z" fill="url(#paint0_linear)"/>
<mask id="mask0" mask-type="alpha" maskUnits="userSpaceOnUse" x="0" y="0" width="80" height="80">
<path d="M78.2188 33.2188L68.8594 30.9219C68.3438 29.2812 67.6875 27.6875 66.8906 26.1406L71.6719 18.1719C72.2344 17.2344 72.0938 16.0625 71.3438 15.3125L64.6875 8.65625C63.9375 7.90625 62.7656 7.76562 61.8281 8.32812L53.8594 13.1094C52.3125 12.3125 50.7188 11.6562 49.0781 11.1406L46.8281 1.78125C46.5469 0.75 45.6094 0 44.5312 0H35.1562C34.0781 0 33.1406 0.75 32.8594 1.78125L30.6094 11.1406C28.9688 11.6562 27.375 12.3125 25.8281 13.1094L17.8594 8.32812C16.9219 7.76562 15.75 7.90625 15 8.65625L8.34375 15.3125C7.59375 16.0625 7.45312 17.2344 8.01562 18.1719L12.7969 26.1406C12 27.6875 11.3438 29.2812 10.8281 30.9219L1.78125 33.2188C0.75 33.4531 0 34.3906 0 35.4688V44.8438C0 45.9219 0.75 46.8594 1.78125 47.0938L10.8281 49.3906C11.3438 51.0312 12 52.625 12.7969 54.1719L8.01562 62.1406C7.45312 63.0781 7.59375 64.25 8.34375 65L15 71.6562C15.75 72.4062 16.9219 72.5469 17.8594 71.9844L25.8281 67.2031C27.375 68 28.9688 68.6562 30.6094 69.1719L32.8594 78.2188C33.1406 79.25 34.0781 80 35.1562 80H44.5312C45.6094 80 46.5469 79.25 46.8281 78.2188L49.0781 69.1719C50.7188 68.6562 52.3125 68 53.8594 67.2031L61.8281 71.9844C62.7656 72.5469 63.9375 72.4062 64.6875 71.6562L71.3438 65C72.0938 64.25 72.2344 63.0781 71.6719 62.1406L66.8906 54.1719C67.6875 52.625 68.3438 51.0312 68.8594 49.3906L78.2188 47.0938C79.25 46.8594 80 45.9219 80 44.8438V35.4688C80 34.3906 79.25 33.4531 78.2188 33.2188ZM39.8438 51.875C33.375 51.875 28.125 46.625 28.125 40.1562C28.125 33.6875 33.375 28.4375 39.8438 28.4375C46.3125 28.4375 51.5625 33.6875 51.5625 40.1562C51.5625 46.625 46.3125 51.875 39.8438 51.875Z" fill="#FFC66C"/>
<path d="M78.2188 33.2188L68.8594 30.9219C68.3438 29.2812 67.6875 27.6875 66.8906 26.1406L71.6719 18.1719C72.2344 17.2344 72.0938 16.0625 71.3438 15.3125L64.6875 8.65625C63.9375 7.90625 62.7656 7.76562 61.8281 8.32812L53.8594 13.1094C52.3125 12.3125 50.7188 11.6562 49.0781 11.1406L46.8281 1.78125C46.5469 0.75 45.6094 0 44.5312 0H35.1562C34.0781 0 33.1406 0.75 32.8594 1.78125L30.6094 11.1406C28.9688 11.6562 27.375 12.3125 25.8281 13.1094L17.8594 8.32812C16.9219 7.76562 15.75 7.90625 15 8.65625L8.34375 15.3125C7.59375 16.0625 7.45312 17.2344 8.01562 18.1719L12.7969 26.1406C12 27.6875 11.3438 29.2812 10.8281 30.9219L1.78125 33.2188C0.75 33.4531 0 34.3906 0 35.4688V44.8438C0 45.9219 0.75 46.8594 1.78125 47.0938L10.8281 49.3906C11.3438 51.0312 12 52.625 12.7969 54.1719L8.01562 62.1406C7.45312 63.0781 7.59375 64.25 8.34375 65L15 71.6562C15.75 72.4062 16.9219 72.5469 17.8594 71.9844L25.8281 67.2031C27.375 68 28.9688 68.6562 30.6094 69.1719L32.8594 78.2188C33.1406 79.25 34.0781 80 35.1562 80H44.5312C45.6094 80 46.5469 79.25 46.8281 78.2188L49.0781 69.1719C50.7188 68.6562 52.3125 68 53.8594 67.2031L61.8281 71.9844C62.7656 72.5469 63.9375 72.4062 64.6875 71.6562L71.3438 65C72.0938 64.25 72.2344 63.0781 71.6719 62.1406L66.8906 54.1719C67.6875 52.625 68.3438 51.0312 68.8594 49.3906L78.2188 47.0938C79.25 46.8594 80 45.9219 80 44.8438V35.4688C80 34.3906 79.25 33.4531 78.2188 33.2188ZM39.8438 51.875C33.375 51.875 28.125 46.625 28.125 40.1562C28.125 33.6875 33.375 28.4375 39.8438 28.4375C46.3125 28.4375 51.5625 33.6875 51.5625 40.1562C51.5625 46.625 46.3125 51.875 39.8438 51.875Z" fill="url(#paint1_linear)"/>
</mask>
<g mask="url(#mask0)">
<circle cx="40" cy="40" r="16" stroke="#F0E7FF" stroke-width="2"/>
<path d="M38.1614 18.1155C9.59417 25.1868 3.02337 6.20067 3.30887 -4.17628L116.209 -36.8881C130.642 -22.612 148.904 11.425 106.482 33.3636C53.4553 60.7869 73.8704 9.2765 38.1614 18.1155Z" fill="#703BDF"/>
<rect x="-6" y="41" width="26" height="26" fill="#FF6541"/>
</g>
<defs>
<linearGradient id="paint0_linear" x1="40" y1="0" x2="40" y2="80" gradientUnits="userSpaceOnUse">
<stop stop-color="#FECE66"/>
<stop offset="1" stop-color="#FF8353"/>
</linearGradient>
<linearGradient id="paint1_linear" x1="40" y1="0" x2="40" y2="80" gradientUnits="userSpaceOnUse">
<stop stop-color="#FECE66"/>
<stop offset="1" stop-color="#FF8353"/>
</linearGradient>
</defs>
</svg>
