<svg width="124" height="124" viewBox="0 0 124 124" fill="none" xmlns="http://www.w3.org/2000/svg">
<path d="M101 62C101 83.5391 83.5391 101 62 101C40.4609 101 23 83.5391 23 62C23 40.4609 40.4609 23 62 23C83.5391 23 101 40.4609 101 62Z" fill="#C4C4C4"/>
<path d="M101 62C101 83.5391 83.5391 101 62 101C40.4609 101 23 83.5391 23 62C23 40.4609 40.4609 23 62 23C83.5391 23 101 40.4609 101 62Z" fill="url(#paint0_linear)"/>
<mask id="mask0" mask-type="alpha" maskUnits="userSpaceOnUse" x="23" y="23" width="78" height="78">
<path d="M101 62C101 83.5391 83.5391 101 62 101C40.4609 101 23 83.5391 23 62C23 40.4609 40.4609 23 62 23C83.5391 23 101 40.4609 101 62Z" fill="#C4C4C4"/>
<path d="M101 62C101 83.5391 83.5391 101 62 101C40.4609 101 23 83.5391 23 62C23 40.4609 40.4609 23 62 23C83.5391 23 101 40.4609 101 62Z" fill="url(#paint1_linear)"/>
</mask>
<g mask="url(#mask0)">
<path d="M87.6284 40.0858H112.886V65.343H87.6284V40.0858Z" fill="#F0E7FF"/>
<path d="M95.7414 36.2796C95.7414 47.4121 86.9129 56.4369 76.0223 56.4369C65.1318 56.4369 56.3032 47.4121 56.3032 36.2796C56.3032 25.147 65.1318 16.1223 76.0223 16.1223C86.9129 16.1223 95.7414 25.147 95.7414 36.2796Z" fill="#0EC3F2"/>
<path d="M95.7414 36.2796C95.7414 47.4121 86.9129 56.4369 76.0223 56.4369C65.1318 56.4369 56.3032 47.4121 56.3032 36.2796C56.3032 25.147 65.1318 16.1223 76.0223 16.1223C86.9129 16.1223 95.7414 25.147 95.7414 36.2796Z" fill="#703CDF"/>
<path d="M63.8572 90.9714C63.8572 110.049 48.3918 125.514 29.3143 125.514C10.2368 125.514 -5.22852 110.049 -5.22852 90.9714C-5.22852 71.894 10.2368 56.4286 29.3143 56.4286C48.3918 56.4286 63.8572 71.894 63.8572 90.9714Z" fill="#0EC3F2"/>
<path d="M63.8572 90.9714C63.8572 110.049 48.3918 125.514 29.3143 125.514C10.2368 125.514 -5.22852 110.049 -5.22852 90.9714C-5.22852 71.894 10.2368 56.4286 29.3143 56.4286C48.3918 56.4286 63.8572 71.894 63.8572 90.9714Z" fill="#FF6541"/>
</g>
<path d="M75.3458 72.0159C75.3458 73.8108 74.8971 75.5308 73.9997 77.1762C73.1022 78.7841 71.7748 80.1302 70.0173 81.2146C68.2972 82.299 66.2219 82.916 63.7913 83.0656V87.6089H60.7625V83.0656C57.3597 82.7664 54.5926 81.682 52.4612 79.8124C50.3297 77.9053 49.2453 75.4935 49.2079 72.5768H54.6487C54.7982 74.1473 55.3778 75.5121 56.3875 76.6713C57.4345 77.8305 58.8928 78.5597 60.7625 78.8588V64.8364C58.2571 64.2007 56.2379 63.5463 54.7048 62.8732C53.1716 62.2001 51.8629 61.1531 50.7785 59.7322C49.6941 58.3112 49.1519 56.4042 49.1519 54.011C49.1519 50.9822 50.1989 48.4768 52.2929 46.495C54.4243 44.5131 57.2475 43.41 60.7625 43.1857V38.5302H63.7913V43.1857C66.9697 43.4474 69.5312 44.4757 71.4756 46.2706C73.4201 48.0281 74.5419 50.3278 74.841 53.1697H69.4003C69.2133 51.8609 68.6337 50.683 67.6615 49.636C66.6893 48.5516 65.3992 47.8411 63.7913 47.5046V61.1905C66.2593 61.8262 68.2598 62.4806 69.7929 63.1537C71.3635 63.7894 72.6722 64.8177 73.7192 66.2386C74.8036 67.6596 75.3458 69.5853 75.3458 72.0159ZM54.3682 53.7306C54.3682 55.5628 54.9104 56.9651 55.9948 57.9373C57.0792 58.9095 58.6684 59.7135 60.7625 60.3492V47.3924C58.818 47.5794 57.2662 48.2151 56.107 49.2995C54.9478 50.3465 54.3682 51.8235 54.3682 53.7306ZM63.7913 78.9149C65.8106 78.6906 67.3811 77.9614 68.5029 76.7274C69.6621 75.4935 70.2417 74.0164 70.2417 72.2963C70.2417 70.4641 69.6808 69.0618 68.559 68.0896C67.4372 67.08 65.8479 66.276 63.7913 65.6777V78.9149Z" fill="white"/>
<defs>
<linearGradient id="paint0_linear" x1="62" y1="23" x2="62" y2="101" gradientUnits="userSpaceOnUse">
<stop stop-color="#FFC96C"/>
<stop offset="1" stop-color="#FF7858"/>
</linearGradient>
<linearGradient id="paint1_linear" x1="62" y1="23" x2="62" y2="101" gradientUnits="userSpaceOnUse">
<stop stop-color="#FFC96C"/>
<stop offset="1" stop-color="#FF7858"/>
</linearGradient>
</defs>
</svg>
