<svg width="124" height="124" viewBox="0 0 124 124" fill="none" xmlns="http://www.w3.org/2000/svg">
<path d="M104.041 54.5406L93.7453 52.0141C93.1781 50.2094 92.4563 48.4563 91.5797 46.7547L96.8391 37.9891C97.4578 36.9578 97.3031 35.6688 96.4781 34.8438L89.1562 27.5219C88.3313 26.6969 87.0422 26.5422 86.0109 27.1609L77.2453 32.4203C75.5438 31.5437 73.7906 30.8219 71.9859 30.2547L69.5109 19.9594C69.2016 18.825 68.1703 18 66.9844 18H56.6719C55.4859 18 54.4547 18.825 54.1453 19.9594L51.6703 30.2547C49.8656 30.8219 48.1125 31.5437 46.4109 32.4203L37.6453 27.1609C36.6141 26.5422 35.325 26.6969 34.5 27.5219L27.1781 34.8438C26.3531 35.6688 26.1984 36.9578 26.8172 37.9891L32.0766 46.7547C31.2 48.4563 30.4781 50.2094 29.9109 52.0141L19.9594 54.5406C18.825 54.7984 18 55.8297 18 57.0156V67.3281C18 68.5141 18.825 69.5453 19.9594 69.8031L29.9109 72.3297C30.4781 74.1344 31.2 75.8875 32.0766 77.5891L26.8172 86.3547C26.1984 87.3859 26.3531 88.675 27.1781 89.5L34.5 96.8219C35.325 97.6469 36.6141 97.8016 37.6453 97.1828L46.4109 91.9234C48.1125 92.8 49.8656 93.5219 51.6703 94.0891L54.1453 104.041C54.4547 105.175 55.4859 106 56.6719 106H66.9844C68.1703 106 69.2016 105.175 69.5109 104.041L71.9859 94.0891C73.7906 93.5219 75.5438 92.8 77.2453 91.9234L86.0109 97.1828C87.0422 97.8016 88.3313 97.6469 89.1562 96.8219L96.4781 89.5C97.3031 88.675 97.4578 87.3859 96.8391 86.3547L91.5797 77.5891C92.4563 75.8875 93.1781 74.1344 93.7453 72.3297L104.041 69.8031C105.175 69.5453 106 68.5141 106 67.3281V57.0156C106 55.8297 105.175 54.7984 104.041 54.5406ZM61.8281 75.0625C54.7125 75.0625 48.9375 69.2875 48.9375 62.1719C48.9375 55.0563 54.7125 49.2812 61.8281 49.2812C68.9437 49.2812 74.7188 55.0563 74.7188 62.1719C74.7188 69.2875 68.9437 75.0625 61.8281 75.0625Z" fill="#FFC66C"/>
<path d="M104.041 54.5406L93.7453 52.0141C93.1781 50.2094 92.4563 48.4563 91.5797 46.7547L96.8391 37.9891C97.4578 36.9578 97.3031 35.6688 96.4781 34.8438L89.1562 27.5219C88.3313 26.6969 87.0422 26.5422 86.0109 27.1609L77.2453 32.4203C75.5438 31.5437 73.7906 30.8219 71.9859 30.2547L69.5109 19.9594C69.2016 18.825 68.1703 18 66.9844 18H56.6719C55.4859 18 54.4547 18.825 54.1453 19.9594L51.6703 30.2547C49.8656 30.8219 48.1125 31.5437 46.4109 32.4203L37.6453 27.1609C36.6141 26.5422 35.325 26.6969 34.5 27.5219L27.1781 34.8438C26.3531 35.6688 26.1984 36.9578 26.8172 37.9891L32.0766 46.7547C31.2 48.4563 30.4781 50.2094 29.9109 52.0141L19.9594 54.5406C18.825 54.7984 18 55.8297 18 57.0156V67.3281C18 68.5141 18.825 69.5453 19.9594 69.8031L29.9109 72.3297C30.4781 74.1344 31.2 75.8875 32.0766 77.5891L26.8172 86.3547C26.1984 87.3859 26.3531 88.675 27.1781 89.5L34.5 96.8219C35.325 97.6469 36.6141 97.8016 37.6453 97.1828L46.4109 91.9234C48.1125 92.8 49.8656 93.5219 51.6703 94.0891L54.1453 104.041C54.4547 105.175 55.4859 106 56.6719 106H66.9844C68.1703 106 69.2016 105.175 69.5109 104.041L71.9859 94.0891C73.7906 93.5219 75.5438 92.8 77.2453 91.9234L86.0109 97.1828C87.0422 97.8016 88.3313 97.6469 89.1562 96.8219L96.4781 89.5C97.3031 88.675 97.4578 87.3859 96.8391 86.3547L91.5797 77.5891C92.4563 75.8875 93.1781 74.1344 93.7453 72.3297L104.041 69.8031C105.175 69.5453 106 68.5141 106 67.3281V57.0156C106 55.8297 105.175 54.7984 104.041 54.5406ZM61.8281 75.0625C54.7125 75.0625 48.9375 69.2875 48.9375 62.1719C48.9375 55.0563 54.7125 49.2812 61.8281 49.2812C68.9437 49.2812 74.7188 55.0563 74.7188 62.1719C74.7188 69.2875 68.9437 75.0625 61.8281 75.0625Z" fill="url(#paint0_linear)"/>
<mask id="mask0" mask-type="alpha" maskUnits="userSpaceOnUse" x="18" y="18" width="88" height="88">
<path d="M104.041 54.5406L93.7453 52.0141C93.1781 50.2094 92.4563 48.4563 91.5797 46.7547L96.8391 37.9891C97.4578 36.9578 97.3031 35.6688 96.4781 34.8438L89.1562 27.5219C88.3313 26.6969 87.0422 26.5422 86.0109 27.1609L77.2453 32.4203C75.5438 31.5437 73.7906 30.8219 71.9859 30.2547L69.5109 19.9594C69.2016 18.825 68.1703 18 66.9844 18H56.6719C55.4859 18 54.4547 18.825 54.1453 19.9594L51.6703 30.2547C49.8656 30.8219 48.1125 31.5437 46.4109 32.4203L37.6453 27.1609C36.6141 26.5422 35.325 26.6969 34.5 27.5219L27.1781 34.8438C26.3531 35.6688 26.1984 36.9578 26.8172 37.9891L32.0766 46.7547C31.2 48.4563 30.4781 50.2094 29.9109 52.0141L19.9594 54.5406C18.825 54.7984 18 55.8297 18 57.0156V67.3281C18 68.5141 18.825 69.5453 19.9594 69.8031L29.9109 72.3297C30.4781 74.1344 31.2 75.8875 32.0766 77.5891L26.8172 86.3547C26.1984 87.3859 26.3531 88.675 27.1781 89.5L34.5 96.8219C35.325 97.6469 36.6141 97.8016 37.6453 97.1828L46.4109 91.9234C48.1125 92.8 49.8656 93.5219 51.6703 94.0891L54.1453 104.041C54.4547 105.175 55.4859 106 56.6719 106H66.9844C68.1703 106 69.2016 105.175 69.5109 104.041L71.9859 94.0891C73.7906 93.5219 75.5438 92.8 77.2453 91.9234L86.0109 97.1828C87.0422 97.8016 88.3313 97.6469 89.1562 96.8219L96.4781 89.5C97.3031 88.675 97.4578 87.3859 96.8391 86.3547L91.5797 77.5891C92.4563 75.8875 93.1781 74.1344 93.7453 72.3297L104.041 69.8031C105.175 69.5453 106 68.5141 106 67.3281V57.0156C106 55.8297 105.175 54.7984 104.041 54.5406ZM61.8281 75.0625C54.7125 75.0625 48.9375 69.2875 48.9375 62.1719C48.9375 55.0563 54.7125 49.2812 61.8281 49.2812C68.9437 49.2812 74.7188 55.0563 74.7188 62.1719C74.7188 69.2875 68.9437 75.0625 61.8281 75.0625Z" fill="#FFC66C"/>
<path d="M104.041 54.5406L93.7453 52.0141C93.1781 50.2094 92.4563 48.4563 91.5797 46.7547L96.8391 37.9891C97.4578 36.9578 97.3031 35.6688 96.4781 34.8438L89.1562 27.5219C88.3313 26.6969 87.0422 26.5422 86.0109 27.1609L77.2453 32.4203C75.5438 31.5437 73.7906 30.8219 71.9859 30.2547L69.5109 19.9594C69.2016 18.825 68.1703 18 66.9844 18H56.6719C55.4859 18 54.4547 18.825 54.1453 19.9594L51.6703 30.2547C49.8656 30.8219 48.1125 31.5437 46.4109 32.4203L37.6453 27.1609C36.6141 26.5422 35.325 26.6969 34.5 27.5219L27.1781 34.8438C26.3531 35.6688 26.1984 36.9578 26.8172 37.9891L32.0766 46.7547C31.2 48.4563 30.4781 50.2094 29.9109 52.0141L19.9594 54.5406C18.825 54.7984 18 55.8297 18 57.0156V67.3281C18 68.5141 18.825 69.5453 19.9594 69.8031L29.9109 72.3297C30.4781 74.1344 31.2 75.8875 32.0766 77.5891L26.8172 86.3547C26.1984 87.3859 26.3531 88.675 27.1781 89.5L34.5 96.8219C35.325 97.6469 36.6141 97.8016 37.6453 97.1828L46.4109 91.9234C48.1125 92.8 49.8656 93.5219 51.6703 94.0891L54.1453 104.041C54.4547 105.175 55.4859 106 56.6719 106H66.9844C68.1703 106 69.2016 105.175 69.5109 104.041L71.9859 94.0891C73.7906 93.5219 75.5438 92.8 77.2453 91.9234L86.0109 97.1828C87.0422 97.8016 88.3313 97.6469 89.1562 96.8219L96.4781 89.5C97.3031 88.675 97.4578 87.3859 96.8391 86.3547L91.5797 77.5891C92.4563 75.8875 93.1781 74.1344 93.7453 72.3297L104.041 69.8031C105.175 69.5453 106 68.5141 106 67.3281V57.0156C106 55.8297 105.175 54.7984 104.041 54.5406ZM61.8281 75.0625C54.7125 75.0625 48.9375 69.2875 48.9375 62.1719C48.9375 55.0563 54.7125 49.2812 61.8281 49.2812C68.9437 49.2812 74.7188 55.0563 74.7188 62.1719C74.7188 69.2875 68.9437 75.0625 61.8281 75.0625Z" fill="url(#paint1_linear)"/>
</mask>
<g mask="url(#mask0)">
<circle cx="61.5" cy="61.5" r="17.5" stroke="#F0E7FF" stroke-width="2"/>
<path d="M56.1614 36.1155C27.5942 43.1868 21.0234 24.2007 21.3089 13.8237L134.209 -18.8881C148.642 -4.61198 166.904 29.425 124.482 51.3636C71.4553 78.7869 91.8704 27.2765 56.1614 36.1155Z" fill="#703BDF"/>
<rect x="12" y="59" width="26" height="26" fill="#FF6541"/>
</g>
<defs>
<linearGradient id="paint0_linear" x1="62" y1="18" x2="62" y2="106" gradientUnits="userSpaceOnUse">
<stop stop-color="#FECE66"/>
<stop offset="1" stop-color="#FF8353"/>
</linearGradient>
<linearGradient id="paint1_linear" x1="62" y1="18" x2="62" y2="106" gradientUnits="userSpaceOnUse">
<stop stop-color="#FECE66"/>
<stop offset="1" stop-color="#FF8353"/>
</linearGradient>
</defs>
</svg>
