<svg width="80" height="80" viewBox="0 0 80 80" fill="none" xmlns="http://www.w3.org/2000/svg">
<path d="M80 40C80 62.0914 62.0914 80 40 80C17.9086 80 0 62.0914 0 40C0 17.9086 17.9086 0 40 0C62.0914 0 80 17.9086 80 40Z" fill="#C4C4C4"/>
<path d="M80 40C80 62.0914 62.0914 80 40 80C17.9086 80 0 62.0914 0 40C0 17.9086 17.9086 0 40 0C62.0914 0 80 17.9086 80 40Z" fill="url(#paint0_linear)"/>
<mask id="mask0" mask-type="alpha" maskUnits="userSpaceOnUse" x="0" y="0" width="80" height="80">
<path d="M80 40C80 62.0914 62.0914 80 40 80C17.9086 80 0 62.0914 0 40C0 17.9086 17.9086 0 40 0C62.0914 0 80 17.9086 80 40Z" fill="#C4C4C4"/>
<path d="M80 40C80 62.0914 62.0914 80 40 80C17.9086 80 0 62.0914 0 40C0 17.9086 17.9086 0 40 0C62.0914 0 80 17.9086 80 40Z" fill="url(#paint1_linear)"/>
</mask>
<g mask="url(#mask0)">
<path d="M66.2856 17.5239H92.1904V43.4287H66.2856V17.5239Z" fill="#F0E7FF"/>
<path d="M74.6067 13.6201C74.6067 25.0381 65.5517 34.2942 54.3819 34.2942C43.2121 34.2942 34.1572 25.0381 34.1572 13.6201C34.1572 2.20206 43.2121 -7.05408 54.3819 -7.05408C65.5517 -7.05408 74.6067 2.20206 74.6067 13.6201Z" fill="#0EC3F2"/>
<path d="M74.6067 13.6201C74.6067 25.0381 65.5517 34.2942 54.3819 34.2942C43.2121 34.2942 34.1572 25.0381 34.1572 13.6201C34.1572 2.20206 43.2121 -7.05408 54.3819 -7.05408C65.5517 -7.05408 74.6067 2.20206 74.6067 13.6201Z" fill="#703CDF"/>
<path d="M41.905 69.7143C41.905 89.281 26.0431 105.143 6.47643 105.143C-13.0902 105.143 -28.9521 89.281 -28.9521 69.7143C-28.9521 50.1477 -13.0902 34.2858 6.47643 34.2858C26.0431 34.2858 41.905 50.1477 41.905 69.7143Z" fill="#0EC3F2"/>
<path d="M41.905 69.7143C41.905 89.281 26.0431 105.143 6.47643 105.143C-13.0902 105.143 -28.9521 89.281 -28.9521 69.7143C-28.9521 50.1477 -13.0902 34.2858 6.47643 34.2858C26.0431 34.2858 41.905 50.1477 41.905 69.7143Z" fill="#FF6541"/>
</g>
<path d="M53.6879 50.2727C53.6879 52.1136 53.2277 53.8778 52.3072 55.5653C51.3868 57.2144 50.0253 58.5951 48.2227 59.7073C46.4585 60.8195 44.33 61.4523 41.8371 61.6057V66.2655H38.7306V61.6057C35.2405 61.2989 32.4025 60.1867 30.2164 58.2691C28.0304 56.3131 26.9181 53.8394 26.8798 50.848H32.46C32.6134 52.4587 33.2079 53.8586 34.2434 55.0475C35.3172 56.2364 36.813 56.9843 38.7306 57.2911V42.9091C36.161 42.2571 34.09 41.5859 32.5175 40.8956C30.9451 40.2053 29.6028 39.1314 28.4906 37.674C27.3784 36.2166 26.8223 34.2607 26.8223 31.8062C26.8223 28.6996 27.8961 26.1301 30.0438 24.0974C32.2299 22.0647 35.1255 20.9333 38.7306 20.7032V15.9284H41.8371V20.7032C45.097 20.9717 47.7241 22.0264 49.7184 23.8673C51.7128 25.6698 52.8633 28.0285 53.1701 30.9432H47.5899C47.3981 29.6009 46.8037 28.3928 45.8065 27.319C44.8094 26.2068 43.4862 25.4781 41.8371 25.1329V39.1698C44.3683 39.8217 46.4202 40.4929 47.9926 41.1832C49.6034 41.8352 50.9457 42.8899 52.0196 44.3473C53.1318 45.8047 53.6879 47.7798 53.6879 50.2727ZM32.1724 31.5185C32.1724 33.3978 32.7285 34.836 33.8407 35.8331C34.9529 36.8303 36.5829 37.6548 38.7306 38.3068V25.0178C36.7363 25.2096 35.1447 25.8616 33.9557 26.9738C32.7668 28.0477 32.1724 29.5626 32.1724 31.5185ZM41.8371 57.3486C43.9081 57.1185 45.5189 56.3707 46.6695 55.105C47.8584 53.8394 48.4528 52.3245 48.4528 50.5603C48.4528 48.6811 47.8775 47.2429 46.727 46.2457C45.5764 45.2102 43.9465 44.3856 41.8371 43.772V57.3486Z" fill="white"/>
<defs>
<linearGradient id="paint0_linear" x1="40" y1="0" x2="40" y2="80" gradientUnits="userSpaceOnUse">
<stop stop-color="#FFC96C"/>
<stop offset="1" stop-color="#FF7858"/>
</linearGradient>
<linearGradient id="paint1_linear" x1="40" y1="0" x2="40" y2="80" gradientUnits="userSpaceOnUse">
<stop stop-color="#FFC96C"/>
<stop offset="1" stop-color="#FF7858"/>
</linearGradient>
</defs>
</svg>
