<svg width="91" height="70" viewBox="0 0 91 70" fill="none" xmlns="http://www.w3.org/2000/svg">
<rect width="90.4442" height="70" fill="#703BDF"/>
<rect width="90.4442" height="17.5" fill="#FF6541"/>
<ellipse cx="9.7542" cy="8.77392" rx="2.88506" ry="2.94" fill="#F0E7FF"/>
<ellipse cx="18.9134" cy="8.77402" rx="2.88506" ry="2.94" fill="#F0E7FF"/>
<ellipse cx="28.0721" cy="8.77402" rx="2.88506" ry="2.94" fill="#F0E7FF"/>
<mask id="mask0" mask-type="alpha" maskUnits="userSpaceOnUse" x="0" y="0" width="91" height="70">
<rect width="90.4442" height="70" fill="#703BDF"/>
</mask>
<g mask="url(#mask0)">
<ellipse cx="1.71744" cy="71.7502" rx="25.7594" ry="26.25" fill="#FFB460"/>
</g>
<path d="M22.1562 39.2397L34.3828 44.1811V48.0092L18.4062 40.6068V37.7553L34.3828 30.3725V34.2006L22.1562 39.2397ZM40.8086 54.2592H37.7031L49.5781 23.3803H52.6641L40.8086 54.2592ZM69.3633 39.1225L56.4531 34.0639V30.3529L73.1328 37.7357V40.5873L56.4531 47.9897V44.2397L69.3633 39.1225Z" fill="white"/>
</svg>
