<svg width="210" height="38" viewBox="0 0 210 38" fill="none" xmlns="http://www.w3.org/2000/svg">
<path d="M17.7254 29C15.8298 29 14.1389 28.5985 12.6527 27.7956C11.1879 26.9926 10.0463 25.8088 9.22779 24.2441C8.40926 22.6794 8 20.775 8 18.5309C8 16.3485 8.4308 14.475 9.29241 12.9103C10.154 11.325 11.3818 10.1103 12.9758 9.26618C14.5913 8.42206 16.4868 8 18.6624 8C21.0964 8 23.0458 8.42206 24.5105 9.26618C25.9968 10.0897 27.1492 11.4074 27.9677 13.2191L22.8304 15.1647C22.5504 14.1147 22.0549 13.3529 21.3441 12.8794C20.6333 12.4059 19.7501 12.1691 18.6947 12.1691C17.1007 12.1691 15.8621 12.7147 14.979 13.8059C14.1174 14.8765 13.6866 16.4412 13.6866 18.5C13.6866 20.6824 14.1282 22.3088 15.0113 23.3794C15.8945 24.4294 17.2192 24.9544 18.9855 24.9544C20.2132 24.9544 21.2364 24.6765 22.0549 24.1206C22.8735 23.5647 23.2827 22.7103 23.2827 21.5574V21.2485H18.4039V17.6971H28V28.6912H24.2197L23.9935 26.1897C23.3904 27.0956 22.5611 27.7956 21.5057 28.2897C20.4717 28.7632 19.2116 29 17.7254 29Z" fill="url(#paint0_radial_1_2)"/>
<path fill-rule="evenodd" clip-rule="evenodd" d="M12.1774 28.6754L12.172 28.6725C10.5242 27.7692 9.24614 26.4366 8.3417 24.7076C7.43081 22.9664 7 20.8938 7 18.5309C7 16.218 7.45686 14.1717 8.4151 12.4304C9.37055 10.6735 10.7407 9.31823 12.5078 8.38245L12.5127 8.37986C14.2963 7.44789 16.3566 7 18.6624 7C21.1955 7 23.3346 7.43664 25.0025 8.39555C26.7042 9.34067 27.9887 10.8368 28.879 12.8074L29.3172 13.7773L22.1494 16.4919L21.8641 15.4224C21.6293 14.5416 21.2474 14.0166 20.7897 13.7117C20.2781 13.3708 19.5996 13.1691 18.6947 13.1691C17.3569 13.1691 16.4231 13.6117 15.7571 14.434C15.095 15.2575 14.6866 16.5612 14.6866 18.5C14.6866 20.5724 15.1099 21.9249 15.7796 22.7393C16.4211 23.4997 17.4256 23.9544 18.9855 23.9544C20.0615 23.9544 20.8764 23.7122 21.4931 23.2933C21.8428 23.0559 22.0919 22.7302 22.2084 22.2485H17.4039V16.6971H29V29.6912H23.306L23.1938 28.4498C22.8066 28.7339 22.3846 28.9824 21.9296 29.1954L21.9221 29.1989C20.7239 29.7477 19.3131 30 17.7254 30C15.6845 30 13.8267 29.5665 12.1774 28.6754ZM23.0852 27.2485C23.4302 26.934 23.733 26.5811 23.9935 26.1897L24.2197 28.6912H28V17.6971H18.4039V21.2485H23.2827V21.5574C23.2827 21.8011 23.2644 22.0315 23.2278 22.2485C23.0914 23.0582 22.7004 23.6822 22.0549 24.1206C21.2364 24.6765 20.2132 24.9544 18.9855 24.9544C17.2192 24.9544 15.8945 24.4294 15.0113 23.3794C14.1282 22.3088 13.6866 20.6824 13.6866 18.5C13.6866 16.4412 14.1174 14.8765 14.979 13.8059C15.8621 12.7147 17.1007 12.1691 18.6947 12.1691C19.7501 12.1691 20.6333 12.4059 21.3441 12.8794C21.8221 13.1979 22.2027 13.6467 22.4859 14.2258C22.6239 14.5079 22.7387 14.8208 22.8304 15.1647L27.9677 13.2191C27.8259 12.9053 27.6742 12.6064 27.5124 12.3222C26.74 10.9658 25.7394 9.94708 24.5105 9.26618C23.0458 8.42206 21.0964 8 18.6624 8C16.4868 8 14.5913 8.42206 12.9758 9.26618C11.3818 10.1103 10.154 11.325 9.29241 12.9103C8.4308 14.475 8 16.3485 8 18.5309C8 20.775 8.40926 22.6794 9.22779 24.2441C10.0463 25.8088 11.1879 26.9926 12.6527 27.7956C14.1389 28.5985 15.8298 29 17.7254 29C19.2116 29 20.4717 28.7632 21.5057 28.2897C22.1051 28.0091 22.6316 27.662 23.0852 27.2485Z" fill="url(#paint1_linear_1_2)"/>
<path d="M51.424 30.32C49.4827 30.32 47.776 29.8933 46.304 29.04C44.8533 28.1867 43.7227 26.9493 42.912 25.328C42.1013 23.7067 41.696 21.7547 41.696 19.472C41.696 17.2107 42.1227 15.2693 42.976 13.648C43.8293 12.0053 45.0347 10.7467 46.592 9.872C48.1493 8.99733 49.9733 8.56 52.064 8.56C54.368 8.56 56.2133 8.98667 57.6 9.84C59.008 10.672 60.128 11.9733 60.96 13.744L56.864 15.504C56.5227 14.3733 55.936 13.5413 55.104 13.008C54.2933 12.4533 53.2907 12.176 52.096 12.176C50.304 12.176 48.8853 12.8053 47.84 14.064C46.7947 15.3227 46.272 17.1147 46.272 19.44C46.272 21.8507 46.7733 23.6747 47.776 24.912C48.7787 26.1493 50.2613 26.768 52.224 26.768C53.6533 26.768 54.8373 26.4267 55.776 25.744C56.736 25.04 57.216 23.984 57.216 22.576V22.096H51.68V18.864H61.024V30H57.92L57.728 27.312C57.1307 28.272 56.2987 29.0187 55.232 29.552C54.1653 30.064 52.896 30.32 51.424 30.32ZM73.013 30.32C70.4957 30.32 68.4797 29.5947 66.965 28.144C65.4503 26.672 64.693 24.624 64.693 22C64.693 20.2507 65.0343 18.7573 65.717 17.52C66.3997 16.2827 67.349 15.3333 68.565 14.672C69.8023 14.0107 71.2103 13.68 72.789 13.68C74.4103 13.68 75.7863 14.0107 76.917 14.672C78.0477 15.312 78.9117 16.1973 79.509 17.328C80.1063 18.4373 80.405 19.7067 80.405 21.136C80.405 21.5627 80.3943 21.968 80.373 22.352C80.3517 22.736 80.3197 23.0773 80.277 23.376H68.981C69.1517 24.6133 69.5783 25.5413 70.261 26.16C70.965 26.7573 71.8717 27.056 72.981 27.056C73.9197 27.056 74.677 26.8747 75.253 26.512C75.829 26.1493 76.277 25.648 76.597 25.008L80.085 26.352C79.573 27.6107 78.677 28.592 77.397 29.296C76.117 29.9787 74.6557 30.32 73.013 30.32ZM72.757 16.912C70.6877 16.912 69.4397 18.0533 69.013 20.336H76.213C76.085 19.2267 75.7223 18.384 75.125 17.808C74.549 17.2107 73.7597 16.912 72.757 16.912ZM94.783 14V17.264H89.663V24.784C89.663 25.552 89.855 26.1173 90.239 26.48C90.6443 26.8213 91.1883 26.992 91.871 26.992C92.4257 26.992 92.895 26.9173 93.279 26.768C93.6843 26.5973 94.047 26.3733 94.367 26.096L95.071 29.008C94.5377 29.4133 93.887 29.7333 93.119 29.968C92.3723 30.2027 91.5723 30.32 90.719 30.32C89.119 30.32 87.807 29.9573 86.783 29.232C85.7803 28.4853 85.279 27.2373 85.279 25.488V17.264H82.335V14H85.279V10.32L89.663 9.104V14H94.783ZM106.069 8.56C107.989 8.56 109.674 8.89067 111.125 9.552C112.576 10.2133 113.813 11.1947 114.837 12.496L112.373 15.344C111.498 14.2347 110.538 13.424 109.493 12.912C108.469 12.3787 107.274 12.112 105.909 12.112C104.544 12.112 103.552 12.368 102.933 12.88C102.314 13.3707 102.005 13.968 102.005 14.672C102.005 15.248 102.218 15.7387 102.645 16.144C103.093 16.528 103.872 16.848 104.981 17.104L108.917 18C110.986 18.4693 112.48 19.1733 113.397 20.112C114.314 21.0293 114.773 22.224 114.773 23.696C114.773 25.0827 114.41 26.2773 113.685 27.28C112.96 28.2613 111.946 29.0187 110.645 29.552C109.344 30.064 107.85 30.32 106.165 30.32C103.968 30.32 102.037 29.936 100.373 29.168C98.709 28.4 97.397 27.408 96.437 26.192L98.933 23.216C99.6583 24.24 100.65 25.0933 101.909 25.776C103.189 26.4373 104.608 26.768 106.165 26.768C107.466 26.768 108.469 26.5547 109.173 26.128C109.877 25.68 110.229 25.0507 110.229 24.24C110.229 23.7067 110.037 23.2373 109.653 22.832C109.29 22.4267 108.608 22.1173 107.605 21.904L103.317 20.944C101.44 20.5387 99.989 19.8773 98.965 18.96C97.941 18.0427 97.429 16.7947 97.429 15.216C97.429 13.9573 97.7703 12.8267 98.453 11.824C99.1357 10.8213 100.117 10.032 101.397 9.456C102.698 8.85867 104.256 8.56 106.069 8.56ZM118.663 30V6.992H123.047V16.72C123.559 15.696 124.263 14.9387 125.159 14.448C126.055 13.936 127.068 13.68 128.199 13.68C129.863 13.68 131.239 14.1707 132.327 15.152C133.415 16.112 133.959 17.5627 133.959 19.504V30H129.575V20.784C129.575 19.3973 129.308 18.448 128.775 17.936C128.241 17.4027 127.559 17.136 126.727 17.136C126.108 17.136 125.521 17.2853 124.967 17.584C124.412 17.8613 123.953 18.3307 123.591 18.992C123.228 19.632 123.047 20.4853 123.047 21.552V30H118.663ZM147.755 19.792C147.755 18.8747 147.489 18.16 146.955 17.648C146.443 17.136 145.761 16.88 144.907 16.88C144.118 16.88 143.425 17.0827 142.827 17.488C142.23 17.8933 141.793 18.5653 141.515 19.504L137.771 18.352C138.134 16.944 138.923 15.8133 140.139 14.96C141.377 14.1067 143.03 13.68 145.099 13.68C147.19 13.68 148.875 14.1813 150.155 15.184C151.457 16.1653 152.107 17.6373 152.107 19.6V26.096C152.107 26.9067 152.491 27.312 153.259 27.312C153.622 27.312 153.963 27.2587 154.283 27.152L154.027 29.872C153.473 30.1493 152.779 30.288 151.947 30.288C151.03 30.288 150.23 30.096 149.547 29.712C148.886 29.328 148.438 28.752 148.203 27.984C147.691 28.752 146.955 29.3387 145.995 29.744C145.057 30.128 144.086 30.32 143.083 30.32C141.462 30.32 140.171 29.9573 139.211 29.232C138.273 28.4853 137.803 27.408 137.803 26C137.803 24.8053 138.187 23.8347 138.955 23.088C139.723 22.32 140.822 21.7973 142.251 21.52L147.755 20.4V19.792ZM142.187 25.584C142.187 26.1173 142.379 26.5227 142.763 26.8C143.169 27.0773 143.649 27.216 144.203 27.216C144.822 27.216 145.398 27.12 145.931 26.928C146.465 26.736 146.902 26.416 147.243 25.968C147.585 25.4987 147.755 24.88 147.755 24.112V23.12L144.395 23.792C143.67 23.9413 143.115 24.144 142.731 24.4C142.369 24.6347 142.187 25.0293 142.187 25.584ZM171.21 14L164.746 30.992C164.234 32.4427 163.658 33.5947 163.018 34.448C162.4 35.3227 161.674 35.9413 160.842 36.304C160.032 36.688 159.061 36.88 157.93 36.88C157.098 36.88 156.33 36.784 155.626 36.592C154.944 36.4 154.346 36.1333 153.834 35.792L154.762 32.624C155.509 33.2213 156.448 33.52 157.578 33.52C158.197 33.52 158.72 33.392 159.146 33.136C159.573 32.88 159.936 32.368 160.234 31.6L160.778 30.224L159.018 26.064L154.122 14H158.986L162.026 23.6L162.858 26.8L163.85 23.408L166.762 14H171.21ZM173.799 30V14H177.735L177.895 17.008C178.386 15.8987 179.1 15.0667 180.039 14.512C180.999 13.9573 182.098 13.68 183.335 13.68C184.999 13.68 186.375 14.1707 187.463 15.152C188.551 16.112 189.095 17.5627 189.095 19.504V30H184.711V20.752C184.711 19.3867 184.434 18.448 183.879 17.936C183.346 17.4027 182.663 17.136 181.831 17.136C181.234 17.136 180.647 17.2853 180.071 17.584C179.516 17.8613 179.058 18.32 178.695 18.96C178.354 19.6 178.183 20.4533 178.183 21.52V30H173.799ZM202.891 19.792C202.891 18.8747 202.625 18.16 202.091 17.648C201.579 17.136 200.897 16.88 200.043 16.88C199.254 16.88 198.561 17.0827 197.963 17.488C197.366 17.8933 196.929 18.5653 196.651 19.504L192.907 18.352C193.27 16.944 194.059 15.8133 195.275 14.96C196.513 14.1067 198.166 13.68 200.235 13.68C202.326 13.68 204.011 14.1813 205.291 15.184C206.593 16.1653 207.243 17.6373 207.243 19.6V26.096C207.243 26.9067 207.627 27.312 208.396 27.312C208.758 27.312 209.099 27.2587 209.42 27.152L209.163 29.872C208.609 30.1493 207.915 30.288 207.083 30.288C206.166 30.288 205.366 30.096 204.683 29.712C204.022 29.328 203.574 28.752 203.339 27.984C202.827 28.752 202.091 29.3387 201.131 29.744C200.193 30.128 199.222 30.32 198.219 30.32C196.598 30.32 195.307 29.9573 194.347 29.232C193.409 28.4853 192.939 27.408 192.939 26C192.939 24.8053 193.323 23.8347 194.091 23.088C194.859 22.32 195.958 21.7973 197.387 21.52L202.891 20.4V19.792ZM197.323 25.584C197.323 26.1173 197.515 26.5227 197.899 26.8C198.305 27.0773 198.785 27.216 199.339 27.216C199.958 27.216 200.534 27.12 201.067 26.928C201.601 26.736 202.038 26.416 202.379 25.968C202.721 25.4987 202.891 24.88 202.891 24.112V23.12L199.531 23.792C198.806 23.9413 198.251 24.144 197.867 24.4C197.505 24.6347 197.323 25.0293 197.323 25.584Z" fill="white"/>
<defs>
<radialGradient id="paint0_radial_1_2" cx="0" cy="0" r="1" gradientUnits="userSpaceOnUse" gradientTransform="translate(16.5 15.5) rotate(155.376) scale(26.4008 26.0595)">
<stop offset="0.435224" stop-color="white"/>
<stop offset="0.437034" stop-color="#D2DEFF"/>
</radialGradient>
<linearGradient id="paint1_linear_1_2" x1="26.5" y1="5" x2="12.5" y2="31" gradientUnits="userSpaceOnUse">
<stop stop-color="#00F5BD"/>
<stop offset="0.264284" stop-color="#00D1FE"/>
<stop offset="0.600811" stop-color="#F5087F"/>
<stop offset="0.927083" stop-color="#FE9401"/>
</linearGradient>
</defs>
</svg>
