<svg width="275" height="230" viewBox="0 0 275 230" fill="none" xmlns="http://www.w3.org/2000/svg">
<path fill-rule="evenodd" clip-rule="evenodd" d="M63.1462 113.298C60.4044 113.627 58.4477 116.115 58.7758 118.857L71.3788 224.162C71.7069 226.904 74.1956 228.861 76.9375 228.533L196.215 214.257C196.233 214.255 196.252 214.253 196.27 214.251L82.1893 227.904L71.1851 135.957L190.175 121.716L189.304 114.437C188.976 111.695 186.487 109.738 183.745 110.066L108.654 119.053C106.961 119.256 105.282 118.582 104.198 117.265L99.2877 111.295C98.2046 109.978 96.525 109.304 94.832 109.506L63.1462 113.298Z" fill="#FF891D"/>
<path d="M142.717 56.307C135.746 36.2754 127.228 28.6105 126.856 24.9143C120.37 23.5133 87.2351 23.178 92.2821 38.0383C97.329 52.8986 127.827 54.1425 130.4 101.24L113.387 102.315L136.321 133.068C136.321 133.068 158.471 110.618 162.885 102.826L145.886 102.65L146.433 87.0086C146.796 76.624 146.133 66.1207 142.717 56.307Z" fill="url(#paint0_linear)"/>
<path d="M84.8585 147.537C85.2355 145.416 86.9284 143.775 89.06 143.465L166.59 132.162C168.005 131.956 169.264 131.153 170.049 129.958L176.834 119.619C177.643 118.386 178.955 117.573 180.42 117.398L212.956 113.504C216.266 113.108 219.029 116 218.483 119.289L217.362 126.027L202.593 209.915C202.211 212.086 200.452 213.751 198.263 214.013L77.018 228.523C73.685 228.922 70.9135 225.989 71.501 222.684L84.8585 147.537Z" fill="#FFC200"/>
<path d="M84.8585 147.537C85.2355 145.416 86.9284 143.775 89.06 143.465L166.59 132.162C168.005 131.956 169.264 131.153 170.049 129.958L176.834 119.619C177.643 118.386 178.955 117.573 180.42 117.398L212.956 113.504C216.266 113.108 219.029 116 218.483 119.289L217.362 126.027L202.593 209.915C202.211 212.086 200.452 213.751 198.263 214.013L77.018 228.523C73.685 228.922 70.9135 225.989 71.501 222.684L84.8585 147.537Z" fill="url(#paint1_linear)"/>
<line x1="80.9294" y1="218.534" x2="167.499" y2="208.384" stroke="white" stroke-width="1.2" stroke-linecap="round"/>
<line x1="173.977" y1="207.179" x2="179.748" y2="206.426" stroke="white" stroke-width="1.2" stroke-linecap="round"/>
<circle cx="201.15" cy="203.311" r="21.0324" fill="#0CC58F"/>
<path d="M194.129 206.581C193.511 206.029 192.563 206.083 192.011 206.701C191.459 207.319 191.513 208.267 192.131 208.819L194.129 206.581ZM198.928 212.878L197.929 213.997C198.253 214.287 198.688 214.421 199.121 214.365C199.553 214.309 199.939 214.068 200.179 213.705L198.928 212.878ZM210.201 198.54C210.658 197.849 210.468 196.919 209.776 196.462C209.085 196.005 208.155 196.195 207.698 196.886L210.201 198.54ZM192.131 208.819L197.929 213.997L199.927 211.759L194.129 206.581L192.131 208.819ZM200.179 213.705L210.201 198.54L207.698 196.886L197.676 212.051L200.179 213.705Z" fill="white"/>
<path d="M198 186C198 186 210.5 184 216.5 194.5" stroke="white" stroke-width="1.2" stroke-linecap="round"/>
<path opacity="0.2" d="M218.5 198L219 200" stroke="white" stroke-width="1.2" stroke-linecap="round"/>
<path d="M173.006 93.9125L180.269 87.2547M80 69L88 77M7.5 130C7.5 124.755 11.0129 110.284 19.8778 116.5C32 125 36.5 108.5 36.5 108.5M235.347 134.464C240.592 137.087 249.509 144.027 243.215 150.806C235.347 159.279 237.162 167.753 243.215 167.753M14.5 217.5L19.8778 225.5M149.401 6L157.875 10.842" stroke="#FFC657" stroke-width="3" stroke-linecap="round"/>
<path d="M232.5 44.7358C234.517 49.1743 228.342 54.0316 223.5 55M272.872 166.391H262.583M26 55H40M251.083 98.1491L246.241 103.596M45.9035 138.701L36.8248 147.78M89.5 6.5L99 2" stroke="#FF44A9" stroke-width="3" stroke-linecap="round"/>
<path d="M50.7455 19.9209L44.0878 27.1839M174.216 58.6569C173.611 54.6219 174.458 47.7624 182.69 52.6044C190.921 57.4464 194.997 52.2009 196.005 48.9729M223.847 168.812L228.084 179.102M2.93037 166C-0.0958775 171.447 5.95738 173.595 13.2204 176.5C20.4834 179.405 0.76351 190 16.5 190M55.4998 195.443H44.0878M2.93081 93.7613L13.2201 90.1298" stroke="#1E1E1E" stroke-width="3" stroke-linecap="round"/>
<defs>
<linearGradient id="paint0_linear" x1="137.821" y1="133.084" x2="127.31" y2="20.8289" gradientUnits="userSpaceOnUse">
<stop stop-color="#5A80F9"/>
<stop offset="0.832462" stop-color="#406DFF" stop-opacity="0"/>
</linearGradient>
<linearGradient id="paint1_linear" x1="335.213" y1="96.1824" x2="22.9043" y2="253.547" gradientUnits="userSpaceOnUse">
<stop stop-color="#FF891D" stop-opacity="0.5"/>
<stop offset="0.607867" stop-color="#FFC200"/>
</linearGradient>
</defs>
</svg>
